/* XPM */
static char *result[] = {
/* columns rows colors chars-per-pixel */
"64 64 26 1 ",
"  c #2F2C2C",
". c #111A69",
"X c #161F73",
"o c #1A237E",
"O c #795548",
"+ c #D50000",
"@ c #E60505",
"# c #F00C0C",
"$ c #EF5350",
"% c #DBA609",
"& c #FFC107",
"* c #1E2A8F",
"= c #3B4FA8",
"- c #3849AD",
"; c #3F51B5",
": c #607D8B",
"> c #4457B8",
", c #FFE082",
"< c #F5BFC5",
"1 c gray87",
"2 c #FFCDD2",
"3 c #EBD3D7",
"4 c #FFEBEE",
"5 c gray96",
"6 c white",
"7 c None",
/* pixels */
"7777777777777777777777777777777777777777777777777777777777777777",
"7777777777777777777777777777777777777777777777777777777777777777",
"7777777777777777777777777777777777777777777777777777777777777777",
"7777777777777777777777777777777777777777777777777777777777777777",
"7777777777777777777777777&&&& &&%&& 7777777777777777777777777777",
"7777777777777777777777777777&&,&&&%%% %% 77777777777777777777777",
"7777777777777777777777777&&,,&,,&&&%%%% 777777777777777777777777",
"7777777777777777777777777&&&,&&&,,,,,% 7777777777777777777777777",
"777777777777777777777&&&&&&&,,&&&&,&%%%%% 7777777777777777777777",
"7777777777777777777777&,,,4&&,&&&4,%%4 7777777777777777777777777",
"77777777777777777777,,,,&&44&&33&&,,,%%& 77777777777777777777777",
"77777777777777777777777&&4444&44333%3%%& 77777777777777777777777",
"7777777777777777777777&&&4444444443333%%%% 777777777777777777777",
"77777777777777777777&,,,&444:44444:443& 777777777777777777777777",
"77777777777777777777777&&4444444444443%& 77777777777777777777777",
"7777777777777777777777&&442224444422<3%%%% 777777777777777777777",
"777777777777777777777&&&&42224444422<3% 7% 777777777777777777777",
"77777777777777777777777& 442244$442<33% 777777777777777777777777",
"7777777777777777777777777744444444433 77777777777777777777777777",
"777777777777777777777777777444444333 777777777777777777777777777",
"7777777777777777777777777777744443 77777777777777777777777777777",
"7777777777777777777777777777744443 77777777777777777777777777777",
"7777777777777777777777777>>>>33333---- 7777777777777777777777777",
"777777777777777777777777>>;;;;;;;;;O;O-- 77777777777777777777777",
"77777777777777777777777>;;;;;;;;;;;;;;;-- 7777777777777777777777",
"77777777777777777777777;;;;;;;;;;;;;;;;;- 7777777777777777777777",
"77777777777777777777777;;;;;;;;;;;;;;;;;- 7777777777777777777777",
"77777777777777777777777;;=156666666651;;- 7777777777777777777777",
"77777777777777777777777;;=;;;;;;;;;;;>;;- 7777777777777777777777",
"77777777777777777777777;;=;;;;;;;;;;;>;;- 7777777777777777777777",
"77777777777777777777777;;=156666666651;;- 7777777777777777777777",
"77777777777777777777777;;=;;;;;;;;;;;>;;- 7777777777777777777777",
"77777777777777777777777;;=;;;;;;;;;;;>;;- 7777777777777777777777",
"77777777777777777777777;;=156666666651;;- 7777777777777777777777",
"77777777777777777777777;;=;;;;;;;;;;;>;;- 7777777777777777777777",
"77777777777777777777777;;=;;;;;;;;;;;>;;- 7777777777777777777777",
"77777777777777777777777;;=156666666651;;- 7777777777777777777777",
"77777777777777777777777;;=;;;;;;;;;;;>;-- 7777777777777777777777",
"777777777777777777777773;=;;;;;;;;;;;>--3 7777777777777777777777",
"7777777777777777777777733=;;;;;;;;;;;>-33 7777777777777777777777",
"77777777777777777777777733;;;;;;;;;;;-33 77777777777777777777777",
"777777777777777777777777777;;;;;;;;;; 77777777777777777777777777",
"777777777777777777777777777*ooX.*ooX. 77777777777777777777777777",
"777777777777777777777777777*ooX.*ooX. 77777777777777777777777777",
"777777777777777777777777777*ooX.*ooX. 77777777777777777777777777",
"777777777777777777777777777*ooX.*ooX. 77777777777777777777777777",
"777777777777777777777777777*ooX.*ooX. 77777777777777777777777777",
"777777777777777777777777777*ooX.*ooX. 77777777777777777777777777",
"777777777777777777777777777*ooX.*ooX. 77777777777777777777777777",
"777777777777777777777777777*ooX.*ooX. 77777777777777777777777777",
"777777777777777777777777777*ooX.*ooX. 77777777777777777777777777",
"777777777777777777777777777*ooX.*ooX. 77777777777777777777777777",
"777777777777777777777777777*ooX.*ooX. 77777777777777777777777777",
"777777777777777777777777777*ooX.*ooX. 77777777777777777777777777",
"777777777777777777777777777*ooX.*ooX. 77777777777777777777777777",
"777777777777777777777777777*ooX.*ooX. 77777777777777777777777777",
"777777777777777777777777777*ooX.*ooX. 77777777777777777777777777",
"777777777777777777777777777*ooX.*ooX. 77777777777777777777777777",
"777777777777777777777777777@@@@+####+ 77777777777777777777777777",
"777777777777777777777777777@@@@+@@@@+ 77777777777777777777777777",
"7777777777777777777777777777777777777777777777777777777777777777",
"7777777777777777777777777777777777777777777777777777777777777777",
"7777777777777777777777777777777777777777777777777777777777777777",
"7777777777777777777777777777777777777777777777777777777777777777"
};
