/* XPM */
static char *result[] = {
/* columns rows colors chars-per-pixel */
"64 64 210 2 ",
"   c #070D07",
".  c #080E07",
"X  c #090F09",
"o  c #0D130B",
"O  c #0B1007",
"+  c #11160D",
"@  c #13190E",
"#  c #141B11",
"$  c #1C1E15",
"%  c #171B14",
"&  c #17200F",
"*  c #152514",
"=  c #1B2315",
"-  c #152B15",
";  c #1B2C16",
":  c #1D2419",
">  c #152B18",
",  c #1C2C1A",
"<  c #15241A",
"1  c #1C3116",
"2  c #1E321A",
"3  c #173016",
"4  c #23241D",
"5  c #2B251D",
"6  c #222C1B",
"7  c #222E16",
"8  c #213417",
"9  c #22341B",
"0  c #2A361D",
"q  c #253A1D",
"w  c #293D1E",
"e  c #2B2D23",
"r  c #262921",
"t  c #352727",
"y  c #352728",
"u  c #3A2C2A",
"i  c #233421",
"p  c #2A3622",
"a  c #263B22",
"s  c #2B3D23",
"d  c #2C3328",
"f  c #2C3D29",
"g  c #33332A",
"h  c #393929",
"j  c #3D3B30",
"k  c #422F25",
"l  c #433125",
"z  c #483826",
"x  c #543B28",
"c  c #593D28",
"v  c #473E31",
"b  c #2C411E",
"n  c #30441F",
"m  c #274023",
"M  c #2D4224",
"N  c #2E4329",
"B  c #2F492C",
"V  c #314525",
"C  c #354A26",
"Z  c #32452A",
"A  c #354B2B",
"S  c #394E2C",
"D  c #3A4A29",
"F  c #3B512D",
"G  c #3B4332",
"H  c #364B31",
"J  c #394E32",
"K  c #3C4F39",
"L  c #3D5333",
"P  c #3D5339",
"I  c #3F583B",
"U  c #5B422E",
"Y  c #42552F",
"T  c #484937",
"R  c #544433",
"E  c #52443A",
"W  c #5C4936",
"Q  c #415634",
"!  c #435936",
"~  c #42563A",
"^  c #4F523A",
"/  c #455B3B",
"(  c #495E3D",
")  c #485435",
"_  c #59533A",
"`  c #454428",
"'  c #6A462D",
"]  c #64442C",
"[  c #6B4D35",
"{  c #6C4F39",
"}  c #644A35",
"|  c #754D32",
" . c #63543B",
".. c #765236",
"X. c #7D5235",
"o. c #74553A",
"O. c #7A563B",
"+. c #7F593C",
"@. c #4A613E",
"#. c #486139",
"$. c #445940",
"%. c #4A5F41",
"&. c #5E5142",
"*. c #505D42",
"=. c #595848",
"-. c #645D44",
";. c #6A5B45",
":. c #775D43",
">. c #4C6343",
",. c #4D6447",
"<. c #526344",
"1. c #516847",
"2. c #5C654A",
"3. c #536A4A",
"4. c #5A6A4B",
"5. c #5C6A50",
"6. c #636B4E",
"7. c #69604A",
"8. c #7B614D",
"9. c #776248",
"0. c #7A6D57",
"q. c #6D7356",
"w. c #696E55",
"e. c #7B7761",
"r. c #797A64",
"t. c #686861",
"y. c #835536",
"u. c #875837",
"i. c #885837",
"p. c #81563A",
"a. c #855A3B",
"s. c #895938",
"d. c #845D42",
"f. c #856346",
"g. c #8A6142",
"h. c #8C6C4C",
"j. c #88634A",
"k. c #866A56",
"l. c #8E725E",
"z. c #8D7455",
"x. c #937553",
"c. c #987D5B",
"v. c #94775A",
"b. c #8C7C61",
"n. c #8C7463",
"m. c #967B66",
"M. c #7E8062",
"N. c #89886B",
"B. c #94826C",
"V. c #9A896A",
"C. c #9B8372",
"Z. c #9F8B7D",
"A. c #9C9475",
"S. c #9B997A",
"D. c #A38C69",
"F. c #A38A67",
"G. c #A9936F",
"H. c #A48E7E",
"J. c #A49573",
"K. c #AC9975",
"L. c #A39B7B",
"P. c #A99B78",
"I. c #B19C77",
"U. c #A9A17E",
"Y. c #B4A27C",
"T. c #A69386",
"R. c #AE9B8D",
"E. c #A99484",
"W. c #AB9C92",
"Q. c #B09E91",
"!. c #B6AA86",
"~. c #BBAB84",
"^. c #B4AA88",
"/. c #BBAF8A",
"(. c #B5A681",
"). c #BDB28E",
"_. c #B2A093",
"`. c #B5A69C",
"'. c #A8A39D",
"]. c #AEABA3",
"[. c #BCAEA3",
"{. c #B2A9A2",
"}. c #BDB1A7",
"|. c #BDB8B0",
" X c #93908A",
".X c #C3B58D",
"XX c #C9B88F",
"oX c #C1B591",
"OX c #C7B991",
"+X c #CBBD93",
"@X c #C1B5AB",
"#X c #C6B9AF",
"$X c #C8BCB3",
"%X c #CEC096",
"&X c #CEC19A",
"*X c #D1C297",
"=X c #D5C69A",
"-X c #D7C89C",
";X c #D8C99D",
":X c #C9C1BA",
">X c #D0C4BC",
",X c #CFC7C1",
"<X c #D3CAC3",
"1X c #DBD3CC",
"2X c #DED6D0",
"3X c #E5DCD5",
"4X c #E7DED8",
"5X c #E8DFD8",
"6X c #E1D7D0",
"7X c #E9E0D9",
/* pixels */
"9 2 F L S N ( ! F N Z f L >.L Q ( q C L V 8 F Y D w 8 A 1.C q C V F C L b A S A V b ! C C S w C C M J V L L C L ! C 2 a A q a ( ",
"Z N L s S D S ( Q s s s s I L S P 9 V L J S M n n C S C C F w M L S 1 L C S V L q S V S Q w C F S D S b C S M w 1 V A 3 9 L 8 / ",
"S Z A 9 >.Q S Q J N q F Z ~ @.J a Z / S ( ( V Z b q C S S Z N - N H - 9 F C F C M L S L Q S S ! C F S F ! M q m Z 1 a 9 - M D L ",
"L C s * s V F a M p N p N q ~ a M A M m w L J V q C F 2 - i s 2 Z V m q C C F C V V A b V C n F n S / V L b 2 m ~ q q L a 1 S S ",
"V w F S L w L Z A , 2 ~ >.S ( L q w V 2 2 b C q V V ! ! m ; > 3 q m a M q q S - Z 9 B B V b A S 9 w w C D L - 2 #.S D A s 9 C M ",
"s w S s f f H f i i 6 J w M F Q F w L L S C C 2 8 V Y S M i - > P a > 9 C Q b q Z 2 L N - F F M 3 ; q C F M - 1 F Q F S C Z w m ",
"p , ; L 7 d > < < N I P J N s M q q L L >.L b V ; a V w b S M C m 3 V w S C b S C A C i - I A 9 > - q S V S q m L J C V C 3 2 M ",
"; P A ~ / / Z s $.P s P %.J q ; 9 w s V C #.C F 1 ; q w B S ! / / A ( Y s Q q.M.6.4.! C S S Z q Z L L S F M L a >.w C C F m b M ",
"s L J f i Z K A i < i J L B q 2 9 L w 8 C C B M N 6 9 m 2.9.O.d.d.X.O.:.;.OX-X-X-X%XU.w.V D S q , > > B I 3 2 L Z $.2 A B A S / ",
"C J L s i i 9 N K ,.>./ a J S 2 a L / >.4.S.L.L.q.A M _ +.i.i.s.s.s.s.i.X.=X-X-X=X-X-X+Xr.s s 6 a a a > #.H a / S A I b V m B b ",
"s S C A ,.%.L N < f ,.a #.I F m C L ! @.!.-X-X-X-XP.O.a.u.s.s.s.s.s.s.s.s.V.=X=X .b.%X-X=Xr.# # > f I a L L L #.>.Z L L M 1 B m ",
"Q L ; a p i L 2 Z F A >.H #.S V V S / N.-X-X-X-XP.p.s.s.s.s.s.s.s.s.s.s.s.p.c.=XE l ;.+X-XE.< + * r s H I A ! ! A / L >.b w L w ",
"7 L Z V 9 s p i 2 C L V B >.C L A Q ( OX+XR (.J.X.i.s.s.s.s.s.s.s.s.s.s.s.s.i.p.z k k v.-XoXr o @ , 0 * Z Z #.@.F B N I N m 1.>.",
"A Z S Y H q 9 p q 2 m M >.I L I / V *.;Xb.l 9.a.a.i.s.s.s.s.s.s.s.s.s.s.s.s.s.s.y.z l 0.-X&Xe o o % 6 w C L I ! ! L V b a A @.~ ",
"$.! D S Z J > M M 3 a A L ( #.>.Q V 2.*XR z O.i.s.s.s.s.s.s.s.s.s.s.s.s.s.s.s.s.s.y.k J.-XoX4 + + @ : J ! ! >.#./ F V 2 M M Z S ",
"9 L ~ ( ~ ~ 2 9 M 2 9 a Z M S #.C J Z /.v x s.s.s.s.s.s.s.i.s.s.s.s.s.s.s.s.s.s.s.s.a.XX=Xq.+   . o = 0 F I A b b 2 9 s b M C M ",
"i * i Z q w s q 9 ; 8 s s V S V F S 9 A.A.X.u.i.s.s.s.s.s.s.s.s.s.s.i.i.s.s.s.s.i.i.i.c.L.4 o O   o = 7 q C S V V V A A L q V F ",
"f i 9 w V C 0 - 9 M S S D V C V ! F L 2.P.i.s.s.s.s.s.s.s.s.s.s.s.s.s.i.s.s.s.s.s.i.i.y.=.+ @ O o @ = , C F C F S S S L F b M / ",
"M L P P J N q * 9 s q q V q F F #./ ! ( -.s.i.s.s.s.s.s.s.s.s.s.s.s.i.i.s.s.s.s.s.s.s.s.R + + O $ 6 s V S M L F M w A ! / b C #.",
"C M a ; q s q 9 s 1 V M S L A F A / @.#.T s.s.s.u.s.s.s.u.X.X.X.i.s.] U X.s.s.s.s.s.s.i.} o + + + = S ( F C / Q L q ( F 1.n L / ",
"#.L M N s 9 1 S s V ~ m S F / L C >.#.F ` u.i.i.z 5 X.c.~.;X;X+X/.z.4 5 x s.s.s.s.s.s.s.] . o # + = D ) Q Q ( S @.b >.b / C P S ",
"/ 1.>.S M s 9 @.C #.Z 9 F L I S / L L M ` u.s.i.' 5 J.;X=X-X-X-X;X;X7.5 ' s.s.s.s.s.s.s.[ . . @ # = 0 w M Q ! F >.1.>.1.@.Q C F ",
"S L >./ w q V / #.#.I b C S A M M A w i ^ s.s.s.i.:.=X=X(.B.V.=X-X-X)...i.s.s.s.s.s.s.s.R o o . @ & 8 V S / ( / C L F C Z C M C ",
"F H q A Z q s C F L L V C I L #.N A C / 2.s.s.s.u.K.-X!.u t y E -X-X-Xx.s.s.s.s.s.s.s.i.g @ . + @ & 0 V F F V 9 - M M s V w V V ",
"B L B L #.I H m Z F #.#.b m F I >./ Z S L y.i.s.y.Y.;X.Xu y t &.-X-X;XF.i.i.i.i.s.s.s.:.% % + # @ = 7 w V C ! F M q i ; L Z Z A ",
"@.I >.V b @.#.V A / / >.V q A S / #.@.#.C 9.s.s.y.~.=X=XV.t E *X-X-X;XD.y.i.s.i.s.s.s.W + + @ = % 6 s s L V C C A p * < s L 2 ; ",
"@.>.#.L L >.>./ M ,.m ,.F B I ! S F b L b _ u.s.i.F.;X=X;X.X+X;X-X-X-XV.i.s.s.s.i.s.d.r + + o = 6 s 6 a C @.~ ~ / J H N s J A A ",
"@.L I m >.S L / M P b ! n S L #.F C C q b Y  .u.i.u.I.;X=X;X=X=X-X-XY.a.s.s.s.s.i.d.x % % X o 4 6 p q C L m %.! ( %.K H s q s s ",
"I 2 1 V L #.L b J A A N a N m 2 F L #.q w F @.k.i.i.s.x.Y.XX+XOX.Xc.y.s.s.s.s.s.a.8.: + @ o # 6 0 h A > $.Z f N J #.>.( L J Z s ",
"B > - q a L Z s m a a M m M C 2 1 C ! q 8 4.].1XT.p.s.s.a.s.g.g.y.s.s.s.s.s.i.B.#X2X$X Xe o @ 6 0 A s , s $., f M Z b F S w 0 D ",
"L m B 2 N m 9 F M 2 ; M 2 2 L ! n n C ) _ @X7X7X4X@Xn.X.s.s.s.s.i.s.s.s.y.c.@X1X7X7X7X4X'.g @ = i 9 a , J s 2 2 N I F F @.>.~ C ",
"L #.b 3 B / I L A A Z q N H @.V F F _ u.s.B.7X7X5X5X5X1X}.`.Q.E.m.l.l.R.<X5X5X5X7X7X7X7X7X].: # = p p , H H > 2 L A ! #.F V S / ",
"! >./ #.1.! L >./ A s N B $.#.L L  .a.s.s.s.[.5X7X7X7X7X7X7X7X7X7X7X5X7X7X7X7X7X5X7X7X7X7X3Xt.% % i d a 9 V w M / ,.,.@.L H / #.",
"L F / I L I >.>.C N i H M L A A ) a.i.s.s.i.d.>X7X7X7X7X7X7X7X7X7X7X7X7X7X7X7X<X#XR.C.C.T.T.{.r % : r i s S M L ~ ~ V ( 9 a L A ",
"B V ! b 3 2 $.A 2 m M ,.B A L A _ i.s.s.s.s.i.C.7X7X7X7X7X7X7X7X7X7X7X7X5X5X@Xd.X.a.s.s.y.i.k.G + = = , f m V S ! M a q 9 F L A ",
"@.m ! B S @.I a L @.#./ q M F I o.i.s.s.s.s.i.a.,X7X7X7X7X7X7X7X7X7X7X7X7X1Xd.i.s.s.s.s.u.a.i.U X # % 6 p H Z w / V C M V S b I ",
"B >.S L I B m N a M M S 9 a A ,.X.s.s.s.s.s.s.s._.7X7X7X7X7X7X7X7X7X5X5X7X#Xp.i.s.s.s.s.s.s.s.p.$ o + 6 p Z ( V q 3 w 9 ( C M >.",
"A #.L H a 3 2 A m 3 3 M i 3 J P y.s.s.s.s.s.s.s.R.7X7X7X7X7X7X7X7X7X7X5X7XW.a.s.s.s.s.s.s.s.s.g.4   o : d A s / a N b b S / J / ",
"M A I M 1 m M 2 S A S w N a ! 3.p.s.s.s.s.s.i.a.>X7X7X7X7X7X7X7X7X7X5X5X5XE.i.i.s.s.s.s.s.s.i.| % + + # 0 6 s / q 9 m q M S A L ",
"b b L L / M q B I M ~ 2 i L L m ;.a.s.i.s.i.i.k.3X7X7X7X7X7X7X7X7X7X5X5X5XR.s.s.s.s.s.s.s.s.i.v + + + # : s 0 9 s 1 2 C V q s I ",
"L C V #.B - 1 / F F F M q / ^ <.1. .i.i.s.i.u.| n.3X5X5X7X7X7X7X7X7X7X7X5X$Xd.s.s.i.i.i.i.i.y.e . . + = 4 0 s s 1 q 2 Z J H 2 L ",
"A A M L L m M A S F V M G +.s.s.X.j.k.i.s.y.| a.s.m.5X5X7X7X5X5X7X7X7X7X5X5X@Xl.d.y.y.y.y.p.u + o O o o @ s s S s 9 M C >.( H 2 ",
"F L b B / S Z b M F C P O.a.u.s.i.s.d.] ' y.i.i.s.i._.6X7X5X5X5X5X5X7X7X5X5X1XR.{ X.y.y.p.X.] c U v $ 4 7 7 s V S q s L >.H ( H ",
"L #.>.m A 2 A A w L L N.%XOXK.f.i.s.s.s.i.s.s.i.s.s.a.j.T.[.>X2X4X<X@X`.E.n.d.y.i.i.i.i.s.s.s.i.i.y.{ 7 0 p Z q J V 9 ~ ( ! q q ",
"L a H B 3 a a M M L ! ).-X-X-X-XD.a.s.s.i.s.s.s.i.s.s.s.s.s.i.X.X.y.s.s.s.s.s.s.i.i.s.s.i.a.j.x.f.+.X.z o # f f J w M A ! I M V ",
"J a a m - N H m V L / ).-X-X-X-X=XD.s.s.s.s.s.s.s.s.s.s.s.s.s.s.s.s.s.s.s.s.s.s.s.s.s.i.z.XX-X-X-X+XP.&.o # , 7 V J q A ! ! M V ",
"S B - 2 3 J B F H C M ^.-X-X-X-X-X~.g.s.s.s.s.s.s.s.s.s.s.s.s.s.s.s.s.s.s.s.s.s.s.s.s.O.+X;X;X-X-X-X=X).  o + $ e s A C 1 w M L ",
"P - - a m L J L C F M N.-X-X-X-X-X%Xg.s.s.s.s.s.s.s.s.s.s.s.s.s.s.s.s.s.s.s.s.s.s.s.i.G.;X;X;X-X-X=X=XA..   o + * 9 2 q 9 >./ >.",
"A - , i 1 q - B ~ ! w 6.*X-X-X-X;X-Xh.s.s.s.s.s.s.s.s.s.s.s.s.s.s.s.s.s.s.s.s.s.i.i.g.+X-X-X-X-X-X-X=X2.o .   o # 9 A ~ #.>.#.>.",
"q M V L w 9 2 9 L ( M L !.-X-X-X=X;Xc.i.s.s.s.s.s.s.s.s.s.s.s.s.s.s.s.s.s.s.s.s.i.u.x.-X-X-X-X-X-X-X+Xe + +   o < N ( ! >.P M ! ",
"a C F F m i 2 ; Z A L / q.=X-X-X=X;XF.s.s.s.s.s.s.i.i.a.d.p.X.y.s.s.s.s.s.s.s.s.i.s.x.-X-X-X-X-X=X;X/.: # + o = 0 D C L a m M / ",
"s V F b S q q 3 F L J >.3.L.-X-X;X;XK.i.s.s.s.s.s.a.} g $ $ j R } } } { [ y.s.s.s.s.c.-X-X-X-X-X;X;XE.: + + o = Z J s - - V >.L ",
"C 0 V w F w q C @.L w ~ M 1..X=X-X-XY.i.s.s.s.i.| j o # o o @ @ # # 6 6 o v u.i.i.s.x.;X-X-X-X-X;X=Xe.o o   # : a m @.I A L H q ",
"S S s w L Q S / S b S L M L 6.OX;X;XP.i.s.s.u.W 4 . . o # + 4 6 @ = Z p = 4 W u.s.s.h.;X-X-X-X-X=X%Xj # + % : f f 3 a I I M 1 L ",
"V Y S L ( Y #.! q A ! #.I L ~ *.A.!.h.a.y.[ e o + % + o % i p p 4 i A A f w w W y.i.g.*X-X-X-X-X;XN.# + o # % p H N 2 H I L B L ",
", 9 %.L M w / @.>.#.@.L I C ( J ) ) ;.:.R d % # + : $ % 6 G S 0 9 s 0 J w Z s m  .y.a..X-X-X-X;XOXG   + % * 6 p s Z 2 > a N #.H ",
"Z s ,.> q q >.#.I >.M S w M J L Y F V s 7 : : : 4 $ 6 = p s Z s V K ~ Q S F V L / h _ c.+X+X%X!.^ @ o @ % % 6 H w L 2 q A V D @.",
"P a H 2 b L I F F C q 9 F A H / w w S D 0 6 : 6 w 0 0 s L 6 * * < , A L @.L I P s q S 9 7 7 : % + = = % , f h f A m 9 L m Q V #.",
"Q ~ L 2 M M M F F L B a 1 m A L V 9 w D C s @ 0 s D V w f H Z i A 9 M %.( / F A q s q 9 9 0 = = # , 6 = , 6 Z L C q H C ~ F V M ",
",.( M m 2 2 q S A J S - ; Z F S ~ ; 9 q ~ q > 7 Q V V Z M s 9 9 : C L / M ~ L A s a , p p w w 0 f f , < 0 / / V L s s Z L I ! F ",
"( q 9 w b B A S A F F q S C M M Q 9 s S S > p Z D Q Q V 2 a ~ ( Q Q / S S C S H A > < i 9 q S S Z 9 > , / L S M A N M M S I Z F ",
"F a s M ! F I F L S Z Z F C S F Q M Z D V C b D F V / Z 2 M M C F L F A V M q Z ,.p , p S D F F V = Z %.>.L S M M A A M w #.S S ",
"L a N 2 ! F ! Q ! ( / C V F D b s s L Q L C s > 0 Z ( ( P S w 9 ; s M C M C V s L K > 8 8 s w V Z s 9 s 1 s V ! I L V L 9 S F S ",
"F 3 C 9 ~ L 8 / q H L V V w b F L Q C ( C S V s s L V f L C M V q Q ; s V / L w Z L Z D / n J = 7 s , ; M C C C ; N M C I C b b "
};
