/* XPM */
static char *result[] = {
/* columns rows colors chars-per-pixel */
"64 64 93 2 ",
"   c #090F06",
".  c #0A1007",
"X  c #0D150B",
"o  c #0F1C0E",
"O  c #10160D",
"+  c #121A0E",
"@  c #151D11",
"#  c #14220F",
"$  c #152413",
"%  c #1A2414",
"&  c #152B14",
"*  c #1A2B15",
"=  c #152319",
"-  c #1B2418",
";  c #152B1A",
":  c #1D2C19",
">  c #173016",
",  c #1D3116",
"<  c #1E321A",
"1  c #202F17",
"2  c #212D1A",
"3  c #213416",
"4  c #243816",
"5  c #22341B",
"6  c #28361F",
"7  c #253A1D",
"8  c #293D1E",
"9  c #2F2C2C",
"0  c #223521",
"q  c #283522",
"w  c #263B22",
"e  c #2A3D22",
"r  c #2B3D29",
"t  c #303F26",
"y  c #2C411E",
"u  c #30441F",
"i  c #274022",
"p  c #2D4224",
"a  c #2E4329",
"s  c #2F492C",
"d  c #314525",
"f  c #354A26",
"g  c #384E26",
"h  c #32462A",
"j  c #354B2B",
"k  c #394E2C",
"l  c #3C522D",
"z  c #354530",
"x  c #364B31",
"c  c #394E32",
"v  c #3C4F39",
"b  c #3D5333",
"n  c #3E5339",
"m  c #3F583B",
"M  c #405634",
"N  c #425935",
"B  c #41563A",
"V  c #445B3B",
"C  c #485E3D",
"Z  c #486237",
"A  c #47603B",
"S  c #4A613D",
"D  c #111A69",
"F  c #161F73",
"G  c #1A237E",
"H  c #455C41",
"J  c #4A5F41",
"K  c #795548",
"L  c #4C6443",
"P  c #4F6845",
"I  c #4D6248",
"U  c #506546",
"Y  c #516847",
"T  c #526948",
"R  c #D50000",
"E  c #E60505",
"W  c #F00C0C",
"Q  c #EF5350",
"!  c #DBA609",
"~  c #FFC107",
"^  c #1E2A8F",
"/  c #394BAB",
"(  c #3F51B5",
")  c #607D8B",
"_  c #4457B8",
"`  c #FFE082",
"'  c #F5BFC5",
"]  c gray87",
"[  c #FFCDD2",
"{  c #EBD3D7",
"}  c #FFEBEE",
"|  c gray96",
" . c white",
/* pixels */
"5 < l b k h J N l h h r c J M M C 7 h l f 5 M M u u 3 k L f 7 j d l f b y j k k d u M f f k 7 g f t k d l b g b M j < w j 7 7 S ",
"h a b e k k j C b e e e e B b k n 5 d M M h d 8 u f k d f l 8 p l k < k f g s c 7 k d k N 7 f k k g k 8 d j d 8 , d h < < n 4 N ",
"k d j 5 L l l M v h 7 k h N S c 7 h V k V C d f d 5 d k k j a & h k & 7 l f l g y b j n M k k M d M k M N a 7 i h , w 5 & a k b ",
"M j e $ e d l 7 p 6 a e a w n e p j a i 8 b c t 4 g l 3 & 0 e < s a e 0 d f l f d d k p d f d M u k N u N y < i N 6 5 b w 3 j k ",
"d 8 l k l 8 n h x : : B J k V M 3 y a 3 , 8 j 5 t d N N 7 & & & 5 w 5 e 3 6 f & f 5 h a d y f j 5 8 7 g f b & < A k g j w 3 f d ",
"e 8 k r r t z r 0 2 5 n y a k M b 8 b b k g f 5 3 ~ ~ ~ ~ 9 ~ ~ ! ~ ~ 9 8 h 3 < r * x e & l l a < * 6 g l p & < l M l k f h 8 i ",
"q : * b 2 r - = = z n b c h r p 7 7 k n P b u d , w d 5 ~ ~ ` ~ ~ ~ ! ! ! 9 ! ! 9 e 7 5 & b k 5 & & 7 g f j < i c c j y f , < a ",
"* n h B V V h e H n e n J k 7 * 6 8 8 d f A f l , ~ ~ ` ` ~ ` ` ~ ~ ~ ! ! ! ! 9 2 6 e e s k s 7 h b b k b p n 7 L 8 j f l y y i ",
"e M k r 0 h v j : = 0 v c s 7 < < N 8 4 g f p p a ~ ~ ~ ` ~ ~ ~ ` ` ` ` ` ! 9 $ % % 5 e 8 k M 5 > ; ; s b < < b j H 5 k a j k B ",
"f c b e 0 0 5 r v I L V w c g < 7 b V S T ~ ~ ~ ~ ~ ~ ~ ` ` ~ ~ ~ ~ ` ~ ! ! ! ! ! 9 $ q c f f 5 i w w & L j w V k j m w s y h y ",
"8 k h j I J B a & r L w V m l i h n M N N d ~ ` ` ` } ~ ~ ` ~ ~ ~ } ` ! ! } 9 @ O + 2 r r 8 : ; 0 a A i b b b A L j b b a < j i ",
"M M : e q 5 b : z l j P c A g s d l N S ` ` ` ` ~ ~ } } ~ ~ { { ~ ~ ` ` ` ! ! ~ 9 + * + & w e ; < s s x m s N m j B l L y 7 b y ",
"2 M d t 0 e 7 0 < f b a j L d l j M M S L b e ~ ~ } } } } ~ } } { { { ! { ! ! ~ 9 + @ 2 7 8 M 5 y g s & h f V S l s h B a p P L ",
"j d k M k 6 5 e 7 < p p L m b m V p g f k e ~ ~ ~ } } } } } } } } } { { { { ! ! ! ! 9 2 3 3 d d < f l y g b b A N b h 7 7 j A m ",
"H M f k h c * e a > w j b A S L M f f y ~ ` ` ` ~ } } } ) } } } } } ) } } { ~ 9 + @ % $ 6 t f k d p a L S A P S V l d , i p h j ",
"2 M V C B B : 7 i < 5 7 j a g A f k 7 7 & * e ~ ~ } } } } } } } } } } } } { ! ~ 9 + - : % 6 f : 5 7 8 y b b f y y , 7 y y a j p ",
"0 @ 0 h 5 8 a 5 5 : 3 e t d j f l k 5 3 d f ~ ~ } } [ [ [ } } } } } [ [ ' { ! ! ! ! 9 q r e a < & & 8 7 7 f k f d f j f b 7 d k ",
"r 0 5 8 d j 7 & 5 a k k f u f p N l b p j ~ ~ ~ ~ } [ [ [ } } } } } [ [ ' { ! 9 @ ! 9 @ r p k 4 , < 7 , j l f k f k k b b y p V ",
"a b b n c d 6 & < e 7 5 d 7 l l C V N V a * e ~ 9 } } [ [ } } Q } } [ ' { { ! 9 + - % 2 3 h j 3 g N g f k d M k d e k N N y g S ",
"f d e * 6 e 5 3 e 1 f e k b k l j V S A y j d p 7 5 } } } } } } } } } { { 9 = O O * @ 6 e t l p 3 4 V S j g V M b 5 V l P d l V ",
"A l a s e 5 , k e d V e g l V b h L A l d y j L N b c } } } } } } { { { 9 - 2 X + & : 7 f 7 p Z 3 7 N N N M C k S y L y V j b k ",
"V P L c p e 5 S f A d 7 b b V g V b l s p d y j b S L e 3 } } } } { 9 @ @ - % @ % 0 e M b , 7 l p 8 d e 8 N N M L Y L T L M f l ",
"j b L B y 4 d V N A N w j g s s a j 7 5 n f l b P N h # a } } } } { 9 % @ 2 2 6 5 r l b B y e 3 7 3 8 h k M V N j l k f f h p f ",
"c l 5 j j 7 e j b b N f j b b A a j h V V a g N b _ _ _ _ { { { { { / / / / 9 2 5 e k 4 B B 8 8 e 5 8 j M M d 4 * a e e f 8 d d ",
"a c s l L m k y h l A V y p k m S V f g j 7 d j _ _ ( ( ( ( ( ( ( ( ( K ( K / / 9 q q - e J k M q 3 7 7 d f M l i 5 0 : l k j j ",
"S A L s 7 A V f j V A L a y g s V S S A d 8 f _ ( ( ( ( ( ( ( ( ( ( ( ( ( ( ( / / 9 @ @ h x M Y e d e r b d g f k e = = a k 5 $ ",
"S L A b b L L V p P y L l a m b g l y b y j g ( ( ( ( ( ( ( ( ( ( ( ( ( ( ( ( ( / 9 O = e h 8 L M k 5 8 d S N B V b z r e b j h ",
"S c m p L l b V e n y m p k b A l j g 4 y l l ( ( ( ( ( ( ( ( ( ( ( ( ( ( ( ( ( / 9 . @ q q 7 S h d 7 h b p L B C V n x w 6 8 t ",
"A < > s b V b y b h k a 7 s p , c b Z 4 8 l l ( ( / ] |  . . . . . . . .| ] ( ( / 9 . @ 2 3 h M r k j $ H h r a c V L C v c f e ",
"s ; & 7 7 n h e w e < s i p g , < f N 7 4 l l ( _ / ( _ ( ( ( ( ( ( ( ( ( _ ( ( / 9 . @ q 1 7 f e M r 2 e H * r a f y l k 8 7 h ",
"b y i < s i 7 c a , , a < < b V u y g p d g l ( ( / _ / ( ( ( ( ( ( ( ( ( _ ( ( / 9 O + q e 7 8 d 5 w : c e < < p M l l C U B g ",
"b Z i < h N N b j j a 5 a k S d l g f 7 e l k ( ( / ] |  . . . . . . . .| ] ( ( / 9 O @ - 1 a 5 : a w * x x = < n k N S l d k N ",
"Z P A A L m b L V k e a a L S l l 4 a l 7 j g ( _ / ( ( ( ( ( ( ( ( ( ( ( _ ( ( / 9 O @ 2 z B j e k z e 5 d 8 a B L P S b x V A ",
"l s V N b m L L d a 5 x i b g f g p , j b 5 k ( / / ( ( ( ( ( ( ( ( ( ( ( _ ( ( / 9 O @ 2 B N S h v h 8 p k a b N N h V 5 w b j ",
"s d m y > < A x < p a L s x m s i n B b a j N ( _ / ] |  . . . . . . . .| ] ( ( / 9 O O 2 6 V S h C h 8 j i a l V p 7 6 5 b b j ",
"A p A a l A m w b S A N 7 a l m 7 N g l g a i ( _ / ( ( ( ( ( ( ( ( ( ( ( _ ( ( / 9 @ @ @ 6 c 5 p M f c a x f y V d j y s g y m ",
"s L b n m s i a w p p j 5 0 k c e 5 i l b f 5 ( / / _ / ( ( ( ( ( ( ( ( ( _ ( ( / 9 O @ @ 1 t d : p d l b b S p 5 > 8 4 V d f C ",
"h V b j w ; < j i > > a < ; b < j i n e 7 l 0 ( _ / { |  . . . . . . . .| ] ( ( / 9 O O O 2 M 6 * 5 p M V M p C p h 8 8 l N c V ",
"p h N p < i p < g s j y s e m L V f V 7 a j > ( ( / ( ( ( ( ( ( ( ( ( ( ( _ ( / / 9 X O + k 8 6 w k M p V d e B < 7 i 7 p k c b ",
"7 8 N b V a 5 j N a N < 7 b c i m m h 5 g b f { ( / ( ( ( ( ( ( ( ( ( ( ( _ / / { 9 . + 6 2 4 M V V j j d k 5 6 e < 5 j p 7 e M ",
"b g d V j & , N l l l d 7 k k b m y i < a e 5 { { / _ _ ( ( ( ( ( ( ( ( _ _ / { { 9 . O % 1 8 M 3 5 f M p 8 e a : 7 < h l c < n ",
"g j p b b i a c k l d i e i i p y d < & 7 , j V { { _ / ( ( ( ( ( ( ( ( _ / { { 9 . - - % 4 M M p w 5 * : i d k i 5 p h L V x < ",
"b N y s V g h y d l j x p < 7 g s m A A x b J v t h x _ ( / _ ( ( / ( ( _ 9 @ + @ 2 2 t M M g M l f h b 8 3 y d k 7 e b J c V x ",
"N m L 7 j < s k 4 N b k j N e a g l s < 5 0 * 2 d B 6 ^ F ^ F D ^ ^ F F D 9 @ + 1 2 6 6 4 4 M t y y 7 8 l l l 8 c d 7 B C M 7 8 ",
"m < x s ; 7 w a p l N h , 8 < d L A A p 0 s c a h j k ^ G G F D ^ ^ ^ D D 9 O O % 6 f M 8 t g u k k p 5 ; > m j b y p j N M h h ",
"l w i i & s j y d b V j d j l b b y d j x a q r e h e ^ G G F D ^ F F F D 9 O O % 8 u M M M g 8 N y e < ; i j s l n 7 j N N p a ",
"g s ; 0 > c s l k j i b l p w g k L V b c v 0 < = 0 M ^ G G F D ^ ^ F F D 9 O O 6 t u t 4 g u M g k a 5 ; i y a j a k h , 8 p b ",
"n & ; 0 i l x b j l p b k e a c j f A V b b V H h k J ^ G G F D ^ F ^ D D 9 O @ 6 1 t M f 8 M g M f 7 f < 5 e 0 < e 7 5 5 S V L ",
"j $ < 0 < 7 & j B b y y , 5 i a j B C B * # 3 p d e h ^ G G F D ^ G G F D 9 + + 2 q d f f g g M k d p k k : < ; & w k V A S S P ",
"7 p h b 7 5 < 5 n L d a i 7 p j h k n b B k b b 7 < e ^ G G F D ^ G G F D 9 @ + 2 t 8 1 8 8 f 8 b 3 d M k b & & < k S m A m p N ",
"8 h l l 8 0 , : a j l V b 8 7 j B V N M b f e b B j a ^ G G F D ^ G G F D 9 @ @ + 1 2 6 3 g b 7 M U M M V b e f l l g c w y p V ",
"8 d l y l 5 7 < l b b L S j d j d l k C P N a % : * 5 ^ G G F D ^ G G F D 9 + % @ 8 j g f k p k h k f l c j 5 h V V y > & s L b ",
"k 5 d 8 M 7 8 f S b 8 V p b L i d p j l V M j 0 = 2 t ^ G G F D ^ G G F D 9 + @ 2 8 f 8 3 e % h e N C k w 5 a j s s L n s b j 7 ",
"k k e 8 M M f S j p g b f b h d k k V c f C S V v e 2 ^ G G F D ^ G G F D 9 O % 1 1 2 t * t b l 7 6 f b M V V J s < < m m a < l ",
"f k k M V M V N 7 j A N N b B b g g l C 8 3 h h V V v ^ G G F D ^ G G F D 9 O + 2 % 8 8 x * f d k k c b k j d M b s < x m c s b ",
"2 5 J b u 7 N S L A L b V h V k M l M b v b b j h I x ^ G G F D ^ G G F D 9 O O 2 e t M M c d 5 e a 7 b J V b h p h < > w s V k ",
"h a I & 7 7 L A m L p g i e b b M g f f 1 q z c M d k ^ G G F D ^ G G F D 9 + 1 q % e k 3 d k c V N j b V a d n y m < 7 l y g L ",
"b w x < y b m b l f 7 4 b k x B 8 8 M g e 5 r h N l d ^ G G F D ^ G G F D 9 @ @ % * h 5 7 d k f e S N b L P B h j y 5 l y n d A ",
"M B b < a p p l l b s 0 , e k b d 5 8 j k t # 7 k l f ^ G G F D ^ G G F D 9 @ @ @ 5 6 0 4 e 6 5 5 n N p d i k B s 7 j f V b d y ",
"P V a 7 < < 7 l j c c & & j l f B 1 3 6 M 5 * 2 M f d E E E E R W W W W R 9 @ @ $ * : q 8 8 e u k b e 5 e L S d l i r a b b V l ",
"C 7 5 8 8 f x k j l k 8 k f p p M 3 t k k # 6 h k M M E E E E R E E E E R 9 @ @ 0 @ @ : 6 4 k M j 7 * : C n l a j h e a g m f l ",
"b w w p M b b l b j j h k k g l c d j f d h d j l u V h 5 0 2 2 2 2 2 2 2 1 @ 2 z 0 : r k d M k p % z L L b k i p j j a 7 L h g ",
"l 0 a 5 M l M M M V V f d k k 8 e a l M b k e * 2 d V C M h 3 * % 2 3 q 6 q 6 6 h z * 2 4 e 8 d h e < e * 8 d N n b d b 7 k l l ",
"l , j 3 M M 7 V 7 c M d d 8 p l l M f C j j d e h M h t M h 8 d 3 c % e 8 M k 4 h c h k N u k % * r < * p g f f * h i f N d d i "
};
