/* XPM */
static char *result[] = {
/* columns rows colors chars-per-pixel */
"64 64 201 2 ",
"   c #010700",
".  c #031401",
"X  c #051D01",
"o  c #091D04",
"O  c #0C160B",
"+  c #0E190D",
"@  c #121D0E",
"#  c #131D11",
"$  c #161F1A",
"%  c #062401",
"&  c #092504",
"*  c #072B02",
"=  c #092C04",
"-  c #0D2E09",
";  c #0C250A",
":  c #16210F",
">  c #102E0C",
",  c #073202",
"<  c #0A3404",
"1  c #063C00",
"2  c #0C3B04",
"3  c #0E3309",
"4  c #0E3C09",
"5  c #103607",
"6  c #103C07",
"7  c #11340D",
"8  c #113C0B",
"9  c #162213",
"0  c #1A2515",
"q  c #1D2A17",
"w  c #1B2519",
"e  c #1E2A1A",
"r  c #152D17",
"t  c #163217",
"y  c #153B12",
"u  c #1A3F17",
"i  c #1B3C1C",
"p  c #212D1D",
"a  c #24311E",
"s  c #1F2523",
"d  c #1E3822",
"f  c #242E23",
"g  c #272E2C",
"h  c #282F2B",
"j  c #263321",
"k  c #293623",
"l  c #223C26",
"z  c #2B3A26",
"x  c #2A322D",
"c  c #2D3A29",
"v  c #23362A",
"b  c #2D3234",
"n  c #2E3D33",
"m  c #303D34",
"M  c #064000",
"N  c #0D4304",
"B  c #074C00",
"V  c #0E4B03",
"C  c #0E4309",
"Z  c #0F4A08",
"A  c #104405",
"S  c #114C04",
"D  c #11430B",
"F  c #124C0B",
"G  c #184E0B",
"H  c #0E5303",
"J  c #0D5B01",
"K  c #0F5108",
"L  c #115404",
"P  c #125B03",
"I  c #185F07",
"U  c #13540B",
"Y  c #1A530C",
"T  c #155B0B",
"R  c #1B5C0C",
"E  c #1F421E",
"W  c #1E4C1D",
"Q  c #1B4B14",
"!  c #1B5216",
"~  c #155C10",
"^  c #1A5A12",
"/  c #1D531A",
"(  c #165512",
")  c #205F0F",
"_  c #205C1F",
"`  c #0D6201",
"'  c #0E6B00",
"]  c #126304",
"[  c #186207",
"{  c #146B04",
"}  c #15620A",
"|  c #1B640D",
" . c #166C0A",
".. c #1A6B0C",
"X. c #186C05",
"o. c #0D7200",
"O. c #157304",
"+. c #197405",
"@. c #157B04",
"#. c #187905",
"$. c #167309",
"%. c #1B740B",
"&. c #167A0A",
"*. c #1B7C0B",
"=. c #176110",
"-. c #1A6412",
";. c #1C6B12",
":. c #1F601C",
">. c #1D7413",
",. c #206414",
"<. c #216C12",
"1. c #22641C",
"2. c #246C1E",
"3. c #207713",
"4. c #217B12",
"5. c #247D1C",
"6. c #1E4320",
"7. c #1F4920",
"8. c #214324",
"9. c #234C26",
"0. c #26462A",
"q. c #29442E",
"w. c #264F28",
"e. c #284B2E",
"r. c #32402E",
"t. c #255523",
"y. c #29522B",
"u. c #2B5C2B",
"i. c #265C26",
"p. c #2D4D35",
"a. c #2E4238",
"s. c #334E3D",
"d. c #33443B",
"f. c #2E5333",
"g. c #2F5B34",
"h. c #315537",
"j. c #305D35",
"k. c #33523B",
"l. c #355D3C",
"z. c #266524",
"x. c #296126",
"c. c #276C24",
"v. c #296B25",
"b. c #2B632D",
"n. c #2B6D29",
"m. c #287820",
"M. c #2C722A",
"N. c #2D7529",
"B. c #307A2F",
"V. c #2F6332",
"C. c #316535",
"Z. c #336C36",
"A. c #38613F",
"S. c #36693C",
"D. c #386C3E",
"F. c #35713A",
"G. c #377C38",
"H. c #3A723F",
"J. c #343D43",
"K. c #354045",
"L. c #344B41",
"P. c #375543",
"I. c #395145",
"U. c #375942",
"Y. c #3A5E43",
"T. c #3C544B",
"R. c #3D5F4A",
"E. c #3A6243",
"W. c #3D6947",
"Q. c #3E654B",
"!. c #435A54",
"~. c #415253",
"^. c #406A4C",
"/. c #40654C",
"(. c #52645E",
"). c #158202",
"_. c #188304",
"`. c #178B03",
"'. c #198D04",
"]. c #1B820B",
"[. c #1B8B0C",
"{. c #169000",
"}. c #1B9D07",
"|. c #1C940A",
" X c #1B9105",
".X c #1F8C11",
"XX c #23840F",
"oX c #20910A",
"OX c #238C11",
"+X c #26841C",
"@X c #258B1A",
"#X c #27971A",
"$X c #1CAC08",
"%X c #22AB0E",
"&X c #21BA09",
"*X c #2C8324",
"=X c #2F892A",
"-X c #2C8924",
";X c #358633",
":X c #93989E",
">X c #C9C6CF",
/* pixels */
"N V 2 N V V , % , V P A = = * = * * % , 2 , A 2 L +.O.@.X.T S * A L A S 2 % = L I 2 , 2 L ] *.' d e z e 9 # @ w k z l q 9 e # e ",
", = , , = * = < & X * J , * , = = = = & * 2 , 2 N N V L ] _.2 A S < A N % * = = 2 2 < 6 P .. .N J.e a p @ p k z k q 9 9 + 9 r a ",
", , , L J 2 & = = & o , B = = = = , = < 2 = < L L V 2 2 _.#.A N = , 2 & = 5 < < 5 = < L %.} 2 d 9 e 9 a w # z k a 0 9 e w + q z ",
"A , N ] { { P * & C N 2 V = = * & = = * & * = < N S P }.@.= = , = = & 7 y y y D - , A S F 2 = K.k k j q # 0 k k k a 9 a z a 9 c ",
"N H ] ] ] ` O.O.2 * 2 V N & , N , & * 2 N V L N = N O.P X & , = & = 3 3 ; > 6 & % 2 2 2 2 , D x q a @ # 9 + w p 0 a q c 0 q.0 k ",
"N N 2 H ] P P { #.N & & & = = , 2 N 2 L P V N P ] % o , V L P L L K V 2 2 = o o 2 A A S N N Q e p p # @ # + # 0 @ j q r.+ w k w ",
"2 2 2 2 H V H ` O.] & < < 2 2 A L P , o = * 2 L , & 2 L L L L P ] { O.{ `.N . 2 S S A N V B E 9 p 0 p 9 9 9 # # @ a + c w # j O ",
"J H H V J L V V 2 * = 6 A S L S N < 2 2 % = 2 & % S L S V S L ] { { ] _.} X 3 A A N V S A J f.e p 9 9 9 9 k @ 0 O p 0 # w $ # # ",
"H L H P { ] ] J = & = = , 2 2 < 2 V L L N * o < 6 S S S S S L P P P  .] ; 7 y D S L L L | l.q e : O 9 p 9 k 9 w 9 p 9 0 9 9 @ w ",
"2 N V , N ` ] O.] = & = = = 2 S L L 2 N L S , & < S L L H V L S V V C & > 5 - 6 S A & A Z.g e f 0 @ 9 k e j w k z p : 9 e 9 f e ",
"V 2 L P 2 * , V J = o = * = = S S L S 2 L S L 2 = 5 A S S N S A 2 < 3 6 7 > & % o . % _ m g e $ + # f k 9 0 0 e p k : e z c q e ",
"V V , H O.V o % = < 2 & = 2 = S L N P , L L V P = = = = 2 2 - 3 7 3 y 4 8 7 8 > X % ] 2.f.n.n.g.U.# 9 e p j e k @ a p 0 q e e w ",
"H J N , L @.V * N V L ] ] N & 2 ] N L V * P V L L = - = - A C - 7 3 5 - 3 - - - - 2 U S P ] P O.5.@ w p 0 9 0 k # + 0 0 x D.%XW.",
"B H H V , J ] 2 2 2 2 S +._.P 2 P N L P o 2 P A P 2 = - = = S N & - = - & % = 7 t 8 L L L S J .X~.0 e p O # 9 n w + + O s c.J |.",
", N H H 2 , ` N N N 2 N 2 P  XL V L I ] ; o 2 P P P & - - * & F < ; < 7 7 3 D 7 5 A L P L J oX^.0 0 k 9 # O P.R / f.w w a.} , J ",
"6 o N J N * 2 2 L ] V V ] _.] = 2 V ] N o < & , S L * & - - = - U < = > 7 7 D A 7 N N V T v.!.c 9 a p 9 9 w u.P U H p.b P.T B 2 ",
"L , = , , * & * 2 L O.#.@.N & * < P $.P 4 - = & * 2 2 * * * = = 2 S - = 7 7 > U T t l c m a f a 0 p p I.u.k./ V U U F g U.H M Z ",
"N P ] V 2 % = A N L P #.L o < U X. .J  . .& & 3 - = A F < - * = & = = - 7 7 > 8 ' 9.a j a 0 q k p : @ _ J T T = 4 Y 2 i 7.Z Z Z ",
"N V V ] { V , S S N ] L = < S ] H V V  .T K C C L 4 = A A 5 5 - ; - 5 & < 6 8 7 A ] >.d.j p a j 0 b p E , F U , % N 2 * '.$.X Z ",
"J J J L ] { 2 * N P L * * , V K V T  .J N ] } & U S D C A 5 5 I I ; = 6 7 3 7 8 S L @.OX~.Y.e x ~./.f G 1 C 4 C * * % C |.&X1 . ",
"2 N H V N , , = * N A S P N & 2 Z J V 2 B #.L . < N < G S < 6 I XX4.< & D A < = 6 P I @.@X@.c.g S.@.^ Z , < , = , * % } T ` $X, ",
"] * o * % = , , % * L S P $.N o V K V P &.L 2 4 o F 2 < A 2 S A A %.XX4 & V P S S [ [ [ `.B.{ n.!.R M { < % , % % % * 1 V C  .}.",
"{ ] & % , * = = N L S S N ] '.T < N L P , X 4 U = < G < < 5 N U A 2 I oXC.x C V L P P { O.{.U.Z *X#X* N N % * * % * * % < K 4 &.",
"] O.J % = = = % N P { O.@.X.L S = & < 5 A 2 % 2 G 2 N < 5 A A N I T 6 L *X^.v.a.l E t.u.C.A./ D P S 2 2 % % % * * , * % * B H T ",
"S L J = = , = = & 2 L { @.X.S < < < = 5 L X.A & 2 L 2 5 6 U L 6 A ..%.[  XH.Z.] U T D U } 4 D F 4 < * N , % % * * % , % % 1 V K ",
"P V N 2 * = , , = o = 2 L P +.'.$.= % 2 5 A { A & 6 2 < 2 2 Y U D A %.5.Z.A.x G.O.L } F U T = 4 F C % * , = % * * * % , % % , V ",
"J ] J { L % 2 * , N % 2 L P @.@.2 & = 2 6 6 L %.A ; < 3 A A 6 T F 2 U OX/.b x h H.| S T G ~ U & 4 F * X % % = * * * % * % % % 1 ",
", V P J { A = < J P = A { { ] = % < A S 6 G L L } < < 2 L U 6 A U L A { #Xl.B.T.s Q.$.G F D ~ A X & % % * % . % * % * % % * , < ",
"= % N L ] O.2 N P V L S H 2 * & 2 N < S I P I P *.A = A F S L U 6 S J J '.F.oX|.+X=X$.C D D D F * X % % Z K 4 * % % % % , * * , ",
"* * % = 2 ] P N J P L J P 2 = = = V S = U L U L L < 6 S L S S [ X.l p...@.-X%.X.o.).L * 8 D C D 4 % . < Z 3 Z Z , % % % * % % , ",
"& & * & % & V , N H J H N 2 2 , 2 2 L 2 6 T L < & = A Y y.,.V N ] *X_ s.v.N.T F V 2 < * - 4 4 4 < C 2 % C = 3 < 2 * % % * % % % ",
"* * & % * = * S N % = S S V L V 2 A N , * G ..$.U < , L I.z.u.Q A @.;X/ Z T T = 4 * % * * * 4 3 < C U N & < 3 2 < * % % * % % X ",
"* % * % % 2 2 V { V o 2 ] A A { S & = < = = 6 R $.} A , ^ c.T ~ s.p.l.U K U ^ * * U C - % % < 3 3 C 4 F < & < 4 2 = % % % % X = ",
"= & 2 = % & & N P O.] % A P A A +.P & < 5 5 < 5 G } X.C D L.>.U T ,.z.Z V K -.4 % (  .} Z % * * < Z D 8 4 & = = = = % % % X X < ",
", * 2 2 = , , , N L @.V & P L A A O.P & < 6 2 5 8 T { { f.p.>.;.T T Y = * < F F % F D 4 } K * % * N D D 3 = * X % % % % % * X 2 ",
"2 * 2 , 2 A S S V % , 2 % 2 { P N A { P 5 < 5 = 5 Y / y.N.i.F 1...} F = 2 2 = 4 - C ( 7 3 K C & % 2 C - < * % % % % X . . = * C ",
"2 < < < = 6 6 2 P ] o % , * A +.{ P ] ] < = 5 < , a x.t.2.-.F & Z } =.= 1 2 1 < & 4 ~ 4 C 3 2 * X & N , < * % % % o & K = % = K ",
"< < = 2 < = V S 2 ] ] % * 2 * , S { X.S A 6 = 6 S Y x.l.g.| T % % 3 } Z = < 1 2 2 < Z 4 D 7 = 4 , o % * ; . X X % X , |.[.K % Z ",
"& 2 6 2 6 2 = 2 N N ] N & < 2 * S [ U T *.X.5 A ) R L ] 1.T.( = & ; = ( C 2 < 1 C , % , 3 3 = Z 2 < o % , & & % .   1 &.T [.Z & ",
"* 2 6 2 2 2 6 , V S & * 2 , * ] ..S A T T A Y G 5 G ) Y Y ;.k.= = = & & T &.K = < = & & & % , C = 4 - . $.].} T K Z }  .C ~ &.2 ",
"A 2 2 2 A A V V N H L 2 = 2 2 2 P X.+.6 & , ) ) Y A A | _.4.l t - * - o K  . . .Z * * * , % = C = - < % , ].$.T T T ].$.K K  .T ",
"S < 2 2 2 A P P J N S ] 2 , L 2 2 L ] ^ d E A Y | <.) <.*.XXN.a * - & X C T C K  .K % * = & & Z 3 & % & . =  .} T C Z &.T K T U ",
"J N U 5 , 2 L P H { ' ' ` < L P 2 N N X.k.f.M < Y | 4.<.) ) #.`.S.= K } Z 4 Z C C T 4 % & % % * Z = X X % . 1 } T K C Z } K Z N ",
"J P j.q.2 = 2 O.k.:XV.b.(.0.J P F 5 V P ..[ N - Y ) +.4.4.4.XXc.6.< =.~ ~ K < Z Z Z K 2 4 4 2 % = 4 % X % % . * H K Z Z K T Z } ",
"J L ~ 3 g.` ` O.M.k.e.L.>Xq.H L 2.8.2 N { +.< & ] %.) [ _..XR.3 2 1 K =.2 4 4 < Z C C K * 1 N C = * * * % X X . . 4 K Z U Z Z V ",
"J k.-.U < Z.@.' o.h.V 2 r s.H B #./.w.B P { 6 = U $.U ) -.].t , * , Z >.Z < < < 2 M 4 C < % = 2 C * * & 2 $.[.K < * K U N Z Z 2 ",
"<.-.F 4 T * % V.;.n.A F 1 % z.` #.R.T j.P O.C , t.3 -.] $.*.6.< = * <  .=.4 < < 4 K , 2 C * , , < 1 * C =.} $.&.$. .T N = , , 4 ",
". C ;.& C C * * D F F >.F * u @.+.o 2 U / 2.B V E.% = b.#.`.w.= = * % M $.C < < , Z M * 1 4 * * , % Z  .F D 4 C Z K U 2 2 2 < < ",
"F = U C ; 4 , * - C -.( Z & 4 M.].= % C ~ g.o.:.* * & C 6.+XU.= = < , * B T 2 2 < 2 V , , , 2 * , = * 1 2 < < C C K T 2 1 2 4 4 ",
">.T 4 F * - 3 * - ~ 4 8 F = = i >.4 3 & 4 Z n.7.% * & 4 < * , % = , , , = , , * = * = , , , , = * % % o % & < < , C K 4 2 2 1 2 ",
"| F < < 3 , 3 & C ( - 8 C % % = d , , & 4 C 4 3 & & % < 8 * , , & , , * % = * o % * % * , , , % * C = . % * < 2 < * 2 2 2 4 < < ",
"} Z . = - , 3 = F D 4 U F C 4 4 * % & * = C 4 = , % , 4 D C 4 2 < = * o % % = = % * % * * , , % < } J N % % % % * * * * 2 1 3 C ",
"4 -.% % 3 Z - < D 3 4 ( ~ ~ ~ K U 4 % * & & < 4 & % C ( * 2 < 3 2 < = % & * % = * % % * % % % = , K < Z < % % * * * * % * < 2 F ",
"% U Z % 2 >.C & 3 4 < = C ( ~ ~ ~ ~ C % 4 C = & * & & ( 4 % < < < < , , * % * & % % % X & & % % % K B % 1 , % % * * * * % , 2 C ",
"% % 4 % C ;.U = 3 4 * % % * 2 4 4 4 , , * 4 D 4 < , % = ( < * = < < , 2 * X % % % % % V Z C 2 = . * K , , < , % % * * * * 3 2 < ",
"* 2 % % C U T 3 - 4 ( * % % % X X X % & , % = 2 , & % X 2 ( 2 = < < , , & % * * % * % T N 1 C Z N % C 2 * 1 * * 4 C 2 , % < 2 < ",
"& F F = < C ~ D & 4 =.< % % X & 4 4 C 4 , = * % % % % * % , C 4 , < < , & * * * * * % 2 H , , , 4 < * 1 , , * % , 2 N N , < 2 < ",
"& F F F < % C Z 3 < < < % % 4 ( ~ =.~ < * = * & = * % * % X & 4 , , < = , & , * % = * * K 1 , 1 , 1 < , , , * X * * , , , , 2 = ",
"; C F ( D & * F 2 % % & 4 ( =.~ Z 4 % % , % = 4 < , * % % 3 3 = * , = , & , = % % = = * , N 2 , 1 < 1 < , = * % % * % * * * < = ",
"o 4 G D ( 4 % 4 & * = % , 4 < % X X % * % , C & * 2 * % 4 4 , , = < , , , , , % X % * * % = 2 N 1 1 < 1 , * = * X % * , * % * % ",
"& < F F D D = * % - C * % X % * & , & % , 4 , , C < 3 C , * , , , , , , , & * , * % % * * % & , , * * , , * * = = , , % * 2 2 2 ",
"4 < F D C C 3 * % C F 2 % % Q C % 3 F 3 3 8 8 F , & C , * 4 2 , , , , * % % , , = = % % * = * % % * = % % % , N C 1 , % * 2 S S ",
"F 4 y 4 } D 3 % * Z Z 3 % 4 U C & , = % 4 F 4 * 4 D 4 4 4 = , , = 3 * , % % & * * = * * % % % * % % 1 * % o % = * * * = * % & , ",
"} C 4 U ( F 2 X , ( C - 3 F 3 2 & % 4 ( C 3 % 3 ( F , , % % 4 * 4 < * * * * & * % % % % % % % * % % = 2 % % % . % = * X = , = * "
};
