/* XPM */
static char *result[] = {
/* columns rows colors chars-per-pixel */
"64 64 234 2 ",
"   c #030503",
".  c #060905",
"X  c #090C07",
"o  c #0A0E09",
"O  c #1E0B03",
"+  c #150D05",
"@  c #0D140B",
"#  c #0F1A0D",
"$  c #12150B",
"%  c #1B140A",
"&  c #121B0E",
"*  c #1B1708",
"=  c #0E1B11",
"-  c #141D12",
";  c #191D14",
":  c #141819",
">  c #0C0A1B",
",  c #210E05",
"<  c #3A0F02",
"1  c #231007",
"2  c #241409",
"3  c #271B0B",
"4  c #3C1204",
"5  c #38190A",
"6  c #261A11",
"7  c #13210F",
"8  c #19230A",
"9  c #1A2406",
"0  c #162313",
"q  c #1A2414",
"w  c #152A15",
"e  c #1B2B15",
"r  c #1C251A",
"t  c #162B1A",
"y  c #1D2B1A",
"u  c #152218",
"i  c #1D3116",
"p  c #1E321A",
"a  c #1E381B",
"s  c #28230B",
"d  c #3A2B02",
"f  c #382C09",
"g  c #3F3006",
"h  c #212D1C",
"j  c #2A2C19",
"k  c #252816",
"l  c #3A2519",
"z  c #223316",
"x  c #23341C",
"c  c #2A351C",
"v  c #253A1C",
"b  c #293C1E",
"n  c #383618",
"m  c #191A24",
"M  c #1D2622",
"N  c #1F3321",
"B  c #232C22",
"V  c #2F2D22",
"C  c #253322",
"Z  c #2A3623",
"A  c #263B21",
"S  c #2B3D23",
"D  c #2D3D29",
"F  c #26382A",
"G  c #323E2B",
"H  c #343825",
"J  c #372E24",
"K  c #461808",
"L  c #551602",
"P  c #591603",
"I  c #5C1B06",
"U  c #761D03",
"Y  c #4B2D07",
"T  c #562907",
"R  c #463608",
"E  c #5A3204",
"W  c #5D3A0B",
"Q  c #41271A",
"!  c #503D15",
"~  c #71270C",
"^  c #743402",
"/  c #7F3707",
"(  c #6D2D11",
")  c #453824",
"_  c #462D21",
"`  c #2E411E",
"'  c #34421D",
"]  c #2E4224",
"[  c #2E432A",
"{  c #2B4528",
"}  c #314525",
"|  c #354A26",
" . c #32452A",
".. c #354A2B",
"X. c #394E2C",
"o. c #394928",
"O. c #3C512D",
"+. c #344632",
"@. c #354B32",
"#. c #3A4E32",
"$. c #3A4A3C",
"%. c #3D5333",
"&. c #3D543A",
"*. c #2D4330",
"=. c #5B4919",
"-. c #4D4511",
";. c #785906",
":. c #755604",
">. c #714B11",
",. c #7C6B15",
"<. c #484525",
"1. c #40542F",
"2. c #41473E",
"3. c #415634",
"4. c #435A35",
"5. c #41563A",
"6. c #445B3B",
"7. c #485E3E",
"8. c #4D5D37",
"9. c #565139",
"0. c #794735",
"q. c #47613C",
"w. c #49613E",
"e. c #476136",
"r. c #7B6935",
"t. c #707632",
"y. c #455D41",
"u. c #495E42",
"i. c #495742",
"p. c #775F54",
"a. c #4C6443",
"s. c #4B6048",
"d. c #506646",
"f. c #6E6A58",
"g. c #727371",
"h. c #883A05",
"j. c #913A03",
"k. c #9E3F02",
"l. c #912705",
"z. c #A03413",
"x. c #82450B",
"c. c #964107",
"v. c #9F4003",
"b. c #895A0C",
"n. c #925C03",
"m. c #835316",
"M. c #924E12",
"N. c #AE5C02",
"B. c #A85803",
"V. c #B05F04",
"C. c #A05813",
"Z. c #966107",
"A. c #956D04",
"S. c #917602",
"D. c #9D7906",
"F. c #916B0F",
"G. c #B26207",
"H. c #AE7D03",
"J. c #A47907",
"K. c #B17906",
"L. c #AC680C",
"P. c #886329",
"I. c #8E6D36",
"U. c #B07535",
"Y. c #C25E02",
"T. c #CA4B03",
"R. c #CA6203",
"E. c #CF6807",
"W. c #C47C04",
"Q. c #CA7E02",
"!. c #D37916",
"~. c #D57C18",
"^. c #D06D15",
"/. c #947970",
"(. c #AD8B08",
"). c #B18105",
"_. c #B48906",
"`. c #AE9903",
"'. c #BD9907",
"]. c #9BA205",
"[. c #B1B112",
"{. c #9B8E31",
"}. c #9F9435",
"|. c #BFAA32",
" X c #A1921D",
".X c #CC8104",
"XX c #CA8307",
"oX c #D08608",
"OX c #C69D05",
"+X c #CA9E02",
"@X c #D39D16",
"#X c #D49F18",
"$X c #CCA204",
"%X c #CCA409",
"&X c #D0A709",
"*X c #D1A708",
"=X c #CABB03",
"-X c #C5B704",
";X c #D5A019",
":X c #D2BB16",
">X c #D4BE18",
",X c #C8B417",
"<X c #CB9232",
"1X c #D1B732",
"2X c #BFCB02",
"3X c #B9C603",
"4X c #A4CE16",
"5X c #A4CE18",
"6X c #A7D315",
"7X c #A9D416",
"8X c #AAD618",
"9X c #ACD819",
"0X c #A5D018",
"qX c #B1D635",
"wX c #CFC107",
"eX c #C1CE04",
"rX c #D0C308",
"tX c #CBD416",
"yX c #CDD618",
"uX c #CFD81A",
"iX c #CACC0D",
"pX c #D1D434",
"aX c #B09F6C",
"sX c #A7A05E",
"dX c #D8AA70",
"fX c #B4D24F",
"gX c #D3CC5F",
"hX c #ADB49F",
"jX c #CBB891",
"kX c #D0B8AC",
"lX c #C5CEA8",
"zX c #C0C9A5",
"xX c #C8D1AB",
"cX c #CDCFCC",
/* pixels */
"x p O.O.X.[ 7.3.#.D [ F O.w.3.3.7.v | %.} z O.4.| ` p | a.| v | } O.} %.v X.X.X.} ` 4.| | X.b X.| ] X.} O.%.| %.%.X.p A ..b v q.",
" .[ %.S X...| 7.%.b S S S 5.%.X.&.v ] %.%.X.] b ' | X.| | %.b S %.O.a X.| O.{ X.v X.} X.4.v | O.X.| X.` | | [ ` i ]  .p p %.v %.",
"X. ...p u.O.o.#.#.D x X.} &.q.%.c [ 6...6.7.} o.` x | ....X.{ w [ ..w v O.| O.| ] O.X.%.3.X.X.4.| O.o.%.&.| v v | p v x w ]  .%.",
"%.| S 0 S ] | x Z x S A [ c &.A { ..] ] b 3.#.] v | O.v w v A a  .{ { v | o.O.| | { ..` } | ] O.} O.4.} %.` p ] 4.x v %.A p } | ",
"} b o.| ..c @.S [ e e #.5.o.3.#.a b } z i `  .c ] | 4.4.] w t p a { v [ v b X.w | p  . .[ ` | X.x v v | | %.w a w.| | | A z ] b ",
"S v D ; C C F N t u r  .b A X.%.%.v %.%.X.| X.z i } O.O.] A w w &.v w v | 3.` v [ a %.{ w O.O.[ p i v X.O.] w p O.3.O.| ] F k c ",
"C y 8 i.o F u = = B G G ] F C S b p X.O.a.%.` } i b } b b ..{ | { w [ v O.| ` ..| ..{ A w %...a w w v | | X.a ] #.@.| b #.8 -.Z ",
"e @.# _ 2 6 B M D F y F #.S x 0 p v ` [ | q.| O.i y v b { X.%.O.X.| 4.O.] ` ` ` O.O.4.| X.O...a [ %.%.X.O.[ %.a y.v  .' n g l h ",
"D @.$.X   , 4 3 - @ ; C F x y e e %.v z | | [ } [ x p S e.w.1.| %.v b O.} ` O.1.O.X.O.X.] O.O.v t w t { &.p x #.} &.: T 4 1 <.G ",
"| +.2.X   K ~ ~ 6 M C C q C v w p @.%.7.d.e. .A  .v v 6.4.b b } S [ @.a { v O.%.| ] v ..&.X.X.v { { N w q...N 5.[ j ( l.K O H r ",
"b ..- X K W E E L % r ; C C c y c  .X.#.3.} } S ] [ ..y.| } | X.%.{ X.....%.| O.v v ..&...] p t a { s.A O.%.#.&.H U k.k.E X ; r ",
"#.#.k 1 , j.G.^ 4 4 X ; r C p y x D X.3.3.e v S w .. .%.' } 3.X.` X.X.X.%.v ] O.O.` } a p { A t v [ [ @.%.| #.B 5 >.^.E.E 8 M q ",
"h #.c X . K j.T.j.4   . - M t B h S } 3.6.%.S x ` 4.] ] ] | O.] i O.O...a N | O.X.| { | | } %.v v  .} w } D n s I E.~.E , t F x ",
"X.} c @ X 1 d C.^ E =.g.f.u y h Z z b S { b [  .%.a.7. .v ] | A i X.] b p a %.O.X.| `  .} v | | v | X.` G 5.aX>.k.^.z., X u B h ",
"7.&.} 3 1 1 {.lXp.Q jXcXzXl M h h r h z z c } X.O.a.[ w z S | [ ` | } X.S S v O.| %.@.] | X.X.O.} ] ] q.2.kXcXaX}.xXI., % 0 r e ",
"p &.&.) p.R =.zXhXd 8.lX/.  ; F q h 7 e 7 0 b ] %.| ] O.3.%.v x v ` O.O.%.&.4.` O.] %...a { | p p a A $.) kXhXI.jXxXr.P.s ; q q ",
"C u B j 9.Q , Q Q     * O     @.r q & 7 h c  .o.o...] v b b w v { %.O.O.O.` ` v | [ @.a.6.X.| a w 0 &.' . Q s 1 0.E =.9.r $ q h ",
"D p z q . X   < < ,             = e y q x S D 5.X.S z e p 6...%.X.O.O.X.O.%.O.| O.] p A &.O.%.v i w @ . X X   O P O   * r - q Z ",
"] O.%.F $ 2   ^ Q.N.E     O     X - r h q & r e x b S  .v ..@.] e.X.{ | %.e.q.a  .O.| | X.%.O.z { w X . X X ;..Xn.O   $ r & r D ",
"| [ A 8 9 Q   E Q.@X+Xn.O 0.r.n f.9 r h 0 y z c x b ..X.b v ] [ ` } { | %.d.6.{ i  .x { ..X.O.{ u t.r.U.E H.yX>XE , f q h 8 x S ",
"q.O.[ H 0.l X , n.#X>X+XV.>.}.{.aXsXc r 0 7 z +.+.+.3.3.[ [ X.%.{ X.X.&.| a.q.w a p A A | b ] w.sXgXdXU.*XeXyXn., d >.& h r h c ",
"6.d.q.F 2 , 4 W E n.$X+X@XV.T d 1 8.l ; - q q h S #.3.F v %.S &.%.w.%.O.O.&.{ p p { ` &.%.i C ,.p.J C.%XyX>XQ.^ 4 5 k h h h h Z ",
"..%.w.*.X   K .XoXn.V.Q.@XOXN.O .       : ; k z  .D F 7 [ | p d.{ q.a.a.6.6...| b [ O.O.%.x @   X 4 $X2X=X.X.X@XE   @ - 8 r k c ",
"O.@.x C @ X 4 .X#X$XQ.N.N.+X+Xj.j./ ,   X - q h h x x w &.S S @.] X.d.e.` &.{ ] [ X.O.v $.q X E G.XXrX#X.X=XyX@X4 O - & q 0 i c ",
"{ O.@.o.6 @ 2 N.$X$X#X#XH.R.Q.N.Y.Q.Y.^   X ; q h q q e +.x ..A %.v &.O.[ { a.w X.O.| p ; K ).*X.X+X@X@XtX7X:Xn.O 1 = @ y h x S ",
"q.6.a.S 2 2 2 K V.$X#X#X@XOXQ.N.k.Q.Q.Q.n.  @ - q q 7 0 z S A [ t p ] ..X...q. .} ' A # ! &XwXoXR.@X:XtXtX=XH.P 4 3 o @ q C q - ",
"a.a.6...; K L._.;.Z.Q.$X@X@X@X.Xj.V.Q.Q.Q.j.  h q q e e e w p u w a  .| ] q.{ v } v a 5 &XeX%XE.$XyX7XtX@XQ.Q.N.< % q ; q b S S ",
"q.O.&.S B I oXrX#X).N.G.Q.+X@X@X!.V.Q.Q.Q.Q.P X q & 7 q w 0 C t { ..| %.| } ] ] | c * G.rXwX.X*XyXyX:X!.!.:XeXOX3 y r y q r r c ",
"&.N i { G Q oX=X;X;X;XH.N.R.Q.OX@XQ.N.Q.Q.Q.R.< X & 7 & e q p e 0 p O.O.b S x v b & B.%XwX$X$XyXtX@X!.@XtX6X4XA.6 k C Z Z D Z c ",
" .t w v x x x.%X$X#X@X@X@XQ.R.Q.Q.+XV.V.Q.Q.Q.N.O & B y y x i y *.@.7.%.x { o.} e h.$XwX%XXXtX:X!.@XtXiX6X6X(.s ; q q x c z z ] ",
"%.` { p S v r W W.$X;X@X@X:X@X$XQ.Y.R.j.Y.Q.Q.Q.h.o = - r D y 0 w v i v a x S D ( %X$X$XoX+X@X:XiXtX6X4X3XD.3 $ - r k Z  .#.#.} ",
"%.e.a i [ #...D 5 b.XX@X@X@X@X:X:X+XQ.j.j.Q.Q.Q.Q.L @ @ @ Z x 0 +.] { 0 c b b l XX$X$XE.R.@XyX6X6X7XtX'.x.6 @ @ ; e C  .S b } %.",
"%.a.4.&.y.@.+.*.B X 4 n.Q.#X#X#X:X:X@X+XN.N.Q.Q.Q.V.+ u @ q x e  .w X.+.6.7.H B.*X$X.XQ.=XuX7X7XtX=XH.T + - @ & r C D G F D %.4.",
"%...6.&.C y y r o X     E N.+X#X@X@X@X@X+XN.N.Q.Q.W.l.@ q - B 0 y y D v S x x.&X$XoX.XyX9X9X6XtXOXj.O     @ @ - r h e G r z | } ",
"| { &.3 X X o 2     ,     + j.Q.+X+X+X@X+X+XN.B.Q.Q.Q.K r h h y y y y c F R %X&XoXoXyX7X7XtX=XH.L       O     . y ; q w q } ..[ ",
"q.] G 1 2 X . . . E n.n.d     4 B.+X+X+X+X+X+XB.N.Q.Q.v.$ ; @ C Z y q h j J.&XXXQ.>XyX7X3XOXh.O O E n.<       O k ; e q x S c #.",
"..s.0 o X X     4 R.+X=X:X'.T . O ^ Q.OX+X+X+XQ.N.R.Q.Q.T ; & @ - q q k M.%X.X.X=XuXyXtXJ.K O :.].tX=Xn.      O * @ 0 0 G x S 5.",
" .&.w o X   E ).K.Q.Q.+X+X:X,X(.5   O n.Q.+X+X+XQ.Y.Y.Q.k.; q $ r u ; Y W..X.XwXyX:X=X:.O R ].4X7XtX@XQ.n.O     - - - q A ..G 3.",
"S *.q X X O H.=X:X:X#X!.Q.Q.+X:X-XS.,   < B.Q.+X+XQ.T.R.Y.T r ; - o 3 K.Q.Q.$X=X:XJ.< + A.4X4XtX:X:X:XtX=XE   X & $ 7 8 i D G  .",
"b x - X o E XXQ.#X@X@X:X=X+X+X+XOX=XW.U , , T N.Q.Q.Q.R.Y.N.5 B @ . / .X.X$X$X).^ O P '.tXiXtXtXtXtXtXtX:X^     ; @ & r z e x %.",
"%.D @ @ 4 Q.$X.X.XQ.Q.Q.+X@X:X:X+XY.Q.Y.V.U , , < ^ B.Y.R.Y./     L W.XXH.n.E < P N.Q.@X:XtX6XtX:X:X:X:X@Xn.O X # # & y S D r #.",
"X. .$ X 2 XX$X$X+X$X$X+X+XQ.Q.Q.Q.Q.+X+X+XQ.B.n.^ <   , P j.j.    j.n.4   d n.H.+X:X:X+X:X:X:X:X:XtXtXiX:Xn.  @ - @ q h ..@.[ e ",
"O.%.# . 2 ;.).XXQ..XQ.Q.Q.Q.Q.+X+X+X=X=X=X=X=X+XQ.N.P       O     , , , ^ `.:XtX7X7X7XtX:X:X@X:X:X:X:X:XOXd . - 0 - q C ..[ %.+.",
"O.%.y X . 4 H.$X+X$X.XR.R.+X+X+X+X+X=X>X-X=X=X-X+X+XN.P ,             ^ Q.=X7X7X7X7X7X7XtXtX=XQ.@X@X@XOX^   X ; q q 0 D +...c v ",
"%.A q X X 4 $X>X:X>X>X+XY.N.H.Q.+X$X+X+X+X+X+X+XQ.Q.Q.^ ,           < N.+X=X2XtXtXtXtXtX:X:XQ.=XiX6X6X-Xd   @ q r q e c ..@.D } ",
"X.v C @   . ;.>X>X#XQ.Q.Q.+XH.Q.R.N.N.N.R.B.N.N.N.R.Q.n.<           ^ Q.+XQ.Q.Q.Q.+X+XQ.!.@XQ.@XtX6X6XS.O   = - h x e Z X.#.] S ",
"..[ t w X X 1 ).*XR.Q.+X=X>X:X=XQ.N.V.Q.+X+X+X+X-X=X+XN.L , >     < B.3X7XtXtX:X+XQ.Y.=XtX6XtX@X@XtX`.O   s & - r z F S e v S %.",
"5.w w N - X X 1 n.$X@X>XtX:XH.n.N.Q.=X:X:X:X=X*X=X+X~.^.x.J m X   n.@XtXtX7X7X7X7X7X+XQ.:X6X7XtX:XH.d   . & - - 0 y e e z 6.4.7.",
"..w y x y X . . ;.rXyXtX>XH.< E Q.=X:X>X:X:X=X+XQ.Q.1X<Xm.V ;   2 !.gXpX$XeX9X0X7X7XtXj.n.tX7X7X2XE   X r @ = = 0 e D #.6.7.6.w.",
"v ]  .@.c @ . . 2 Z.>X>XH.N.Q.OX:X:X:X:X=X+XQ.Q.+X:X<X<X=.; & @ H  XfXqX>X;XrX0X7X6X6X=XQ.+X7X7XS.O   - q r @ # w { 3.O.6.%.} 4.",
"A | O.O.b p X . X , b.n.n.+X:X:X:X>X>X+XN.Y.+X>X:XOX^.,.V @ - M Z t.|.pXqXuX~.;X7X7X6X6XtXOX=XS.  . * y k h e x S } } @.A b ] 6.",
"S } o.` X.z k . X o o X ;.+X=X:X:X:XH.N.H.:X>X,X_.m.) V # q r r - c t.|.0X8XuX~.:X7X7X6XtX:.< <   X k r h h q Z X.#.v w w [ a.%.",
"X.z } b O.v A k $ X   X , H.=X>X:XH.H.$X>XtX-XN.=.r r Z r h ; h y h  .t.[.8X9XuX~.tX7X7X`.O     % B h k q ; x S A { q.@. .%.@.` ",
"X.O.] b %.%.} 5.q @ X X   R `.#XV.H.=XyX:X$X;.<.h ; - j Z h q S - q #.+.,.,X9X9X>X#X7XeXd     X ; $ e x F [ #.#.[ p a &.&.{ a @.",
"} O.O.%.6.1.4.3.C Z - o X X 1 R H.=XyX>X'.R c q B Z Z q c +.k H h h  . .G P.tX9X9X#Xn.E     X q r y B S S D S #.%.{ a @.&.O. .%.",
"h x u.O.} v 4.w.6.&.&.r $ . X   R ).OXD.g c h h h +.S C D 5.h h y c x G z <.(.9XeX;.  X o h h & e k r ] #.X.| D S [ a t A ..&.X.",
" .] s.w b v q.q.6.a.b | q - X X X 2 f j 0 q h Z S c D z D c q S S +.#.X.}  .) b.W X X $ ; h x C D G S  .#.S { #.v %.p v ..] X.w.",
"&.A @.x b %.6.O.X.] x i .. .D Z & 0 S c y q y C o.} b b #.y # u q e | o.6...#.S & & x z q z c c e #.....5.u.%. . .` v %.` %.| q.",
"3.5.%.p { ] { O.X.%.[ x e c G } v k z c S x & z } } } c D G D C G y D 5.5.3.X. .c S x y e z r e r X.X.S ] S | 5.X.v ....6.O.` ] ",
"a.6.S x a v a O.| %.@.w w  .X.} X.e r h ..y 0 r #.} } [ ] S b e e } %.&.S 3.#. .C h e z x c c v o...C p A a.w.} O.] A [ %.&.4.O.",
"7.v x b b  .X.X. .%.X.v ..} ] ] #.z b o.o.7 z } | 3.%.} p b &.6.5.%.4.X...| ....| w : y z z o.X. .x w y w.%.%.{ .. .] [ X.&.| O.",
"%.A S { 4.%.&.O.O.....| X.o.| O.#.S  .} ]  .S  .O.] 4. .N A ] | X.O.X.| D ` v  .a.F y F | } X.o.S w  .u.y.%.X.] { | ..} v a.X.| ",
"@.] ] x %.O.4.%.6.6.6.| } O.| b S S %.%.X...b e h  .7.7.%.O.b c e S ]  .] } } S %.@.e p c S b ] } S x S i b | %.%.%.{ %.v ..O.O.",
"O.i  .z 4.O.v 6.v %.%.} } b ] O.%.3.| 6.| X.} D } %.} D %. .] } v %.e S } 6.3.v  .&. .| 3.] ..e r D y e ] | | | i [ ` | &.| ] ` "
};
