/* XPM */
static char *result[] = {
/* columns rows colors chars-per-pixel */
"64 64 60 1 ",
"  c #12240F",
". c #152515",
"X c #182714",
"o c #152B14",
"O c #1A2C15",
"+ c #162519",
"@ c #152B19",
"# c #1C2D1A",
"$ c #173016",
"% c #1D3116",
"& c #1E321A",
"* c #1E381B",
"= c #202E1B",
"- c #213416",
"; c #22351B",
": c #253A1D",
"> c #293D1E",
", c #1F3522",
"< c #223521",
"1 c #263B21",
"2 c #2A3E22",
"3 c #273F28",
"4 c #2B3D29",
"5 c #2C411E",
"6 c #30441F",
"7 c #274023",
"8 c #2D4223",
"9 c #2E4329",
"0 c #2F492C",
"q c #314525",
"w c #354A26",
"e c #384E26",
"r c #32462A",
"t c #354B2B",
"y c #394E2C",
"u c #3C522D",
"i c #344730",
"p c #364B31",
"a c #394E32",
"s c #3C4F39",
"d c #3D5333",
"f c #3D5339",
"g c #3F583B",
"h c #40552F",
"j c #415634",
"k c #425935",
"l c #415639",
"z c #445B3B",
"x c #485E3D",
"c c #486237",
"v c #47603B",
"b c #4A613D",
"n c #455C41",
"m c #495E41",
"M c #4C6443",
"N c #4F6845",
"B c #4D6248",
"V c #506546",
"C c #516847",
"Z c #526948",
/* pixels */
";&udyrxjh444hmjjx:tuw;hhe>-yMw:tqhwd:yutq6kwtt>wq6yqdutdje&1t:>z",
"r9j2ytyxh2242ljyf;qdjr6>qwtqwd:2uy*tweqd:uqel>yuyty2qtq>Oqr#*d;k",
"yrt;Vhhjj4>ywlxa1rztzxqw6;wyet9Oryo:ywuw8utdjeyjwyejkq:2rO2;@8el",
"dt>.42y:4<q24:l28t98>da4:tu-$<7&r93:weytqrt5qwquqyjqk:;7z::d1=ye",
"q>yyh>jrp=#lmyzj->q-->t-2wkk2O@$<818;>tor*r985et:>:eedo*beet2;qq",
"2>y444i4<#;sq2yjd>ddewt;-qhy21o@f<o:ej>:0%d9$uu8&O;ey8.*ujuyqr>8",
"<=Xj=4+++rlda9482;adBk6q=>w>2t8q8$r>hwqtquq1odt:oo:twt;7aaw6t$*8",
"#jrlkzr2ns4fmy>O;>>qwvtu%O;>0ekuu9ke26>6uuktta0:rddydqd<m2twu5:8",
"4ha2=rli=+<ad9:*;d5-ee88r==2xbheu:1u88ehutue8ud:$@@0g**dtn*t8utz",
"rah2<<=qsBMz1at;1dzMCvt:r::zk>:q2t0*q:jhr8:azww:77, zt,nttg501r>",
">hrtVBj4.4M1zzu7rdjkkqq288ynw6wyd8attdty::tgr8&@,8M3uddvMrdd0%r8",
"jy#21;s;putNazu8qukbk%18Opwj2wjt>utud:8uu>r%&83o:0tpgekdtzdM::d5",
"=h44;2:=;qdq0M0utjjbMf8;>k828wj8-udt;,qhewqqeql;:t0otwzMd80d88MM",
"trhhp1<2:*88bzdglqewt8ttdNnt:8q:%e8:&*juew8tq:tt;wu5whdcvdq>8txz",
"njehrpO28@1rdxvMjw6588wukM8O;>qr:wqe21:utdt1wuutq88Mzkbvkd0-880r",
"=jlzll&;8;;1t8evwu::o%qqkt8ukd:;28uhdlj5d8dp*8q*;:>5lkt5>*;25qt8",
"=+<r;>2:;#;22qwwye;-qwajuu8>::o;8uudu55>tq0Mzuw*oO>::tewqqtwd>qt",
"4<;:rt>X;8thw6tqjld8tjyMd8%-*vadeudeuduwur&1zud:&%;%ruwueetdd56z",
"4jjjy4;X-2:-q:huzzkx8O2;>88r;ta8be0qdcv*ruwrqku:ehewuqhu81tzz5wb",
"wq:#:4:-2=w4tayuyzvz8tqw8qda5:885080dNz9%q;rttk6-:vbetzjf:xuN6dz",
"zd982=-y2qz>euzdwMzdq5wNvzxzrrud8utgqMzO*&12e:5c-:kkkjzuv5b5ztde",
"zNNyq2;bwcr:ddguzud88q8tdMM91d8ddbduug0$,35kg%;d8>q>6jjjMCVZbltu",
"tdMz>:qzkvk>wtt88t::ftudNk0.pa*B7bMMvztw1tudz>>;:->rtlzztuytqw5t",
"au;tt:2tudj0wgdz9trzz8ekdt8$M87a8wNz1z848eu:lz>>2;2thjq-O822w>qq",
"9atuMgt5ruvv58egMzwer>qtk8;;g1u8g:kt99M$why;4Muj1-;:qwju8;<#uttt",
"bvM9:vvqtzzb07tuzbbvq>w888;*2r1i%%8yttMtw62Oljkb2q24dqwwt4.+4u;X",
"MMvddMMz8N8Nu8kkuu5d>ewkew>:1*<@@10w8v8;q>;3kl>Cjy;2wxkkzdi42hrr",
"vug8Mudz3d5g8tdzuew;5uu8r8:8&&8@0aquwr88y>Oyzq:b4q:rd8mlxxsp11:q",
"g*%9dvd5drt9198%ydc>:euq152*4;8,.*uy:2:>2:=qk>tl4ttXnr4ryxVxjar2",
"0@o:<dr221:978w**wk::uu8d:Bztr1:sdMl:8tt>2Xjx>:wqh4=1n#48w5yi>:t",
"d57*07:a8&%8&;dz65w8qwhl8i&3rm8$o5;2;;3ejtq>zt>2q;1=a2#&8lyhxVle",
"dc7%tzddttr;0tb8euq:>uu8y9rOOnaoguq+:q>t2>2iw>r-=4:#pp@;ftjxh6yl",
"dMvvNkdMzt307MMuu;8u>te:zo&fO8d:g$jsmMkjwqq2yzxr2tp4;q:8zNNbaazv",
"duzzdgMMqq:p9uttw8-ty;yOdaoad8g;13y4q>yjlwquuNvbrdr:2a8dlzrx;1dr",
"twz:$*zi&48M0tdy8dzyqtl>:di<zMzp31:2q>zMhyt;aqMcrxr:t88yl8::;ddt",
"v7v8txz1dbvg:8ug:zwdtr2Mv1&9r0Olz4;:2jx2:uyq;ql:qlwy8dr>zqt50w5z",
"0Mddg038188t::pd7:1tuq:3tt:3;r;O:;<<qjjxVMw62;4rOqqdjumq:o>-zqqx",
"rzdt,$*t7o%q&@a$t8l7>a<Oo&;;=ps;r2=;:qdjjtr:#2z2#;2jzlqx8r58uzdz",
"8tk8%72*t0t597gMgwz:8tO&4at:-rhtzrr8;8q=+.;:-xw::ajqk2ql*:2;8utu",
">>dgz9:tk8g*1da7ggr;ydrqta&;4=iBf<yuqOyr.#=4j2:hzzrwwt;:2O*w8:1z",
"dwqvto$kuuu8:ttdc57*4>;th=X4rrm<i1plj>yh2>2:>26k-;tu8828O2&raa;d",
"et8dd88atu68885878*o;-tzy-pz<4sXBiraywlhw>hy>6jh8>;OO88u2;8rbmp&",
"dk50zur5quta8%:uqdMnpdms2hV<+42rzzjaw>hwyhyxxkhhuqtd:-88t:2dmyzp",
"kkM,t&tt:jdttg28uu0%;:+;4x21hht4#zljylh6yyw6:>h>>q::duu5aw;lxl:>",
"g*a9@7*88ukt%5;8Mvv8<ia9twhzxhyq=rwuhw4>wyyjqqeqey5;@$gtl>8tkdrr",
"u:37 0p8qdzt8ruhd5qtp9<4442l22j><#;2>w=>qwhyhww>k83&@7trud:rkk8q",
"t9$,$u9dtt8du82tuxxuda1#+=j>-zp=++4=qy2>jhwq;wwhteq;.788tqyt%>8d",
"lo@,7uadtu8dt88dtrvzsanztymhyl2r<#i+yhhqj>wyy6hhhw>r&<1<&4;*:MzM",
"t.&<&;otzd88*%88tlxlO ->r2rj1i-4hyh4hhh2hrqw6hhher2ytO;@$1ukvvvM",
":8qd:;&;lnq8>:8trtldltjh:=4j4X=qrlqhhhe>qhq=>>q>j;whha..*ubgMgqk",
"2ruu2:&Oqtdzd>:tkxkllt2alpqq4.=jrqr22lye;2-=-ej;hVhjzd2tuuta718k",
"2qe6u;:&udaMMt9tqdezbk4O#O;s==jr=4hl=>wy:ehyqy>yrtyuat;rzk5$o0Md",
"t-q>h>>qbd>z5gv8q8yakht<.=4V42r222lm==qtehq2->Xt4lzd1;8t00Mfrgt>",
"ya2>djtxt8wdqdr8yezatxxxl1=ih;thX=mh=>thw2;>X2ja>:wdlzzx0%*gg8%a",
"whyjxhxk:tkvkdzdyyyz>=rrnzp=4zjq=4hh4w44w:22p=w4rpadetqldr%pgatd",
"=-ma2>kbvvbgkrxthhhjsjhi4Vj4ymz>=2;p:hq>rh4hjhq-2q>dxzdr8r*o30zt",
"r4mO:>bbzN8e88aahh2q-<ahh2y;y2t24ljjtyrlz=>y=wypzledz89d5d&:u8eM",
"d2p;1dgduq>;dtaz>>hh2=<rkhwql;..X=phbjjj2>h;>>hq2MkdMNzrt8*d1dqv",
"lld&887uud9<$8rd2>>th4X:yhw>4p4<4=qxzzat:221-2>>&lk888tlr;ttzdq6",
"Bz3:*::utdaoOtutk===h=X=jwqw42>==yjlqljr1<=<>>22uy3&2MMqd888ddku",
"z:;>5raetay:tq88j;2htX;qtjjr;:lzljzeytyyyX+=->yht:##Mda8tt88tgqu",
"u238uugudytqueeuj2yeqyqwh>zt:32wyjurq2:rB<=1yqhh2Oimmdu88tt9:Mew",
"u1r&kujjlzzwqye><4hjht2==yzxdy>;=>qwqqq2hs=;;2>2q2;2O>qkgd8d:tuu",
"u$t-lh:z:ajqw>8dhjwxwtw24h44dt8q:dO4qzj:rsrek2yX=4=X8ewrO98qkw88"
};
