/* XPM */
static char *result[] = {
/* columns rows colors chars-per-pixel */
"64 64 211 2 ",
"   c #010700",
".  c #030F01",
"X  c #031401",
"o  c #051C01",
"O  c #111D0E",
"+  c #062401",
"@  c #082603",
"#  c #072B02",
"$  c #092C03",
"%  c #0C2A0A",
"&  c #13220E",
"*  c #18260F",
"=  c #073201",
"-  c #0A3404",
";  c #053C00",
":  c #0B3B04",
">  c #0D3309",
",  c #0E3C09",
"<  c #103E0A",
"1  c #152413",
"2  c #192614",
"3  c #162914",
"4  c #1C2B16",
"5  c #152218",
"6  c #19251A",
"7  c #1D2C19",
"8  c #143C14",
"9  c #1E311A",
"0  c #1A3C1B",
"q  c #1F3115",
"w  c #202D16",
"e  c #212E1A",
"r  c #223117",
"t  c #23341C",
"y  c #28371D",
"u  c #26391D",
"i  c #2A3B1E",
"p  c #1E2A23",
"a  c #1F3E22",
"s  c #232D24",
"d  c #262D2A",
"f  c #292D2F",
"g  c #253422",
"h  c #293623",
"j  c #263921",
"k  c #2B3C23",
"l  c #2A332C",
"z  c #2C3B2B",
"x  c #273C28",
"c  c #303F26",
"v  c #303D2C",
"b  c #292E30",
"n  c #2E3533",
"m  c #2C3931",
"M  c #2E3C38",
"N  c #313634",
"B  c #313A35",
"V  c #31363B",
"C  c #363B3E",
"Z  c #064300",
"A  c #0D4304",
"S  c #0E4B05",
"D  c #0E4409",
"F  c #0E4B08",
"G  c #054B00",
"H  c #104504",
"J  c #104C04",
"K  c #11420B",
"L  c #114C0A",
"P  c #0E5305",
"I  c #065800",
"U  c #0E5A02",
"Y  c #0F5209",
"T  c #115404",
"R  c #125C05",
"E  c #125409",
"W  c #135B0A",
"Q  c #195C0E",
"!  c #184017",
"~  c #184716",
"^  c #1B5315",
"/  c #1A5B13",
"(  c #1B5617",
")  c #0E6203",
"_  c #0D6C00",
"`  c #126304",
"'  c #136C04",
"]  c #14630A",
"[  c #166B0A",
"{  c #186D0B",
"}  c #0E7100",
"|  c #157305",
" . c #167C04",
".. c #197C05",
"X. c #167209",
"o. c #19750B",
"O. c #167B09",
"+. c #197C0A",
"@. c #1C6C14",
"#. c #1A6212",
"$. c #1D7512",
"%. c #1D7B10",
"&. c #216A1C",
"*. c #217C17",
"=. c #247C1E",
"-. c #1F4920",
";. c #2E4124",
":. c #26462B",
">. c #2F4129",
",. c #204E22",
"<. c #314325",
"1. c #354826",
"2. c #32452A",
"3. c #35492C",
"4. c #394D2D",
"5. c #255B25",
"6. c #2C5F2E",
"7. c #275329",
"8. c #2C4D32",
"9. c #344531",
"0. c #364B32",
"q. c #3A4D32",
"w. c #384D38",
"e. c #34473E",
"r. c #2E5435",
"t. c #2E5A35",
"y. c #3D5233",
"u. c #3E543A",
"i. c #32503D",
"p. c #286627",
"a. c #2A642C",
"s. c #286B28",
"d. c #276A25",
"f. c #277F21",
"g. c #2B7828",
"h. c #2F6733",
"j. c #336C36",
"k. c #35653C",
"l. c #366C3C",
"z. c #38683F",
"x. c #317433",
"c. c #317933",
"v. c #3A723F",
"b. c #415535",
"n. c #42563A",
"m. c #445A3C",
"M. c #485D3E",
"N. c #373E42",
"B. c #393F46",
"V. c #3B4B4A",
"C. c #394743",
"Z. c #375543",
"A. c #395444",
"S. c #375943",
"D. c #395D44",
"F. c #3D544C",
"G. c #3E5B4B",
"H. c #3A6344",
"J. c #3B6A43",
"K. c #3D6349",
"L. c #414F44",
"P. c #415040",
"I. c #485F42",
"U. c #405F4D",
"Y. c #465B40",
"T. c #404A52",
"R. c #435056",
"E. c #445855",
"W. c #42784B",
"Q. c #436750",
"!. c #0F8700",
"~. c #158403",
"^. c #198505",
"/. c #168B03",
"(. c #198D06",
"). c #1A840A",
"_. c #1A8C0A",
"`. c #169301",
"'. c #199404",
"]. c #179B01",
"[. c #1B9C06",
"{. c #1B940A",
"}. c #1E9A0B",
"|. c #1F8814",
" X c #209F0B",
".X c #228016",
"XX c #228D14",
"oX c #26841E",
"OX c #268C1B",
"+X c #259917",
"@X c #269818",
"#X c #269619",
"$X c #1AA305",
"%X c #1FA70A",
"&X c #18A804",
"*X c #1EB206",
"=X c #20A709",
"-X c #21AC0A",
";X c #21B009",
":X c #23BB09",
">X c #29A41B",
",X c #27B511",
"<X c #2A8125",
"1X c #288920",
"2X c #2C8328",
"3X c #2F892A",
"4X c #2A9A20",
"5X c #30A325",
"6X c #39AD30",
"7X c #22CA08",
"8X c #28D70C",
/* pixels */
"@ # # # + + + # # + @ # + @ # = - - : F F D [ F = : - $ % @ + $ K J | oXd J.| T ` =.n e g h k 7 2 z 0.h e 2.w.2.9.9.9.g 3 t k t ",
"@ # # @ @ = # # + + @ @ @ # # : F P A , F ] Y # $ - : , K L E E $ - ~.3XH.{ T Q D *.W.l.z 2 z h 4 & 9.2.2.c 2 7 h k 3 6 5 3 u 3.",
"+ # + + # # # + + # + + # + # F Z - > F Y : + # $ + K W ^ K [ D o - U X.{ L ] K ] }.o.|.h p 7 g 7 2 h w t t t y 7 ;.7 g 7 u t r ",
"+ # @ # @ # # A R F o @ @ # - = # : D F : + + % @ $ , < > K ] $ # # @ H E / E E ~.Q T $.g 7 e 7 1 2 2 r 0.v k * t q.q 1.7 u q u ",
"+ + # # @ = S P A F + + # = = # : : = = , $ % $ $ > < K > ] F o # # < K L L Q Q < E [ ..D.l y e O 1 2 2 4 3.<.w 4 y y <.u i u k ",
"+ + # @ # A : = = D + @ # = = = A $ # - : + # + + > , > E E + # # < ~ K < Q Q > L Q E ..D.z e 2 2 1 s 4 t 3.c h 2.<.y 1.3.i u 3.",
"+ + # @ : : = = A , o # = = - : $ = $ D : o # $ $ - % > D @ @ - : < < K E W $ A E L ' s.y 4 2 h 2 g t w t v h y k O i 1.4.i r <.",
"# @ + = A = = = F $ + # @ @ = # $ = - K + $ F K D F : $ @ + # > > < K L L @ , L K S p.l n h e e 4 h v 3.y y h t y 2 k i <.3.7 u ",
"# + @ = ; > = : , o + $ - # # # = = : $ > F > $ $ , - o + @ - > > > : > o : L K R <XE.z.F.e y 2 e k c 2.0.t r 4 2 y t 5 u 3.q.M.",
"+ @ # # - ; ; = + # Y Y ] D @ # = = # $ , # @ $ , > o + - D L K K A + o + F K > F +X/ ~.K.V t e e k 3.h h k u r 5 4 4 z 1 u y.y.",
"# ; # # ; - = > A Y A ; R # + = F $ # $ + o + > $ o @ A A K K < W - X + @ # + # , # ; / s 7 e e e k 0.<.c i ;.t 4 1 t n.7 9 i q.",
"- # @ = > ; = ; : = + S : o + = ] D + # o + @ + X + $ - > K < L A @ = @ + o # A - A ' F ^ ~ 7.A.y y h w y y t 7 r k 2 n.b.u ;.M.",
"# + @ # = = $ = = = : - + @ + : L ] > + + + X = o.- o > $ > , - @ : L S $ + = = # A = = = - U 6.h c w i y 4 r i 4.i t 3.4.I.u I.",
"+ o @ # # # = = = = = + @ # @ - D ] X.+ + X $ %.).$ o # $ $ $ + - > > L + + + + + + @ - K L T i.h t y i k c 2.;.y.;.i 3.2.m.1.u.",
"+ @ - # # # # # # $ + + o - = - D X.).o o = [ X.W + o o @ $ $ - > > F , o @ + # # + # = , E Q / 6.A.2 y 3 2.r u.1.i 4.u k ;.y.;.",
"o # A # # + o + $ + + # # : - A D o.Y X = ] Q ] W + o + + + $ > : > A # @ # # # # # + = D - # L R Q m O 3 u 1 2.4.* 3.j >.4.;.2.",
"+ # A = o + # = A @ # # # - - D D X.= o Y W W W Y + + @ + o $ : - = = + + # # # # # # $ # # : / L ^ * r w r h r g j 3.;.;.k t u ",
"# @ - - + # # - , @ # # # @ A E W ] $ , E E D W D   X o + + = $ $ # + + # # # # # + # # # : ^ L T r.t k k k t 2 3 t k ;.j j 2.9 ",
"# # # = # # = A : @ # # # , E E W W F F F D F ).] : > + o + + @ + + + + + # # $ # # # + # ; : F 8.* k k w k 4 3 j k 2.j j ;.;.y.",
"o = @ + $ # = A $ # # # # : : : : , E E D F o.X.[ +.{.Y X + + + + + + + + # # # + + : ] D + 0 m b t k r 3 c 2 g 3.3.9 t >.4.y.u ",
"$ # @ # # # = - # # @ # : , : : > $ A E E W W L D W _.$ X + + + # # $ # + # + + # ; F W }.'.-.S.A.9.4 s 7 j O 9 1.i ;.y.y.4.4.y.",
"= + : : @ # = - > > = = - : : : : - F L W E E W W _.E + > + + + @ + + # # # # = Z Y A ] *XX.F P W ] d.J.2 k 7 t j u 1.;.;.y.;.;.",
"$ # J : @ - : > : : , : : - A : - = F F F F E ] O.Y o = # o o o + + + # = # = A W : ` %X= o S A A - I -Xk w u k t t 1.;.1.1.i y.",
"# - J : @ = $ = = - H L , = : , - , : A ] A W W > $ D Y D = : $ o + = = = : A Y W O.[.= o S S D A I }.K.5 e r y 7 9 <.3.i 4.4.4.",
"$ : J $ @ # - - - , D - - A , : , A J ] F : - - F ] W Y Y ] o.[ U E 0 ; = F T W '  .# o S A A G ' .XU.N 2 w c r u t g 2 g 2 9 q ",
": : - @ = - - # - D A - : , : - : H P : # > $ D F - = = F ] Y ) { F.V :.Z # : = @ o o S ] ` ] $.c.2 e * 2 c i 1.k k 7 & 1 0 t >.",
"- : - - , , : - : A D Y - : : : : A - : - - = # # : : D F : Y ( b b N.T.$.; + @ $ - : : X.H.G.h h u i t t w h 2 7 ;.2.u r r >.4.",
"A A A A - H A , , - R R > D A : : - , , $ > = > - = = $ # D W Z.H.s.V.f G.=.) G G A P : ` K.n k h e e t y y 5 e k 2.2.;.;.;.4.1.",
": - = @ $ T : : , U R - : F F A A : : : # # $ = # # # $ A Y W #.U @.V.l b N.D.h.r.5.&.%.~.g.y e t e h 2 e t t 4.2.k k ;.1.4.i i ",
"= = # # J , - : F A # - - $ - W X.: $ @ + + + $ $ $ - D D - , # E S.b V l d N g 6 w y B j.k.e w w y O 2 t k 2.k u k 7 4 9 0 t b.",
"@ # # - , - A : , - : - - A E P - + + + + + + $ ; , D ; - , - Z 5.d b V.i.8.8.e 6 2 1 e t w e e y e 4 2 c v y r u r k u i k 9 & ",
"@ @ = A - A , A A : # , F S : @ + # # # # # + : A > = > - - , G L ,.5.L A G 5.6 e 2 e e h e e 1 e O e e 2.w 4 k k u t 1.q.0 9 3 ",
"o @ - : - $ = - F F , T S F T = + + # # # + + - # @ + + > , D : : ; = - A G t.s 7 d x 2 4 7 7 5 5 O 6 >.q.v u c ;.<.4.1.<.4.m.w.",
"@ # = # = = - : - - : > = , R : $ $ + + + # # + @ @ + @ = ; > = : - : S # U S.n p s.k.l x 0 8 8 , :.k v 2 t 4 <.1.i y <.i r t 3 ",
"@ # $ - - > F S : = = = A R E L F F F Q Y + # $ # # - - - - = A F : F : = @.n V.@.`.] % ; Z Z Z ; , r.5.@.&.h t 3.7 2.3.u.k >.9 ",
": # # $ # # # $ R L $ L T , - A F Y W ).A + $ # @ # # # + + = A A $ $ # E G.M ] ) X.) = A : ; A ; = = # I h.l 9.2.e r 2.y.u.I.;.",
"J $ @ # # # @ A R : A A $ > A F : F o.] o $ # + + + # # + # : > > A G a C M W ' F ] ] - : Z ; A - = = - ` r.K.u.q.h e 4 4 1 9 t ",
"@ # $ # # # F T - : - $ - : - : Y +.X.# + + + # # # # + o : : Y W './.0 M W _ W Y ] X.Z : : : ; = - A P S S R o..X1XH.<.t 7 0 t ",
"# # $ $ - , A - $ - T W R R W [ X.W + o # + # $ # # + + U X.] ' O.O.[ = G [ Q E Y W O.A ; Z : = - A A A A S A A } %XJ.A.2.u i j ",
"@ @ # # $ # + - = R ..[ [ X. .W : > : > # # $ $ $ + # ] [ E W ' Y [ [ - ` [ W Y F [ ).: ; : # = , A A A A S U ~.2XR.s 4 t t k 4 ",
"# $ # $ # # $ > ' | L A A R | - # A ] F + # # # + o P [ L F ] R F O.Y F F Y W Y ] O.G # = # # A A : - , T ` ^.J.h p t h 3.<.h 9 ",
"T R S @ # = - R U : A ; S ..R > F F : $ # + + + $ E W W Y T E L O.X.D Y F F W [ W , # $ = - : - - : A T U /.l.l t u u 1 h m.j 2 ",
"S ] S # ; : A S - A - P ' A + - : = + # = : > F ] ] T L E W E [ _.F F Y Y F G , + # ; - - , - - : S R W ~.c.N h 2.k h 7 5 t q.;.",
"R : # : : : : - A = U ^.' : + o + $ = A F Y W [ ] E W R E E ] (.] Z Y F A : = # o o + D J F S T ` ] ).{.k.g N.r k 2 2 k k 2.1.3.",
"- - - : : : - A : : S T T ] X.| - + A A # @ # S [ ] [ [ { +.{.R - Z , ; = A Y X.| ) + Y [ W ] ] ] ` W | <XB z 2.j O 2 * u <.;.;.",
"- - - - : : A - : A A - # U $X~.# , ] R T K # o H ] [ ] ] ' F = : - $ : F Y Y Y ] _.).] D ] ] Q Q R Q W | OXF.l & 3 g 9 2.3.<.y ",
"- $ : H - # : P A - A : ' $X' X F [ S S P R ] ` $ - : : - - : - - [ O.] F A D D A , ` _.(.P W [ ' ] ' [ [ ~.XX9 2.u ;.j >.1.r r ",
"- J ` T U ' P - R R R  ./.F X A E = A A S S S ` ` + : A A : - : F ) O.{.}.).W A F F $ ` 6X|.P L W [ [ [ o.| ].z.0.u u 3.u.u.1.4.",
"H ` ' ' ' ..(.T $ < A A o . # : # # P T T R S = ` U = : - : S U U S : E ).%X*Xo.D Y E ' v.Q.@X(.{ W ] ' ..+.`.g.;.k 0.q.0.3.;.j ",
"R H H H T J R (.{ : @ @ A A = + # - - S P F L ) ~.*X` @ S S U S A S R [ E ] %X7X%XY Y } %.S.5X8X,X:X@X.X+.'.&Xg.j 3.u.a 3 k 0.3.",
"' ' | ' | ....| { T @ T ].]./.~.| ) R A U | /.~.J : - - S J J S S R [ W [ }.%X_.[ A # $ Y | ' Q '  X@X>Xz.D.1Xk.P.4.0.3 9 3.3.k ",
": ' | ..| ` T - : J - R ` ) ' | ].7X| $ R ' ` : o o @ : S : A [ [ [ [ o._.O.Y + + : W ` W W W ] ' [ /.OXV.B 4 >.q.3.9 3 9 3 3 4 ",
": - : H : $ $ : /.| $ ` ` ` ` T ].` X # o @ + A - : T T W [ S = E Q R P ; % # ; F ` ' E W [ | O.).^.XXD.e.e 7 >.k 9 j 3.r.j 3 u ",
"J T H : : : T R ].T o S ' ` ` `.` o S T , X o - T T S U P T X.` - A A - > : > : Y ] W Y W [ ] R ] `.c.B h w 7 9 9 9 9 8.3.4.2.q.",
": : $ - < R T R /.P # - T | ~.R + A A P | T = o $ T ` ` S - S ..' D W A : : : > > : ] [ ] [ [ | ].OXC.k k k 2 7 k k ;.3.4.y.2.t ",
"' H $ : T T J ^.~.$ - : ` ' - @ A A : A T $XO.+ + - T T R ' A # ..R Y P P Y Y F : $ : Y W ] [.@Xx.T.h B 3.6 r j k 0.4.y.b.y.2.r ",
"R - - H R J ) ~.D + $ - # o # D A S S : ' U # + + + o o : R ' T ~.' K R P S P U R J $ $ - > | @XC B k 7 2.e k k 3.4.u.>.9 ;.9 3.",
"- - : T J T ' P $ : % + - : : - , L ` R @ X X o @ # @ @ - > K ' {.` D W [ Q ] ] ] { W L P ) _ $XJ.d 4 2 k h y t ;.y.;.y.;.>.;.;.",
"- - : T R T A % S ` ' ) : > - - - $ # F S : ' '.R @ @ @ H : $ $ A A Y T [ [ ] { { [ [ { (.XXf.OXw.g e t 4 u 4.t 7 u.1.3.0.3.u.0 ",
": : : H J - # - > A  . .: = - > - - = o - ..~.S @ o @ + T E J T Y R W [ Q [ [ ] ] [ X.X. .XX5 h e u k h <.2.4.3.9 u k 9 u.t 3 x ",
"R ..T o @ $ > > : L , # > > = > $ - - `  .E o $ ] A o o $ { o.{ {  .P ] [ [ [ [ [ ' | [ X.(.H.N e 7 h k w r k k ;.u ;.9 3 0.3 9 ",
"R | H @ $ - - $ # + o o $ - ; D S ` [ | : o F W Q ..T o o A +.] ] o.[ R ` [ [ | X.$..X(./.`.j.d e 2 h 3.<.2.q.w.;.2.2.;.9 j >.3.",
"' ` @ > - - - - J ` ' U > o + A F A - o - [ W L L L +.E X o L +.Q ` ^.=X| ' { [ ..k.s U.k.XXj.l 2 w & w 3.<.<.k t 2.4.y.u u j >.",
" .T # - - $ A : H T ` | ^.| : o @ $ # - : W +.X.[ { +.^.o o . T  Xo.` /.>Xp.~. .{.H.s g s 5 g t h k k <.;.;.k i 8.;.b.<.;.3.>.3 "
};
