/* XPM */
static char *result[] = {
/* columns rows colors chars-per-pixel */
"64 64 211 2 ",
"   c #010700",
".  c #030F01",
"X  c #031401",
"o  c #051C01",
"O  c #111D0E",
"+  c #062401",
"@  c #082603",
"#  c #072B02",
"$  c #092C03",
"%  c #0C2A0A",
"&  c #13220E",
"*  c #18260F",
"=  c #073201",
"-  c #0A3404",
";  c #053C00",
":  c #0B3B04",
">  c #0D3309",
",  c #0E3C09",
"<  c #103E0A",
"1  c #152413",
"2  c #192614",
"3  c #162914",
"4  c #1C2B16",
"5  c #152218",
"6  c #19251A",
"7  c #1D2C19",
"8  c #143C14",
"9  c #1E311A",
"0  c #1A3C1B",
"q  c #1F3115",
"w  c #202D16",
"e  c #212E1A",
"r  c #223117",
"t  c #23341C",
"y  c #28371D",
"u  c #26391D",
"i  c #2A3B1E",
"p  c #1E2A23",
"a  c #1F3E22",
"s  c #232D24",
"d  c #262D2A",
"f  c #292D2F",
"g  c #253422",
"h  c #293623",
"j  c #263921",
"k  c #2B3C23",
"l  c #2A332C",
"z  c #2C3B2B",
"x  c #273C28",
"c  c #303F26",
"v  c #303D2C",
"b  c #292E30",
"n  c #2E3533",
"m  c #2C3931",
"M  c #2E3C38",
"N  c #313634",
"B  c #313A35",
"V  c #31363B",
"C  c #363B3E",
"Z  c #064300",
"A  c #0D4304",
"S  c #0E4B05",
"D  c #0E4409",
"F  c #0E4B08",
"G  c #054B00",
"H  c #104504",
"J  c #104C04",
"K  c #11420B",
"L  c #114C0A",
"P  c #0E5305",
"I  c #065800",
"U  c #0E5A02",
"Y  c #0F5209",
"T  c #115404",
"R  c #125C05",
"E  c #125409",
"W  c #135B0A",
"Q  c #195C0E",
"!  c #184017",
"~  c #184716",
"^  c #1B5315",
"/  c #1A5B13",
"(  c #1B5617",
")  c #0E6203",
"_  c #0D6C00",
"`  c #126304",
"'  c #136C04",
"]  c #14630A",
"[  c #166B0A",
"{  c #186D0B",
"}  c #0E7100",
"|  c #157305",
" . c #167C04",
".. c #197C05",
"X. c #167209",
"o. c #19750B",
"O. c #167B09",
"+. c #197C0A",
"@. c #1C6C14",
"#. c #1A6212",
"$. c #1D7512",
"%. c #1D7B10",
"&. c #216A1C",
"*. c #217C17",
"=. c #247C1E",
"-. c #1F4920",
";. c #2E4124",
":. c #26462B",
">. c #2F4129",
",. c #204E22",
"<. c #314325",
"1. c #354826",
"2. c #32452A",
"3. c #35492C",
"4. c #394D2D",
"5. c #255B25",
"6. c #2C5F2E",
"7. c #275329",
"8. c #2C4D32",
"9. c #344531",
"0. c #364B32",
"q. c #3A4D32",
"w. c #384D38",
"e. c #34473E",
"r. c #2E5435",
"t. c #2E5A35",
"y. c #3D5233",
"u. c #3E543A",
"i. c #32503D",
"p. c #286627",
"a. c #2A642C",
"s. c #286B28",
"d. c #276A25",
"f. c #277F21",
"g. c #2B7828",
"h. c #2F6733",
"j. c #336C36",
"k. c #35653C",
"l. c #366C3C",
"z. c #38683F",
"x. c #317433",
"c. c #317933",
"v. c #3A723F",
"b. c #415535",
"n. c #42563A",
"m. c #445A3C",
"M. c #485D3E",
"N. c #373E42",
"B. c #393F46",
"V. c #3B4B4A",
"C. c #394743",
"Z. c #375543",
"A. c #395444",
"S. c #375943",
"D. c #395D44",
"F. c #3D544C",
"G. c #3E5B4B",
"H. c #3A6344",
"J. c #3B6A43",
"K. c #3D6349",
"L. c #414F44",
"P. c #415040",
"I. c #485F42",
"U. c #405F4D",
"Y. c #465B40",
"T. c #404A52",
"R. c #435056",
"E. c #445855",
"W. c #42784B",
"Q. c #436750",
"!. c #0F8700",
"~. c #158403",
"^. c #198505",
"/. c #168B03",
"(. c #198D06",
"). c #1A840A",
"_. c #1A8C0A",
"`. c #169301",
"'. c #199404",
"]. c #179B01",
"[. c #1B9C06",
"{. c #1B940A",
"}. c #1E9A0B",
"|. c #1F8814",
" X c #209F0B",
".X c #228016",
"XX c #228D14",
"oX c #26841E",
"OX c #268C1B",
"+X c #259917",
"@X c #269818",
"#X c #269619",
"$X c #1AA305",
"%X c #1FA70A",
"&X c #18A804",
"*X c #1EB206",
"=X c #20A709",
"-X c #21AC0A",
";X c #21B009",
":X c #23BB09",
">X c #29A41B",
",X c #27B511",
"<X c #2A8125",
"1X c #288920",
"2X c #2C8328",
"3X c #2F892A",
"4X c #2A9A20",
"5X c #30A325",
"6X c #39AD30",
"7X c #22CA08",
"8X c #28D70C",
/* pixels */
"t 4.r t i 4.<.i m.y.4.m.I.y.>.2.i 9 4.u y.;.b.4.q 2.4.1.i y.3 3 w.3 9 2.u t i 4 9 1 ;.4.<.r 9 4.u 3.;.4 i q.t t 4.;.0 x 9 2.2.3 ",
"k u t r y y r 4 y.y.k ;.k 1.y.;.t >.<.y.4.;.;.3.q 0 <.4.;.t 3 q m.t ;.m.9 9 j k h h 0.<.1.<.9 3.;.4.3.3 3 2.<.<.0 i u.3 7 >.k ;.",
"t 7 u t i i i 4.3.u 7 u M.m.;.4.j x ;.4.4.y.1.1.3 0 r <.4.9 x t 4.r i n.3 9 u 9 k Y.u 2.<.4.<.y.3.:.2.3 j 4.n.y.;.;.3.9 0.a i 2.",
"5 5 7 r r 4.4.2.t 3 7 n.4.3.k >.;.j k ;.y.;.1.a y 3 r i 2.t i y.<.a b.y.4 9 3.t 4.z O ;.r 1.2.u.0.3 9 9 r.3.4.y.4 ;.0.u.7 q u <.",
"g 6 g 1.;.1.1.y 2 z n.n.3.1.u u ;.;.k t u.<.<.2.2 & i ;.k 4 u <.1.<.4.>.4 k P.7 h 1 7 h 3 7 t 4.q.0 3 3 9.>.2.y.2.w.3.q 9 ;.y.:.",
"3.5 4 r u t i k u 4 t 1 9 ;.4.3.3.k 2.9 ;.<.<.2.g 7 2.2.k 9 i u 4.u >.t q H.J.s t t y 4 1 g ;.h q.n.4.t x 9 ;.4.u.;.4.k k 2.4.b.",
"3.x ;.0.i 2.& 2 u 6 3 i i k ;.1 x t i 3.i i t 7 t k ;.2.<.h t t 2.k 7 9 l 1X%XF.7 g k 3 & 2 i i k 2.0.3.9 9 k 4.3.y.u.t u 2.3.u ",
"3.x 7 r 4 2.k t 2 2 4 r 4.y.<.4.t 3 i 3.<.h t 7 h k 4 k 2.r y ;.<.2.2.2.y.oX_ 2Xh u 2.k h & 2.q.z u P.0.;.7 x k 2.>.9 t k ;.u 3.",
"2.7 y 2 w k h e 4 t t 7 i ;.u.2.t 1 1 g 9 t k i r <.2 w 4.c r c k <.t 2.u.+.A ~.J.h h u c l r l.g.<XH.k >.t 7 h ;.t u 2.h y.k k ",
"w.2 t c <.k h h w y k u r 2.t & h t 4 4 & 7 t t c c h 2 e <.t 2 t w k l K.R ; R ).l.n N.m U.XX].`.&XOX4 7 9 3 7 k u 4.q.k q.<.k ",
"2.z t c 9.4.2.y t k i y 4 c >.j w k k k j k r 7 w k w t y c v t c e &.h.r.S A L ` /.c.g B OX~.X.+.'.G.v 7 4 h 4 9 j u 2.t 2.2.<.",
"e 2.y 9.2 t t y 0.h c y y k 3 3 t k w 4 7 2 h 2 2 4 t k w e c v q.2 @.U ` J A A P U ..z.<X| ] | ..%.J.C.C.j k 9.>.j 4 <.w <.2.<.",
"h 2.e w 2 4 w 2.<.i 2.w i i y O w k k r p J.-XJ.N 1 e t * 2 w w v 2.5.# ; P A A : T R }.| R [ ' | .X>XOXF.B k 9.7 4 t k i 2.w <.",
"0.9.h 2 3 s y v c 9.9.h r i 2 m 2 t k k 4 d.U {.U.e y e s 1 2 e 2 h r.= = D H ; : : R ).Q ] [ { ` @X@X~.{.c.B.h h 2 w k k h * k ",
"z 1 2 2 O 2 h h c y k y k t Z.Q ^ r.2 7 9.] $ U XXw y e w h w O O :.< = = - A A : : L ] R W ] { W :X}.' ^.`.OXT.v d g h w 2 7 h ",
"2 2 7 1 & 2 2 e e w e y y h a.R E P 8.f Z.W A : _ c.h h t w s e 6 < ; - - = - A ; : : R ] R [ R #.:X{ [ _.[ ].x.C H.e.g w e 2 y ",
"w k h 4 7 2 h t 2 w e A.6.i.( J ^ T L n S.P Z F A %.g h u 4 t 2 5 8 Z A D ; = $ A : - T ] ] [ F _.8X] ] O.R X.+X4X$XOXg V g l t ",
"k k 7 7 h 7 1 w y t g 7.U T R # : ^ : 0 -.F S F A [ G.n t t t e 6 0 Z ; ; A ; $ $ : - J W ] W S @X5X` Q X.) [ [.| _ f.2 H.j.j.g ",
"h 2 7 7 h v 4 g e V 7 ~ - L ^ = + A : @ '.O.o S F R H.H.d.k.4 e 7 ! Z : : ; A = # - : L W ] P |.Q.D.| R [ [ [ ] - ) XXXX(.`.OX5 ",
"s z h l G.S.h n F.K.s ^ ; < : K # # + D {.*X- X S ] o.` /.j.t y 3 m ; A ; , ; : = # - L [ F _.6XJ.$.P W W ] W ] = P _. .' ~.k.s ",
"e l.|.$.....s.z z. .Q D = - = # = # + ] W ` *X# o S ; Z o.B e e 4 b > = = Z A ; # # : A Y R {.] | } - ] Y Y ] Y # P [ X.X.(.K.g ",
"n W.$.T [ E _ p.E./ Z ' - + # + # # # - F D ] [.$ o : S &.h 2 w k k.] ) ] X.O.).S # ; + + ).] $ Y P $ R X.W ] , $ Q { X.| *.s g ",
"oX*. XE L Q L S <X+X# D A + # # # + + + = W A O.| o ; A 5.e 2 2 s s.`.X.] ] W [ O.: + X ) _., Y E E : : ] U , $ F ] [ [ ' $.D.H.",
"` A ] ).K L E K R T : : + + # # # # # + = Z Y W ' # $ A 6.6 2 s 7 g @.U F Y Y F ] R + + X.] D G D %X[ @ F P = : T [ [ [ [ | O.{.",
"L Q K E #.> K L K > + D - + # # # # # # + = F P W = + I h.s 7 2 g n V.] _ W W Y W ] Z + [ W F , o.7X_.@ : : : F W ] [ ] { { '  .",
"| T #.E E W - , L K + # = + + # # # # # + # = A P : o ) D.m 8.5.t.Z.V m ] ] ] W Y W F = Y Y D W *X$X*XS @ - : Y T ] ] [ [ [ [ ^.",
"v.{ J Q L Q Q + : L # o o + # # # # # # # + # ; F $ ; =.N.b 7.G Z U @.G.V W ] ] W F F ; A Y D ).-X] {.).% = , P S W [ X.] [ | p.",
"d H.{ L L K E K o + + + $ + o + # # + + + # = = = ; $.G.f b A.D : = = Y N.e.G ) F F Y A = F F [.+.E [ _., = : E E [ ' W { ] | >X",
"oX3X| H K K K L - o + + L F : + + + + + # # # = ; :.R.f l V V.L - S ; # a 0 = ; F Y F Y : : ` {.W [ ] X.T - F T E R L [ ] R =X/.",
"| ~.T + K K K K > + X - J > L L = + + # # + + = 0 n C V.V.b m 5.; : F $ Z /.[ ] W D F Y : # +.o.: W ] [ W ; W S D L T T U [ ^.R ",
"S - : # $ < K < > D : + A > - - - + + + # + + + ^ F.f p.@.D.d -.; - , $ A {.O.[ O.X.F D A = [ ` A S W [ W D D U ' ] S R O.X.] o.",
"A # o # @ $ , > - K E A # - > > $ - + + @ + + o ) [ l H.U E 5.L - - F A = ) O.P F O._.W = : = P U D T [ E - ' ..^.'.D T { R Q =X",
"> L K $ + + > > > , < L - # > : - > @ + + + + = [ ) ( Z.#.# Z F D = A A $ P [ X.W L ] (.Y - : : T S S ` = ] ..$ T ' $ E [ ] +.T ",
"+ W ] [ L + + $ - L K < , @ $ $ $ - + o + + X - o.Y Y W W : - , D - - $ , : ) W ' E E ] {.S : - S T T A S [ A S ' H $ J o.o.L X ",
"@ K K 8 ] T # + # D 8 D > $ @ + + + + + + + X - [ ] ; A Y , , = : : - + @ : X.E L P W E +.[ - : ; S T : [ R ; ` R > : E { H o o ",
"> K E > > E K @ + ; A > - $ + + o + + X X = % D Y F D $ A , = > - - - @ + o U [ L Y R E X.] - Z : A S S R T S R : - H E $ X X @ ",
"$ , W < K > > $ o # D - > # + + + o + E - + $ Y Y - D # # F : - + @ - + # + + ` ] W F E o.` : A : # : - T T ` R o # + @ @ o E ^.",
"> : K < K > $ : $ o + # + X X o + X - {._.Y + D W - , = # - D = + + - # + $ + $ P ] E W { ' : : - ] - + T S R T o + + # o J +...",
": - + $ > > = L : > o + > $ + + o   : O.W ).F $ ] - - = # # , : @ # $ # + # # + o Y ] W ] ] - + T *X: o A T R = @ + @ o : O.L { ",
"- $ @ $ $ + $ H % : > X [ |.] W Y F ] ] F W +.: F A $ - # = = , $ + # # + # # # + # ] Q ] H = ] '  .S o $ T $ + + @ R + ] Q L X.",
"F # + % @ @ = D $ > > + $ +.[ ] W W ).X.L E [ W - D $ , $ $ = : $ + # $ + # $ # $ + F [ S o ` ` = ` ~.A H = o + + @ (.F - W F X.",
"[ P + + $ @ + F > @ + + X - X.W W D F +.W E E E : $ $ = # + + + # # # # + + # # # + : W # $ ] S S J ~.R @ o =  .@ X ' ~.o D W +.",
"D W A + % @ + $ F $ X + + X - ] W E D F ] E F D : $ - $ # + + # + % + + # # # @ @ + : Y + D R S T L  .' o o R $XR . : ..P o [ W ",
"F F Y : : , , + - , + + + + X = Y E F D E W F ] F $ > - $ + + # # + Y A o + # @ # + = F # J T S T S R R o : ' P ` $ F : ..: > : ",
"F : D S # = D D $ $ - $ + + X X X : L E E L F D ] A - A - # # @ # + W ).] @ o : F $ # Z : W F A T S Z $ # T S A : ` F o R | + = ",
": D : D = # = = : # + + - X._.Y - # E E A D S : S P - : A $ + # # + F ] o.X.+ : ] , + = D ] T Z T : R | o A A A A ] $ - : [ = @ ",
": Y : : , $ $ = = = > F ] ] X.+.[ [ R : # = = : D D , : , : + @ + # F F F +.W - : Y $ # + A [ - # : ` 7XU o A A S S $ - $ ` F # ",
"$ F ; # : D = # = # D ] F D , D D W Q : > : : > : : : - A X.- + + # Y F D F o., @ F : # - # D E # # | `.$X` + A A A - - $ S S + ",
"- : F = $ - : # = # # : ; - - : K E E : : : : D > : : : D R P + - : L A Z : [ W - - : X | ~.X D Z + ^.| U `.R + H : - - - D A + ",
"$ # $ - = = = $ # + + + + + - > - D W : : : : A : : : , F - T : E U E > A : Q O.X.` o + | $X' X + = /.' ` ` ^.= $ - - > - - + : ",
"+ + + # = = = + $ A = X + # - : - + : : , : - - : : : A F $ D S F : R : - - R | R ..A : ` T $XS . A `.` ` ` | ' o : > $ - - o | ",
"+ # # + + = - + - ] W : + + + # # # # # > : - : : : - , : - - F J = D T $ - W ' A S [ [ R # ' /.o A ].` ` ' U R # > : : > $ - ^.",
"# + + + + @ # = - Y - S - + + # # $ # # # - : L , > E R - - - : E - - L A @ ] [ A : P ..T - A ..A # S R ` S $ : > o )  .$ @ T | ",
"+ # + o @ + o + o Y G + : = + + # $ # # + - : A D A A R W $ - # : : - $ A : P O.S A = U J A : R A + # : $ o % - = # '  .: o ' ` ",
"+ + + S K D : $ o $ F = = : # + + # # # $ - : > : D A > U A - : D - - F : : - U | : A = : A : R : - T S | P P - @ : ` A S + ` T ",
"# @ + R S = D F : + A A # = # $ : , : $ + : - > $ - : : D F : D F : : W E - - # [ R ; A : ; A R # | | - /.]./.~.A $ S > A + J H ",
"$ # @ ; P $ = = : = = - = = $ @ : : A A = - > = > # - A : : : A - : S $ S T - - - R S : ; : P - T (...- : T R ^./.P $ - $ - : > ",
"+ # # # L ; = : ; - ; = = = @ o # # # = = - : $ = - : D : > : H # : S # + H D + $ : A - : : : T (.R ..T $ T T T ` ' H $ > $ - : ",
"@ $ $ # = A : - - = : - = # # + + # # # # # = = # - : K L : - A # = > # $ $ A # # - ; : : : # ' ..T ..` $ < R T J T R - $ > - - ",
"+ + # # + $ : A : ; = - = # # # o + # # # @ @ @ + $ A - $ L : - - = - # # $ $ # @ # : : : : - T ` T | { : : : T T J R H + $ - - ",
"# + + # # + + - = # # = = @ # @ $ - = + @ : : : = + - H # + - H : # > # # # $ # $ + $ : - : H R ` J { ..: : $ : H J T H o $ - - ",
"# $ + + # $ # + + # # + + # - D A - $ + $ : J J H : - : = # # - - $ $ # # $ $ # @ E H # - - < R ' J ' ..: J $ - - : : : U D % + ",
"# # # + + + + + + + : # o o # # # # # $ # @ # - : : A A : $ $ + # # + $ $ $ $ + $ R ` H $ - $ J ` J ` ' : T : H : - - H | ' _ U ",
"+ + + # + @ + # + + = ; @ + + o @ $ # o # = $ # = ; - : : = + + + + + : J # + + @ T J T : - - > H R ` : : J : ' R - $ - ` R ' | "
};
