/* XPM */
static char *result[] = {
/* columns rows colors chars-per-pixel */
"64 64 211 2 ",
"   c #010700",
".  c #030F01",
"X  c #031401",
"o  c #051C01",
"O  c #111D0E",
"+  c #062401",
"@  c #082603",
"#  c #072B02",
"$  c #092C03",
"%  c #0C2A0A",
"&  c #13220E",
"*  c #18260F",
"=  c #073201",
"-  c #0A3404",
";  c #053C00",
":  c #0B3B04",
">  c #0D3309",
",  c #0E3C09",
"<  c #103E0A",
"1  c #152413",
"2  c #192614",
"3  c #162914",
"4  c #1C2B16",
"5  c #152218",
"6  c #19251A",
"7  c #1D2C19",
"8  c #143C14",
"9  c #1E311A",
"0  c #1A3C1B",
"q  c #1F3115",
"w  c #202D16",
"e  c #212E1A",
"r  c #223117",
"t  c #23341C",
"y  c #28371D",
"u  c #26391D",
"i  c #2A3B1E",
"p  c #1E2A23",
"a  c #1F3E22",
"s  c #232D24",
"d  c #262D2A",
"f  c #292D2F",
"g  c #253422",
"h  c #293623",
"j  c #263921",
"k  c #2B3C23",
"l  c #2A332C",
"z  c #2C3B2B",
"x  c #273C28",
"c  c #303F26",
"v  c #303D2C",
"b  c #292E30",
"n  c #2E3533",
"m  c #2C3931",
"M  c #2E3C38",
"N  c #313634",
"B  c #313A35",
"V  c #31363B",
"C  c #363B3E",
"Z  c #064300",
"A  c #0D4304",
"S  c #0E4B05",
"D  c #0E4409",
"F  c #0E4B08",
"G  c #054B00",
"H  c #104504",
"J  c #104C04",
"K  c #11420B",
"L  c #114C0A",
"P  c #0E5305",
"I  c #065800",
"U  c #0E5A02",
"Y  c #0F5209",
"T  c #115404",
"R  c #125C05",
"E  c #125409",
"W  c #135B0A",
"Q  c #195C0E",
"!  c #184017",
"~  c #184716",
"^  c #1B5315",
"/  c #1A5B13",
"(  c #1B5617",
")  c #0E6203",
"_  c #0D6C00",
"`  c #126304",
"'  c #136C04",
"]  c #14630A",
"[  c #166B0A",
"{  c #186D0B",
"}  c #0E7100",
"|  c #157305",
" . c #167C04",
".. c #197C05",
"X. c #167209",
"o. c #19750B",
"O. c #167B09",
"+. c #197C0A",
"@. c #1C6C14",
"#. c #1A6212",
"$. c #1D7512",
"%. c #1D7B10",
"&. c #216A1C",
"*. c #217C17",
"=. c #247C1E",
"-. c #1F4920",
";. c #2E4124",
":. c #26462B",
">. c #2F4129",
",. c #204E22",
"<. c #314325",
"1. c #354826",
"2. c #32452A",
"3. c #35492C",
"4. c #394D2D",
"5. c #255B25",
"6. c #2C5F2E",
"7. c #275329",
"8. c #2C4D32",
"9. c #344531",
"0. c #364B32",
"q. c #3A4D32",
"w. c #384D38",
"e. c #34473E",
"r. c #2E5435",
"t. c #2E5A35",
"y. c #3D5233",
"u. c #3E543A",
"i. c #32503D",
"p. c #286627",
"a. c #2A642C",
"s. c #286B28",
"d. c #276A25",
"f. c #277F21",
"g. c #2B7828",
"h. c #2F6733",
"j. c #336C36",
"k. c #35653C",
"l. c #366C3C",
"z. c #38683F",
"x. c #317433",
"c. c #317933",
"v. c #3A723F",
"b. c #415535",
"n. c #42563A",
"m. c #445A3C",
"M. c #485D3E",
"N. c #373E42",
"B. c #393F46",
"V. c #3B4B4A",
"C. c #394743",
"Z. c #375543",
"A. c #395444",
"S. c #375943",
"D. c #395D44",
"F. c #3D544C",
"G. c #3E5B4B",
"H. c #3A6344",
"J. c #3B6A43",
"K. c #3D6349",
"L. c #414F44",
"P. c #415040",
"I. c #485F42",
"U. c #405F4D",
"Y. c #465B40",
"T. c #404A52",
"R. c #435056",
"E. c #445855",
"W. c #42784B",
"Q. c #436750",
"!. c #0F8700",
"~. c #158403",
"^. c #198505",
"/. c #168B03",
"(. c #198D06",
"). c #1A840A",
"_. c #1A8C0A",
"`. c #169301",
"'. c #199404",
"]. c #179B01",
"[. c #1B9C06",
"{. c #1B940A",
"}. c #1E9A0B",
"|. c #1F8814",
" X c #209F0B",
".X c #228016",
"XX c #228D14",
"oX c #26841E",
"OX c #268C1B",
"+X c #259917",
"@X c #269818",
"#X c #269619",
"$X c #1AA305",
"%X c #1FA70A",
"&X c #18A804",
"*X c #1EB206",
"=X c #20A709",
"-X c #21AC0A",
";X c #21B009",
":X c #23BB09",
">X c #29A41B",
",X c #27B511",
"<X c #2A8125",
"1X c #288920",
"2X c #2C8328",
"3X c #2F892A",
"4X c #2A9A20",
"5X c #30A325",
"6X c #39AD30",
"7X c #22CA08",
"8X c #28D70C",
/* pixels */
" .' R ` - $ - R ' A J : : ` R H - - - - R S T $ @ @ @ J : + + + + @ - : : : : - @ # - # o # # + o o + # : = + # # + + o + + + # ",
"U ` ' | H $ - - H : T - ' ' J ` J $ - - A ` ` # + $ # # - @ @ + # # # - Z A A - : @ + # # # # # # + + o # - + + + + + @ # @ # # ",
"@ $ A R H : : - $ $ J : ..' H ' R : = - @ S S # @ # - + # # - - - @ @ - , - - S J J A # + = - A A - + + + # # # + # # # + + # = ",
"- - # o H T J H : $ : H | ' J ' R J - - : @ # @ # - # # # - # - : : # # : - + - - : : # # # - - $ # # # = # # = - @ # # # + + @ ",
"- $ $ + S R T T T < : < { ' T ' T - A A : - @ # $ - # - # - # - : : J $ - , # # + + + # # # + o # # # - - - - ; A A # + # # + + ",
"- > - % - T T J T R : $ ' ..J ..' # - : - A - # # , # @ # - - = A - , J J , - # - - @ # # # # + + # # = ; - ; - = : A - # # # + ",
", - $ - $ A ' ` T J T $ J ..` (.T - A - ; A : # + A A + # A : # , , - : A : - - # : - - = = # # o # = - = = - - - = : S # @ # # ",
"- : - - - $ P ~.^.R T : - ..(.T - U - A - S R - - - E S - S , - A A : : , - # - - - - - A A : = @ # = = - = - Z = = = P : + # # ",
"S S @ A > S $ , ^.(.].~.- | | @ R A : : A - T [ - # - E R , - S A : F , : : > - $ > : + $ , A , # # = = : D + : S A - S R @ @ + ",
"T ` o F A ) A @ $ T R | S T : : ` - A : - Z : | U - : : S - - S : - A R : : D : - : : # # + + @ + = - = = Y # o $ , D H F # + + ",
"` ' o ,  .' $ $ - @ O # - + @ H R : A S R - Z T +.P : A - - , : - - $ R W A : D A : - + # # # # + # = - + A Y o + + + @ o + + + ",
"' U + #  .` + - : - S ` R P + A ..A - T ~.S - S [ W # A L $ - E : - - - R Y : , L , - # # # # # # + + - P - P - # # + + # + + # ",
"^.- $ - : , - @ R R ' ` ` ].A o (.' @ R ' [ S S X.R - - P A - S D - - : , - : - , - - : # # # # + + + + : R ] - + = # # + # + + ",
"| o - - $ - , o ` | ` ` ` ].Z . A &XU ` : A  .R X.R - - : W , S F A $ A A : A : - - , A - A @ - : - # + o # D # + = - = # + # + ",
": @ : > - : - # - /.` ` ' `.- # X ` &XX.+ o W | | W : A - Y U Y A E - S D , : , : : , - , W A - - - + + + + + # = - # = - $ # # ",
"o A A $ - - : A @ R /.U | ~.+ : S X ~.| o - > - W [ : A D L : - + P W A - : : - A : : : : E E D D - - : - = # # # : - = = S : - ",
"$ S P $ - - , A A + ` [.`.| @ # T F # - + : S @ : o.Y , F F $ + + - | D : : : : - - : : : W W F D , D L ] S # ; # - , - = A S = ",
"@ A ] $ - $ S S A A o R 7X` : # - [ , @ # = Y , - W O.F Y F # @ + + : A : : F D , $ - $ , W ] [ O.X.] ] D $ - - = # $ A : - P - ",
"@ - ' - - @ ` S A A A o | U - P : P ` A = + , ] , + X.o.] F + # # + $ : : > Y F : F F A Y Y $ - Y ).X.> @ @ # , = # # - D : A : ",
"- + | ` o S ` : Z P T @ = A S U S S E A A # $ S - o # ] |.W + + # + # : , - : ) A F L E E F , X X o + + # $ # # D A - = F D , F ",
": : :  .: S @ ` S | : o R U T T S T T # S - # + # # + o D Y # # # + + $ - - % S ] F W E D F E Y $ o + + o + , - + , , : : Y F F ",
"W [ o P  .: X U $XR o @ ' | S T S R D + P - + # # # + # o + # + + # + # $ - # , A L E W F D E W ] - X + + o $ D $ o @ # + , ] D ",
"+.W F o ^.[ X $  .- o + ` /.T S S ` # # W : + # # # @ # # # + # + + + $ - - - - W E E W O.F D W W X.$ X + + @ , D % # # @ + P [ ",
"{ F Y > S (.o + @ o # A , ~.R - ` W o S [ F + @ $ # # + # $ + - : $ # $ > # D - W [ E L X.).W W ] [ ).$ + > $ % D # + % # @ # S ",
"X.F W ] @ R @ + + @ T - o J ~.` ] - A ] W ] - + # # # + + # # $ D - # # ; # A F > O.W F ] ] D Y W ] ).o.o > > $ A - @ @ % @ - - ",
"[ L O., o @ @ + - R U A o : ;XU + - ` ] W ] E o + # # + @ # + + : , = # - - - ] $ F _.W +.:   o + + $ - o o - , F - > > # @ $ : ",
"+.+.P o @ @ @ o U R A T @ - ` - - , { [ E E W P $ o $ # # - + + - : - # = : - W D o Y _.{.- X + o o o o # @ + - , $ , D , D - , ",
").T o + @ @ @ o T ` P T : - @ : A : ` o.W S W ] ] + + # # - # + - , A # # F = Y Y - @ $ Y @ + + + o + > - A @ o # > > , , W , # ",
"+ X X $ E H - : R S S W S S S - A : ` { E E E E [ U o + @ - - - - - D D # A F Y A $ - X . + + o + @ # > > K : o @ D E > > E D % ",
"o o A { T , > R ' - R [ : T P - : - [ O.E W Y F Y X.: # + - - : > : - F A , ] ] - o # + + + + + + @ $ > < K A # + @ W W K ~ L + ",
". J o.o.J - H ' S A X.S A T U S - - T {.] T E ' W ) D : $ - - D : - D W W Y W X.- o o + + + - $ $ # # , < K D - $ + + L [ ] E @ ",
"T +.{ { E @ ' T #  .` - ` J S P : : - P _.] L W | [ P $ A A - , F Z # #.Z.( ) [ $ o + + + @ $ : > > # > L < D : > - + + % D E % ",
" XW ] o.E A '.^. .' - Y { J S T Y = ; > W _.O.F S O.] - A S : : ~ 5.Y U H.b { ) o + + # + + $ - > > - # A E H - > , # # + + @ A ",
"o.] o.X.R A ] ' W F A W { R S Z ) [ > Z Z Y X.O.[ O.'.A $ : - ; ,.p S.@.s.b F.^ + + + # + + # : - > $ D # - D > < < < # # - : J ",
"` ^.[ P W P L D S W A W [ [ R : X.O.# , Y F D Y [ [ /.Z $ F : = &.n b V.V.N.n 8 = + + # + + + = D L > F - X + , H K K , # P ~.| ",
"(.=XW ] ] P R T P A - P o.W [ W {.] , ; F Y Y F = = 0 a # : S - L V.N.d f R.:.; = # # # + + + + # A F L # o o - L < ~ K A | 3XoX",
">X| ` [ W [ [ T E , - : _.] E ).[.F F - A Y F Y ) P M C.Y = # : A i.b b F.@.; - = = $ + + + # # + o + # + + + o L E K K L o.H.d ",
"p.' [ [ X.{ W J P : - # ~.}.] %X).D Y A ; F D W ] [ W b G.@.U G G 8.l N.f.; = S ; # + # # # + # # + + + + @ K , + Q Q L Q J { J.",
"~.o.[ [ [ ] ] Y Y , - % F %X%X*XW A Y Y = F W W W W _ ] M n S.t.5.8.N D.) + : Y S # # + # # + # # + # # # + D L , $ Q Q E Q T X.",
" .[ ' { ] [ ] Y F : Z - + |.7XO.A F W [ # : @.Y Y W W ` ] V.n g 2 7 s h.I + - R Y S = + # # # # # # + - A + > D L K > ] E H Q E ",
"{...+.[ ] { [ T : > Y S @ [ %XD F A ] X.+ + R ] F Y Y F ) @.d 4 e 2 2 t.G # @ ' W Y A = + # # # # # + + : , T U K E H K +.] D ` ",
"D.k.o.' { [ [ S $ : ` ] - : Y W F ; _.) o + : X.[ W ] ] X.`.s.p 6 2 w 5.S : X  .O.: R - + # # # + # + A A # +X<XF L Q E W }.$.1X",
"h p *.X.o.{ W $ : ] W ' R % F Y % ] _.+ + ; $ S ).O.X.` ) ] k.x w 5 h &.G : o # [.[ D S - # # # + # + - ' ; / E.a.` W [ R $.W.n ",
"h G._.' [ [ Y $ E ] E E ` - } } ] _.W Y S - # # : Z A - = % l 7 e e 9.o.A ; S o # %X) W ` + # # # = - - S /  .z.l g. . .$.).l.s ",
"s k./.'  .(.P - ] W ] R U P .XJ.6X(.L { S : # = ; ; , Z Z ; z 4 g g j.~.` o.] S o - *X}.D # # # D < K - ^ s G.F.n h D.D.h l z e ",
"6 XX`._.XXXX) > ] [ [ [ W | D.Q..XT W W A : = # , Z ; - : Z 0 4 e w k.d.H.D.` S S o o./.# , D + = E L - ~ w V e g 4 z z 6 e 2 x ",
"h j.j.H.5 1X_ | $X] ` X.W [ 5X@XP W ] W T - : = # : Z : : Z 8 7 w y y y N U.] A F F G -.0 : ^ D # R R U ,.y y y e * 7 h e e k h ",
"t l d N h OX].4X@X| W  .] W 8X_.J [ ] ] T - - A # = : : Z Z 8 6 5 e w e y h $.A F Z P Z.n L F E J ^ Z.a.V.e w 2 e h 2 7 7 t z e ",
"t 2 e e t i.H.C j.].[ ).[ [ ,X] W [ W ] W : - A A - - - - Z , 5 e t w t h h x._ : S R A.n 8.T J R 6.h h y t w e 7 2 2 & & e 4 2 ",
"k 7 2 7 h s d v T.OX`.~.[  X:XW [ ` W ` ] J : : A : - = = < :.O O w h w e h 2 XXI = #.2.e 2 r.^ Q Z.t k t h k k h g 2 & 2 2 1 z ",
"c & h k k w 7 k h B.x.{./.@X@X` { [ ] W ).` H - A A A = = r.k 6 e 6 & h e y e U.{.U d.2 i k t 2 m 2 y r y q.9.c c t s 2 2 h 3.9.",
"<.w 2.k k t 2 7 9.k B G.OX>X*.| [ [ R | {.W J , A A U : # 5.v <.e 2 2 * t t 2 b J.-Xz.s t k k w O y i i w 2.h <.9.w 4 2 e w 2.h ",
"<.<.<.w <.2 x <.3.x k C.L.z.%...| ] | 2Xz.+.U T A A S ` I @.2 q.9.c w w k t 2 2 5 x 2 e 3 w k w 3 3 k y y <.y q.y t t 4 9.g 2.7 ",
"c 2.2.e 3.y t t 2 k 4 7 N S.'...X./.XXB h g.(.` J A S r.h.d.e c t c v y t w c w t 7 k y k k k t h <.;.4 y y k t y 2.3.3.<.t z 9.",
"i <.q.k q.3.y k 7 7 7 7 4 OX$X`.].XXF.m N.m l.).U : R K.l x w t 2 y c t 2 k <.k t t 7 & 2 7 t k & t 2.9 t k y t h h k <.k t 1 q.",
"k k b.k 2.y t k g 7 t 2.k z.2Xg.z.e l <.t y l J.~.A +.u.>.t <.k c w k q.4 2 1.r y k t 9 u 3 1 9 2.u.;.i 9 t t 4 e h h 4 4 h 7 2.",
"3.u <.k t 9 >.2.k k 4 ;.0.P.u x w.2.& h k <.t h 3X} .Xy.2.2.1.;.i y r <.k 7 <.y 6 t k <.3.j 1 p 1.1.y.4.t 3 2 1 y c <.w e 7 k 2.",
"j ;.3.u t y.y.0.3.k t 9 3.4.2.k u u 2 & 3 k h 7 R.}.OXl t e k <.y t k <.<.k k t t t u y 3.k u k * ;.k k y 1 7 g 2 O <.y q.;.x 3.",
"m.3.8.i j 4.>.u.4.;.9 x t 8.n.q.k ;.t 3 3 k t t s J.H.7 t ;.u 4.t k 4 k 3.>.s g <.1.1.;.t 3.j 3.3.4.k t 1 t 7 t c i y y q 4 6 3.",
";.y.>.9 q 3.y.>.y.3.>.8.3 1 j y.3.u e 3 k 7 1 h 7 A.<.4 <.3.<.3.1.u 7 ;.;.t 1 1 2.<.;.b.q k ;.;.i y 2.3.n.n.z 1 y 1.1.c 2.g 6 h ",
"1.r q 9 u.3.k 9 u.4.3.4.9 a 3 9.u.>.<.r k 1 z 3.t 2.t 4 w.y.i 1.y.y t 1.i r 3 u -.1.;.4.>.k j ;.2.i 3.4.m.7 1 u <.4.1.u 9 7 5 1 ",
"3.u k 8.9 8.2.k 4.m.4.j 3 >.k 3.y.<.4.;.3.t m.;.t t q 3 n.k r 3.u k 0 4.;.t 9 3 1.1.b.4.4.k h j 3.;.m.M.u q u 3.4.k i y u u 7 9 ",
";.u ;.7 3 m.i t 8.<.;.3 3 >.0.>.3.t 1.<.<.w.j k k j 9 9 Y.;.0 m.4 7 r i 4.<.t 0 4.;.;.4.u.;.2.t ;.y.2.i ;.k y.y.q t u u q t t k ",
"3 8.>.9 ;.0 ;.4.r t q.u 9 ;.3.u 4.t t <.1.k 1 7 4 u u t >.9 3 w.3 3 y.i 1.4.2.4 4.y.;.y.u 4.0 i 3.>.y.I.m.4.y.m.u ;.1.k t t 3.u "
};
