/* XPM */
static char *result[] = {
/* columns rows colors chars-per-pixel */
"64 64 228 2 ",
"   c #071B01",
".  c #091D03",
"X  c #0C1F0A",
"o  c #051304",
"O  c #111F0A",
"+  c #0F1F11",
"@  c #0B2403",
"#  c #0D2B04",
"$  c #0D230A",
"%  c #0D2B0A",
"&  c #122205",
"*  c #112C05",
"=  c #12240C",
"-  c #19230C",
";  c #122C0C",
":  c #192B0E",
">  c #0E3304",
",  c #0F3805",
"<  c #0D320B",
"1  c #0F3A0C",
"2  c #103505",
"3  c #113B05",
"4  c #13330B",
"5  c #1A330A",
"6  c #143B0B",
"7  c #183D0E",
"8  c #0C2C13",
"9  c #0C2A15",
"0  c #142513",
"q  c #1A2614",
"w  c #152B14",
"e  c #1A2C16",
"r  c #152C1A",
"t  c #1C2D1A",
"y  c #162519",
"u  c #0D3415",
"i  c #0C331B",
"p  c #0F3D1E",
"a  c #153212",
"s  c #1C3215",
"d  c #133C10",
"f  c #1A3B13",
"g  c #1E321A",
"h  c #1E3A19",
"j  c #12361A",
"k  c #222D1A",
"l  c #212B16",
"z  c #213417",
"x  c #22341C",
"c  c #253A1D",
"v  c #293C1D",
"b  c #1D2E22",
"n  c #102E23",
"m  c #0B3422",
"M  c #0D3A23",
"N  c #0E3E2A",
"B  c #0C3729",
"V  c #153222",
"C  c #1E3422",
"Z  c #173929",
"A  c #193D34",
"S  c #232F22",
"D  c #233521",
"F  c #293722",
"G  c #263B22",
"H  c #2A3D23",
"J  c #233D2D",
"K  c #2C3D29",
"L  c #313F2B",
"P  c #134306",
"I  c #154B07",
"U  c #14440A",
"Y  c #19460C",
"T  c #154B0A",
"R  c #194B0A",
"E  c #184C07",
"W  c #165207",
"Q  c #165209",
"!  c #19540B",
"~  c #1A5A09",
"^  c #195A07",
"/  c #0F4419",
"(  c #114412",
")  c #1B4113",
"_  c #144C14",
"`  c #1D4A13",
"'  c #134519",
"]  c #194A1D",
"[  c #195616",
"{  c #21431A",
"}  c #2B421E",
"|  c #284E1E",
" . c #30431F",
".. c #25551C",
"X. c #1B6309",
"o. c #1D6B08",
"O. c #1F720B",
"+. c #1C6516",
"@. c #1E7317",
"#. c #21790B",
"$. c #20730E",
"%. c #206B0C",
"&. c #0E422C",
"*. c #0E4528",
"=. c #104A22",
"-. c #144529",
";. c #14542D",
":. c #145728",
">. c #0D4335",
",. c #0E4B3C",
"<. c #0E4B35",
"1. c #134234",
"2. c #18483B",
"3. c #115534",
"4. c #145838",
"5. c #2D4224",
"6. c #2E4329",
"7. c #274926",
"8. c #314525",
"9. c #354926",
"0. c #32452A",
"q. c #354A2B",
"w. c #394E2C",
"e. c #384E26",
"r. c #295021",
"t. c #3C512D",
"y. c #33532B",
"u. c #234232",
"i. c #254838",
"p. c #344631",
"a. c #364B31",
"s. c #394D32",
"d. c #3B4E39",
"f. c #3D5333",
"g. c #3D5339",
"h. c #345137",
"j. c #196929",
"k. c #18622E",
"l. c #15643B",
"z. c #1D7E29",
"x. c #236A3F",
"c. c #415634",
"v. c #425935",
"b. c #415639",
"n. c #445B3B",
"m. c #485F3E",
"M. c #49613E",
"N. c #47603A",
"B. c #0E4D44",
"V. c #0E4F4B",
"C. c #144B45",
"Z. c #0D5244",
"A. c #0E534C",
"S. c #0F5A4A",
"D. c #1A544B",
"F. c #175846",
"G. c #0E5E57",
"H. c #175956",
"J. c #22524B",
"K. c #2C5D4F",
"L. c #126647",
"P. c #116352",
"I. c #136B53",
"U. c #14685B",
"Y. c #13735B",
"T. c #146C50",
"R. c #23635A",
"E. c #206648",
"W. c #0E6362",
"Q. c #0F6C6C",
"!. c #0F6865",
"~. c #156968",
"^. c #16796A",
"/. c #186A78",
"(. c #0F7479",
"). c #117373",
"_. c #127D7C",
"`. c #197779",
"'. c #256968",
"]. c #2E746F",
"[. c #26797C",
"{. c #445B41",
"}. c #4A5F41",
"|. c #4B6343",
" X c #4B6048",
".X c #506847",
"XX c #218516",
"oX c #228930",
"OX c #1D8747",
"+X c #228E46",
"@X c #188468",
"#X c #18847A",
"$X c #17917E",
"%X c #219875",
"&X c #1FA561",
"*X c #23A962",
"=X c #0F7E8A",
"-X c #187A85",
";X c #167F91",
":X c #13838C",
">X c #198888",
",X c #138591",
"<X c #138B95",
"1X c #118B9A",
"2X c #1F8B9A",
"3X c #14939B",
"4X c #0F838B",
"5X c #2A8787",
"6X c #1798A7",
"7X c #118EAC",
"8X c #1AA2AB",
"9X c #15A3A4",
"0X c #19A5BA",
"qX c #25A3AE",
"wX c #20B2B1",
"eX c #11ABC8",
"rX c #1BB3CC",
"tX c #1DB9C8",
"yX c #14B9DB",
"uX c #14B7D7",
"iX c #24AEC4",
"pX c #25B5C6",
"aX c #21BCD1",
"sX c #13BEE1",
"dX c #1BC4DC",
"fX c #1ACCEB",
"gX c #19C3E2",
"hX c #24C7E2",
/* pixels */
"x g t.f.w.6.m.c.t.8.0.K s.m.c.c.m.c q.t.8.z c.c. .v x w.|.9.c 9.9.w.9.c.v q.t.q.8.} v.9.9.w.v 9.9.H w.9.t.f.e.f.c.q.g G q.v G N.",
"0.6.c.v w.w.w.m.f.H H H H n.f.w.g.x 8.f.s.q. .H  .9.e.9.9.t.v 5.t.s.g y.9.w.8.t.c t.8.e.c.v q.t.w.e.w.H 9.q.6.v z 8.0.g g f.c c.",
"w.8.q.x |.c.t.c.f.0.G w.q.c.M.f.c 0.b.q.n.m.8.8.8.x 9.w.w.q.6.w 0.w.w c w.9.t.9.5.f.q.f.c.w.w.c.9.w.w.c.c.8.c v 8.g c x w 6.w.f.",
"f.q.H 0 H 8.w.G H F 6.H 6.G g.G 5.q.6.H c w.w.H z 9.w.z w G G g q.6.G C 8.e.w.9.5.5.w.5.9.9.8.t. .w.n. .f.v g 7.c.c c f.G s e.w.",
"8.v t.w.f.v f.0.a.t g b.}.w.n.c.z v 8.g z z 8.x H 8.c.c.v w j e C G x 6.z G q.: 0.g 0.0.0.} 9.w.c v v q.e.f.w C N.e.9.q.H x 9.8.",
"H H w.H H L p.K D C k f.} 6.w.f.f.c q.0.6.8.8.l l H c.w.5.x r w g.G w c 8.w.c x 7.g f.5.e w.t.7.g e x e.t.5.w g t.c.t.t.8.0.v 5.",
"F t e d.k K q y y 0.g.g.s.6.H H H z 0.x 0.q.c v e x } v v 0.5.5.5.w H x 0.H v 8.5.q.8.G w f.q.c w w c e.9.q.x 5.f.s.e.5.0.s s 5.",
"e f.q.b.n.n.0.H {.d.H g.}.w.v e x c c ; s s.v L e e z c 6.q.t.t.0.5.s.H t v x v 9.w.f.0.q.w.0.c 6.f.f.w.t.6.f.h |.v q.9.t.} G 5.",
"L t.w.K C 0.g.a.k y x s.s.5.c g g f.x * w G x x c e t c c.n.q.8.q.R.u.g 0 x H 8.0.8.w.0.5.w.t.x j r r 7.g.s h f.q.{.h q.5.y.a.n.",
"9.s.f.H F S x H d. X|.n.G s.0.s x w.s.s # @ s t x t k a.t.c z 5.5XgX0Xn 2 g 6.8.H v x 6.d.0.0.h J G G w |.w.C n.q.w.g.5.0.5.0.v ",
"v w.0.q. X|.c.6.w K |.G g.f.q.c H 0.0.x % % x q t k H a.H v } 7.5XdXuXP._ H x v t t 6.a.0.F t n g 6.g.7.f.f.f.M.|.q.y.f.5.g q.H ",
"c.f.e H F x f.t p.t.q.|.q.0.7.v c 6.K D * 4 e t = g x 6.x v ..` E.6X0XY.] t q v H g F w V D C y x 6.0.a.g.q.c.f.0.n.f.|.} v f.v ",
"k s.w.H x H H D g 0.f.5.7.g s 5.G 6.c * # % e w % f x e x c { 4 2 =.3./ a r t J K.i.b 2.-XJ.L S x 8.6.w 0.0.n.M.y.5.0.g.5.5.|.|.",
"q.9.w.c.a.c x F G s 5.5.f.s % s D x c 4 > @ w w * f K x a s x 0 @ P U 6 w f w '.qX/./.=XiX-XF K s 5.q.} 8.t.f.v.c.f.8.c G w.M.n.",
"n.v.e.w.6.s.e H 5.w G 5.w.v ; $ * w s > # # ; ; # s t 0 # * h r > P > a ) 6 >.eXhX0XiX;XhX7XL F F c H n.c.c.m.n.f.y.5.s 5.5.0.0.",
"x d.n.m.n.b.g x H x g x H A V M @ @ ; w . . @ @ % t C 1.&.> 6 a w # # 3 , 3 1XgXhXfXgXsXuX7XA y w t x x w.w.8.c x t g v v 5.q.5.",
"k y D 0.x c 5.x x e t J J.D._.<XB % @ @ X @ . % U.'.-X-X3Xi ; 0 0 4 # > > $ ,XyXsXdXsXeX;XG.t y + + k k x 5.5.G c v H 5.w.c 8.q.",
"K x x v 9.q.v : x K 8.i./.H.=X1XP.p # = # @ @ i 8XrX7X0X8XA w 9   w a % # = C.7XeXeX6X(.N a t e 0 0 e 0 G | ` } v H 6.0.w.v v n.",
"6.f.f.g.s.K x 0 t c x M !.-X4X,Xl.6 9 b a % !.>XdXfXyXdX-XD 2.B.X X = @ # # 4 ;.S.L.oX+.U _ c w C H x z G Y U 7.v e H q.s.x 9.m.",
"9.8.H e c H c x H t F i A.:X1X_.k.U.A.V w % 6XdXfXfXyX6XE.{ C./.V.X X m % @ 6 ^ ! _ $.#.^ %.[ D.5XA Z 7.| Y ' r.G w 0.5.n.v w.c.",
"N.f.6.8.H x t q.G G 0.w <.:XY.j.Y._.G.8 @ @ ,.#X*XOX-._ ! ` 2.H.Q.B >.W.m o A %XOX+.$.o.o.$.`.pXpXo A.#X;.#XaXJ.D = L l w.H s.q.",
"n..X|.y.5.v x c.} s D r M 3._ X.L.4.<.@ @ 4 # # R ! Y R ~ X.w Z >.N B.V.i i.8XwXT.~ X.I o.4.2XwX`.B S.:X3X0X6X2.r X H a.p.q.H w.",
"q.f.|.g.} z H 0.x $ x e # 3 P ^ :._ < # @ d I , # P 6 3 ! R @ % u N ,.m % D.^.#X:.W ^ W X.-.>X>XB.,XqX6X6X3X@X-.= X l x v H v 8.",
"f.y.c q.0.x x : * . t w # P , P Q P > > # # W ^ 2 E 2 7 R 6 . @ , p >.1 @ a 1 _ T X.X.$.o.' :.=.B.0XtXrX0X>XoX' % $ t l x l H H ",
"5.s.q.w.b.s.6.0 X   Y Y > # # # , , , P # @ 2 I P W W E 2 @ .   @ < < < $ t , o.O.W W O.I I I # X A +X*X@Xz.#.P % * ; ; F H H q.",
"|.n.|.5.c c.q.t q + ` P > # , P , > > > @ @ # 2 P P E U @ @ @ @ . # > @ $ w # W ^ 3 W X.^ X.P @   + X.XX@.o.X.3 # @ % = x 6.t y ",
"M.|.g.y.0.g.p.= . X w 4 # # # P Q T P # # 3 # 3 P P 2 @ I ^ @ * , # # @ # @ @ # # # > O.X.W # @ .   4 ^ ^ ~ I s * : D b k 0.8.L ",
"M.a.f.5.f '.6XB.$ # @ $ j u *.U.I.L.=.@ 2 P # 6 I 3 * # 3 E . . # > # , # $ . P ^ > P X.P > @ @ @ s 6 I W E ) ; % a D F k x x v ",
"g.h s G 6 `.rX~.u > i m @ u ,.L.j.:.Q > P P # a I P 2 # 2 P * . # # > 4 @ $ % T ^ 3 T P 2 > @ # # % 6 P P U U 4 w x L 0.0.0.L v ",
"6.r w f < `.pX3X;.d Q.S.% w u 6 P P , , P , 3 P ! ~ P 2 6 ~ 3     @ # @ # @ @ > P 3 > U Y % @ @ . % 6 P P T T 2 w k l H K z x 8.",
"f.c f < @ /.pX6X3.=.4XZ.w $ @ # , > @ # , > P , I E P 3 3 ~ 2 @ # @ @ @ # @ # @ > > > U g $ @ X . $ 3 P U P 3 % : G F H s.b.c.0.",
"f.v.x a # N ,X^./ 3._.U > @ @ # # # @ , > , > @ . P P P W P # . # > 2 # @ ^ X.~ P > , > I W > $ X 2 3 2 3 2 # ; D D F 0.H v 0.w.",
"f.n.0.g # u H.,., 3.#X( , # # @ @ # % # @ < % . . # P 3 I 3 @   . @ # @ @ P W I P > > P W P $ 0 0 2 6 > 3 6 # t s e K 0.F 6.a.f.",
"f.6.6.g ; # U T P =.W.P , I P # < ,.!.G.m B.B.i # , P P 3 3 > @ 8 i @     # > P P > 2 I 2 # @ = 4 # 2 2 3 # # # % s t L t u.h.K ",
"y.v G % @ 2 P P , 1 p P P W P , % m W.1XW.W.W.,.> , 3 > > P 3 # B ,.8 @ . @ @ > 3 > , 3 > # @ @ 3 > > 6 # # @ > 7 s t s D.5X].J ",
"g.x H e ; U ! s % # # > P W W W @ &.).1X4X).).P.# # @ . > 3 # @ ,.S.;.# . @ @ P P # # > > > @ @ # > # > % w ; 6 { g c ;.>X>XR.p.",
"e D t t g 3 Y r m p , > , I W I > 8 Z.1X=X)._.P.# @   . > > @ # ' :.( *     @ , P , P # # @   @ > > * w a 4 * ) z { -.T.@XE.u.s.",
"@     y $ @ % G.(.Q.3., , P I P P # # i u m Z.&.# > W X # . @ 2 > 3 2 6 > @ @ # , I 3 .       @ > > ; 6 6 # Y s 2 7 R ~ E 7 H s.",
"0 . @ % 2 3 6 ,.=X_.l.I P , > > P # , P 3 2 > # < ^ E # > . @ # # # > 3 > > # @ > , # .         # > > > # # 3 6 5 6 6 s c v H 0.",
"= @ U 3 > P 2 N B.4.^ W I P # > 1 > P > 2 P > # > ^ P I > . 2 > > > , % # > # # > > @ . .       @ # # # @ . 3 ` f 4 a x x t c d.",
"6.F h a # > # @ @ # # , , , # # _ =.P @ @ P P P > P E I # . @ @ @ # # * @ # > 2 > . . @ @ # # @ @ @ # # @ w # ) s s e F H 0.t a.",
"q.6.G w 4 @ . 8 8 @ # # > # @ @ ;.4.( @ , ^ W P > , P I # . # @ @ @ # 2 @ @ 3 3 # X   # @ @ # # . # # > # t = 6 x t x H b.b.0.t ",
"t.t.x G a.C X m ,.i # > # @ # # / *.( @ @ > , P , # > I # > P > # > 2 3 # @ I 2 $ w $ @ @   # @ @ # # % @ @ $ : x t x q.b.q.b.a.",
"v.g.m.x 6.r = Z M u > # @ > P P P / 1 @   @ , I P P > P > I > @ > 2 # 2 # @ * # # # @ @ # #   @ .   = 0   X $ q F H t s.b.f.v v ",
"f.G a.5.w D h d > # # % % > > > , , , @ # # , P , 3 # @ 3 P > 2 P 3 @ * @ @ @ # @ @ @ @ * . . @ # . . .   0 K F 0.x v 8.c.c.0.8.",
"t.G G H 0 5.5.f > > # < < # # # > , > < , > @ @ # # # @ 3 3 P I E # @ # @ . @ @ @ X . @ . . . # # .   . X y F v 0.a.c 8.c.b.5.6.",
"w.6.r C s y.7._ , < # # # @ # , P , < > #       @ # 3 P , 3 U 3 2 . . @ @ # @ @ . . . @ u % # @ u >.1.b + t x G 8.H q.0.s H 5.f.",
"g.w w g 7.y.r.I , < # > @ @ # P , > # @ @ #   @ > 6 P T > P 2 @ . . . @ . # # @     @ @ % % # # *.G.D.u.0 t c C g F x x c M.n.|.",
"w.w g C g x w K F f , > * 0 @   > @ @ 3 > # 0 % P 3 # 2 @ 5 g b 0 q O @ . O O . . . @ @ . @ # # # 2.D.6.H q t r w x w.n.M.M.N..X",
"x 5.0.f.c x s g s.r.{ f h w $ $ 2 & * # # @ $ = > # . X 5 3 4 0 : : & # q q     . @ . . .   # # # 6 c 8.8.q.0 0 h y.M.v.M.g.8.f.",
"v 0.t.t.} D s e 7.0.y.s.0.t t g a & @ $ X   = + X .   & 6 Y ; & * : = ; = & . @ @           $ = s s 6.9.s.s.c 9.f.t.q.f.5.5.8.v.",
"v 8.w. .t.x c g w.f.a.n.m.8.H 6.e $ & X   q 0 O & 0 s 4 I 5 : 5 k O - - & O . X @ = X     X q c F K 8.q.q.0.x 0.n.n.v w w 7.M.g.",
"w.x 9.v t.v v 0.M.t.{ g.H f.n.G e 0 e $ X l s 5 0 e 7 * 5 5 - 2 f - q & - O & @ * t w   X q = F x a.c.w.F g 6.0.q.0.|.g.0.f.a.v ",
"w.w.H v f.c.e.N.w.} t.f.5.f.5.5.F F 5.r = l f g x 4 * y 5 : - : 5 e k l - @ x x x g y   + x 0.q.x c 8.f.f.b.n.m.q.g ) g.g.7.s s.",
"9.w.w.c.n.c.v.v.c q.f.N.c.f.b.f.e.q.w.s.F t - q 0 k S k l & - - S l k L x s H F H k c x k e v L 0.w.a.f.w.q.0.n.g.0.g a.{.y.q.g.",
"k x }.f.8.v n.M.M.n..Xg.c.0.n.w.c.w.w.s.a.p.F k S b.L F x q.F k S l l p.l L H x 8.0.H w.f.q.8.z H H c s.M.n.f.5.5.0.g r G 6.n.y.",
"0.6. Xw c c M.M.n..X5.q.} 5.w.f.t.c. .9.l F 0.q.w.H q.z K H H c H s.s.w.9.w.L s.n.l v 9.z 8.w.a.n.c.q.f.n.5.0.g.} f.g v w.} t.M.",
"f.H a.g H f.n.f.w.9.c z f.w.a.n.v v e.w.H D D 0.c.e.8.H d.t 0 y y l 0.w.n.w.f.c.H x s.x x } w.9.H M.c.f.M..Xn.0.q.5.h f.v g.9.N.",
"c.g.f.g 6.5.H t.t.f.6.G e 5.q.f.5.x v w.q.H = x w.c.9.x H p.K D L x L n.n.n.w.q.c H H x x v v x x f.f.6.8.5.q.c.8.x w.q.c.c.5.} ",
".Xn.5.x c z c y.q.f.s.w w w.t.0.n.l k c c.x t x c.8.9.0.8.H v l t 8.f.n.L v.d.q.H c t F v H H  .f.f.G h 5.|.M.8.y.6.K 5.g.f.n.t.",
"m.c x v } 0.y.w.q.t.w.G y.8.8.5.c.k H w.w.- x 9.e.c.c.L g c n.m.c.c.n.w.w.w.w.q.w.e y S z c w.c.q.c t t M.f.f.6.w.0.H 7.w.g.9.t.",
"s.G H 6.t.t.n.t.t.q.q.8.w.w.e.t.c.8.w.9.8.q.8.9.c.v v.9.D H H 9.w.c.t.q.5.} c 0. XF t G e.9.c.w.} e p.}.|.f.w.5.5.q.q.8.v M.q.e.",
"y.G 5.x c.c.c.c.n.n.n.9.9.w.e.v H H w.c.s.w.H t x 8.m.m.c.w.v x z v 5.0.5.8.8.H d.s.q x x H v 8.0.F x H e v 9.v.g.f.5.f.c q.t.t.",
"t.s q.z f.c.c n.c s.c.8.8.v 8.t.s.v.e.n.w.w.9.H H c.L L f.q.} 9.x f.e 5.8.n.c.v 0.g.q.e.v. .w.q t H g q 5.9.9.9.t 6.} e.g.9.5.} "
};
