/* XPM */
static char *result[] = {
/* columns rows colors chars-per-pixel */
"64 64 131 2 ",
"   c #061602",
".  c #081703",
"X  c #071903",
"o  c #0A1B03",
"O  c #0E1D0C",
"+  c #0C2405",
"@  c #0E2A05",
"#  c #0E2209",
"$  c #0F2A08",
"%  c #102D07",
"&  c #11230E",
"*  c #112D08",
"=  c #0F3206",
"-  c #0E3903",
";  c #113307",
":  c #123A07",
">  c #133409",
",  c #153B0A",
"<  c #183F0D",
"1  c #162516",
"2  c #152C12",
"3  c #182C16",
"4  c #19271B",
"5  c #1A2D1B",
"6  c #163111",
"7  c #193B11",
"8  c #1C321A",
"9  c #1E3B1D",
"0  c #203B1E",
"q  c #1D2A22",
"w  c #213423",
"e  c #233925",
"r  c #25332B",
"t  c #263B2A",
"y  c #283C2C",
"u  c #273231",
"i  c #293730",
"p  c #2C3B35",
"a  c #2D3739",
"s  c #2E3B39",
"d  c #313C3D",
"f  c #144407",
"g  c #154B07",
"h  c #16430A",
"j  c #19440D",
"k  c #174B0B",
"l  c #1A4C0D",
"z  c #175208",
"x  c #1B530E",
"c  c #1D5B0E",
"v  c #1C4312",
"b  c #1D4D12",
"n  c #1E441A",
"m  c #1F4C19",
"M  c #1E5311",
"N  c #1F5A10",
"B  c #23441F",
"V  c #244C1E",
"C  c #215413",
"Z  c #215C13",
"A  c #23511A",
"S  c #245A19",
"D  c #1E620F",
"F  c #1F6310",
"G  c #206311",
"H  c #25631B",
"J  c #29681D",
"K  c #254323",
"L  c #264B23",
"P  c #284D26",
"I  c #274528",
"U  c #2C442C",
"Y  c #2A4D2B",
"T  c #265522",
"R  c #2A5425",
"E  c #295922",
"W  c #2C522D",
"Q  c #2E5B2D",
"!  c #305E2F",
"~  c #2D4432",
"^  c #2E4E30",
"/  c #304633",
"(  c #314C36",
")  c #33453C",
"_  c #344B3C",
"`  c #2D5030",
"'  c #315433",
"]  c #335A35",
"[  c #345339",
"{  c #375B3E",
"}  c #395D3E",
"|  c #2A6124",
" . c #2E612A",
".. c #30602F",
"X. c #38603B",
"o. c #353E43",
"O. c #364343",
"+. c #394646",
"@. c #364C40",
"#. c #3A4C46",
"$. c #3B454A",
"%. c #3D4B4C",
"&. c #3B5644",
"*. c #3C5C44",
"=. c #3E544A",
"-. c #3F5A49",
";. c #3F4653",
":. c #41564F",
">. c #415B4D",
",. c #414B54",
"<. c #454C5A",
"1. c #435154",
"2. c #5D7B4C",
"3. c #586E54",
"4. c #566D59",
"5. c #5A7055",
"6. c #5A755B",
"7. c #5A7C58",
"8. c #607F4C",
"9. c #4A5161",
"0. c #505A63",
"q. c #447A76",
"w. c #3C887D",
"e. c #638F50",
"r. c #6CB045",
"t. c #489B7E",
"y. c #2CBE95",
"u. c #43BF8D",
"i. c #46C38B",
"p. c #4DCA8F",
"a. c None",
/* pixels */
"a.a.a.a.a.a.a.a.a.a.a.a.a.a.a.a.a.a.a.a.a.a.a.a.a.a.a.a.a.a.a.a.a.a.a.a.a.a.a.a.a.a.a.a.a.a.a.a.a.a.a.a.a.a.a.a.a.a.a.a.a.a.a.a.",
"a.a.a.a.a.a.a.a.a.a.a.a.a.a.a.a.a.a.a.a.a.a.a.a.a.a.a.a.a.a.a.a.a.a.a.a.a.a.a.a.a.a.a.a.a.a.a.a.a.a.a.a.a.a.a.a.a.a.a.a.a.a.a.a.",
"a.a.a.a.a.a.a.a.a.a.a.a.a.a.a.a.a.a.a.a.a.a.a.a.a.a.a.a.a.a.a.a.a.a.a.a.a.a.a.a.a.a.a.a.a.a.a.a.a.a.a.a.a.a.a.a.a.a.a.a.a.a.a.a.",
"a.a.a.a.a.a.a.a.a.a.a.a.a.a.a.a.a.a.a.a.a.a.a.a.a.a.a.a.a.a.a.a.a.a.a.a.a.a.a.a.a.a.a.a.a.a.a.a.a.a.a.a.a.a.a.a.a.a.a.a.a.a.a.a.",
"a.a.a.a.a.a.a.a.a.a.a.a.a.a.a.a.a.a.a.a.a.a.a.a.a.a.a.a.a.a.a.a.a.a.a.a.a.a.a.a.a.a.a.a.a.a.a.a.a.a.a.a.a.a.a.a.a.a.a.a.a.a.a.a.",
"a.a.a.a.a.a.a.a.a.a.a.a.a.a.a.a.a.a.a.a.a.J a.a.a.a.a.a.a.a.a.a.a.a.a.a.a.a.a.a.a.a.a.a.a.a.a.a.a.a.a.a.a.a.a.a.a.a.a.a.a.a.a.a.",
"a.a.a.a.a.a.a.a.a.a.a.a.a.a.a.a.a.a.a.a.J x >.a.a.a.a.a.a.a.a.a.a.a.a.a.a.a.a.a.a.a.a.a.a.a.a.a.a.a.a.a.a.a.a.a.a.a.a.a.a.a.a.a.",
"a.a.a.a.a.a.a.a.a.a.a.a.a.a.a.a.a.a.a.*.c c E a.{ ] a.a.a.a.a.a.a.a.a.a.| ] a.a.a.a.a.a.a.a.a.a.a.a.a.a.a.a.a.a.a.a.a.a.a.a.a.a.",
"a.a.a.a.a.a.a.a.a.a.a.a.a.a.a.a.a.a.a.! x x Z R k ] a.a.a.a.a.a.a.a.a.a.D D -.a.a.a.a.a.a.a.a.a.a.a.a.a.a.a.a.a.a.a.a.a.a.a.a.a.",
"a.a.a.a.a.a.a.a.a.a.a.a.a.a.a.a.a.a.a.! c x c g l Q -.a.a.a.a.a.a.a.a.*.c N  .a.a.a.a.a.a.a.a.a.a.a.a.a.a.a.a.a.a.a.a.a.a.a.a.a.",
"a.a.a.a.a.a.a.a.a.a.a.a.a.a.a.a.! } a.[ x x x x c c S a.a.a.a.a.a.a.a...x M H a.a.a.a.a.a.a.a.a.a.a.a.a.a.a.a.a.a.a.a.a.a.a.a.a.",
"a.a.a.a.a.a.a.a.a.a.a.a.a.a.a.a.b j x S c z x c z x ! a.a.a.a.a.a.a.a. .M M Z a.a.a.a.a.a.a.a.a.a.a.a.a.a.a.a.a.a.a.a.a.a.a.a.a.",
"a.a.a.a.a.a.a.a.a.a.a.a.a.a.a.a.V h , h N ' M x x c :.a.a.a.a.a.a.a.a. .c x N a.a.*.a.a.a.a.a.a.a.a.a.a.a.a.a.a.a.a.a.a.a.a.a.a.",
"a.a.a.a.a.a.a.a.a.a.a.a.a.a.-.M h j j h L ,.k l x ! a.a.a.a.a.a.a.a.a.] x M N [ ] D ] a.a.*.>.a.a.a.a.a.a.a.a.a.a.a.a.a.a.a.a.a.",
"a.a.a.a.a.a.a.a.a.a.a.a.a.Q z j > : , v T _ k z x H N ] a.a.a.a.a.a.a.&.c F , M D x T *.G D -.a.a.a.a.a.a.a.a.a.a.a.a.a.a.a.a.a.",
"a.a.a.a.a.a.a.a.a.a.a.a.a.a.-.W 7 , < O.%.: k P N z c } a.a.a.a.a.a.a.a.E l > G x x c F N c a.a.a.a.a.a.a.a.a.a.a.a.a.a.a.a.a.a.",
"a.a.a.a.a.a.a.a.a.a.a.a.a.a.a.a.a.a.) I < = , @.k x x b %.a.a.a.a.a.a.a.W > x N k N F N x Z a.a.a.a.a.a.a.a.a.a.a.a.a.a.a.a.a.a.",
"a.a.a.a.a.a.a.a.a.a.a.a.a.a.a.a.' l , h : @ ; b k k x j a.a.a.a.a.a.a.a.v : N k x F N x x Q a.a.a.a.a.a.a.a.a.a.a.a.a.a.a.a.a.a.",
"a.a.a.a.a.a.a.a.a.a.a.a.a.a.a.| h h , k : = : k k k , < a.a.a.a.&.R [ a.7 < M k N c x x C a.a.a.a.a.a.a.a.a.a.a.a.a.a.a.a.a.a.a.",
"a.a.a.a.a.a.a.a.a.a.a.a.a.a.a.&.M z z f h > : : , , ; + a.a.a.a.M M x M M : x x F x M M a.a.a.a.a.a.a.a.a.a.a.a.a.a.a.a.a.a.a.a.",
"a.a.a.a.a.a.a.a.a.a.a.a.a.a.a.a.a.#.) e = l x > % @ @ + $.a.a.( C C l x M x l M M M M a.a.a.a.a.| J a.a.a.a.a.a.a.a.a.a.a.a.a.a.",
"a.a.a.a.a.a.a.a.a.a.a.a.a.a.a.a.V j % @ $ : j @ @ + @ % a.a.^ j j b C x b M b h l x S N a.a.a.a.N F *.a.a.X.S a.a.a.a.a.a.a.a.a.",
"a.a.a.a.a.a.a.a.a.a.a.a.a.a.a.a./ j ; @ @ @ = @ @ + @ 8 ,.a.a.j < < < j v j , > M M x k #.a.a...N c Q a.S M b a.a.a.a.a.a.a.a.a.",
"a.a.a.a.a.a.a.a.a.a.a.a.a.a.a.%.@ % : @ @ @ @ @ o + @ % 3 a.<.B j , % < < $ > c x k k b 1. .a. .c M M C M b b a.a.a.a.a.a.a.a.a.",
"a.a.a.a.a.a.a.a.a.a.a.a.a.a.a.a.i @ @ @ @ @ @ + o + + % + o & o > > * # @ # > c k l b a.a.Z m A Z l j l v < L a.a.a.a.a.a.a.a.a.",
"a.a.a.a.a.a.a.a.a.a.a.a.a.a.a.%.: ; % % @ @ + + + + @ + + o + $ % + : l l * , l l l a.a.a.c M > G l < 7 > j +.a.a.a.a.a.a.a.a.a.",
"a.a.a.a.a.a.a.a.a.a.a.a.a.a.a.a.> ; @ @ + % + + + + + o + + + + * @ * c M b h x , * a.a.a.c M > x j > 7 7 7 a.a.a.a.a.a.a.a.a.a.",
"a.a.a.a.P k W a.a.a.a.a.a.a.a.e p ; @ @ % % + + + + + o o o o o + % + * c k M , @ 8 a.e B Z x j * > > > 0 $.a.a.a.a.a.a.a.a.a.a.",
"a.a.a.a.m k z < _ a.a.a.a.a.a.8 0 * ; % % % + + + + + o . o o + o o # + @ , h # @ w a.8 > N N M > , j x Z | *.a.a.a.a.a.a.a.a.a.",
"a.a.a.a.L z k - = a.a.^ k a.[ p % % + @ @ % + o o + + % o o o o + + * * $ o > $ @ t q # # , M h , b x x l x &.a.a.a.a.a.a.a.a.a.",
"a.a.a.a._ k k h ; 9 a.g k k n ;.@ + @ @ + o o o o o + + + . + + o + @ # @ $ > $ # o j Z b * $ h h M M M l ( a.a.a.a.a.a.a.a.a.a.",
"a.a._ m k h k , = : &.f k h h t @ @ + + o . . o o o % % + + @ o o # $ $ + # + + o < x M v , + M b x b : ~ a.a.a.a.a.a.a.a.a.a.a.",
"a.Y z k h k k B : > ~ : - h h @ + @ @ + + X X X X + @ @ @ @ @ + o + @ # @ # O o o % C M j , > C # > , j S a.a.a.a.a.a.a.a.a.a.a.",
"a.a.m k k k , t , , @.- > , f = @ @ + @ X o X X X + @ @ @ @ + o o o o @ # @ o o o o * M v > + b # l l l c ] a.a.a.a.a.a.[ a.a.a.",
"a.a.#.m l f > - , I ~ - = - h @ o @ @ > X X X + @ @ + @ + @ + X o + o O + + o + + + + > > > * < j x l x c F a.a.a.a.a.A x a.a.a.",
":.-.a.a.p : k h h ~ I : : > : + + @ k :   + + + @ @ @ + @ @ o X @ $ % # + O @ @ % % * > , > * > l z l l < < _ a.] a.P C x a.a.a.",
"N ] a.a.n k f k h - k h > ; ; @ @ : k k + + X + + @ @ @ @ + X + @ # * * + + # @ # + * > > , > > : : : , , , C M M P b l x a.a.a.",
"a.a.a.a.L k k , - n k h = ; > = @ z k x @ + + X X + + X + o o @ @ @ * $ + + $ # % * * , , : > > ; > > , , C C M j j l M l a.a.a.",
"a.a.a.a.a.) - - 7 @.M 5 > = @ @ = x k k X + X + + @ @ + + X + @ @ + $ $ o h , @ @ * * * > > , > > > > > M M b l , j l l j C ' a.",
"a.a.a.a.a.a.+.+.a.%.O.@ = : = @ > k k f + + + X + = = + @ + + + + o $ # : ; ; # @ * # @ % > > > % > : , M b b l M , j j M M M V ",
"a.a.a.a.a.a.a.a.a.a.e h k k k = @ f k , - @ @ X @ @ = @ @ + + + o o # $ : = > + $ # + = ; ; > @ > > : : M b b M l j j M M M M l ",
"a.a.a.a.a.a.a.a.a.a.> = k k k f X $ : f , @ @ o @ @ @ @ @ + + + o + + , > = > + + + $ > ; = * > > > > j j M M M j j j b l l A ( ",
"a.a.a.a.a.a.a.6 e ) > ; : j f : o + : f h @ @ @ @ @ + + + + @ @ + o = = = > $ @ @ $ > = ; > * > % > > , b M M j j j M l b , ) <.",
"a.a.a.a.a.a.a.6 % * % ; % + + o + + : j - = h = @ = @ + o @ @ @ + o : > = > + ; > , $ > > $ > > % > % : < j j < , j l b l , < 1.",
"a.a.a.a.a.0 % , , > * * % @ @ > @ @ @ ; > k h = + @ = @ + = @ = = @ ; ; ; > > > = > O % % ; * > > : > : , < , < , j , M b < t a.",
"a.a.a.a.> > , , , > > * > ; = > > ; @ @ , f l : ; ; ; @ @ @ @ = = = > @ ; ; ; ; = + + % * * * @ > > > , < , , , v j M M V a.a.a.",
"a.a.a.a.) < < > > , > > : : > = @ o + @ $ k k > ; @ @ @ @ @ @ = = = @ @ ; ; ; * o @ @ @ O o + @ + % % > < j < , B C M b C a.a.a.",
"a.a.a.a.a.2 > , , h h h , < < @ o o X o + = @ @ @ @ @ + @ @ @ + > ; @ + % ; @ o o # O o o o o + + + > < : B < , / e b C l a.a.a.",
"a.a.a.a.$.+ @ 3 ) h > ; : % + o o o o o o @ = + X o o o + @ o X + ; : % % + + + o # o o o o . o + > < < P ,.O./ +.) , M M a.a.a.",
"a.a.a.a.8 2 ) ,.P > > b O.+ o o o + o o + @ = @ X X o o @ + + X o : ; ; % % % % * . o o o . o . o # y ,.a.a.a.a.a.a.) B V a.a.a.",
"a.a.a.a.a.a.a.#.k j ( a.i o o o + o X + @ @ = = o . o o + + X X . o ; % ; % % % + o o o . o . o o . p a.a.a.a.a.a.a.a.a.,.a.a.a.",
"a.a.a.a.a.a.a.a.=.a.a.a.5 + o w & X + @ @ @ @ @ +   o + o @ = - % + % ; ; ; > + . o . o o o o o . o & a.a.a.a.a.a.a.a.a.a.a.a.a.",
"a.a.a.a.a.a.a.a.a.a.a.a.a.s O.;.+ + @ + @ + + @ @   o + o @ @ @ % ; ; ; % > % o o . . O # o q d q q d a.a.a.a.a.a.a.a.a.a.a.a.a.",
"a.a.a.a.a.a.a.a.a.a.a.a.a.a.a.i # o + @ @ o X o o o   o + @ = = ; % ; % > % + o o o o o o & a.a.a.a.a.a.a.a.a.a.a.a.a.a.a.a.a.a.",
"a.a.a.a.a.a.a.a.a.a.a.a.a.a.3 + o X X * o o + o o o   @ @ @ @ @ ; % % % + o o o O o . o . . u a.a.a.a.a.a.a.a.a.a.a.a.a.a.a.a.a.",
"a.a.a.a.a.a.a.a.a.a.a.a.a.s + + o   o     1 @ o o o o . = @ @ @ @ @ @ ; o o o o O o o . . o o a.a.a.a.a.a.a.a.a.a.a.a.a.a.a.a.a.",
"a.a.a.a.a.a.a.a.a.a.a.a.a.s 2 3 d $.u a a.a.2 o O o . o X O   o @ @ ; ; d O.o.& # # o . . o . d a.a.a.a.a.a.a.a.a.a.a.a.a.a.a.a.",
"a.a.a.a.a.a.a.a.a.a.a.a.a.a.a.a.a.a.a.a.a.a.d 5 1 X o X O a     O e y y $.a.a.o.r 1 # O o . o a a.a.a.a.a.a.a.a.a.a.a.a.a.a.a.a.",
"a.a.a.a.a.a.a.a.a.a.a.a.a.a.a.a.a.a.a.a.a.a.a.a.s o 4 O O a.q q $.a.a.a.a.a.a.a.a.a.o.O.d 4 4 o.a.a.a.a.a.a.a.a.a.a.a.a.a.a.a.a.",
"a.a.a.a.a.a.a.a.a.a.a.a.a.a.a.a.a.a.a.a.a.a.a.a.a.d a.o.q a.a.a.a.a.a.a.a.a.a.a.a.a.a.a.a.a.a.a.a.a.a.a.a.a.a.a.a.a.a.a.a.a.a.a.",
"a.a.a.a.a.a.a.a.a.a.a.a.a.a.a.a.a.a.a.a.a.a.a.a.a.a.a.a.a.a.a.a.a.a.a.a.a.a.a.a.a.a.a.a.a.a.a.a.a.a.a.a.a.a.a.a.a.a.a.a.a.a.a.a.",
"a.a.a.a.a.a.a.a.a.a.a.a.a.a.a.a.a.a.a.a.a.a.a.a.5.a.a.a.a.a.a.a.a.a.a.a.a.a.a.a.a.a.a.a.a.a.a.a.a.a.a.a.a.a.a.a.a.a.a.a.a.a.a.a.",
"a.a.a.a.3.2.a.a.a.a.a.6.a.a.a.a.a.a.a.a.a.a.e.4.a.a.a.a.a.a.a.a.a.a.a.a.a.a.a.a.a.a.a.a.a.a.a.a.a.a.a.a.a.a.a.a.a.a.a.a.w.q.t.t.",
"a.a.a.a.8.9.e.a.a.a.a.7.a.a.a.a.a.a.a.a.a.r.a.a.a.a.a.a.a.a.a.a.a.a.a.a.a.a.a.a.a.a.a.a.a.a.a.a.a.a.a.a.a.a.a.a.a.a.a.a.y.u.p.i."
};
