/* XPM */
static char *result[] = {
/* columns rows colors chars-per-pixel */
"64 64 201 2 ",
"   c #010700",
".  c #031401",
"X  c #051D01",
"o  c #091D04",
"O  c #0C160B",
"+  c #0E190D",
"@  c #121D0E",
"#  c #131D11",
"$  c #161F1A",
"%  c #062401",
"&  c #092504",
"*  c #072B02",
"=  c #092C04",
"-  c #0D2E09",
";  c #0C250A",
":  c #16210F",
">  c #102E0C",
",  c #073202",
"<  c #0A3404",
"1  c #063C00",
"2  c #0C3B04",
"3  c #0E3309",
"4  c #0E3C09",
"5  c #103607",
"6  c #103C07",
"7  c #11340D",
"8  c #113C0B",
"9  c #162213",
"0  c #1A2515",
"q  c #1D2A17",
"w  c #1B2519",
"e  c #1E2A1A",
"r  c #152D17",
"t  c #163217",
"y  c #153B12",
"u  c #1A3F17",
"i  c #1B3C1C",
"p  c #212D1D",
"a  c #24311E",
"s  c #1F2523",
"d  c #1E3822",
"f  c #242E23",
"g  c #272E2C",
"h  c #282F2B",
"j  c #263321",
"k  c #293623",
"l  c #223C26",
"z  c #2B3A26",
"x  c #2A322D",
"c  c #2D3A29",
"v  c #23362A",
"b  c #2D3234",
"n  c #2E3D33",
"m  c #303D34",
"M  c #064000",
"N  c #0D4304",
"B  c #074C00",
"V  c #0E4B03",
"C  c #0E4309",
"Z  c #0F4A08",
"A  c #104405",
"S  c #114C04",
"D  c #11430B",
"F  c #124C0B",
"G  c #184E0B",
"H  c #0E5303",
"J  c #0D5B01",
"K  c #0F5108",
"L  c #115404",
"P  c #125B03",
"I  c #185F07",
"U  c #13540B",
"Y  c #1A530C",
"T  c #155B0B",
"R  c #1B5C0C",
"E  c #1F421E",
"W  c #1E4C1D",
"Q  c #1B4B14",
"!  c #1B5216",
"~  c #155C10",
"^  c #1A5A12",
"/  c #1D531A",
"(  c #165512",
")  c #205F0F",
"_  c #205C1F",
"`  c #0D6201",
"'  c #0E6B00",
"]  c #126304",
"[  c #186207",
"{  c #146B04",
"}  c #15620A",
"|  c #1B640D",
" . c #166C0A",
".. c #1A6B0C",
"X. c #186C05",
"o. c #0D7200",
"O. c #157304",
"+. c #197405",
"@. c #157B04",
"#. c #187905",
"$. c #167309",
"%. c #1B740B",
"&. c #167A0A",
"*. c #1B7C0B",
"=. c #176110",
"-. c #1A6412",
";. c #1C6B12",
":. c #1F601C",
">. c #1D7413",
",. c #206414",
"<. c #216C12",
"1. c #22641C",
"2. c #246C1E",
"3. c #207713",
"4. c #217B12",
"5. c #247D1C",
"6. c #1E4320",
"7. c #1F4920",
"8. c #214324",
"9. c #234C26",
"0. c #26462A",
"q. c #29442E",
"w. c #264F28",
"e. c #284B2E",
"r. c #32402E",
"t. c #255523",
"y. c #29522B",
"u. c #2B5C2B",
"i. c #265C26",
"p. c #2D4D35",
"a. c #2E4238",
"s. c #334E3D",
"d. c #33443B",
"f. c #2E5333",
"g. c #2F5B34",
"h. c #315537",
"j. c #305D35",
"k. c #33523B",
"l. c #355D3C",
"z. c #266524",
"x. c #296126",
"c. c #276C24",
"v. c #296B25",
"b. c #2B632D",
"n. c #2B6D29",
"m. c #287820",
"M. c #2C722A",
"N. c #2D7529",
"B. c #307A2F",
"V. c #2F6332",
"C. c #316535",
"Z. c #336C36",
"A. c #38613F",
"S. c #36693C",
"D. c #386C3E",
"F. c #35713A",
"G. c #377C38",
"H. c #3A723F",
"J. c #343D43",
"K. c #354045",
"L. c #344B41",
"P. c #375543",
"I. c #395145",
"U. c #375942",
"Y. c #3A5E43",
"T. c #3C544B",
"R. c #3D5F4A",
"E. c #3A6243",
"W. c #3D6947",
"Q. c #3E654B",
"!. c #435A54",
"~. c #415253",
"^. c #406A4C",
"/. c #40654C",
"(. c #52645E",
"). c #158202",
"_. c #188304",
"`. c #178B03",
"'. c #198D04",
"]. c #1B820B",
"[. c #1B8B0C",
"{. c #169000",
"}. c #1B9D07",
"|. c #1C940A",
" X c #1B9105",
".X c #1F8C11",
"XX c #23840F",
"oX c #20910A",
"OX c #238C11",
"+X c #26841C",
"@X c #258B1A",
"#X c #27971A",
"$X c #1CAC08",
"%X c #22AB0E",
"&X c #21BA09",
"*X c #2C8324",
"=X c #2F892A",
"-X c #2C8924",
";X c #358633",
":X c #93989E",
">X c #C9C6CF",
/* pixels */
"T F C & X % & & = % % 4 } -.>.F X ,.J H J H S N = % < 2 < < < * * % = = < H ` V ] { ] 2 J N N H 2 < V H V V 2 L H 2 N N N , , N ",
"C C = 3 4 C D G 4 % K =.F C T = C } h.P P V = 2 A 2 < < * % % * = % * & V ] V L O.] = 2 H V P < X N H H V 2 N J L 1 N V 2 , = V ",
"4 8 F G F ( F F % C Z * X < 6 U ;.F =.T j.U 2 2 2 2 < = < 2 < * % * % 2 ] P N J L & % V H H ] = N H H B < V V H H 2 2 ] M < , M ",
"U D D F Q F F = % % X % & < F C ; 4 U - q.2 2 2 2 6 2 < < 2 < & = % = L J X.1 & % & = S P ] H < J H V < H P 2 J S 1 L ] P L < N ",
"U =.N C U D 3 < C C 4 3 < 3 - % C I 3 g.1 < 2 N 6 2 < = 2 < % % = % 2 ] +.L = * = = * M ] { < = 1 C < H O.2 V ] J H J ] { P = V ",
"F D 4 C 4 & % C K ;.;.Z = = - 4 C * Z.` = < S N 2 2 = 2 A < X 2 = % ] O.M & = = = * = , { V % = & < P O.V % ` ] P V ] ` O.< = B ",
"4 3 3 3 % * C T ~ ( 4 3 3 3 < 3 & % @.` 6 L ] V 6 = A 6 S < * 2 = S P < = < , < * * , , 2 , = * 1 ] ] B % < ] ] V H ] { P % = < ",
"% % * = 4 F C D 3 * * 3 = & = , * Z.' o.@.L P V = 2 S 2 L < 2 V V < 2 N 2 * , = * * < = * V N * 2 N 2 = % V { J V P { O.= & 3 % ",
"3 & % % * < 4 & < 3 3 C F C & - D ;.@.M.k.L P 2 V A 2 P N N P X.N N J P L < * % N N % = N S V 2 L N 2 N < H ] & 2 @.O.C % = = = ",
"K Z C , % % 3 4 4 4 4 3 C ( T C D c.f.p.:X{ N H S 2 ] ] = H O.V % H P H J N X 2 ] S * N P N L L P N N V 2 = = % & ] N % N & X V ",
"C F Z Z = * 3 ~ ( % 3 4 D - 4 =.F F V e.V.' V H = ] ] X < @.] % , L J S = % = L { S L A H ] J O.H 2 2 L 2 X = = = % & 4 N X = P ",
"< 3 3 * % & < < * % < ( U 8 8 ( >.F 4 L.b.o.[ 2 = 2 & % 1 V & 2 S L J S A 2 6 O.O.A S S = L #.$.S M V [ & = & = C < & V N < H N ",
"3 % % X < 4 % % % % C =.F D F F F 1 r >X(.] 1 = 2 * * < % % N P S N P L X.L L @.@.A P P = = H &.] 2 O.] < = & < A = & C V V < = ",
"F 4 * X 4 U % % * = K =.C % = & = % L.q.0.3 < 2 < < < * 2 L P S S M 1 2 { L P  .X.] $.N < 3 % N ).L ).A < = = 2 S 2 = % = = * = ",
"3 ( F % < =.4 X X 4 ~ U 4 % 3 3 y z.J B H H L N = < * V X.P A A L 2 * & ] #.O.V L '.A & V V 2 & ] '.P & = < < 2 L 2 = < = * = * ",
"2 C D & % ~ ( % X C ~ U 3 * i N.).` V H P P 2 2 ] * = O.P N A { S < = % = @. X3 V P X 2 H ] K & = L 2 A S V S 2 L N < M * = , = ",
"& = % * % Z ~ 4 . 4 ~ K * d >.[.$.$.#.2.F 2 2 P  .S S { N A +.V 2 2 = 2 % 2 +.< * 3 V K V H { < 2 S P P P V L 2 N L 2 < % = = * ",
"% = 3 = X 2 =.4 X 4 =.4 % < 3 = % R./.8.5 V S X.F I X.P N O.P & A < V S < % = 3 & N H J T V  .P S L S N N L L N = ] N % = < = * ",
"4 - Z * % % ~ C % < C * % = - % 4 U w.2 V S ] +.S U X.] O.P & & V L S < A < X = < H Z Z  .V T +.] ] L L P A 2 L 2 < N % < = = % ",
"F & 3 % * X 3 4 , * % = * * * C T g.B N L X.^ 6 L R S ] P = < < < 2 = S A 2 2 2 2 P P 2 J {  .P N ] P N < 2 N L < % L < = < % < ",
"D 4 4 & % * % , * * 3 & < 4 4 ~ / J J X...h.d % I *.A 3 5 = 5 < & 6 L I 5 6 6 S C < @.V N T  .C o & X = S L L A X < P M * 2 = 2 ",
"4 D C 4 , % = , & 4 C * C C Z g.c.O.X.+.[ h.a < 6 X.6 = < 2 2 & S T P L S 6 A X.3 X L O.J U & = - % 2 P L S L = = & S L % < 2 = ",
"% 2 C * C = * * , C = 4 4 4 b.o.B C 4 3 N M S | ) = = < < 5 3 D ..U U L Y L  .A % 3 C L [ A & = & 2 P S V L 2 X 2 2 2 L = < < N ",
"< * Z 3 * 4 & % 4 4 % 3 = 3 7.:.V , = & = 3 G | G A 6 5 = < 6 R +.6 L I P $.S % 2 T 3 . & D 6 & < P N L P < & = & P P N = L 2 1 ",
"( 4 , C % , < % , - * * * % % & A.t.T [ Y Y [ Y 5 ) S < 2 A G ..L & L $.[ C % 2 F = X 3 L P = & S P ] S = = 3 6 X < ] < N L N L ",
"F D , 3 4 * * % % , % % % * , * * - +.%.) <.<.A Y ) G u T Y [ [ 3 & 2 S 3 = A F 2 3 S A F 4 & 2 P L 2 = = < S L S & % N V V N +.",
", 4 C - % * * % % % * 8 , % % * = -.L Y ..4.| A ) L x.u./ {  .6 < N 4 = = 5 2 4 A F 6 = A & A 2 * = & 5 & S L S L N X O.P 2 V O.",
", 4 , C % % * * % < F ( 4 3 4 4 b.] ) | *.<.<.| G I l._ y.] A 2 L Y S 4 5 < 2 < < = 3 L 4 S U = & = 3 & & S L V S H = P $X2 S @.",
"% 4 * , 4 % % % 3 ( 4 , D 4 2 6.#.+...].4.) *.].Y ,.j.2.N.y.D ^ T.w.P S U S 2 2 5 < 6 L S A 3 & = 3 & 3 2 A L S S P S . #._.] X.",
"% - 4 * C - X , ( 2 % 4 C * * +X_.*.*..X*.) ].5.<.~.-.-.i.p.L.v.z.) S F F A 6 S A 2 2 5 3 2 3 = - & - N 2 N S S N L L = = O.'.L ",
"4 < 2 , , 4 * C 3 * < - 4 , = U.t.8.y R.XX+.N.k p.! R U F >.>.T u.V S L 2 N I U A N F 6 3 3 = = = & S C 3 S V P L L P < < 6 2 S ",
"* * , , * < 3 2 , , , < 2 , & = = < = = n.`.i r = = X & 1.;.U ~ ! N [ F A R S 6 C U A I I = & - = F N - 3 N L P ] P L = = 2 A = ",
"3 , , , , * , , , < 3 2 3 % * = , = = 1 6.S.= - & - & D =.T T L.A ] { 2 U S A A I A S XXR & & 3 L 2 & 7 3 4 S P { ] L * = , V S ",
"2 - , , , , 3 , < < , < = , < 3 = & , 1 < - = = = % 3 } } I ;.p.#.*X8.S U 6 D ..T 2 %.3.& > < F 3 & > = 4 3 V P { { S - = < 2 S ",
"* , , , , = 3 , 3 , < , * , , , % , V ~ =.Z & = & 3 T } Z U z.l.;X1.f.H A U $.%.6 I OX& - 5 = = & 7 & 5 8 3 2 { ] O.V 3 % 2 N A ",
"% , = , , * , = = 1 , % X * , * N  . .=.=.=.o X & U F 3 = = Z T W s.| P O.OXm.[ L oX4 & 6 & = - 3 8 & 7 8 8 & I ].O.1 - 7 % N S ",
"* % % , * , , * * % * % % % * B  .~ Z 3 U K C K } 4 = < 1 = Z K V c.).'.#X/.Z.'.*XC.& D 3 3 3 3 7 7 & 5 7 7 7 & ] '.2 ; y & & A ",
"% % % * = = * * % X * * % * 1 T C C , N K 4 T  .&.1 4 1 < 2 K U T B.-XF.l.b l.D.^.x S A 3 8 7 7 7 3 % 7 8 & 3 7 o M < > 7 7 % % ",
"* * , * = , = * % % & * = % < 2 < 2 < 4 4 C C  .Z , 1 1 = F -.~ ( T %.[.N.x x S.v.A P 4 3 8 t - D D & & y & - y - . X 5 6 3 = = ",
"* * = , * X = = * % % = = % = < , < , 3 V C K  ., 2 1 3 4 G 4 & = L X.|.T.g G.X.a.V F & 8 7 6 L A 7 7 5 7 & 6 D A 4 % & D 3 = L ",
"% * * = % % % * * % % = % % = < , 4 2 Z B C  .B , N < = - & % = C V O.+Xs W.O.U l H S 2 S A X.] 7 > y = o X S S A S 2 X = 5 2 [ ",
"% * * % % * * * % % % % * * * 2 Z K N C Z ~ K * 3 , < 4 C F T K = < ).=XE...J } E P ] [ L ] 8.t A A 8 6 % . A L N S A 2 < = 2 2 ",
"% = % % = * * % % % % % * % = V 1 1 3 C K 4 & % & & Z U U D =.C X 2 H &...F | D t.P [ L @.>.a l N L L U ] X & I S A S 2 2 2 < = ",
"* % % * % = = 1 T V X % % * , , * 2 C K 2 & & * & = 4 8 3 4 ..- * = % N U T F U u.X.[ ).OXd.j z S P L S 2._ M L S N V 2 S P 6 2 ",
"% % * * % , V H N Z & % % , , , 1 4 1 * 2 * * * * 3 4 C 3 } Z % % * 4 D F Q U } l.O.`.@XT.x a m P L P P f.m Z.| N S V 3 F %.T V ",
"% % * % , N 2 , 1 C % % , , , , C , % 3 4 * ; % % 3 4 3 K K % % = 4 D D C T T 4 A.{.B.@.Y.a 0 p v.J S P n.f g l.H V B < 2 I $.[ ",
"% % % * C 1 , , N 4 X = , , , 4 = * , 4 3 % % , = 3 = 4 N & * 3 2 D D D U U - C ! U.{ n.p p p j !.[.J P n.f p 0 p.Q Q D = M  .&.",
"* % % < N 1 , < V = % , % % , * * < 2 C % = Z C C Z 1 = & % & 4 3 6 D F F % 4 F D V z.g x k a a c Q.[.O.j.$ f p p # e x K.v N ' ",
"* % % = 1 < < 1 C X % , , * * = , 1 1 = , Z 4 - & 2 = % % & , 3 < 3 4 , X 4 K C J *X!.E.T.0 q q 9 w ~.5.l.# 0 9 p p p q j : J.l ",
"% % * = < 1 1 < % & K K } C % * * < & = 4 * & = 4 3 X * 1 N Z C C C % X % Z C 3 L #X~ ).Q.b 9 q j q 0 @ # @ + O 0 0 p f k p p 0 ",
"= 1 = * < < , = C K C 1 J = % , Z = % = % X & 3 3 X % N C y C 4 U < . % & & % % 4 & 1 ~ j 0 9 f p k p 0 9 f 9 @ # p @ @ a : p z ",
"2 = % , 1 1 , 1 1 , % Z 2 X % , } Z & * % X % % X X * 3 3 D D Z N % , * % X * N 2 N  .V Q W t.L.9 # p p e k k p 0 0 @ # p p p p ",
"% % % , < , , , = , 1 < % % % 2 Z =.1 % % o . , $., X 3 = 3 4 3 * N Z Z * % , < % M < 3 , 1 H V.@ @ O 0 p 0 e 9 # 0 # 9 @ w + # ",
"% X % * % = 1 , < 1 , % % = % < C =.$.% % . , ].[.& X % * = & % 3 = 3 Z % % % % * % % , C G P k.p O # 0 f 0 j k j 9 @ + 0 9 p # ",
"X % < * = % * % % , % % % < < < 4 $.[.X X 3  . .T % X % * % = < < 3 Z C X % * % * = = , 4 U T ! u.I.# 0 e 0 q 9 @ @ # w j z k # ",
"X * N = * % % % = % % * % 2 , C C &.V . , } } } T % X % % % = 4 2 < C * % * * * * % % = C , = S P R n k k e j e 0 9 9 p k k z e ",
"% * N , X % = < C % & * * < , Z Z  ., X K T K P K X % % % X = 2 3 < , % % * * * * * % , * % 2 ( V / w 9 : e c 9 + @ @ p a p a a ",
"= % 2 , % = * 2 C % * * * * C K T } * 4 T K C T C   . % % % 3 , = * % % % * * % , % * * * N ( U J h.O O e z q e p p a a a p p z ",
"* * , , % = = M 1 % * * % N U U T T U K V C Z ].] 2 = % X % % % % % % % * % * , * % % % % C 1 F p.e O w a 9 9 9 0 @ p p 9 : : a ",
"X , % % * * , N = * * * & 1 4 4 2 2 U K C Z &.$. .&.|.K . % X % % * % % % % , % % % 1  .C % i g b w O q q q 9 w @ k c c a a : q ",
"* % = = % * , 3 % % % * 4 2 2 2 2 & C U U } T Z F U [., . % % % * * * * % % % % * , V T |.[.7.U.P.a.e b q c e # r s # 9 z e # 9 ",
", % 1 2 % = < 1 2 2 3 , 1 4 2 2 4 , V Z T H U U T [.H % < % % % % % % * , % % 1 N J C } &X$.B H T } c.S.q c 9 9 # # w r.a + 9 e ",
"= * S 2 % < 3 2 1 2 2 N 2 , 1 C < , Z Z Z Z U  .&.K X 3 & X X % % % % * , % , V K C ] $X1 X B C C , J $Xq q s # # d k 9 9 q r + ",
"* < S 2 & , , = , 3 C Z 4 < 2 4 < 2 2 V } N K T 2 & C K C 1 , = X % , , < 1 V K T &.}., . Z V C N J |.Q.q s e w # O w k c z a p "
};
