/* XPM */
static char *result[] = {
/* columns rows colors chars-per-pixel */
"64 64 201 2 ",
"   c #010700",
".  c #031401",
"X  c #051D01",
"o  c #091D04",
"O  c #0C160B",
"+  c #0E190D",
"@  c #121D0E",
"#  c #131D11",
"$  c #161F1A",
"%  c #062401",
"&  c #092504",
"*  c #072B02",
"=  c #092C04",
"-  c #0D2E09",
";  c #0C250A",
":  c #16210F",
">  c #102E0C",
",  c #073202",
"<  c #0A3404",
"1  c #063C00",
"2  c #0C3B04",
"3  c #0E3309",
"4  c #0E3C09",
"5  c #103607",
"6  c #103C07",
"7  c #11340D",
"8  c #113C0B",
"9  c #162213",
"0  c #1A2515",
"q  c #1D2A17",
"w  c #1B2519",
"e  c #1E2A1A",
"r  c #152D17",
"t  c #163217",
"y  c #153B12",
"u  c #1A3F17",
"i  c #1B3C1C",
"p  c #212D1D",
"a  c #24311E",
"s  c #1F2523",
"d  c #1E3822",
"f  c #242E23",
"g  c #272E2C",
"h  c #282F2B",
"j  c #263321",
"k  c #293623",
"l  c #223C26",
"z  c #2B3A26",
"x  c #2A322D",
"c  c #2D3A29",
"v  c #23362A",
"b  c #2D3234",
"n  c #2E3D33",
"m  c #303D34",
"M  c #064000",
"N  c #0D4304",
"B  c #074C00",
"V  c #0E4B03",
"C  c #0E4309",
"Z  c #0F4A08",
"A  c #104405",
"S  c #114C04",
"D  c #11430B",
"F  c #124C0B",
"G  c #184E0B",
"H  c #0E5303",
"J  c #0D5B01",
"K  c #0F5108",
"L  c #115404",
"P  c #125B03",
"I  c #185F07",
"U  c #13540B",
"Y  c #1A530C",
"T  c #155B0B",
"R  c #1B5C0C",
"E  c #1F421E",
"W  c #1E4C1D",
"Q  c #1B4B14",
"!  c #1B5216",
"~  c #155C10",
"^  c #1A5A12",
"/  c #1D531A",
"(  c #165512",
")  c #205F0F",
"_  c #205C1F",
"`  c #0D6201",
"'  c #0E6B00",
"]  c #126304",
"[  c #186207",
"{  c #146B04",
"}  c #15620A",
"|  c #1B640D",
" . c #166C0A",
".. c #1A6B0C",
"X. c #186C05",
"o. c #0D7200",
"O. c #157304",
"+. c #197405",
"@. c #157B04",
"#. c #187905",
"$. c #167309",
"%. c #1B740B",
"&. c #167A0A",
"*. c #1B7C0B",
"=. c #176110",
"-. c #1A6412",
";. c #1C6B12",
":. c #1F601C",
">. c #1D7413",
",. c #206414",
"<. c #216C12",
"1. c #22641C",
"2. c #246C1E",
"3. c #207713",
"4. c #217B12",
"5. c #247D1C",
"6. c #1E4320",
"7. c #1F4920",
"8. c #214324",
"9. c #234C26",
"0. c #26462A",
"q. c #29442E",
"w. c #264F28",
"e. c #284B2E",
"r. c #32402E",
"t. c #255523",
"y. c #29522B",
"u. c #2B5C2B",
"i. c #265C26",
"p. c #2D4D35",
"a. c #2E4238",
"s. c #334E3D",
"d. c #33443B",
"f. c #2E5333",
"g. c #2F5B34",
"h. c #315537",
"j. c #305D35",
"k. c #33523B",
"l. c #355D3C",
"z. c #266524",
"x. c #296126",
"c. c #276C24",
"v. c #296B25",
"b. c #2B632D",
"n. c #2B6D29",
"m. c #287820",
"M. c #2C722A",
"N. c #2D7529",
"B. c #307A2F",
"V. c #2F6332",
"C. c #316535",
"Z. c #336C36",
"A. c #38613F",
"S. c #36693C",
"D. c #386C3E",
"F. c #35713A",
"G. c #377C38",
"H. c #3A723F",
"J. c #343D43",
"K. c #354045",
"L. c #344B41",
"P. c #375543",
"I. c #395145",
"U. c #375942",
"Y. c #3A5E43",
"T. c #3C544B",
"R. c #3D5F4A",
"E. c #3A6243",
"W. c #3D6947",
"Q. c #3E654B",
"!. c #435A54",
"~. c #415253",
"^. c #406A4C",
"/. c #40654C",
"(. c #52645E",
"). c #158202",
"_. c #188304",
"`. c #178B03",
"'. c #198D04",
"]. c #1B820B",
"[. c #1B8B0C",
"{. c #169000",
"}. c #1B9D07",
"|. c #1C940A",
" X c #1B9105",
".X c #1F8C11",
"XX c #23840F",
"oX c #20910A",
"OX c #238C11",
"+X c #26841C",
"@X c #258B1A",
"#X c #27971A",
"$X c #1CAC08",
"%X c #22AB0E",
"&X c #21BA09",
"*X c #2C8324",
"=X c #2F892A",
"-X c #2C8924",
";X c #358633",
":X c #93989E",
">X c #C9C6CF",
/* pixels */
"% = , , X * , % X X % % 1 * % & = % % % % % % % * * % * = = < 4 , 4 % % < , F ( < * < D F 4 % * 3 3 F 3 = Z F < % 4 F ( U 4 C T ",
"1 & % * = * * * * % X % * 1 % % & % % * % * = * * = % % = = , , = < , 4 4 4 D 4 * 3 F 8 * - * * D ( 4 % 4 Z F & % < Z =.4 8 C F ",
"S S 2 & % , 2 M N < * % % , * % % * * * % % = = * , * % , , , , , 3 4 * , C , = F C 4 4 3 F 3 % D F % * < Z C % % 3 C C D D < 4 ",
"2 2 2 * % = < = * * * = < * & , < & * & * % % * , * * = = , = = , , * , C < 3 C < * 4 * % * = * = % X X = C = * = < C 8 ( ( < & ",
"% % % = = = % X * * * < 1 < 1 1 C M * & * * % % * * = * , , , , , * 4 4 & % 4 * * C = % * % X % % < 4 , % * % * 4 % 4 ( D F 5 o ",
", < * * * = = % % * * , < 1 < < < M N , * = = % % = , * * , = , < 4 < % % % * , 4 < % * X % 4 Z ~ =.( 4 * & % 3 F = % D F ( D % ",
", 5 , < , = * * X * < , , , 1 , , , 2 Z * * * % * = * = < < , , 3 * X * * * * - % % , % < ~ =.~ ( 4 % X 3 3 < 4 C C % < F ( D & ",
", < < < N N 1 < % % < , 1 , < 2 , , , K 1 % = = * * * * , < < = 4 C * % * % * % % * < * 4 C 4 4 * X % % < T C & D T 4 < = D ( * ",
", < < % * 4 C M = * , , M C % 4 Z C , N ` & % * * * % % , < = < = 4 ( < X % * < 3 < * = * % % X X % % % = Y 4 < 3 T U C % % 4 = ",
"< 4 2 * * & * % % , < , , K * X = 2 Z Z Z * % % % % X * 1 < , , , * 4 ( , % * < 4 D 4 * * < 4 2 4 4 * % % = 3 3 = Y ;.C % C % % ",
"C 2 , * * * * = % % , 1 & M Z % % X % % X % % % % & % * , < , < , , % 4 ( % % * % , 8 3 % C ~ ~ ~ T U C = 3 8 3 - C >.3 X Z K % ",
"F 2 = * * * * * * % % < Z 1 K , = * % % % % % = * * = % & , < 4 < < 4 * ( 4 % = 3 3 * * * % 4 ( K ( ~ =.( 4 3 8 < = Z 3 % * =.2 ",
"C < 2 4 * * * * % % % % M U } , % , , % % * * % * * & % X * = < 4 4 C Z 4 * * ; , 4 C = * * % = 4 4 C F U 4 C U = < = = * X Z ~ ",
", < 2 2 2 2 % < 2 < * % X < C = % , < , * % * % % % = & * , < % = , * 4 = % * * - 4 C 4 = = , d * % % C y - ( C ; - < 3 < < F -.",
"M 4 2 2 2 T C < < < % % % % % * , , , , , = & = * < 1 * , 1 < = & , = < 4 * * % 7.n.K 4 * 3 3 >.d < - F 4 4 ~ * , - < - F 4 T >.",
"4 2 2 2 2 U K C 4 < 1 2 , * , = = 2 , , , Z 2 , 4 2 L V % < = = = U.+X6.C % = % :.o.g.( C % = ].N.3 * F ( =.C - , < 3 & C U = F ",
"< 2 2 < 2 T T C C 4 C Z  .Z * 1 * = N 1 * 2 V , , < C $.M & * , = w.`.#.V.= & l.B V 2./ T 6 % +.).y * Z >.U F D = = C C & ;.C . ",
"4 , < = 4 T {  .&.$.} } C * < , , , = C 2 < K 4 , 4 4 ~  ., * = , 8.*.X.] -.7 t., N O.J j.U R.+.` z.* 1 F C z.;.V.% = } 4 F =.<.",
"2 Z Z V U K * , Z [.$.< & * * 4 , = * , C 4 N 2 < < < Z ;.B , * = y _...R P +.T * 6 X.P B w./.+.Z J L.r 4 Z f.@.' @.Z.3 Y | k.J ",
"C Z Z K K Z 2 X . X X % = = * * C C , , K N 4 Z < 4 4 4 =.T 1 4 3 R.XXXX| Y +.[ = 3 +.{ N 2 8.2.H B q.>XL.e.p.M.o.` ` g.< T L J ",
"} Z T K C Z T K , X % % X % 4 < % 3 4 3 1 K Z Z Z < K K ~ } < 8.n.XX*.*.XX..) Y = N [ ..L V 6 F J J e.(.b.C.:Xh.@.6 * 2 q.l.P J ",
"C Z K } Z C K T } 1 . % % X * Z = % * = % 4 } C Z C 4 K } U & S.`.+.) ) <.4...Y 3 1 h.h.X.S V < P H < ] ' ' { S L L < , 3 U N J ",
"T K K T &.Z C T T  .= . % % * 3 Z % & = * % K { K C T C o & - = a n.XX%.<.| <.| G S 8.d ^ ] L 2 1 L , 2 ] S N J P ] S 2 2 < , H ",
"T  .T Z $._.T T }  .].= % 3 - = C , % = * % * Z  . . .U o = = < t l 5._.| A A Y ) R < X 8 X.X.P 2 2 2 * < P L N V V N A 2 2 2 N ",
"< &.T Z } } V K T } ].$.. < 4 ; C , % = & * - , , Z &.=.& & = = < k.;.Y Y ) G 5 G Y A P Y S F X.] * , 1 = & S S , 6 6 2 2 2 A & ",
"* Z [.T &.2   X % & = < % X < 4 Z < 3 3 = * , 2 1 , 1 C U = & ; = ( T.1.P L ) ) A 5 ..*.T L [ S & < < * 2 ] N A 2 * < 6 6 2 2 & ",
"C % H [.|.< . % X X X X * & % * 4 = 3 C C D < < 2 1 < = F T < X o T ;.g.l.x.Y S 6 < A A S X.X.S < * < = * ] ] 2 S A , < 2 < < < ",
"K , % = K % % X % X * 3 < N % X = 3 > C 4 T 4 - , 2 2 < 3 =.} F & F -.2._ u.i , = 5 = = ] P P { O.S * < % X ] P < 6 6 , , < < 2 ",
"C * , . . X % % % % = = 3 C 2 % % C K 3 3 ( D - C = 1 2 = C } | <.F i.n.e./ Y 2 = 5 < < ] { N A P { < & 2 , & N H S A 2 < < & 2 ",
"< X % % % % % X % * = 3 y C N * % * T } 4 C D % ( Z < < < ( } T ;.>.p.h.X.{ Y A 5 5 6 < & P O.S 2 P P % V @.J N < , < < < 2 % < ",
"< X % % % % , = = = * 4 C D Z - * % % Z =.=.T % 3 -.K Z Z 1.,.T U >.s.D A  .[ G 6 = < 5 < & P O.A A P S & ] O.P N & % % < 1 & , ",
"= X % % % % - 4 3 < * < F 4 4 4 3 < % % = Z K < * ~ U K K Y.p.L.~ T v.^ < A } X.) 6 = < < = & S { A A P < % V { V 2 < & & * * & ",
"X % % = % % - , 4 3 < * C Y C < 3 4 * * & X & C * ( T V W ;X@.8 Q g.x.T.L , < T X...F & < V S 2 S L S S V * & A H & = = & & = = ",
"% % % * % % * < < < < C % < C < 4 D 4 - = 2 1 B L } N.c.s.1.*X] N B ) y.Y C & % 5 L I 8 < L < < < 2 N 2 L J H M < V & % & & % * ",
", % % * % % % , C F < Z , . % 2 D D D 4 % H ).O. .%.-X)...f.8.X.I S S P S 5 2 L L L Y L < S V - * = 2 P H P P P N P ] 1 = % * = ",
", * * * % % % % % 4 Z Z * % X < D D D D N #.=X@X|.oXD.'.J L S 6 S P S F A = A *.I P P P S < V 1 & % 2 H L V H J N < O.] L M % = ",
"1 , * % % * % * % X % * % % % X F T D F F ..W.s T.B.Y.#XO.A S U A 4 S U < 3 3 [ L L S 6 S A < % * ] X.{ A * P H 2 * N O.P P V , ",
", * % * * % * * * * % X X * F 3 % U T F T S ..W.g x b R.OXS A S T 6 A F < < = N +.T 6 6 2 , & 2 @.@.L L < & N < * < & L { P ] J ",
"B , % * = * % * * * % , * % C F 4 - T Y U | L  .G.x Y.Z.m.*.A 6 L Y A < < 2 4 & A X.6 6 < o - +.|.O.P L A = o * , * , & 2 M V P ",
"Z Z , % * = * * * * % < N * 3 C F Z 3 } U D } L ] Z.D.'.} %...D 2 T L 5 5 2 L 2 % A X.L 6 * = < , F  .).{ L 2 % * < , * & P L H ",
"T H N = % * * * * * % % 2 2 H J C / C.l.g.t.E l a.v.^.*XL A T I 2 A D 5 < A 5 S 2 & 2 N 2 < & = S T { @.O.{ ] A & * , < % L O.[ ",
"&.C K 1 % % * * * * % M N * #X*XZ P.`.@.' J L P V 6 x C.oXI 2 S L A 2 < 3 S 2 - U < X , P K N < L `.] A S S S N * & * * & & ] { ",
"}.` C V 1 * * % % = % <  .1 ~ !.v.{ B.`.I X.] S S P V ; 2 XX3.A A F 6 N = 5 F o 2 6 L +.T V H V o A O.P S L % % 1 < * % & % & ] ",
", $X} T } % * , , , < < Z ~ @.W.g n.@.@X@.L I 2 - < A D & = 4.XXI A < S U , N 2 . L &.V M Z J K 2 & N P S A V * * < , A V S M N ",
"X < &X|.C % * * C 4 4 , Q a E.~.x p Y.T.oXO.T S 8 7 3 < 8 ; & R R < 5 C A A S U ; } J C P  .L Z H K < * * L ] N & 1 { ] P H J H ",
"Z X $.`.* 2 M * , Y F 2 Q p x : j a a h d.3.] A 8 7 8 3 & 5 = ; - 5 5 A A = 2 L C A L T { Z Z L ] Z , * L ] N S S < V { ] H V N ",
"V B Z W i M ( 2 * I P L t.# @ p j p 0 a j j 8.{ 8 7 5 3 = < = - & = = 3 F A & 3 < & &  .O.T  .X.L < & S +.P L A N , & < L ] J N ",
"Z M U U.h F F ( S ! s.V.I.p p p p a a r.x 8.t P F > 7 5 > = S < = = = = * 4 2 = = - - 4 J  .P 1 * & C @.O.O.L 2 * * = * , * < H ",
"4 N T P.b p.K F P b.w # 0 p p 0 c !.n.T B M A 7 A D 7 7 - - < L - - - = & * P S < % - o V ] S 1 = [ ).] V V ] L 1 2 & N P M o 6 ",
"J ,  .a.w e f.! R P.O # 0 j 0 0 /.[.J H I P A > 7 D 5 7 7 3 & < S = - = 3 & L P P 2 o = ] P S S L  XP 2 N 2 N N N ' , N H H V , ",
"|.J z.e O + + 0 n 9 # + p p 0 ~.[.J S L L L 8 7 7 = % & = - - ; N S - - = = 2 P N P < o P L V P 1 P _. .S 2 2 2 < { J * V H H V ",
"W.$XW.x 0 0 + # k 0 9 9 p 0 @ 5.O.P ] P L S 8 5 > = > > 3 3 - > - 4 A = - = = L L S ] & V L N ] N & N ] ] L S A * V @.H = V H H ",
"w e s q 0 e a @ k p j p p # # l.j.n.n.f.2.` & o > 8 7 7 8 D 8 5 3 - 4 < = - = = P S L S , P A L S , < < = < 2 = % o V O.H < V V ",
"s r z z e 0 k p p 0 0 @ j p # # $ f f m _ X . o & % - 7 8 > , N N S V S S A < & < L S L 2 S L S S = < = * o & L V , * 2 J H N N ",
"e f 9 e 0 : q q.a 0 k p k 0 # $ p p x F.M = A S 6 > 5 7 - 2 V Z L V S L L L S < & < L L N 2 L L S < = & = = = ] O.] P V 1 V M 2 ",
"q + 9 9 0 9 e 9 p # k # p @ @ @ p q j.) L L L S A y > & P X.] P P L S S S S S A < % & N L L A 2 < 2 2 < = = % = P ' ] ] P V P L ",
"# # # w @ 0 p O 0 @ j @ 0 # 0 p e p.J N S A A N D 7 X ] _.] { { ] L S S A L V o % N * % < 2 , N L L S A N * & 2 V V J L H L V H ",
"O f # e z @ a @ # @ 0 0 0 p 0 p : E B S N V S S 6 . M '.O. .{ [ P L L P L N & , L 2 & < % < P L N 2 2 < 3 & ] @.J H V H 1 2 1 N ",
"w x 0 @ m p k @ 0 # @ @ @ @ p p e Q N V S A A < % X , 2 2 V L L H P L V , X % ] P 2 S P L N A 2 * & & & & & N O.{ ] ] ] H 2 A N ",
"z 9 r.: z 0 a 0 p 0 O $ # @ p p x D < < 2 2 2 % % 5 > ; - 3 = * * < & X P O.N < N P V N , & & , N 2 % N V 4 & N O.{ ] J ] P H N ",
"c : a z j 9 a k k j w # p j z k K.= 2 S S 6 < * D y 7 y 5 & * * , * = _.}.P S 2 = * & & = , & & & , * S N C N & * P { { ] M < N ",
"z q + e e 9 0 i k z # w p # p # v 1 } $.T 2 * 5 5 3 5 = & < < , A A +._.N 2 V L L < < 2 < * , < * * & H , X & * = & 1 P H < < , ",
"e r 9 # 9 9 q k z k p @ p p p m N  . .I 2 < < 2 = = & % N A < S A 2 _.] L V N N < 1 2 * & * , * , * & 1 K & X & < = & , , , * < ",
"a # e # q a z k e @ @ @ p j p k ' ].[ S 2 < N ] L & % N S A L S & A L { @.O.+.L 2 A < 2 < & & * = * * * V J V < & < V N N N V N "
};
