/* XPM */
static char *result[] = {
/* columns rows colors chars-per-pixel */
"64 64 201 2 ",
"   c #010700",
".  c #031401",
"X  c #051D01",
"o  c #091D04",
"O  c #0C160B",
"+  c #0E190D",
"@  c #121D0E",
"#  c #131D11",
"$  c #161F1A",
"%  c #062401",
"&  c #092504",
"*  c #072B02",
"=  c #092C04",
"-  c #0D2E09",
";  c #0C250A",
":  c #16210F",
">  c #102E0C",
",  c #073202",
"<  c #0A3404",
"1  c #063C00",
"2  c #0C3B04",
"3  c #0E3309",
"4  c #0E3C09",
"5  c #103607",
"6  c #103C07",
"7  c #11340D",
"8  c #113C0B",
"9  c #162213",
"0  c #1A2515",
"q  c #1D2A17",
"w  c #1B2519",
"e  c #1E2A1A",
"r  c #152D17",
"t  c #163217",
"y  c #153B12",
"u  c #1A3F17",
"i  c #1B3C1C",
"p  c #212D1D",
"a  c #24311E",
"s  c #1F2523",
"d  c #1E3822",
"f  c #242E23",
"g  c #272E2C",
"h  c #282F2B",
"j  c #263321",
"k  c #293623",
"l  c #223C26",
"z  c #2B3A26",
"x  c #2A322D",
"c  c #2D3A29",
"v  c #23362A",
"b  c #2D3234",
"n  c #2E3D33",
"m  c #303D34",
"M  c #064000",
"N  c #0D4304",
"B  c #074C00",
"V  c #0E4B03",
"C  c #0E4309",
"Z  c #0F4A08",
"A  c #104405",
"S  c #114C04",
"D  c #11430B",
"F  c #124C0B",
"G  c #184E0B",
"H  c #0E5303",
"J  c #0D5B01",
"K  c #0F5108",
"L  c #115404",
"P  c #125B03",
"I  c #185F07",
"U  c #13540B",
"Y  c #1A530C",
"T  c #155B0B",
"R  c #1B5C0C",
"E  c #1F421E",
"W  c #1E4C1D",
"Q  c #1B4B14",
"!  c #1B5216",
"~  c #155C10",
"^  c #1A5A12",
"/  c #1D531A",
"(  c #165512",
")  c #205F0F",
"_  c #205C1F",
"`  c #0D6201",
"'  c #0E6B00",
"]  c #126304",
"[  c #186207",
"{  c #146B04",
"}  c #15620A",
"|  c #1B640D",
" . c #166C0A",
".. c #1A6B0C",
"X. c #186C05",
"o. c #0D7200",
"O. c #157304",
"+. c #197405",
"@. c #157B04",
"#. c #187905",
"$. c #167309",
"%. c #1B740B",
"&. c #167A0A",
"*. c #1B7C0B",
"=. c #176110",
"-. c #1A6412",
";. c #1C6B12",
":. c #1F601C",
">. c #1D7413",
",. c #206414",
"<. c #216C12",
"1. c #22641C",
"2. c #246C1E",
"3. c #207713",
"4. c #217B12",
"5. c #247D1C",
"6. c #1E4320",
"7. c #1F4920",
"8. c #214324",
"9. c #234C26",
"0. c #26462A",
"q. c #29442E",
"w. c #264F28",
"e. c #284B2E",
"r. c #32402E",
"t. c #255523",
"y. c #29522B",
"u. c #2B5C2B",
"i. c #265C26",
"p. c #2D4D35",
"a. c #2E4238",
"s. c #334E3D",
"d. c #33443B",
"f. c #2E5333",
"g. c #2F5B34",
"h. c #315537",
"j. c #305D35",
"k. c #33523B",
"l. c #355D3C",
"z. c #266524",
"x. c #296126",
"c. c #276C24",
"v. c #296B25",
"b. c #2B632D",
"n. c #2B6D29",
"m. c #287820",
"M. c #2C722A",
"N. c #2D7529",
"B. c #307A2F",
"V. c #2F6332",
"C. c #316535",
"Z. c #336C36",
"A. c #38613F",
"S. c #36693C",
"D. c #386C3E",
"F. c #35713A",
"G. c #377C38",
"H. c #3A723F",
"J. c #343D43",
"K. c #354045",
"L. c #344B41",
"P. c #375543",
"I. c #395145",
"U. c #375942",
"Y. c #3A5E43",
"T. c #3C544B",
"R. c #3D5F4A",
"E. c #3A6243",
"W. c #3D6947",
"Q. c #3E654B",
"!. c #435A54",
"~. c #415253",
"^. c #406A4C",
"/. c #40654C",
"(. c #52645E",
"). c #158202",
"_. c #188304",
"`. c #178B03",
"'. c #198D04",
"]. c #1B820B",
"[. c #1B8B0C",
"{. c #169000",
"}. c #1B9D07",
"|. c #1C940A",
" X c #1B9105",
".X c #1F8C11",
"XX c #23840F",
"oX c #20910A",
"OX c #238C11",
"+X c #26841C",
"@X c #258B1A",
"#X c #27971A",
"$X c #1CAC08",
"%X c #22AB0E",
"&X c #21BA09",
"*X c #2C8324",
"=X c #2F892A",
"-X c #2C8924",
";X c #358633",
":X c #93989E",
">X c #C9C6CF",
/* pixels */
"p e z c z w O # w e s w W.|.J M Z Z B . , }.&.P K C 1 , , , % X * , < Z K C * 3 P U Z } N 2 2 < 4 4 < 4 F C < < , = < & 2 V , * ",
"@ 0 q 9 9 v j # @ s r e %XJ , Z N B X < $X} 4 K Z , * , * % % % X X X * = % Z &. .K Z Z Z Z < < 2 M , 2 2 2 2 < 2 3 , % 2 V * * ",
"e 9 + a r.w # 9 9 9 c e D.c.=.P H Z $.&X} C J Z , % % * * % % % % % % , & K [.P T U K K Z Z , 2 2 2 M 3 < < , 2 , < * % 2 2 % , ",
"9 @ e c 0 + w w 9 e z e x s a.P.U.7.`.|.P Z 1 * % % * * * = * * % % % . = [.T Z Z T } K U Z * 2 2 2 2 4 * * * & < 1 * & = = * * ",
"r 9 e j z r.z @ q 9 q w w O 9 b g i % C } 1 X % * * * % % % % % % X % . K |.&. .$.&.Z Z K K 4 1 3 M 2 & = * * = N , * * % % , X ",
"j 9 9 0 q q @ 0 9 : 9 e 0 + e p.F 2 4 * % * % * , * % % % % % * % % % X & , 2 } ].Z C Z K K T T U T M % * * * 3 N * * * < * * * ",
"l q q a a a j p e q z a + + f.L U ( M * * * * = * % * * * % % = < = % % % .   Z T C K U 2 = } T U C * * * = * C 2 * = % < 2 * * ",
"k k a a q @ @ O 9 q.e @ 9 w ! F U 4 * * * * * * * * * * % , 2 = 2 = % X % % X K T T T K X ,  .Z C < < * * * % M , * % X = M * % ",
"p z k j p 0 # 0 q k p a z n R P F * , D = * * * * * * % * Z < 3 3 = % % % X % T } } } , . Z &.C C 3 2 % * % % = = X % * * N * X ",
"# k k k 0 # # @ # 0 w q 0 0 P.u.! T U 8 , * * % % * % X 4 F < < < = & % X X % T  . ., X X [.$.4 , , , % % % = % * * * * * < % % ",
"# p 0 0 + + 0 a k j 0 f 9 # O w s.P F 4 < % % = % * % % Z < < 3 * = = = * X * ].&.= . % % $.} C , * = & % , 1 1 , 1 = % * % X % ",
"# O 0 # $ # 0 @ 0 e 0 p w O # # b.J , 1 < , M % , * % * F F C & < 4 3 < 3 X 3 $., . % % % 3 } Z 2 % & % , 1 , * , , * < * % % & ",
"p p p q # @ 0 0 p k k p p p 0 0 I.t.W ! Z  .N 2 N * X % % < % M F 8 8 3 3 & X X % & % X * & N  ., X X 2 Z * * C , , 1 2 , * * 2 ",
"k a 0 k @ @ p # # 0 p # 0 q k 0 a : 0 f ~ 1 * 2 * % * % % . 2 U 8 C D M N * X 3 3 % X % = & * Z , % , P 2 N K M , , < , = * 2 * ",
"q p 0 k p p 0 0 O @ @ # @ 0 0 a q : b Q.).! #XK 3 C F % X % C C C Z C 2 * % < 4 - * = 4 = * , = * % C } Z K * % 2 , 1 , * % % % ",
"j J.0 k p p p p # 0 # U.5.~.0 0 w q w T.D.!.*XP C F 2 X < 4 < < 3 < * % X = 3 = = 3 Z , = 2 , 1 , * = , < X X C M , 1 2 , % % * ",
"' N v K.x f # p p f $ C.{ [.Q.c a k k x h x.V D F 4 & Z F D 8 3 3 = % & - 1 Z C C Z = & C 1 , * * , % % = % = Z 1 < 1 2 < % % * ",
"*.{ M * D Q u p.0 p f n.P J .X!.j q a p v.{ U./ C < T ( D 4 C 3 < % * C 3 - , = = % % < M * , - 2 , = 1 * X 2 N 1 * 2 N % = % % ",
"}  .} 2 , V V J l.h f n.P S J n.p 0 a Y.@.B.{.A.3 T R D D D 8 = % % K U 3 3 3 % % * & C < = * M 1 * < * % % C 1 * 2 M = % * * X ",
"K P $.F 2 N S N -.F.m y.P P H P m a h T.@X`.O.C.| U F F D 4 = * % Z } 3 C C 3 * = = * 4 * < C 2 * 1 * * % % C V K V < % * = % % ",
"2 6 P S 2 S N S L A _ 2.L L P B z k d.OX).[ { j.T F T F A % = % * =.C 3 4 4 = * = % & < B C 4 * < , % * % X F P 2 * * * = % % * ",
"< < < 6 2 A A V L = X ] G L P 2 l a 3.O.L ] P t.D T F $.$.H 2 % C  .D ( T Z & & % & C K C 4 1 2 V = % * % % = % % * * * % % * % ",
"6 < = < 2 A S N L A . % 6 8 A A t 9.{ L I ] P E T P ..E.=X)., = F T F D 4 3 - = * K T Z 4 N K Z 2 * * * % % % % * * = % % = * % ",
"] 2 5 = % 2 S N S A o o 5 7 7 7 } ` A S 2 S L l L O.W.s @XO.V D < o % - * 1 C , B  .Z Z Z 4 1 - < * % % = % % % * % % % * * * % ",
"L = < D & X N D D 6 % 7 - 5 7 6 F 6 7 D = S S a.] G.h T.|.X.K = * 3 F 4 < 2 1 ,  .K Z Z < < , , < = % = * % % * < * X * = , * * ",
"= = 5 8 5 X . - y - & 8 - = D D > 7 y - < P 6 n.Z.x x B.[.%.T T ^ -.F = 2 2 1 Z  .C C < 4 , 4 < 2 , % = * % % % * * < * = * * * ",
"% = 7 7 - < M X t 7 ; 8 > % < t 7 7 8 3 A V x ^.D.U.b l.F.-XB.U T K < 1 4 1 < &. .T 4 F C , 4 C P 2 * % * = X % * * * , * % % * ",
"2 % - y ; 2 [.{ % 7 7 8 7 % 7 7 3 3 3 < A ; C.*X XZ./.#X'.).c.V K V = 2 1 * C =.U C U P < F =. .Z * % % * % * & * = , = * % % * ",
"S N % 7 > 2 { _.P - 8 7 3 - 7 < - - % 6 ; 2 oXL [ 5.OXO.L ..s.W K Z = = = Z U ; o o } ~ | >. .M * , % % % , , , , - * , , = = * ",
"A A 2 % 5 V $.] X.2 3 8 - - 3 - < = 5 - - XX[ 6 %.%.L A P p.1.;XE.z.U Z ~ T = & = & K =.U V , % , 1 * = * 1 1 3 , 1 - * , , , * ",
"L < , = = L { ] P V < 8 - - & < F = - % 4.%.2 T ..A A F V l *X@.p.-.T } } 3 ; = = = - , 1 , * * - = 1 = - 1 - 1 - 1 , , , * , 3 ",
"A S < = % L ] { P H 2 5 3 ; < L < = & R XXA F I D A F U 2 { [ A s.T T ;.D % * = - * S.6.2 * * < = = % = 4 , , - , * , * , = 1 4 ",
"= A 2 < * L P ] P L N 7 - N S - - = - I I A U 2 6 L T A S [ N ! R U ;.1.& X = < r a `.v.< = < = = % < 2 < , < , 3 2 , 1 , , , * ",
"S 2 A = , P L L L S S 3 2 S - - = & < < 8 S A A L U A 2 P F V u.T >.>.U F T ( s.l n.@.XXR.y E w.l.= < 6 < , = 3 C * 3 , = 3 , 4 ",
"L _.O.< = L P A V S V 2 N - & < & < 6 5 < 6 6 A U 6 6 U G V ^ x.c.I.p.i.;.-.T.<.5.XX) *..X*.]._.+X* % C 3 * 3 ( , X - 4 * 1 - * ",
"X.] _.@.o V L A V L A 2 - & - = & < A D L N < 6 2 6 S L S L y.T.~ D f.v.1.l.1.L _.4.) *.].| +.#.6.< 4 D , 4 ( 1 % * % 4 1 * 4 % ",
"#.L 2 }.P < L V S L S = = - - % = U S 2 L - = < 5 < < 6 A A Y L , A [ w.t.l.P Y <.<.<.XX| R ] b.C 4 - 4 U ( - X * * % % 4 , 4 - ",
"O.S 2 P O.o N L S L A = - = = = 2 A - A < 2 F A 2 2 < < - 2 N < A X.{ _ u.x.L R A [ 4.X.) L -.= & * % * 4 % % * % % * % - C 4 , ",
"#.N V V N % % S L S < - % 2 L P < & 3 F A F < 5 L 2 & 5 V < & < ] | L Y u Y ) G D <.| | ..+.> = * * * * % % * * * * * 4 < , C F ",
"L N H N = { , o 6 5 % = L ] P S = - P L < o - F 2 ; A ] *.U & L $.G D < < G ) 5 Y ) Y Y I P i.A.* & & * * * - , % - , * C * 4 ^ ",
"2 , L = N P L % < = < L L A L , & < N ; . < U 2 % A %.L [ L 5 %.R 6 5 = < 6 D G ) G < = & - , B :.0.3 = 4 % 4 4 % * 4 * < F * < ",
"S , < = L N 2 2 X , L S S ] 2 % - - C  .U N 2 % A { L L P Y L ..8 < 5 5 < - 5 Y ) S 1 A < 6 N V o.c.4 4 < - D - * * = C * C 3 * ",
"< , < = S S = = = L S L P < o - - ; K J O.L X 2 X.A 6 S P Y P F = < < < = A ..D , E h.[ O. .{ c.g.K C C * C 4 * * , % * 4 4 F < ",
"2 = 2 % N P = % N L L L = o - o 2 X.P N V *.< 2 L 5 6 < I L 6 = < 5 < 5 = A *.P % d h.| { J J / U 4 4 = * 3 * * - % * * * 4 4 D ",
", % < = < L % < L N 2 , N ] ] N P { } J 2 P J 3 2 < 5 S F = 2 , < = = P ] G T P D ^ X.L N B j.R C * = % * % * * 4 < X * * 3 % F ",
"% = = < % N , 2 S 2 S P L L P ]  .} V  .K V L < = % < A , S L N = & P { ] { U A %.] A V 2 w.U 6 & < = * & C < % C ~ % X * F 3 4 ",
"= = = = % N P < V L L N N V K V P  .V P P K N & < - % < S S < S & L O.A P O.[ S X.S S 5 8./.Y.% - 4 = % 4 ~ 4 X C =.4 X * - * % ",
"= = < % , 2 L N 2 L V L ] P V 2 2 X.L V K V < = < O.2 % 2 = 2 2 S #.S A { N S ..P 2 2 F 2.@.+.%.].>.d * K ~ 4 X 4 ~ F & * & % = ",
"= < * * 6 < N L < S S S 2 2 L = & K ] K 2 X P L <  X@.= * = , S { A A P O.< * ] 2 2 P P H V ` ).N.i * 4 ( T 4 X * U ~ * & D D 3 ",
"* * * = < = 2 L 2 < < < % P '.{ & < V K & N '.L F { @.] % * 2 L A N L X.N = , = 2 L H J B H z.y 4 * % 4 ~ ~ 3 % X 4 =., % F U 4 ",
"* * = * % = , F 2 = = < 6 _.P _.N % < , N $.] { X.P P X.2 2 2 S S P P < = , < = 2 , 3 0.0.L.* * - = % C ~ T * * % % ( 4 X * 3 U ",
"= < H V N = < A < % = < { O.2 P @.S < = ] P A O.@.S L { H P N S P S % * , = = < * 2 ] (.>Xt 2 F F F C Z ~ 4 % % % % 3 , X % & 3 ",
"N H < 2 V & < N = = = = P S N V $.#.L * S S S O.O.6 , S S P H V 2 % V 2 X = 2 = 2 ] o.b.L.2 F 3.( 4 8 U ( = % = < < * % = < 2 - ",
"P = o N 2 & & & = % X 2 L 2 2 V O.P P L A S S { L = * * S J P , X ] @.< X ] { % P V ` C.e.Z C F =.4 - 4 4 3 * T ~ < % * C F Z C ",
"V X % N & N ] * % - = 2 V N N ] L L N P N * S ] 2 X N P H H H % S O.P % ] { N V L N O.:Xh.h.n.D C ( U D 3 4 8 3 C 3 % * , 4 Z ( ",
"< % - % N O.@.2 = P H = N 2 N L 2 V S N = % N N % = , L P P N N { P N N P 2 N V 2 J F h.M.o.;.C - * D U D 3 3 - * 3 3 = % % & < ",
"& < = = O.] ] V P O.V % * 2 N 1 * V V % * , * * = < = < N N 2 S V N , L < V 2 < V P L O.o.o.C.* * - * - 3 - = 3 C Z F 4 = * % % ",
"< = % J O.] H V ] ] < % V ] ` 2 * * < 2 , , * = < = 2 = < P N = < = , S A A = 2 S ] L 2 ` @.% * 3 , 3 < = C U ( ( C = % , 3 2 3 ",
"Z * 2 { ` ] V P ] ` * V @.P , % * % V { < = * * * , % N O.] % = < % < A 6 = < 6 N S < = ` Z.* D 4 3 - * Z >.;.U C % % 3 C C C F ",
"V , H { ] P H J { N 2 { H < M N * 2 { ] N % < = * = V O.] 2 % = % % < 2 < < 6 2 A 6 , 2 g.3 T C % = < - < 3 M Z < 3 F U 4 C | ( ",
"M , L P ] H 2 V P , P H = V H J < V ] P V * * % % 2 { H L < % * = < 2 < < , 6 2 2 2 2 q.3 U C & C Z - * & X % % 3 F F F F D 8 U ",
"2 < , N ] 2 2 H H V K < S H H N = ] H H V X ; P P N P ` 2 % = % = , < , < < 2 2 2 , G j.R =.F -.( 4 < X % F C % D Q F U ( F 8 < ",
"V = , 2 H N 2 H P N 2 V H H N X < P V J N = ] O.L V ] V % = % * = % = = 5 < < A 2 < V P L k.=.C = ~ Z Z  .U % 4 F F D 3 < 3 D C ",
"N , < N N M 2 L H 2 V B H V < 2 H N N H 2 ] ] ] H ` H < = = % * = = < < 2 < % = N H H J J J <.X F >.=.=.3 % % = & & % X & 4 U T "
};
