/* XPM */
static char *result[] = {
/* columns rows colors chars-per-pixel */
"64 64 211 2 ",
"   c #010700",
".  c #030F01",
"X  c #031401",
"o  c #051C01",
"O  c #111D0E",
"+  c #062401",
"@  c #082603",
"#  c #072B02",
"$  c #092C03",
"%  c #0C2A0A",
"&  c #13220E",
"*  c #18260F",
"=  c #073201",
"-  c #0A3404",
";  c #053C00",
":  c #0B3B04",
">  c #0D3309",
",  c #0E3C09",
"<  c #103E0A",
"1  c #152413",
"2  c #192614",
"3  c #162914",
"4  c #1C2B16",
"5  c #152218",
"6  c #19251A",
"7  c #1D2C19",
"8  c #143C14",
"9  c #1E311A",
"0  c #1A3C1B",
"q  c #1F3115",
"w  c #202D16",
"e  c #212E1A",
"r  c #223117",
"t  c #23341C",
"y  c #28371D",
"u  c #26391D",
"i  c #2A3B1E",
"p  c #1E2A23",
"a  c #1F3E22",
"s  c #232D24",
"d  c #262D2A",
"f  c #292D2F",
"g  c #253422",
"h  c #293623",
"j  c #263921",
"k  c #2B3C23",
"l  c #2A332C",
"z  c #2C3B2B",
"x  c #273C28",
"c  c #303F26",
"v  c #303D2C",
"b  c #292E30",
"n  c #2E3533",
"m  c #2C3931",
"M  c #2E3C38",
"N  c #313634",
"B  c #313A35",
"V  c #31363B",
"C  c #363B3E",
"Z  c #064300",
"A  c #0D4304",
"S  c #0E4B05",
"D  c #0E4409",
"F  c #0E4B08",
"G  c #054B00",
"H  c #104504",
"J  c #104C04",
"K  c #11420B",
"L  c #114C0A",
"P  c #0E5305",
"I  c #065800",
"U  c #0E5A02",
"Y  c #0F5209",
"T  c #115404",
"R  c #125C05",
"E  c #125409",
"W  c #135B0A",
"Q  c #195C0E",
"!  c #184017",
"~  c #184716",
"^  c #1B5315",
"/  c #1A5B13",
"(  c #1B5617",
")  c #0E6203",
"_  c #0D6C00",
"`  c #126304",
"'  c #136C04",
"]  c #14630A",
"[  c #166B0A",
"{  c #186D0B",
"}  c #0E7100",
"|  c #157305",
" . c #167C04",
".. c #197C05",
"X. c #167209",
"o. c #19750B",
"O. c #167B09",
"+. c #197C0A",
"@. c #1C6C14",
"#. c #1A6212",
"$. c #1D7512",
"%. c #1D7B10",
"&. c #216A1C",
"*. c #217C17",
"=. c #247C1E",
"-. c #1F4920",
";. c #2E4124",
":. c #26462B",
">. c #2F4129",
",. c #204E22",
"<. c #314325",
"1. c #354826",
"2. c #32452A",
"3. c #35492C",
"4. c #394D2D",
"5. c #255B25",
"6. c #2C5F2E",
"7. c #275329",
"8. c #2C4D32",
"9. c #344531",
"0. c #364B32",
"q. c #3A4D32",
"w. c #384D38",
"e. c #34473E",
"r. c #2E5435",
"t. c #2E5A35",
"y. c #3D5233",
"u. c #3E543A",
"i. c #32503D",
"p. c #286627",
"a. c #2A642C",
"s. c #286B28",
"d. c #276A25",
"f. c #277F21",
"g. c #2B7828",
"h. c #2F6733",
"j. c #336C36",
"k. c #35653C",
"l. c #366C3C",
"z. c #38683F",
"x. c #317433",
"c. c #317933",
"v. c #3A723F",
"b. c #415535",
"n. c #42563A",
"m. c #445A3C",
"M. c #485D3E",
"N. c #373E42",
"B. c #393F46",
"V. c #3B4B4A",
"C. c #394743",
"Z. c #375543",
"A. c #395444",
"S. c #375943",
"D. c #395D44",
"F. c #3D544C",
"G. c #3E5B4B",
"H. c #3A6344",
"J. c #3B6A43",
"K. c #3D6349",
"L. c #414F44",
"P. c #415040",
"I. c #485F42",
"U. c #405F4D",
"Y. c #465B40",
"T. c #404A52",
"R. c #435056",
"E. c #445855",
"W. c #42784B",
"Q. c #436750",
"!. c #0F8700",
"~. c #158403",
"^. c #198505",
"/. c #168B03",
"(. c #198D06",
"). c #1A840A",
"_. c #1A8C0A",
"`. c #169301",
"'. c #199404",
"]. c #179B01",
"[. c #1B9C06",
"{. c #1B940A",
"}. c #1E9A0B",
"|. c #1F8814",
" X c #209F0B",
".X c #228016",
"XX c #228D14",
"oX c #26841E",
"OX c #268C1B",
"+X c #259917",
"@X c #269818",
"#X c #269619",
"$X c #1AA305",
"%X c #1FA70A",
"&X c #18A804",
"*X c #1EB206",
"=X c #20A709",
"-X c #21AC0A",
";X c #21B009",
":X c #23BB09",
">X c #29A41B",
",X c #27B511",
"<X c #2A8125",
"1X c #288920",
"2X c #2C8328",
"3X c #2F892A",
"4X c #2A9A20",
"5X c #30A325",
"6X c #39AD30",
"7X c #22CA08",
"8X c #28D70C",
/* pixels */
"4 ;.2.;.;.m.i 3.j k k <.<.k k y t g 5 s s g H.{. .~.p.>X/.` o.=XT . o + ).+.{ X.X.+.W : = $ # + + : | ^.| R T H : : - > - + U  .",
"2.j i u u.3.2.u ;.<.2.2.w * 7 4 l j.OXk.G.p k...' { [ | =X^.` W +.J o X T +.L F F W [ > o - S S Z @ o > P [ ` J = : > $ = % ` ` ",
"3.>.i q ;.2.3.;.q.q.2.<.2.h 2 e g j.`./._.*.$. .{ [ [ ' W [ o.] { o.H X o T O.W E F o ; | | ` S A : - $ + o + + > $ - $ $ A | ` ",
"9 3 8.7 9 j u ;.k ;.r 9 k h w e B H.(.[ | | [ [ { [ ] { ] P | { { o.{ $ + o : ] > o Y  .` > $ % $ - - > $ : Y A $ : $ @ o U | R ",
"x 3 9 u.9 j u q 2.q.3.<.k h h t g 3 XX .{ o.[ [ ] ' [ ] ] W E E E L T E o @ + @ S ^. .: o - = - - - $ > ~. .D - > $ - J A A A - ",
"u u.3.0.3.4.u.9 y 3.y 4 t w s w.OXf.|.(.{ [ [ [ { ] { ' Y P S A @ $ : H @ @ + R (.' : S S $ $ - - - - , ) ' ) F $ H T R T : $ $ ",
";.i 2.;.0.>.y.>.t y g k 4 4 d J.$X_ ) P Y W [ ] ] ] W [ W J ] '.' H - - @ @ @ @ o X X @ R ' J A > : : $ + % A $ J ' T J J : - - ",
"3.0 k 9 2.u.3.2.k j e 2.7 h v C 4X| > - $ $ S W E T J E T D ' ~.T ' W : o o + @ + # W ` : H S A S $ o # - $ o A ^.` J R H - : R ",
"u ;.0.u.y.4.4.k g 9 6 0.2.l T.j.+X[.` ] E : $ > S E Y Y T S W ..- A ' R T T = + +  .$XT Z : A A @ = ` R : - $ ~.^.T T T : > : ' ",
"u 1.m.4.2.;.k x 4 4 j k k B.OX].[ [ [ W [ ] : - : : : , S W A ' +.H ; S ` R R $ o - U [ P A A + R ^.| R > $ Y /.R T R : > $ : : ",
"4.;.0.4.2.9 9 7 9 9 7 j B x.].' W ] [ ] S W ` Y : - - $ - : A ; ] | W T P S T T - X o ; W A o ` `.` ` ' S o U ].R T : : : J T J ",
"i 3 j 0.2.x t k >.7 7 C.G.{.^.).~.[ [ W E [ ` S > $ $ A Y W W Y - A ' W T T A - H @ @ o @ o U $XR ` ` ` ` $ | ^.: @ $ : H : : : ",
"q 3 3 9 3 9 8.0.;.4 N T.oX/.[ ' ] W W U W W : + # F )._.o.[ [ { ] H : S : @ o o : R ' U $ | 7X`.| ' ` ` R = J : - T ` { | ..' : ",
";.>.>.a 1 0.q.n.z.OXu.J.>X+X X[ W [ | P = # , [ ).*X}.] W [ W S S J S S - = : S ~./. .R A ) ` | ~.`.].`.T @ T ' ......| ' ' ' ` ",
"3.0.x 3 j u.2.i 2X&X(.+.*.#X:X,X8X5XS.|.} Y E %X7X%X[ Y [ U S D S U S A @ ` ;X .R J J T S ; : @ + = A Z $ + - ' (.R J T J H J R ",
"u ;.4.3.y.q.k x g.`.+.^.' ' W ] _.@XQ.J.' Y E D O.*X%X+.W : A I U S : : : = R ' - J T T P S $ + A @ . o H H : > T (...{ ' ' R H ",
"4.2.y.u.2.j i 0.l.].| | X.{ { R E J .X6X] $ F F , W ).[.{.O.) Y : - : : H ; + ] [ S A S J Z - W A X A (...R R R - T ' T R R J - ",
"t 0 2.<.i ;.u 3.e #X~.] [ ' W ' { W T (.{.R , A F D , F ) O.[ > : : - ; - : - - W ' R T S S [ F X ' &X' : A : A T : @ : H : $ - ",
"u <.1.1.4 g 3 & l F.XX| W W W W W ] ] L W )._.] W Y Y F , # = : - J { ` ' { ] A o # A E E ] A @ ~.&XT $ = A A : - : : : : = : $ ",
";.<.<.t 1 3 1 g 2.m B <X| W ] ] ] ] R ] T + `  .[ E Z = ; , A = P {.+.{ { ] ] ] S # + $ : A @ = ' [ ` W U S : : : ; : : - - $ : ",
"3.2.3.z j 2 4 j t N.g z.'.).] W T E A J A + X + + = , D F Y D ) _.W E E E W T ] [ W T S Z = # + o + : ' ^.W = A = ; : : : # : R ",
"c q.t O 7 y k 2.i m x...R ] J : - - : ; : : + + Z D F Y Y F F _.[ E ] T Y E ] ] A : : - # + - : ; o A ' T = A : J A : = @ S ' J ",
"& i m.z 1 t h y l l./.R E H : = : : = # # # ; W [ W G F Y D X.O.L Y T E E W E $ + + + + $ , F F > W ..S = Z : T R ; - # + T W T ",
"e j <.3.h t 7 h J.^.` T , = : A : - # = # S o.] W Y W F F W O.F W [ F L [ Y o + # $ # + L ] : # - | W A S J | ' : $ # # $ @ $ @ ",
"7 j u u 7 s R.2X~.U S A A A A A $ # ; : ; ).[ Y Y E ] ] = [ [ P ' W Y [ ] # + # # $ # # - , - , W  .| { { +.W = $ @ # $ # # + + ",
"j j u 2.L.J.$X} A : S A A A : = = : A ; A O.W Y W ] [ G = [ O.| [ ` X.U + + # $ $ # + # o + W o.] W W W R Y = $ : H : - $ $ $ + ",
"t 9 7 r <.D.1X.Xo.` S S T A = = ; A ; : ; X.] Y W _ / M 0 /.{.R P A : o + $ # # # + + + # X.O.Y : : : $ # ; : = L J @ $ # # $ @ ",
"u 9 1 4 4 e x y.u.G.r.` : = - = A : ; : = ] ] F _ ] b C.-.A A - = > # + # + # + + # # o ] o.F , A A - - H A : W A + # # # + - J ",
";.m.m.q.;.t t 2.9.l h.I # = = : ; : : Z = ) X.) ] M G.W # $ > A A - + + # # # + # # + D ).] L F A - : E J $ F W - @ @ $ - # # : ",
"9 ;.;.y.4.>.4 3.t x &.@.5.r., ; Z Z Z ; % ] `.@.V.V @.= ; F : S A - - - - = # $ $ # + Y W F L F L E W A - - - : S J - = - $ @ + ",
"3 j q i ;.y k <.<.w w 4 v h :.< 8 8 8 m l k.s.g n S.I # F : $ : - - : = $ + + # + $ # + + + # $ : T : - - : - : : ; - $ $ - @ # ",
"w.Y.0.;.1.q.<.<.c t c 0.2.2 O 5 5 7 e 7 4 h d 4 d t.Z : = ; ; - , A > > + + + # $ # + # # # + + : T S S L : H L : @ $ - ; = + o ",
"3 q t y.<.y t i k 4 e 2.e e O e 2 e e y e w w e 3 5.G A F 5.,.L S - - - > = : , : + + # # # # + + ; F S , = : D A A A : : - + + ",
"1 4 x j u h u y r y v k 2 2 w y e t e e e 2 2 5 e 8.8.i.V.n d 5.Z - A - : D , - $ + # + + + + - Y W D - - - - > : A - : : @ $ @ ",
"y.0 t t 4 7 k u c <.c e 5 2 h w w e k.j.B g 7 2 s N d f V b D.T # ; > A D = = # # + + + # $ : X.E - $ - - $ A F : - , S # @ # - ",
"i i 4.<.;.;.k 2.4.t t w 2 g w t t y g.~.o.&.5.6.h.D.N.n n V.@.I #./ Y D = # # # = $ # $ - , , A A S F : - U W A : > Y = # - ; : ",
"1.4.;.i ;.2.<.k e 5 y i u e e h h N H.` : P A G P ) =.G.b V.a.H.Z.W A # # = = > - > = = , : : - : A D > R R - , : D H > : : : : ",
"4.<.u r g 2.;.4 2 h w t r y y h h E.H.{ ; : : # + o ; $.V.N.b n ( S : F D ; : $ # = > - : : : : > : : : E A A : : : : A : - A : ",
"2.t 0 * & 7 c c <.i c 2 2 s 4 c.$.[ R ` S o X # = : # Z :.n F.[ ) W ] F = > - D F $ $ # : E K A : : A : : A D - @ - = $ @ : : : ",
"q 9 3 y 2 g e i r c w * n G.|.} S A S S o = | ' W P S = ; ! ^ U [ o.] Y Y ] ) F - , > S ] S : : - , : - - D > - - - # # $ H ; - ",
"4.3.1.;.1.<.9 4 j y w 1 K.}.I : A F F X = [.O.W Y S ; = = = + o $ - : D Y D # > W E A [ A : , - : A - > F D - - - $ - + - J = @ ",
"u.i 1.1.;.<.u 9 j u w k -XI = A Z S o : &X[ A Y S # # = # + + + o o o # - o F o.[ W F D S F - - : : = : A > : : - : - + : J # - ",
"<.;.y.<.;.<.i j t 6 k 4 J.d.] W I D o.*X] D Y A ; + + # # + + + + + + = + E ).W E E E W L F - : , : : : - - > : : $ # + : : o = ",
"4.4.4.y.n.;.k <.r & j 4 d 2 9.Z.D.-./.}.W S - = + + # + # # # # + + + X $ _.W F E E ] E E D # : : : : : # + # + - - # # @ $ # $ ",
"u y.0.2.t t 4.2.g 4 k 2 t k t b n a + A ] ; + + # # # + + + + + + o + X E {.o.[ X.+.F D E E D > , : : $ # # # $ A = # # # + = o ",
"4.;.;.k j 2.;.i 1 7 k e k j 2 8.L Z > # + # + # # # # + + + + @ # + + o + - : [ ).D D F Y L E W E E A @ # # + : H = # # - # # # ",
"9 2.j j ;.k 9 3 1 t i k k t r.T E E : # # + # # # + # + + + @ $ $ - + + o X   D W D Y E : # ] W E A @ # # $ + A : # @ + = = # # ",
"i u k k ;.3.x 9 t i e r w 2 ( J / > # # = # # # # # # # + = : % > = o + + + o E W W W Y o - [ F K - = # # $ + : - # + o > A # + ",
"<.<.4.;.i 3.2 4.2.& u 3 O m Q R J # = D $ + # # # # @ + + F - : > $ + + + o + W W ] ] = X Y %.D D - - + # + + $ + o + + $ D # o ",
":.y.;.k i 1.k <.y.t <.2 g 2 Z.a.^ W ^ , = # # # + # # o , L > : - $ # + + o + W [ [ - o o ).X., - - - + + + $ # # # # # # - + + ",
"u.2.m.2.<.;.;.y.;.3.;.k i y t g w.W L < - + + + + + + + L - - > # # # # + o $ |.).$ X + o o.] D - + $ + + = : = - = # # # + o + ",
"I.j M.4.3.u i 3.j 9 4 i i r k i a.R = ; - = Z @ - # + # L L : + > , > > > o - X.= X + + + - ] L A + + + - ; = # = = = - = + + + ",
"M.<.j m.n.* j t 4 t y y w y y y V.5.~ ~ D ' A : A # + + + = + A L < K > - $ o X + + + o # + F ] = o o Z S + # A ; - ; : = + # ; ",
"4.i 7 4 n.t 1 4 t c h c 2.q.h e e e e s / Z @ : # + # + + X : E < K K , A @ o - > + o + $ # $ S - + # E : A Y A $ = = = # # ; $ ",
"y.y.u 1 z 7 6 2 t y c i h 9.k e w t V H.~./ +XP > K L + o + A K D L D : # + > , $ $ # , $ # - = # + A [ Y Y $ + - : = : $ @ @ + ",
"M.y.3.0 1 y y 1 4 w t 4.2.c k e 4 y e F.z.E.<XW D L > o - > : > : $ # + o $ , % $ > D - $ : = = # # $ - = o o : : = = ; - + + @ ",
"u r 4.<.i k 2 y t h y y 9.v h w e e g n l p.Y K L < @ K L K < : > $ + + $ ; L H D F $ + K - = # # # + + # + $ F = = = A - # # # ",
"<.t i 4.<.y 1 i h h 2.t w t g 2 g 2 w y s.' L E K $ W Q K < < : $ + + D > > - $ $ # + - , = # $ : - - = # o , A = = : : + @ + + ",
"3.u i 1.1.y 2.v h i 4.t e e 1 2 2 7 z D...T Q K > W W K K K K $ + + E E > < > @ + + # A - # $ , = = = = + + D - = : A # # # + + ",
"i u y t <.i i 9 w <.4.2 2 2 1 O e g z D...[ E K ] Q ~ L K < $ @ + L ] > < < > @ % # # , = - A : = = # # + + F S Y T - + # @ + + ",
"u r y 9 <.q q.r 4 k 2.9.e 2 2 & 7 e 6 g *.U W ).E L Q L A + # @ $ { < % < , $ # # + @ > Y D : # = = @ @ + o S R : # # # + + @ # ",
"r r y 7 g 7 ;.4 y e t t 4 h 2 7 t e e l %.$.}.] K #.L o.o.T ; o K ] ~ W W K + @ # + , Y A : = : S $ + # + + # @ + # # # + + # + ",
"4.y 6 5 6 6 k x 7 2 z 2.2.9.1 4 k z 2 x l.W.*.A ] T { I.3X~.; @ E W K K , - - $ # F ] L , A J F ; # @ # + # @ + # # $ # + # # + ",
"t j t 3 g 3.9.3.2.w.9.e k 9.k 2 e k h s e n =.` E ' v.d oX| J , > o + > $ : , - S [ A F F : : - > $ + # @ + + # # + + + @ # # # "
};
