/* XPM */
static char *result[] = {
/* columns rows colors chars-per-pixel */
"64 64 99 2 ",
"   c #448246",
".  c #6EA45C",
"X  c #4B8A4A",
"o  c #4E8E4C",
"O  c #508F4C",
"+  c #101820",
"@  c #70A85D",
"#  c #52914E",
"$  c #5B9A56",
"%  c #468747",
"&  c #498B47",
"*  c #437C46",
"=  c #447C47",
"-  c #4F914B",
";  c #0B5C2F",
":  c #5D9653",
">  c #5D9D56",
",  c #488548",
"<  c #457A49",
"1  c #599354",
"2  c #4D824E",
"3  c #437946",
"4  c #5F9B54",
"5  c #4C8950",
"6  c #467C48",
"7  c #406B47",
"8  c #458047",
"9  c #488947",
"0  c #568951",
"q  c #074337",
"w  c #559550",
"e  c #4F914D",
"r  c #468546",
"t  c #498C48",
"y  c #509051",
"u  c #5C9053",
"i  c #4B8C49",
"p  c #47724B",
"a  c #509150",
"s  c #579650",
"d  c #51974B",
"f  c #427447",
"g  c #4E874E",
"h  c #49884A",
"j  c #0C2D2B",
"k  c #427247",
"l  c #61A256",
"z  c #5A9A52",
"x  c #619E55",
"c  c #5A9D51",
"v  c #589650",
"b  c #47854A",
"n  c #558F4F",
"m  c #68A659",
"M  c #66A358",
"N  c #71AC5E",
"B  c #467949",
"V  c #497E4A",
"C  c #498749",
"Z  c #52934D",
"A  c #3E2613",
"S  c #62351C",
"D  c #744B30",
"F  c #2B1C1D",
"G  c #384832",
"H  c #405036",
"J  c #3F4F36",
"K  c #394934",
"L  c #384533",
"P  c #374133",
"I  c #425037",
"U  c #363F33",
"Y  c #394A33",
"T  c #424D37",
"R  c #394932",
"E  c #3C4D35",
"W  c #3E4E35",
"Q  c #3B4B34",
"!  c #46563A",
"~  c #3D4D35",
"^  c #394433",
"/  c #3A4634",
"(  c #384432",
")  c #3A4A33",
"_  c #3D5034",
"`  c #3D4E36",
"'  c #3B2928",
"]  c #3A4A34",
"[  c #2F1F22",
"{  c #4A573B",
"}  c #49342C",
"|  c #384532",
" . c #3C4835",
".. c #435238",
"X. c #3A4B33",
"o. c #3C4E35",
"O. c #3D4D37",
"+. c #3B4C33",
"@. c #3A4C33",
/* pixels */
"  . X                   o         . X           O   o       + +   . X                   o         . X           O   o       @   ",
". # $ %     @ O % &     % *     . # $ %     @ O =   - + ; ; ; ; ; ; $ %     @ O % &     % *     . # $ %     @ O =   - O   : >   ",
"X $ , <   1 2 3 % %       % &   X $ , <   1 2 3 4 X + ; ; ; ; ; ; ; ; + + 1 2 3 % %       % &   X $ , <   1 2 3 4 X % = * 5 6 7 ",
"3 8 < 9 0       9       %       3 8 < 9 0       + ; ; ; ; ; ; ; ; ; ; q q       9       %       3 8 < 9 0       w e   w         ",
". X @     @     r r   % %   t r . X @     @     + ; ; ; ; ; ; ; ; ; ; ; + @     r r   % %   t r . X @     @       y 7 % u   o i ",
"p a 2 3 : >       X         r r p a 2 3 : >     + q ; ; q ; ; ; ; ; ; ; ; >       X         r r p a 2 3 : >         o   w O % = ",
"    : 4 5 6 @ s   =   % %     X     : 4 5 6 @ s w q + q q ; ; ; ; q ; ; ; q @ s   =   % %     X     : 4 5 6 @ s w   d 3 X a     ",
"    f g h 1 2 7       %       =     f g h 1 2 + j q ; ; ; q ; q ; q + q q j q j j     %       =     f g h 1 2 7 % *       h k   ",
"        o       O   o       @   # X       + q q q ; ; ; ; + q q ; ; q + + + + + O   o       @   # X       .       . X           ",
"% &     % *     =   - O   : >   3 =     4 l + + q ; ; ; q q q ; ; ; q ; q +     =   - O   : >   3 =     4 l z   . # $ %     @ O ",
"% %       % &   4 X % = * 5 6 7   @ x   X   c q ; ; ; ; ; q ; ; ; ; ; ; q q &   4 X % = * 5 6 7   @ x   X   c   X $ , <   1 2 3 ",
"9       %       w e   w         v s z     k + q q ; ; ; ; ; ; ; ; ; ; ; ; q j + w e   w         v s z     k h * 3 8 < 9 0       ",
"r r   % %   t r   y 7 % u   o i b = k : n + ; q ; q ; ; ; ; ; ; q ; q ; q q + j q + 7 % u   o i b = k : n       . X @     @     ",
"  X         r r     o   w O % = o # X + q ; q + + + q q q ; ; ; q ; ; + q + q + q + o   w O % = o # X m l M N X p a 2 3 : >     ",
"  =   % %     X w   d 3 X a     B V 3 j q q q q q ; ; q + ; ; ; + ; ; q + + + + q q + 3 X a     B V 3 C w Z O O     : 4 5 6 @ s ",
"      %       = % *       h k         3 + q j ; ; ; ; ; q q ; q + ; ; q q j q ; ; ; q q + h k         3 8 < k *     f g h 1 2 7 ",
"O   o       @   # X       .           j j q q ; ; q ; ; ; q q q q ; ; ; q q q q ; q q q q j +           o       # X       .     ",
"=   - O   : >   3 =     4 l z   % + q q j q ; j ; q q ; ; q + q ; ; ; ; q q q q ; j j j q + z   % &     % *     3 =     4 l z   ",
"4 X % = * 5 6 7   @ x   X   c   % q q q q ; ; j ; q ; ; ; q q q q ; ; ; ; ; ; ; ; q + j j j +   % %       % &     @ x   X   c   ",
"w e   w         v s z     k + + j q q q q q j j j ; ; ; ; q q j q q ; ; ; q j q j q q q + k h * 9       %       v s z     k h * ",
"  y 7 % u   o i b = k : n   + j q j j j q j j j j ; ; ; q q + j q q q q ; j j j j j q q q       r r   % %   t r b = k : n       ",
"    o   w O % = o # X m l M N + + j j j j j j j j ; ; ; q + q j j + q q + j j j j j + j j M N X   X         r r o # X m l M N X ",
"w   d 3 X a     B V 3 C w Z O O   j j j j j j q q + q ; + j q q j j j j j q j j j + j + + Z O O   =   % %     X B V 3 C w Z O O ",
"% *       h k         3 8 < k *   + + + j j q q j q + q + q ; q q j j q ; j j j j j j + 8 < k *       %       =       3 8 < k * ",
"        o       O   o       @     . + j j j ; q q + j + j q ; ; ; q j ; q q j + j j j q +   @     . X           O   o       @   ",
"% &     % *     =   - O   : >   . + j j j ; ; ; ; j j q q ; ; ; ; q q ; ; q j + j j j q q + >   . # $ %     @ O =   - O   : >   ",
"% %       % &   4 X % = * 5 6 7 X j + + q ; q q j j j q q ; ; ; q + j j q ; q j j q q q q q j + X $ , <   1 2 3 4 X % = * 5 6 7 ",
"9       %       w e   w         + q + j q q q q j j j j q q ; ; ; j j j j q q q j j j q j + +   3 8 < 9 0       w e   w         ",
"r r   % %   t r   y 7 % u   o j q + j q j j j j j j j j j q ; ; q + j j j q q q q j j j j + o i . X @     @       y 7 % u   o i ",
"  X         r r     o   w + j j j + j j + + j + + j j j j j q ; j j j + + j j j j j j j + O % = p a 2 3 : >         o   w O % = ",
"  =   % %     X w   d 3 X j j j j j j j j + j j j q j + + j q q q + q j + j + + j q j 3 X a         : 4 5 6 @ s w   d 3 X a     ",
"      %       = % *       h + j + + j j j j j j j q q j + q j q q j q j j j + j + q q +   h k       f g h 1 2 7 % *       h k   ",
"  . X                   o         . X j q j j j q q j j j + + j j q q q j j j q j q q ; q         . X           O   o       @   ",
". # $ %     @ O % &     % *     . # + j q q q q q j j j j j j + + q q q q j j j j q q q q +     . # $ %     @ O =   - O   : >   ",
"X $ , <   1 2 3 % %       % &   X $ + q q ; ; q q + j j j q q j j q q ; q j j j + j q j j q &   X $ , <   1 2 3 4 X % = * 5 6 7 ",
"3 8 < 9 0       9       %       3 8 j q q q q j j e + + j j q q q q q ; q + j + j j + j +       3 8 < 9 0       w e   w         ",
". X @     @     r r   % %   t r . X + j j j q j + y 7 % + j j j j q q q q j + + r +   % %   t r . X @     @       y 7 % u   o i ",
"p a 2 3 : >       X         r r p a + j j + j +     o   A + j + j j j q j +       X         r r p a 2 3 : >         o   w O % = ",
"    : 4 5 6 @ s   =   % %     X     : 4 5 6 @ s w   d 3 A S S S S + + j + j @ s   =   % %     X     : 4 5 6 @ s w   d 3 X a     ",
"    f g h 1 2 7       %       =     f g h 1 2 7 % *     A S S S S A f g h 1 2 7       %       =     f g h 1 2 7 % *       h k   ",
"        o       O   o       @   # X       .       . X   A D S S S F     o       O   o       @   # X       .       . X           ",
"% &     % *     =   - O   : >   3 =     4 l z   . # $ % A D S S S F     % *     =   - O   : >   3 =     4 l z   . # $ %     @ O ",
"% %       % &   4 X % = * 5 6 7   @ x   X   c   X $ , < A S S S S F       % &   4 X % = * 5 6 7   @ x   X   c   X $ , <   1 2 3 ",
"9       %       w e   w         v s z     k h * 3 8 < 9 A S A S S A     %       w e   w         v s z     k h * 3 8 < 9 0       ",
"r r   % %   t r   y 7 % u   o i b = k : n       . X @   A S S S D A   % %   t r   y 7 % u   o i b = k : n       . X @     @     ",
"  X         r r     o   w O % = o # X m l M N X p a 2 3 F S S S D A         r r     o   w O % = o # X m l M N X p a 2 3 : >     ",
"  =   % %     X w   d 3 X a     B V 3 C w Z O O     : 4 F S S S S S   % %     X w   d 3 X a     B V 3 C w Z O O     : 4 5 6 @ s ",
"      %       = % *       h k         3 8 < k *     f g A S D S S S   %       = % *       h k         3 8 < k *     f g h 1 2 7 ",
"O   o       @   # X       .             o       # X     A S S S S S o       @   # X       .             o       # X       .     ",
"=   - O   : >   3 =     4 l z   % &     % *     3 =     A S S S S S - O   : >   3 =     4 l z   % &     % *     3 =     4 l z   ",
"4 X % = * 5 6 7   @ x   X   c   % %       % &     @ x   A S S S S S % = * 5 6 7   @ x   X   c   % %       % &     @ x   X   c   ",
"w e   w         v s z     k h * 9       %     G H H z   A S D S S A G J   G G G v s z     k h * 9       %       v s z     k h * ",
"  y 7 % u   o i b = k : n       r r   % %   t r K L P I A S D S S A U Y T G o i b = k : n       r r   % %   t r b = k : n       ",
"    o   w O % = o # X m l M N X   X         R R E W Q ! A S D S S A E G J ~ Y L E # X m l M N X   X         r r o # X m l M N X ",
"w   d 3 X a     B V 3 C w Z O O   =   % % G G Q ^ / ( ) A S D S S A _ ( Q ` G G ^ V 3 C w Z O O   =   % %     X B V 3 C w Z O O ",
"% *       h k         3 8 < k *       %   G G L G G G ( A S D S S A ' G G ] P G G     3 8 < k *       %       =       3 8 < k * ",
"        o       O   o       @     . X   G G G G ~ G [ F A S D S S S A ' E G G G ~ G E       @     . X           O   o       @   ",
"% &     % *     =   - O   : >   . # $ % G G { ~ L G F A A S D A A A A + } | G G L G - O   : >   . # $ %     @ O =   - O   : >   ",
"% %       % &   4 X % = * 5 6 7 X $ , <   1  .( ..Q + + } S S A + F } G G Y X.G ..X % = * 5 6 7 X $ , <   1 2 3 4 X % = * 5 6 7 ",
"9       %       w e   w         3 8 < 9 0 G G G J o.G J G A A } } + G G Y G G G J o.  w         3 8 < 9 0       w e   w         ",
"r r   % %   t r   y 7 % u   o i . X @     { G G G O.U Y T G E +.R R G Y Y G @.R   y 7 % u   o i . X @     @       y 7 % u   o i ",
"  X         r r     o   w O % = p a 2 3 : >       G E G J ~ Y L G Q G G G G R R     o   w O % = p a 2 3 : >         o   w O % = ",
"  =   % %     X w   d 3 X a         : 4 5 6 @ s J G _ ( Q ` G G G L G Y %   G Q J   d 3 X a         : 4 5 6 @ s w   d 3 X a     ",
"      %       = % *       h k       f g h 1 2 7 % *       h k         %       = % *       h k       f g h 1 2 7 % *       h k   "
};
