/* XPM */
static char *result[] = {
/* columns rows colors chars-per-pixel */
"128 128 51 1 ",
"  c #467C00",
". c #4D7D04",
"X c #527F03",
"o c #587E04",
"O c #4E8100",
"+ c #4F8009",
"@ c #558402",
"# c #5A8604",
"$ c #568903",
"% c #5C8B03",
"& c #558409",
"* c #5B850B",
"= c #57890A",
"- c #5D8B0B",
"; c #5F9005",
": c #5F900A",
"> c #5F8711",
", c #5E8C13",
"< c #628D03",
"1 c #60870C",
"2 c #618E0B",
"3 c #649204",
"4 c #699504",
"5 c #679803",
"6 c #6C9A04",
"7 c #64920B",
"8 c #6A960B",
"9 c #6D990C",
"0 c #709E04",
"q c #709C0B",
"w c #618E13",
"e c #648E1B",
"r c #659213",
"t c #699513",
"y c #6E9913",
"u c #66911B",
"i c #6A941B",
"p c #6E991A",
"a c #709C14",
"s c #70981F",
"d c #73A103",
"f c #74A20B",
"g c #74A012",
"h c #669221",
"j c #6B9423",
"k c #6E9823",
"l c #6E952A",
"z c #719B20",
"x c #71962B",
"c c #719829",
"v c #749634",
/* pixels */
"43#$%59733i6,O%<4<<42<%<3%#%%3%%<5343#$%597:3i6,.%<4<<3%#%%3%%<4443#&%5y7;3ii5w*%162<%<5#t5wo#242<%<3%%%#3<#<5343##%597;3i6w.%<4",
"4####-tr%2%#tu%*7l75x726$%%%44t54334<###*t7;-%#8i%-7l7$%%%44t533<4<#$#-t7;%%%#tw<*2x774#%%%rr<>7x829##%%53t53<44####-i7-;#%tt%-7",
"4c2--ru8423%ie<r2uwrit4##X#%38c98<35l22-ruy524%ie<27uw#@#%57c973<4l2::ri85274%ew<uui76##X4%ur2utir4%#X#;38l984<4cw;-:u8573%he227",
"dcy2=p@7tt22u77j1zj#sii<$@%<<wl99#$dly2*i@7tt2-i28j1zi$@%<<rl691#0xy:=i@7tt72<w<3kosii2**3%w<3kozui<##%%3wc68#%0cy7=p&7tt7%e77j1",
"6rdq=:#7t7-<<87ix9ivqr4<<3<-<5443t:6td6--#7r7-<28rix9r<<<:;4455r76rdq#:#7r7--<<<<ivq74<<<*3<32ev6t3<33%3<5455r:6rd9--#7tw#7<8wix",
"6%q8$#-78h-%*11u7y748<<<4578%<$#r7-5%99$#%:8h:##11r7924478#;$#rr#6#q9-##78h-2*##1i39<3<43-*##%i49<333377%%##rr%6%99#$%;8u<1#12u7",
"$4zi%%3wr<-o@-2tlq1xq1343<75$#%%3;3#4pi#73r73#@*12tl8<4<75$#%%5%3$4st-;32r3**##%27cq1445%*&&#27xq1345%t5$%%%3%3$4su#23rt2-o*12rk",
"<8%4%7::-%13<1-28<44<4<<33<3%$%3<6-#9%5-7---%w7<<128<43<<3%#%3<6-%8%5#72:-%,w<2%17623#<<527<<%r4<3%<<3<3%$%336%%9<4%72-#<12<<<18",
"4o43777t-7t=33%8iiiiie%@43%5335#33r6o4327:t27r-3<18iih4<<34<4#<3t8@47:37r27rp-3%<yiie<#43p*31<yiii##43%3335#3378@4327:i22t=53<ti",
"<<77:t7:-=i2p%<9uj2ti2%$3##%3#@#3#%%337ri7r2-u-p<<9ri2<%%%3#@#3$<%377:i77-*ik-t%2yte1<#<;c-r%2yti1%$3%%%3#@#3#%%377ri77-#i-p%<9r",
"5ti7-73--*ri%-%5*9w*9wr6<#;6<#@@3##5ti2-3:=-#ri-*<<19w<#;6<$X@3$#5ti7-5:---rip=-2r-y1w6<$ti-%27-9w263#;6<#@@<#%3ti,:7;-:*ri%#<71",
"237:3-77r7<***i9-1&*-*#<<%%%@3%%#<%<57:7*57r73##%i81-@%%<#@<<<#<%<57:7-77r727#--w8---%<<#3#--u91**-<%%%#@<<%#<<253:3-57,7<*=-uq*",
"4%3t<-,ru38t%;jjht&ut&#*593$#u#=3r75;3t;;,i,39t%%jjhto393$-r=*;724<3r;;,u,389t-;ijiw&&#58qt:-iiht&##593#-r$=3t25%3r3;,tu39t#%ijh",
"%39hr=,@-7733%27*1*111<##8t53,-%#r<<;9j,-,&:7;;3#22----8t3;r=%-r<<;9jw:,&:378-3=w2>w-3#*87::-ww*--<*%7r5%,=%#r3<39j,=wO:3333%22*",
"<7irw%%@5;,,;3r7wi7uu7%@@9i=;55#%:6<7irw$%@3;,,357rrur#8u=354#$7627i,w%$@3;,,r77wtwi7%@#9,r7:7rru71@#9u-354#-:6<7i,w%%&3;,r778tr",
"77t*3;567ir-tru-299w7t2wte-:;#3378<27r$33367pwwtru-r88tr-7%#3357<<7t=33567p,u-rru-t7t2,rur-rru,r7y21ru-7;#3357<27t=3;367p,-tru>2",
"#$#$%%4t%-r#u,,rttwtt7tt&r==$$3$%7$#$-$=34t<-r#u,,rttr@r=@$$3$%7-#$#@-;5t<-rr-r,rrrt7t7&ru-r,,rrtrt7&t*@$$3$%:--$#$-<4t<2r#i,,rr",
":$3;r635%97i7-r-je7he7i7*3*X%-@.$;;:$337534%8rp7#u-hr7*3-&%#@O$;%r$33w534%87ri2-u,juri7-3ri:-irhwri7*5=&#-@O$;;w#3;7534%87i7*t-j",
"-%:j77t#-#3%%<er2t72yw82-%6<%535-3<#%;h77t###<<<;urrr7216%%535%3%#;;j57t%*#<7-22ur:t772-%7222ur:i772:%6<%5<5%3<#%:h72t%%#2<%%utw",
"3689py7<%<$-3<r2>r--w%2yy783<#<y877759yiy72%<$-%%r7>r#y285<%<i877368yiy3%-<$=:72r:>r--yt7*:77r:>t-2tt783<%;p8772689py72%<@%33w:,",
"i9-tr7p723X&e&2278#<8#<#*i7<3%3#%iit9-rt7i873.Oh=-274#%i3<5%3#<jtp9-rt2i773&+&h=1123%3%#i.&h*11<4-<%1t2<3%3%<jty9-tr7i773Xoh&:-7",
"5%#%54t922--t7-%2221%18*<7-<%33%$r#53%%55y8-r-7t3-#22-22*7%3<%$7$33#%54y6=r*=3t72*1%28*27,7871*1%28*22%2%3<%$7$33#%54y8-w*2t3*%1",
"@>#3-#r77rt-2ree-ow-*,ee*w*-#%##@#@@>#<-#r72rt-7wwe****w#2*%#$$#&@>#2-#r77rtp:7rwj-**ee*wi;7ruj%*1ee*w*-#%##@#@@,*<#*r77rt27rwh-",
"<8<<<#%7r7#t728r%<*%<*<h<14<3<3%93<<4<<%#%772%t7r3r1<*31<<3%3<84<<4<<<%%7r2#$p3r4u2<1<j3#$i7r5r<2*<u4#4<3%3<84<<5<<<#%3r3*r7r3u1",
"5X##$$%#<8@t7%7-#%o#%##<364004849534o##@$;#<9@t7<7###$<65604939333o##@@;#35#@zr%8<#%$#<34#s8%8%#%#%<344004979334@##$$;#<8@i7%3*#",
"<3#@@#@%3$577394%$@<@@%43<#34644#%<<%$$@#@$3$577383<@o<<#36644#%<<;$$@#@$3$357759q<@@#43<47839q<@@#43<%<6444#%<<%@$X#@#<$537386-",
"#9#4%7-;*%153<%18<46<5%<33<<%@%<<6%#8#4%7<7*%-3<11<8<434<3##%<<6%%8#4%777-#2r3<%1r4<4%%43r72#1r6<5#<43<3%#%3<6-%9#5-7%:-%17<1--9",
"4@4437:t22t*3<%tiiiiie#@43<3334#<3t6#44<77r12t*53<7iiu4<%3533#33t4#43-5:r22rp*3<<9iiw##43p*<<29iue%@4<<3333#3378#45;87rw2t*5<<8i",
"%377ri7:--i,i%<9ii1ti-%$3;%%3@@#<%<#777ri77--u-p%<9ii13%%%3@@#3#%<3777i77--ik-r-2ytiw%$<%k-t#7yri2%$<%%%3@$#5#%<<777i77-#i-p<<9t",
"5ti:-77--*ri%-<3*qw*9wt8<#;6<#o$<$%5yu::3:--=ri%*37*yw<#;6<$X$5#%3ti:,72->*riu%-27*ywr63$ij;-:7>yww6<%35<$X@3$%7tir-5---=ti%#<7*",
"243:;-37r73#*-u9>-o--=-<%#%#&3%<#<%253:3-77t73###i9**&<<%#&3%<#%%<8<7;%57i:27$--u71*-*<%#3=--t7--**<%#<#@3%<#<<<37:3%57r77#&-u9-",
"6%3t;-,tw39t%;hjht&hr&##563$-u##<t25%3r;;,i,79t%;hjhro543$-u##3r24<3r7=wt,589t-:iiuto##459t%-ujir&#%563$-u#*<724%3t;-,ur38t<%hjh",
"%39jw-w&=57;3#72*-%1w-<*#8t3%r=%-r3<;9h,-,X=573<#22--%#8t5<w=%#r<<;9j,-wO:7:8-7%ww>2-<##9r-<-w2,1-<*#8t5%r=#-r3<;9jw-,&:33;3#22-",
"27iww#$@3;,u33r7ri7ru2-@#8u-<54#$;6<7ir,%-$3%,r357tri2*9e-%55#%:627t,:-#@5;,uw7:7rre7%&#9,r777rru7%*@8u-355#%:622ir-%#@3;,r:5r7w",
"<7r*53567pr-twi*r79r7y<wtu-7%#3377%73t$33567tr,tru*r99tt*7%%<357<27r=53567pwwwrri-r8y-wrurrrruwr7y2wru-7%#<357%77r*53362pw:tru1r",
"#$#$%%4t%-r$i,wrtrwtywt7&t=@$$;$%7-#$#$-%5t<:r*u,,rrrw&w==$#3#%7-%$#$-%5t%:rr-rwwwttwt7&rr-r,,,ty2t2&t=@@$3$%7-#$#$=34t<=r=i,wrt",
"r$33w554%4ri:*t-ju7jwri2*3*&%%@@%;%7$33r634%7ri7=i:ji7-2-O%%$@$;%7$337635%87rt:,iwjuri7*7ri--i,ju7i7*3*&%%$@$%%r#537634%8ri7#r-l",
"%%:j77r%-*3<%3utwr7-ir82%-6<;3<4%3%-%;j77t#*#3<%%urrr<2<63%3<5%3<#%;j7:t#*#37-2-ur-t7722%7-2-ur:tr717%6%%5<5%5%#%;j7-t#-#<<%%ur,",
"3589iy7-%1=%3%w:1t*172<tt287%%<y877369yiy77%%*%3<r21t#t773%%<y77r368yia7-%2#=:77r7>r-1yt7=:77r21r-2yt763<#<y877359yiy7%%<$=33r7>",
"p9-i77p8<3OOh&::78#<8%<#%i3<5%3#;iip9=rt7p773.Ou&-274*#i735%3#<kii9-rt3i873.+&u=--<6%3##i+@u*12<4%<%#i7%3%5#;kii9-rt7p87;XOu&-27",
"5;#%53y6-7-7r3-*21%2%18*<w-2%3;%$7$33#%53t8-r*7r71#12-<7-2%3<%$7$3;#;55t8-7*,787-*2#28*<w,3t7--1%-8*2212%53#$2$33#%44y8-r*7r3-*1",
"@,#3%*r77ut-7rwu-&--*-ee*w#<#%##@#@$-#7%*777rt:7wwe1*-*w#-###$$#&@>#<-#777rip;7reh-*-ee*wi<7rwj-*>eu*w#-*%#$$#@@,#7%#r72it-7rwe-",
"<4<<<#%2r2%r727u%3*<2-<i413<3<5<83<<8<<%#%77<-t7t3r%<*<14<3<3<84<<4<<;#-<r<-@i3r4u<<1<h3%$p7r4i%<-<h4<33<<3<84<<5<3%#%37<%t7r3r<",
"3X-#@$;#<6#i2<31#%@#%##3<63065979333@##@$;%<9#t:%3###$<63005879335o##@@7%<8#$z7%72#%o<<36#k7%8%#%##<<43605978345@##@$:%<8@i7<2-#",
"<3$$@#@#3@378395#$@%@X%4<<%36647#%<<;$$@#@#<$375585#@O<<%35643#%<<%$$O%@$<$55r7596<@X#4<34773yq<$X#4<3%36455#%%<%$$X%@#<$577388<",
"2#3<,653%47p7-j,lurlurj2*3#@%#@O$%%2$3<w534%87iw-h,lit#7#&%#@.$%#7#537534<47rp:*j,lh7j7=7ri7=i2lu2j7&5#&%%@.$%%7#33w554%87p21i,l",
";%;u32t%%%3<<<uirp7>i:22-%6-%3<4%5<#%3i778%-%3<<<utrp:-%9<;3<5%5%%%;u32t*##32%3<ut-i72<-%2%7<ut1i77--<8%<3<4%3<%;;u32t-%*<<<<etr",
"3789yy7222%%%333w8*#8$%yt7933<<t77735t9ta72<2%%<333,8*t79<3%<t877397yya77<2$$-7%73#8*%yt7$-7%33o7*%yt783<<<t78726r9ty772<#%3<33w",
"i9-tt2i87;O.hO#-38*34o<%#i323<3#3itt9-ir2p773.Oh+$138##i323#3<<iti9-tr7i87:..&u&#234o3*#i.@h&12<4o3#<i<25#5#<itt9-ur7i873..u+#-7",
"33#%34p6%r,;y5oo2%%<#<8o<t#4#3<%$r@3<$%54p9;r=3y3@o1<-<7%3%5%%$7$3<##53y6-r==2y71*<o26o3t&<t<<#<#28o<7%3#5<#$w$3<$%53p6-w,3p3@o<",
"@>@<#X77-ip;7rhj1o=#o-uj*w@-@<$$@$X@-o<#X75:ui;3rej-o-*w@-@<$$X#.@,o<#@77:itt:3reu*o<ejour77wuu#o%hhoe#-@%#$@$@X-o<#X75%it;3whj%",
"<4<3;##3t<@t<r5i<<#%<*2j214<3#2#93<<8<33@#<7<#t;r6i<<*713<3o3#93334<4<$#3t<@*t:74t#<*2j7-#t374u<<*2j41324*3#933<8<33##<r%$t3t4i<",
"6#3%$$#$35@p7%9-##o##@-2<7<00385q466#3%$$#$35@p:%91#%@%4<404979450#<%#$#$35@*p7-8-#%#-1<2%ir%71##@*2<7<064639664#3%$$%$35@p7%9-#",
"45%#$#O##O<%73a9<@X<@&#2<<#<34663<<34%#@#X##O5:73qq<@.<<%3446633<34%#@%O$#.37:7;78<@&%2<<327778<$&#7<<#<34463<<45%#$#O##.3:739q<",
"4353#<<<O@i=tu=u43o43#%t43<%<<<t<738353%<<<OOi=uu@w43#42<%<3%t;7<4353%3%<.@ti-rw#r4<#%r4<i-ww#u2<%%t4<%<<3<t3734343%3<<OOt*iw*e4",
"<t6y7$<@23< 2@.%%7<<713ti47544%4#4%<86yr$<@73<O:XX1<21i62535<4#3<<t0yr@3@23<<&2@o1<713ti88@2@@<<713ti67534%4%7%<t6tr$<@23< 2o.1<",
"<4ytt--&3;,e:7588za4kq2&#9i:795%;7d:4ytt:-&7;,e:7588za#9u:786<%7q<4yrt:-&3:,he75857kf:$#7hh85857zq2@%9i-756%;7934pit:-&5<,u:7559",
"44y-956drpr,irk-tagtqf<rpp,77=3688<34t-955drptrutk-p9gypwr7=3389<34t-95407pru,pwj=t9f3rppr,irj$iqq<rak,r:*3789<54y=535d7pr,ptk=p",
"#@#@%%4y;:r=i,,rttip4rp9&t==@#3$%r##@$@-%4t%-r=i,,uttt&t=$&#3$%r%%$$@-%6p<-tr+u,,,i8rp9Oru&u>,wp6riyOt*$$#3$%r-#$#@-%6p%:r=u,,ut",
"w$3<w554%5rpr-j,lu,lerj2&8=O%#@.$%%r$33,654<87p2:j,lur&7$&%$$.$%%w#3;w553<47rp,$iwluwjr&5wp:&h,luwj7=8=+%#@.$%%:#33r534<8rp7,i,l",
"-%7u72t--%3%<<iirp7>i722=<6%<3<5;3%%%3i728#*%7<<;uiwi7-%9;33<5%5<-%;i7-y--#7:#3%ht>i722-=7%7<ht-i222-%9%<3<5%3<%%;u77t-##3<<;utr",
"3579py72<2-%<<37w7%#8$%yt79<<%<t7773979ya77<3#%;3;518-t783<%<t787<599ta77%2$$:733<%7#%yt7$-7<37#8%1ty783<%<t8772599pa73-2#%;;35>",
"i9-t77i87;..u.#-79#45@<##i325%3%3iti9-rr7i87:.Oh.#-78##i323%3#<iyi9-tt7p77;..Oh&%144@3##u.@u*%2<4@<%#i325%3%<itt9-rr7i77;.Oh+#-7",
"33$%53a6-r=3y5@o%%-%#2qo3r%3#53#$7$33$#53y9:r=3p3@o2%-38#5#5;%$7@3<$%33a9%,,=3y7<o<#28@3r=3y7##<#<6@3t#3#33%$7$3<$%54y9-r=3y3oo<",
"@,o<$or5%ii;4wej%o-#o1ej*w@2&<$@@$@o>o<$X73;ii;3wuj%o-ow@-@<@@@$OX,o<#@73:itt277eh#X-ehoer25rei#o*hhow*-o<$$X$@X>o<#@73:ui;3ruj-",
"<4<33@#<t<$t<t4i1<@%2o2j714<<#2%83<34<43@#3r<@t3t4u<%*813<3#7#933<4<33@#<t<@-r;r4t<<*2j41#r724r%<*2j8-<23#2#q<3<4<4;##<t<$t3r5i<",
"6#3%$@#$35@p7%81#%@#-@12<2<404949464#3%$$#$35@p7<8%#%@<7<6q3949464#3%$$#$35@-i7-71#%*-217%i7281#*$*<<3<60393q466%3%$$#$34$i7<8-#",
"44%#$#X$#.3;73yq<@X<&&%7<<#<344633<35%#$#@##.3:73aq<@.<<<<346433<44%#$#@##.35:7;88<@X#2<<7-7<78<&&#7<<<<3466<<<45%#@#.$#.3<73q8<",
"4<5<%3%<@Oi*iu#e4<#43%#74<<<<3<t%73835<#3%<@@r*uu#e83#43<<%4<t<73444<#3<<OOii-ww#r8<%1r43i-rw*w43#<w33<<%4<t27<435<%<<%@Xt*uu@i8",
"<t6y7&3@-5< 2oX%<2#<w<4ti67735%4#53<y4yr$<@-<< 7X.%<2%i82335%4#5<<70yr@<@23%2@2*o1<2<3yi83&2@@1<713yi87335%4#5<<94yr$<@:3< 2X.%<",
"43646l;#uO,7 <612t34t497;;<7t8%<%<343646k:%rO,8 34<7r5%3%7y8%<%3543854c:%w@>w7&%418t48r%<,8&<324t487%3<2y8<<%3443844l:%u@>8.38<2",
"#3y6$t,jk%-3o<1<#22#-23<-3%#22%33<<#595@i>jk<-3o<<<o:7-3%#2-<33%<#486$t-jk<-w<-%<<#22<3*323*%<1#22;3-3%#-2%33%<#390#t-jk#-<o<<<o",
"#<t6%w#%3%37#$3t4%14-2##$#%$,;-33i<%%t6%w;%3<3r$o3u4%2#%#$r-$33i<-%t6#7%%3<372-#3t422##$%77*#<r422%#$%#$w-#33i3%%t6#:%%3%3t$$<t4",
"0<t<@i%69-w4i.3#6t26ar:#$%#5333%53<0<y<@u:5y;24jX3#4t2$%#3335#33<0<y3$h-6t;2w4i@<*6p7%@@%r3i@<1qp7-#$%%3333-33<6<y3$j%6t;73k.3#4",
"4<<$;3y733i4,.%24<<6-3%33%#<#<%#<3443%*%39233i6,.#<4%33#%<%3%%33443#$;39233iy5,&%1423#33%y4w*#24-3%<3#%%%<;#33543#=%59773i6,X#<4",
"4###$-i7<%<%ti%%7l23x7:6$%%%55y33334##$#*tr--%%8u%-4l7@%%%33y733<4%#@$-r72-%%#te<17x776$#%#tr%*8x776$%%%55t53334###$#i7--%#8r%-4",
"5x7;-7u8424-ie222uwwir4##@#%38c973<5c22-rit5231ie<r2i2#@#%58c975<4c2::ri85234<ew<eri74#%@4%ur<wtir4##X$%44l983<5c22-rit5241ie<w2",
"dxt7=p@7tt2%u77j1sz1zii2@#%%<rl6q%#dcy7=i@5tt2<u77j1pj#@<%<wl99##dcy7=i@7tt72%w<3k#sii<#@7%w<3lozii<$#<%<el68%#dcy7=p@3tt2<u78j1",
"6rdq=-#7tw13<8rix9tvqr4<<<<;33548r:6td9=-#7t2-2<8ril9t<3<;<5447t26rdq=:#7tr**<<<2uvqt4%<3*<<<1iv9t4<<<<2%5458r26td9=-#7r2-3<87il",
"6#99-$%77u2##11u79248<335574%%$#rr$6%99##<27u2%#11t7923375#;$#r8#6%q9$$*<8u-2#*<1u49<3333--#<1i38<334375#3$#wt#6#99%#%78e-#*11ur",
"$4st%%37r3%@&-2rlq1cq<343<73$%#%3%3$6st%<3w73*@@-2rxq<4<25#%%;3%3$4si%<3rr3-*@##27cq<343%=@##77x01343%r5$#%%5%<$5si#<77t3=*@-2tk",
"%9%4-7::*%17<2128244<3%%43<3#$%3<6-%8#41222-%w321%28<334<3%@#3;6-%8<4#227=#-r72%-r414#<43w7<#-r4<3%%43<3%#%<<6-%8<4%7-:*%-3<1%28",
"4o44-87r77t*3<<8iiiiie<o53<3333#;379@43777r,2t-3<28iii4<%3333#<574@45-82t-2tp-;<28iiu%o43y=3<29iiu%#43%5533#;5t8@4523:t22r-3<<8i",
"%777:i77-=i-p1<9rirti1%#3#%%3#@#3#<%7777t77-#i2i<<9ui1<1%#3#@#3#;%3777i7r-#uc-t$2yti2%#<-c-r%2yti1%$3#%%<$$#<$<#3772ir7--i-p<<9u",
"5tur-8;--*ri<*%3*yw*9wr8<#;5<#@$3$%7yiw-32->-ri%#<7*qw<#%6<$X@3$%7tiw-73=--rii%-27*y2w6<$ti;-2w-yw263#;6<#X$3#%5ti,-8:--*ti-*<3*",
"2437;-77u7<##-t9>-o*-*%<<%<#@3%3#<<<53::%57r7<$*-e6--@%%3%@<%<#<%<53:7%77r733---i8--*%<<%7*-*t8--*%2%#;#@3%<#%<<53:3%37r:<##1u9*",
"433r3;,ir78t<%hlht&hr&##593$#r*=<724%3t3:,rr38i%<ijhr&593$%u%=3t74;3r7--uu789t%:ehhr&#%489t%-iihw&-#593$-u#*<t25%4t7=,ur58t<<jjh",
"<%9h,-,O-35<3%22*--11-<*#8t3;r=##r<<;9j,-,&-75<3122*--#7t3<w*##r<<;9j,:,O:358-7=2r>--<*#9727-2r>1%<*#8t3;w*%%t<%%9j,:r&=73<<#27*",
"27ir--%@3;,u;37t7i7ri2%@$8i-355#%76<7p,w-%@3%,,777yru7$8t=%55#%:6<rtrw$%@3;,uw:7rtwi7%#$8ew7:rrri7%&#6u-%54#$7627iw,-#@3;,,757rr",
"27r=5<56:pr:iwu-wy9w7y2wri-:;#<377<27t=;;562pr-t:i-r79ti-7;#<358<27t=33367pwwwr:i-r7t->ttw,wru-r7y%wuu-<;#3375%37t*5;567ir:iru,7",
"%$$@-%4t%7r#i,wwu7rty2t7&r=$&$3$%7-$$#@;%57<-t=u,,rttr&r==$$3$%7=@$#@;<4t;:wr,rwwrttwt7orr-r,rrttwyt&r*=$$<$%7--$#$%;5t<:r-u,wrr",
"7#337635%87i:=u:jr7herir*3-O;#O@$;%7$337654<87i7*u-jr7*3-&%-@O$%;7#33r534%8:wp--u2herir-7ri2-uwhu7i2*7$&%-@@$;%:#337534%77t7*u-h",
"#%;h77r###<2%3urwr7wt781:%6<%5<4%3%%%;j77t###3<%<ut,r7<16%%5<4-5<#%;j37t##%272-2ut2i7722%7722ur2t772;%6<%3<4;3<#%;j77t###3<<<ur:",
"76t9p97<-2#%3%r:1t#-r-1yt783<%<y787368yiy7;--#-3%r:>r#9253<%<y777399ypq72%%-#-77r7w7-29t7*:7-r2wt-1yt783<%<a7r7<599iy77#%-%%<r:>",
"y8-tt2p773XOe&-%28#<4-<%#i2<5%3#;jip8-tr3p873OOu&2229#1t7<3%3%<jit8-rr7i75;O+@u=-*28%3%#i+&u=2-<4%<%#i7<3%5#;pit9-tr<i773.&e&2-7",
"53%%54t9=7-7t3--22-1%24*27-7%3;%$7$33%%35t9=w*7t31#2<-27-2%3;%$7$5<#%55t9-r*,7t7-*1%18*27,;r7-*1-14*27-2%5%%$7$5<%%55p6*r-<t7*%2",
"&-#<%#r77ur-7rwu1*--&-ee*w#2*###@#@@w*<-#r77tr27wee*o->,#-#%%###@@-#7%#r77utp;7rwj#*-ee*wi;7wwj%*-ee*w#-#%%#@##@wo2%*772rt:7wwu1",
"<8<<2#%7r<-r7r7r1<*<<-<h313<3<<<84<<4<<;#%7r2#t777t%<*3%4<3%<<83<<8%<;-#7r<#$p:r4i%<*<i3%$p3r4u<<*<i<14<<<2<83<<4<<<%%7r2-r7r7t1",
"3X-#@$-%<6#u7#7-#%X#%$%<<646049883<4X##@$%%35#t7%2%###<8300592q343X-#$$;#39##p7;8-#%##<38#z7<81#%$#3<6360597q34<@##$$%%<6#i7%<##",
"<<$$@%@#<@535395%$@<@@%4<<<<6434#<<<<@$@#@$<&537583#$o3<%36548#%<<<$$O#@#%@35r73q6<@o%43<4r7396<@@#43<%36638#%<<;@$@%@#<@373384<",
"#5y5@p-ji<-3o#1<#22#2w<2%3%#27-33%<#3y5$p-hk<-3o#<<#22%3%%:;%33-<#486$t-jp<-23*%<2#2732#3w3*#<<#-r;3%<%#-:%33<<#396#t-hk<-3@%<<o",
"%<t6#:-%<<3t##4t4%24-2%%$%%$w%*33i3%<t0#:%%3<<7$#3i4#-$%##w--33i<%2t0#:-%3<328-#<t4--%#$%37-#3t4-%-##%%$r%*57i<%-t6%:-%3<37#$<t4",
"9<y3$h;6t;24i.3o4t26a7%#@%%5333-33<0<t:$u:6t%24k.<#4t:@%%33<3%34<0<t7@j%6t%7w3i@<16a7%$&%73i&<*6p7%#$%%53<3%33<0<9<$i-5t%r4iX<o4",
"43#@%39:33i6,.#24<<42<%3;%#%#3;#<3443#$;5y7;5i6,X#<4%33%%%%<<%<4343#$%3y7;3it4eo#2423%<3%i4wo%26<3%<3%%%%3<#<5343#&%5y733t6,.<<4",
"4###$=tr3-%#ti<-7l74x729$%;%54t54734####%ir%-<#tt%-7l7o#;#55t75334<####i7%-%%%7u<*8x229$#-#rr%17x779$#%#55t83334##$#=t7;-%%te%-5",
"4c2<:ri8527%ie<27iwwk74##O#%34l973<4c2::ri85<7%ie%77iw#o$%34c973<4x2--rit5734%uu3rwir4##X4%tr:wtjr5##X#;53l983<4c7:-ru9323-ie<w2",
"dcy2=p@7tt2<e77i1il#iii<#$#%<wl99%#0cp2=i@7tt2<e28j1si##<%<wl69##0xy7=p@5tt7<%w<7j#zii<#@7%w<7lozii3#@%%<wl69#%dxy7=p@7pt<<i78j1",
"6id9=-#7r2-3<8rix9tv9t4<33<-34443t:6t0q#-#7t2-7<8wixqr<<%:<4457t20tdq==#7rr%-<2<2ivqt4<<3*<<<7tv973<<3<734447t:6rdq=-#77w-2<7wix",
"6#89##-38h-%#-1ut9r36<434374#%#%7t$6%99-#-37i-%*11i7924374#;##:t#6#89$$%;8u=-##<1i3q<4335--#<1i48<433374#;$#7r$6%q8#@%79h-#*11tr",
"%5si%%37t<*@@-2tjq1xq1<43<r5$%;%5%3$4pi#<7:t<-&@127lq<3<t7$#%;5%3%4si%<7rt7**@*#<7xq1<43%*@*o27xq2343<73$#%%3;3$4sp#23wr<##*1<8l",
"%9#4%72--%w32<12824424%%33<3%@%;<6%%8#4%22:=%-3<<%1814<433%#%<<6%%8<4%722*%-r7<112623%<4327<<#w6<4#<33<3%@%<;6-#8%5%222-%w3<<119",
"4@44777r22t*<318iiiiiw%#43%3335#<3t4#43777r77t*3319iii4<%3335$33r4@67-37r27tp*<<19iiw#$43p-<<1tiie##43<3534#3379o45257r12t%<318i",
"%777:i772=i-p%<9ti1iu2%#<%%%3#@#<%<%377-i7:--i=p%<9ii23%%%7#@#3#<%377wp77--ik,r-2atu2<#<%k-t#7yti2%$3%%%3@@#3#<%<777p:7--i-p%<9t",
"5tu7,5:-2*ri%-<719w1y2w63#%5<#@$<$#58ir:77--*ri;*<7*y2<#%5<$X$5#%5ti:w;:-,*ruu;%77*yww8<#tp=-77-yww63#;5<$X$5$#5tir-3;-,#ri%=38*",
"<77:3=37u7<#*%u6*-o-2*%<%%<#&3%<#<<273:7-78r72#$-r6*-&%%3#$3%<#%%<57:7%75r:<3*-*i7--*%<%%7=-=t8*-*#<%%<#@<<<#<<273:7-37u73@=-u8-",
"533t3%,rr39t%;ulhu&uw&*#463$-u##3r2433t%;,ur39t#;hlhro583$=u##3r24%3r3;-ur799t%:ujur@*%499t%-ujuw&*#563$-u#-<224%3r3-,rr79t%%hjh",
"%29h,-,&-73;<#77*211w-<*#8t5%:=##r3%:5h,=w&*33-3%22*--#8t4<7=%#r<<39j,-wO:378:7=w2>>-<*#78-3=rr>1-<##8i5<w=%-73%39j,,,X-57<<%22-",
"<7ir-%-@3;,r337rwu7ru2-@@9u=356#$763rprw%%@5;,u35t7wu7$8u=%54#-;6<2tr,%#&5;,u,77rtru2%@#8ur:77rti7%@#8i=<55##26<7irw;$@5;,,34rt7",
"23r-53367t,wtru,789w8y2wtu,7:#3375<77r$3;567pw:t7u1t8ytu-:;#<357277t*3;567tw,w7ru-w8y1wrrwwrwi-,8t1,ri-:%#3357-77r#3;567ir-p7i*w",
"#$#$%;5p%:r=u,,rttwtt2t7&r=$@$;$#7-#$#@-;48%-r=i,>rt7r&t==$#3$%7%*$#$-;5y%:ri-r,rwtt7tr&ru:r,wrttry7&r==$$3$%r%$$#$%;48%:r*e,wwt",
"r$33w633%82i7-r:jr7jrri7*5-&%#$O$%;7$33r634%87t7*r2je7*3=&%%@@$;;:#33r553%87wi--u7hwri7-7rp--uwhwri7-3%&%%$@@%;7#33r634%77i7*r-j",
"#%;j7:t##*2<<<urwr7wir712%62%5<5%5%%%;j72t#*%2<%%urwt7%-6<%5<5#5%%%;h72t#*#77222ur7ir71<%7-72et2tr72216<%335%3%#;;h72t###3<%3ut,",
"3889py72%<-=%<r7>r-*7-19t283<%<p777<68ypy72%<#-%3r:,7#y743<%<y7773989iy7<-<$=:72r71r-2tt7*:72r2wr-2tt773<#<y8773589iy7<-<$%%<r:>",
"y9-i77p773OOu&--79#<4-3#%u<<3<3#<kit8-tr7p773.&u&-:79*#u7<3#3#3jip9-tt7i773O+@h*1123%3%#i+@h*-1<4%<%#u7<3<3%;pup9-tr7p877.&u&-27",
"5;%%54p5-7*7t2--2-%1%18*<w22%5%%$7$33#%55t8%w-2t<-#<2-3r-<<3<%$7$3%#%54t6*r*,7771*2%18#27,777-*1%18o<t-<%5<%$7#33#%54t9=r*3t7*#2",
"@,#<-#r72it:7wwe-*1-*-ee*w#<#%##@#&@>#2%#r77ri27wee1***w*<*%#$@#&@-#7%#77rrtp:7reh-*-eu*wi;7wei-*-ee*w*-###@$#@$>#;-#r77ut-7ree-",
"<4<<<%%7r<%t278r<<*<<-<i413<4#5<84<<5<<3%%7r<%t2r7r#<*313<3#3<84<<8<<;#%7r7%$p3r4r<<*2i3%$p7r6r<2*<i31<<3<3<83<<4%<<#%3r3#r7w4w<",
"3X-#@$%%<4*y2<7##%@#%o<<<6<005879335@##@$;#<4*y2<3#$##<6300597q333@-#$$;#<4$#z:;8%#%#<<<6#k7<7%%%#<<<640048793<5@-#$$:%%9#t7<7#o"
};
