/* XPM */
static char *result[] = {
/* columns rows colors chars-per-pixel */
"128 128 6 1 ",
"  c #2D992D",
". c #86D84B",
"X c #4FBF39",
"o c #37B22C",
"O c #336644",
"+ c #3AA343",
/* pixels */
"   .                               .            X            .     .                               .            X            .  ",
"   .X                    X         .X           X    X      .X     .X                    X         .X           X    X      .X  ",
" . XXX       .X  o o     oO      . XXX       .X oO   XX     XX   . XXX       .X  o o     oO      . XXX       .X oO   XX     XX  ",
" .X X+o     .XX   o              .X X+o     .XX      oX    .+X   .X X+o     .XX   o              .X X+o     .XX      oX    .+X  ",
" XXXOo+O   .+X   o o       o o   XXXOo+O   .+X   .   ooOO  +o    XXXOo+O   .+X   o o       o o   XXXOo+O   .+X   .   ooOO  +o   ",
"  X+o      +oOO             o     X+o      +oOO  XX        +oOOO  X+o      +oOO             o     X+o      +oOO  XX        +oOOO",
" OOo+O  .X                       OOo+O  .X       XX    X         OOo+O  .X                       OOo+O  .X       XX    X        ",
"       ooO       o      o              ooO       X+o   X               ooO       o      o              ooO       X+o   X        ",
"     .     .    o o    o o  o o      .     .      o+   oO     X      .     .    o o    o o  o o      .     .      o+   oO     X ",
"..X .X    .X                 o  ..X .X    .X      o+OO   .   Xo ..X .X    .X                 o  ..X .X    .X      o+OO   .   Xo ",
" X+o+X    XX                o o  X+o+X    XX             XX  ooO X+o+X    XX                o o  X+o+X    XX             XX  ooO",
"OOo+oOO  .+X      X             OOo+oOO  .+X         X   XX     OOo+oOO  .+X      X             OOo+oOO  .+X         X   XX     ",
"         +o  .XX  oO                     +o  .XX X  Xo   X+o             +o  .XX  oO                     +o  .XX X  Xo   X+o    ",
"     ..X +oO.XX       o o     X      ..X +oO.XX  X  ooO   o+         ..X +oO.XX       o o     X      ..X +oO.XX  X  ooO   o+    ",
"      X+o  .+X         o      oO      X+o  .+X   oO       o+OO        X+o  .+X         o      oO      X+o  .+X   oO       o+OO  ",
"     OOo+  +oOOO                     OOo+  +oOOO                     OOo+  +oOOO                     OOo+  +oOOO                ",
"                X            .   X                 .                            X            .   X                 .            ",
"         X      X    X      .X  X X       ..       .X                    X      X    X      .X  X X       ..       .X           ",
" o o     oO     oO   XX     XX   OoO     .XXX    . XXX       .X  o o     oO     oO   XX     XX   OoO     .XXX    . XXX       .X ",
"  o                  oX    .+X           XXXXX   .X X+o     .XX   o                  oX    .+X           XXXXX   .X X+o     .XX ",
" o o       o o   .   ooOO  +o      ..    X  XX   XXXOo+O   .+X   o o       o o   .   ooOO  +o      ..    X  XX   XXXOo+O   .+X  ",
"            o    XX        +oOOO  .XXX      Xo    X+o      +oOO             o    XX        +oOOO  .XXX      Xo    X+o      +oOO ",
"                 XX    X         .XXXX    OOo+O  OOo+O  .X                       XX    X         .XXXX    OOo+O  OOo+O  .X      ",
" o      o        X+o   X         oX  X                 ooO       o      o        X+o   X         oX  X                 ooO      ",
"o o    o o  o o   o+   oO     X  +oOOO               .     .    o o    o o  o o   o+   oO     X  +oOOO               .     .    ",
"             o    o+OO   .   Xo        ..       ..X .X    .X                 o    o+OO   .   Xo        ..       ..X .X    .X    ",
"            o o          XX  ooO   X  .XXX ...   X+o+X    XX                o o          XX  ooO   X  .XXX ...   X+o+X    XX    ",
"  X                  X   XX      XX X XXXXXXXXX OOo+oOO  .+X      X                  X   XX      XX X XXXXXXXXX OOo+oOO  .+X    ",
"  oO             X  Xo   X+o    X X   X  XXXXXX          +o  .XX  oO             X  Xo   X+o    X X   X  XXXXXX          +o  .XX",
"      o o     X  X  ooO   o+     OoOO    Xo   X      ..X +oO.XX       o o     X  X  ooO   o+     OoOO    Xo   X      ..X +oO.XX ",
"       o      oO oO       o+OO         OOo+OOOO       X+o  .+X         o      oO oO       o+OO         OOo+OOOO       X+o  .+X  ",
"                                                     OOo+  +oOOO                                                     OOo+  +oOOO",
"X            .   X                               X              X            .   X                               X              ",
"X    X      .X  X X       ..             X      X X       ..    X    X      .X  X X       ..             X      X X       ..    ",
"oO   XX     XX   OoO     .XXX    o o     oO      OoO     .XXX   oO   XX     XX   OoO     .XXX    o o     oO      OoO     .XXX   ",
"     oX    .+X           XXXXX    o                      XXXXX       oX    .+X           XXXXX    o                      XXXXX  ",
" .   ooOO  +o      ..    X  XX   o o       o o     ..    X  XX   .   ooOO  +o      ..    X  XX   o o       o o     ..    X  XX  ",
" XX        +oOOO  .XXX      Xo              o     .XXX      Xo   XX        +oOOO  .XXX      Xo              o     .XXX      Xo  ",
" XX    X         .XXXX    OOo+O                  .XXXX    OOo+O  XX    X         .XXXX    OOo+O                  .XXXX    OOo+O ",
" X+o   X         oX  X           o      o        oX  X           X+o   X         oX  X           o      o        oX  X          ",
"  o+   oO     X  +oOOO          o o    o o  o o  +oOOO            o+   oO     X  +oOOO          o o    o o  o o  +oOOO          ",
"  o+OO   .   Xo        ..                    o         ..         o+OO   .   Xo        ..                    o         ..       ",
"         XX  ooO   X  .XXX ...              o o    X  .XXX ...           XX  ooO   X  .XXX ...              o o    X  .XXX ...  ",
"     X   XX      XX X XXXXXXXXX   X              XX X XXXXXXXXX      X   XX      XX X XXXXXXXXX   X              XX X XXXXXXXXX ",
" X  Xo   X+o    X X   X  XXXXXX   oO            X X   X  XXXXXX  X  Xo   X+o    X X   X  XXXXXX   oO            X X   X  XXXXXX ",
" X  ooO   o+     OoOO    Xo   X       o o     X  OoOO    Xo   X  X  ooO   o+     OoOO    Xo   X       o o     X  OoOO    Xo   X ",
" oO       o+OO         OOo+OOOO        o      oO       OOo+OOOO  oO       o+OO         OOo+OOOO        o      oO       OOo+OOOO ",
"                                                                                                                                ",
"                X            .     .            X            .                  X            .     .            X            .  ",
"         X      X    X      .X     .X           X    X      .X           X      X    X      .X     .X           X    X      .X  ",
" o o     oO     oO   XX     XX   . XXX       .X oO   XX     XX   o o     oO     oO   XX     XX   . XXX       .X oO   XX     XX  ",
"  o                  oX    .+X   .X X+o     .XX      oX    .+X    o                  oX    .+X   .X X+o     .XX      oX    .+X  ",
" o o       o o   .   ooOO  +o    XXXOo+O   .+X   .   ooOO  +o    o o       o o   .   ooOO  +o    XXXOo+O   .+X   .   ooOO  +o   ",
"            o    XX        +oOOO  X+o      +oOO  XX        +oOOO            o    XX        +oOOO  X+o      +oOO  XX        +oOOO",
"                 XX    X         OOo+O  .X       XX    X                         XX    X         OOo+O  .X       XX    X        ",
" o      o        X+o   X               ooO       X+o   X         o      o        X+o   X               ooO       X+o   X        ",
"o o    o o  o o   o+   oO     X      .     .      o+   oO     X o o    o o  o o   o+   oO     X      .     .      o+   oO     X ",
"             o    o+OO   .   Xo ..X .X    .X      o+OO   .   Xo              o    o+OO   .   Xo ..X .X    .X      o+OO   .   Xo ",
"            o o          XX  ooO X+o+X    XX             XX  ooO            o o          XX  ooO X+o+X    XX             XX  ooO",
"  X                  X   XX     OOo+oOO  .+X         X   XX       X                  X   XX     OOo+oOO  .+X         X   XX     ",
"  oO             X  Xo   X+o             +o  .XX X  Xo   X+o      oO             X  Xo   X+o             +o  .XX X  Xo   X+o    ",
"      o o     X  X  ooO   o+         ..X +oO.XX  X  ooO   o+          o o     X  X  ooO   o+         ..X +oO.XX  X  ooO   o+    ",
"       o      oO oO       o+OO        X+o  .+X   oO       o+OO         o      oO oO       o+OO        X+o  .+X   oO       o+OO  ",
"                                     OOo+  +oOOO                                                     OOo+  +oOOO                ",
"   .                               .            X            .     .                               .            X            .  ",
"   .X                    X         .X           X    X      .X     .X                    X         .X           X    X      .X  ",
" . XXX       .X  o o     oO      . XXX       .X oO   XX     XX   . XXX       .X  o o     oO      . XXX       .X oO   XX     XX  ",
" .X X+o     .XX   o              .X X+o     .XX      oX    .+X   .X X+o     .XX   o              .X X+o     .XX      oX    .+X  ",
" XXXOo+O   .+X   o o       o o   XXXOo+O   .+X   .   ooOO  +o    XXXOo+O   .+X   o o       o o   XXXOo+O   .+X   .   ooOO  +o   ",
"  X+o      +oOO             o     X+o      +oOO  XX        +oOOO  X+o      +oOO             o     X+o      +oOO  XX        +oOOO",
" OOo+O  .X                       OOo+O  .X       XX    X         OOo+O  .X                       OOo+O  .X       XX    X        ",
"       ooO       o      o              ooO       X+o   X               ooO       o      o              ooO       X+o   X        ",
"     .     .    o o    o o  o o      .     .      o+   oO     X      .     .    o o    o o  o o      .     .      o+   oO     X ",
"..X .X    .X                 o  ..X .X    .X      o+OO   .   Xo ..X .X    .X                 o  ..X .X    .X      o+OO   .   Xo ",
" X+o+X    XX                o o  X+o+X    XX             XX  ooO X+o+X    XX                o o  X+o+X    XX             XX  ooO",
"OOo+oOO  .+X      X             OOo+oOO  .+X         X   XX     OOo+oOO  .+X      X             OOo+oOO  .+X         X   XX     ",
"         +o  .XX  oO                     +o  .XX X  Xo   X+o             +o  .XX  oO                     +o  .XX X  Xo   X+o    ",
"     ..X +oO.XX       o o     X      ..X +oO.XX  X  ooO   o+         ..X +oO.XX       o o     X      ..X +oO.XX  X  ooO   o+    ",
"      X+o  .+X         o      oO      X+o  .+X   oO       o+OO        X+o  .+X         o      oO      X+o  .+X   oO       o+OO  ",
"     OOo+  +oOOO                     OOo+  +oOOO                     OOo+  +oOOO                     OOo+  +oOOO                ",
"                X            .   X                 .                            X            .   X                 .            ",
"         X      X    X      .X  X X       ..       .X                    X      X    X      .X  X X       ..       .X           ",
" o o     oO     oO   XX     XX   OoO     .XXX    . XXX       .X  o o     oO     oO   XX     XX   OoO     .XXX    . XXX       .X ",
"  o                  oX    .+X           XXXXX   .X X+o     .XX   o                  oX    .+X           XXXXX   .X X+o     .XX ",
" o o       o o   .   ooOO  +o      ..    X  XX   XXXOo+O   .+X   o o       o o   .   ooOO  +o      ..    X  XX   XXXOo+O   .+X  ",
"            o    XX        +oOOO  .XXX      Xo    X+o      +oOO             o    XX        +oOOO  .XXX      Xo    X+o      +oOO ",
"                 XX    X         .XXXX    OOo+O  OOo+O  .X                       XX    X         .XXXX    OOo+O  OOo+O  .X      ",
" o      o        X+o   X         oX  X                 ooO       o      o        X+o   X         oX  X                 ooO      ",
"o o    o o  o o   o+   oO     X  +oOOO               .     .    o o    o o  o o   o+   oO     X  +oOOO               .     .    ",
"             o    o+OO   .   Xo        ..       ..X .X    .X                 o    o+OO   .   Xo        ..       ..X .X    .X    ",
"            o o          XX  ooO   X  .XXX ...   X+o+X    XX                o o          XX  ooO   X  .XXX ...   X+o+X    XX    ",
"  X                  X   XX      XX X XXXXXXXXX OOo+oOO  .+X      X                  X   XX      XX X XXXXXXXXX OOo+oOO  .+X    ",
"  oO             X  Xo   X+o    X X   X  XXXXXX          +o  .XX  oO             X  Xo   X+o    X X   X  XXXXXX          +o  .XX",
"      o o     X  X  ooO   o+     OoOO    Xo   X      ..X +oO.XX       o o     X  X  ooO   o+     OoOO    Xo   X      ..X +oO.XX ",
"       o      oO oO       o+OO         OOo+OOOO       X+o  .+X         o      oO oO       o+OO         OOo+OOOO       X+o  .+X  ",
"                                                     OOo+  +oOOO                                                     OOo+  +oOOO",
"X            .   X                               X              X            .   X                               X              ",
"X    X      .X  X X       ..             X      X X       ..    X    X      .X  X X       ..             X      X X       ..    ",
"oO   XX     XX   OoO     .XXX    o o     oO      OoO     .XXX   oO   XX     XX   OoO     .XXX    o o     oO      OoO     .XXX   ",
"     oX    .+X           XXXXX    o                      XXXXX       oX    .+X           XXXXX    o                      XXXXX  ",
" .   ooOO  +o      ..    X  XX   o o       o o     ..    X  XX   .   ooOO  +o      ..    X  XX   o o       o o     ..    X  XX  ",
" XX        +oOOO  .XXX      Xo              o     .XXX      Xo   XX        +oOOO  .XXX      Xo              o     .XXX      Xo  ",
" XX    X         .XXXX    OOo+O                  .XXXX    OOo+O  XX    X         .XXXX    OOo+O                  .XXXX    OOo+O ",
" X+o   X         oX  X           o      o        oX  X           X+o   X         oX  X           o      o        oX  X          ",
"  o+   oO     X  +oOOO          o o    o o  o o  +oOOO            o+   oO     X  +oOOO          o o    o o  o o  +oOOO          ",
"  o+OO   .   Xo        ..                    o         ..         o+OO   .   Xo        ..                    o         ..       ",
"         XX  ooO   X  .XXX ...              o o    X  .XXX ...           XX  ooO   X  .XXX ...              o o    X  .XXX ...  ",
"     X   XX      XX X XXXXXXXXX   X              XX X XXXXXXXXX      X   XX      XX X XXXXXXXXX   X              XX X XXXXXXXXX ",
" X  Xo   X+o    X X   X  XXXXXX   oO            X X   X  XXXXXX  X  Xo   X+o    X X   X  XXXXXX   oO            X X   X  XXXXXX ",
" X  ooO   o+     OoOO    Xo   X       o o     X  OoOO    Xo   X  X  ooO   o+     OoOO    Xo   X       o o     X  OoOO    Xo   X ",
" oO       o+OO         OOo+OOOO        o      oO       OOo+OOOO  oO       o+OO         OOo+OOOO        o      oO       OOo+OOOO ",
"                                                                                                                                ",
"                X            .     .            X            .                  X            .     .            X            .  ",
"         X      X    X      .X     .X           X    X      .X           X      X    X      .X     .X           X    X      .X  ",
" o o     oO     oO   XX     XX   . XXX       .X oO   XX     XX   o o     oO     oO   XX     XX   . XXX       .X oO   XX     XX  ",
"  o                  oX    .+X   .X X+o     .XX      oX    .+X    o                  oX    .+X   .X X+o     .XX      oX    .+X  ",
" o o       o o   .   ooOO  +o    XXXOo+O   .+X   .   ooOO  +o    o o       o o   .   ooOO  +o    XXXOo+O   .+X   .   ooOO  +o   ",
"            o    XX        +oOOO  X+o      +oOO  XX        +oOOO            o    XX        +oOOO  X+o      +oOO  XX        +oOOO",
"                 XX    X         OOo+O  .X       XX    X                         XX    X         OOo+O  .X       XX    X        ",
" o      o        X+o   X               ooO       X+o   X         o      o        X+o   X               ooO       X+o   X        ",
"o o    o o  o o   o+   oO     X      .     .      o+   oO     X o o    o o  o o   o+   oO     X      .     .      o+   oO     X ",
"             o    o+OO   .   Xo ..X .X    .X      o+OO   .   Xo              o    o+OO   .   Xo ..X .X    .X      o+OO   .   Xo ",
"            o o          XX  ooO X+o+X    XX             XX  ooO            o o          XX  ooO X+o+X    XX             XX  ooO",
"  X                  X   XX     OOo+oOO  .+X         X   XX       X                  X   XX     OOo+oOO  .+X         X   XX     ",
"  oO             X  Xo   X+o             +o  .XX X  Xo   X+o      oO             X  Xo   X+o             +o  .XX X  Xo   X+o    ",
"      o o     X  X  ooO   o+         ..X +oO.XX  X  ooO   o+          o o     X  X  ooO   o+         ..X +oO.XX  X  ooO   o+    ",
"       o      oO oO       o+OO        X+o  .+X   oO       o+OO         o      oO oO       o+OO        X+o  .+X   oO       o+OO  ",
"                                     OOo+  +oOOO                                                     OOo+  +oOOO                "
};
