/* XPM */
static char *result[] = {
/* columns rows colors chars-per-pixel */
"64 64 152 2 ",
"   c #468448",
".  c #68A058",
"X  c #4F8D4C",
"o  c #448246",
"O  c #478448",
"+  c #458346",
"@  c #448346",
"#  c #4C8B4B",
"$  c #478548",
"%  c #4D8C4B",
"&  c #458447",
"*  c #6AA35A",
"=  c #468447",
"-  c #669E58",
";  c #579651",
":  c #599854",
">  c #498649",
",  c #508F4D",
"<  c #478747",
"1  c #498B47",
"2  c #468547",
"3  c #447E47",
"4  c #478049",
"5  c #4F904B",
"6  c #448146",
"7  c #599351",
"8  c #5C9B55",
"9  c #4D8A4B",
"0  c #599754",
"q  c #49854A",
"w  c #457D49",
"e  c #569152",
"r  c #4F854F",
"t  c #447B47",
"y  c #468647",
"u  c #468747",
"i  c #488A47",
"p  c #5C9753",
"a  c #467F48",
"s  c #437C47",
"d  c #4D8A4F",
"f  c #477E49",
"g  c #427047",
"h  c #4D894B",
"j  c #426F48",
"k  c #437A47",
"l  c #468149",
"z  c #487F4A",
"x  c #498948",
"c  c #548A4F",
"v  c #448247",
"b  c #478847",
"n  c #54934F",
"m  c #50914E",
"M  c #52924E",
"N  c #458347",
"B  c #458147",
"V  c #689F58",
"C  c #69A259",
"Z  c #478348",
"A  c #458547",
"S  c #498B48",
"D  c #488848",
"F  c #4E8D4F",
"G  c #427148",
"H  c #468548",
"J  c #578D51",
"K  c #4D8D4B",
"L  c #4B8A4A",
"P  c #4B794C",
"I  c #4F8F50",
"U  c #4E854F",
"Y  c #488548",
"T  c #4A8849",
"R  c #4B7A4C",
"E  c #448347",
"W  c #569550",
"Q  c #457D48",
"!  c #599251",
"~  c #4E8B4F",
"^  c #4C844C",
"/  c #457E47",
"(  c #53924E",
")  c #4F924B",
"_  c #4F904F",
"`  c #448047",
"'  c #457948",
"]  c #4F884F",
"[  c #49884B",
"{  c #569052",
"}  c #437148",
"|  c #48874A",
" . c #437647",
".. c #4D8B4B",
"X. c #458247",
"o. c #468347",
"O. c #4E8C4C",
"+. c #508E4D",
"@. c #4A884A",
"#. c #448046",
"$. c #4E8D4C",
"%. c #447C47",
"&. c #488049",
"*. c #5C9853",
"=. c #62A157",
"-. c #599951",
";. c #498549",
":. c #6CA55B",
">. c #5F9C55",
",. c #4B894A",
"<. c #488448",
"1. c #589A51",
"2. c #569450",
"3. c #589651",
"4. c #579551",
"5. c #48864A",
"6. c #447D47",
"7. c #47854A",
"8. c #467E48",
"9. c #437648",
"0. c #5C9553",
"q. c #55904F",
"w. c #488648",
"e. c #457E48",
"r. c #4D8C4C",
"t. c #52914E",
"y. c #65A358",
"u. c #60A056",
"i. c #65A258",
"p. c #6EA95C",
"a. c #497F4A",
"s. c #447B48",
"d. c #4A8749",
"f. c #53934F",
"g. c #518F4E",
"h. c #569650",
"j. c #468148",
"k. c #457C49",
"l. c #427447",
"z. c #427048",
"x. c #4F8D4D",
"c. c #4D8D4C",
"v. c #4B884A",
"b. c #458246",
"n. c #457648",
"m. c #4B8B4A",
"M. c #478648",
"N. c #457749",
"B. c #457848",
"V. c #4A894B",
"C. c #579153",
"Z. c #4F844F",
/* pixels */
"  . X o o o O + @ @ o o # o o o   . X o o o O $ X o % & o O * =   . X o o o O + @ @ o o # o o o   . X o o o O $ X o % & o O * = ",
"- ; : $ o > * , < 1 @ o 2 3 @ o - ; : $ o > * , 4 o 5 X 6 7 8 & - ; : $ o > * , < 1 @ o 2 3 @ o - ; : $ o > * , 4 o 5 X 6 7 8 & ",
"9 0 q w O e r t y u o o o y i o 9 0 q w O e r t p # u a s d f g h 0 q w O e r t y u o o o y i o 9 0 q w O e r t p # u a s d f j ",
"k l z x c O v 6 b @ o + < o @ o k l z x c O v 6 n m o M N o o B k l z x c O v 6 b @ o + < o @ o k l z x c O v 6 n m o M N o o B ",
"V X C = Z C = o y A o y u @ S D - X C = Z C = o & F G H J = K % - X C = Z C = o y A o y u @ S D - X C = Z C = o & F G H J = K L ",
"P I U t 7 8 Y = & T o o o o y = R I U t 7 8 Y = N E 9 + W , < Q P I U t 7 8 Y = & T o o o o y = R I U t 7 8 Y = N E 9 + W , < Q ",
"6 N ! p ~ ^ * W N / v < y o N T 6 N ! p ~ ^ * W (   ) s L _ ` o 6 N ! p ~ ^ * W N / v < y o N T 6 N ! p ~ ^ * W (   ) s L _ ` o ",
"o o ' ] [ { r } o o o y o o $ / N o ' ] [ { r G H a N o o |  .o o o ' ] [ { r } o o o y o o $ / N o ' ] [ { r G H a N o o |  .o ",
"@ @ 6 o ..X.6 o.O.o % & o O C $ +.@.6 o > -   #.  - $.o o o O + @ @ 6 o ..X.6 o.O.o % & o O C $ +.@.6 o > -   #.  - $.o o o O + ",
"< 1 @ o 2 3 @ o 4 o 5 X 6 7 8 & %.&.o.o *.=.-.+ - ; : $ o > * , < 1 @ o 2 3 @ o 4 o 5 X 6 7 8 & %.&.o.o *.=.-.+ - ; : $ o > * , ",
"y u o o o y i o p # u a s d f g ;.:.>.+ ,.<.1.X.9 0 q w O e r t y u o o o y i o p # u a s d f g ;.:.>.+ ,.<.1.X.9 0 q w O e r t ",
"b @ o + < o @ o n m o M N o o B 2.3.4.N 6  .5.6.k l z x c O v 6 b @ o + < o @ o n m o M N o o B 2.3.4.N 6  .5.6.k l z x c O v 6 ",
"y A o y u @ S y & F G H J = K L 7.8.9.0.q.O w.O - X C = Z C = o y A o y u @ S y & F G H J = K L 7.8.9.0.q.O w.O - X C = Z C = o ",
"N T o o o o y A N E 9 + W , < e.r.t.% y.u.i.p.9 R I U t 7 8 Y = & T o o o o y A N E 9 + W , < e.r.t.% y.u.i.p.9 R I U t 7 8 Y = ",
"o / v < y o N T M   ) s L _ ` + a.a.s.d.n f.g.X 6 N ! p ~ ^ * W N / v < y o N T M   ) s L _ ` + a.a.s.d.n f.g.X 6 N ! p ~ ^ * h.",
"+ o o y o o $ / w.6.@ o o |  .o 6 6 6 k j.k.l.%.N o ' ] [ { r } o o o y o o $ / w.6.@ o o |  .o 6 6 6 k j.k.l.%.N o ' ] [ { r z.",
"x.o % & o O C $ +.@.o o > - = o @ @ o o # o o N +.@.6 o > -   o.O.o % & o O C $ +.@.o o > - = o @ @ o o # o o N +.@.6 o > -   #.",
"&.o 5 X 6 7 8 & %.&.o.o *.=.-.+ < 1 @ o 2 3 @ o %.&.o.o *.=.-.& 4 o 5 X 6 7 8 & %.&.o.o *.=.-.+ < 1 @ o 2 3 @ o %.&.o.o *.=.-.+ ",
"p # u a s d f g ;.:.>.+ ,.<.1.X.y u o o o y i o > :.>.+ ,.<.1.X.p # u a s d f g ;.:.>.+ ,.<.1.X.y u o o o y i o > :.>.+ ,.<.1.X.",
"n m o M N o o B 2.3.4.N 6  .5.6.b @ o + < o @ o 2.3.4.N 6  .5.6.n m o M N o o B 2.3.4.N 6  .5.6.b @ o + < o @ o 2.3.4.N 6  .5.6.",
"& F G H J = K L 7.8.9.0.q.O w.@ y A o y u @ S y 7.8.9.0.q.O w.o & F G H J = K L 7.8.9.0.q.O w.@ y A o y u @ S y 7.8.9.0.q.O w.o ",
"N E 9 + W , < e.r.t.% y.u.i.p.# N T o o o o y A c.t.% y.u.i.p.# N E 9 + W , < e.r.t.% y.u.i.p.# N T o o o o y A c.t.% y.u.i.p.# ",
"M   ) s L _ ` + a.a.s.d.n f.g.X o / v < y o N v.a.a.s.d.n f.g.X M   ) s L _ ` + a.a.s.d.n f.g.X o / v < y o N v.a.a.s.d.n f.g.X ",
"2 6.@ o o |  .o b.6 6 k j.k.n.6.o   o y o o o e.X.6 6 k j.k.n.6.2 6.@ o o |  .o b.6 6 k j.k.n.6.o   o y o o o e.X.6 6 k j.k.n.6.",
"@ @ o o # o o = O.o % & o O C =   - $.o o o O $ O.o % & o O C = @ @ o o # o o = O.o % & o O C =   - $.o o o O $ O.o % & o O C = ",
"< 1 @ o 2 3 @ o 4 o 5 X 6 7 8 & - ; : $ o > * , 4 o 5 X 6 7 8 & < 1 @ o 2 3 @ o 4 o 5 X 6 7 8 & - ; : $ o > * , 4 o 5 X 6 7 8 & ",
"y u o o o y i o p # u a s d f g h 0 q w O e r t p # u a s d f g 2 u o o o y i o p # u a s d f g h 0 q w O e r t p # u a s d f j ",
"b @ o + < o @ o n m o M N o o B k l z x c O v 6 n m o M N o o B b @ o + < o @ o n m o M N o o B k l z x c O v 6 n m o M N o o B ",
"y A o y u @ S y & F G H J = K % - X C = Z C = o & F G H J = K m.y A o y u @ S y & F G H J = K % - X C = Z C = o & F G H J = K L ",
"N T o o o o y A N E 9 + W , < Q P I U t 7 8 Y = N E 9 + W , < / N T o o o o y A N E 9 + W , < Q P I U t 7 8 Y = N E 9 + W , < Q ",
"o / v < y o N T M   ) s L _ ` o 6 N ! p ~ ^ * W (   ) s L _ ` o o / v < y o N T M   ) s L _ ` o 6 N ! p ~ ^ * W (   ) s L _ ` o ",
"o   o y o o o / 2 6.@ o o |  .o o   ' ] [ { r } M.6.@ o o | N.o o   o y o o o / 2 6.@ o o |  .o o   ' ] [ { r } M.6.@ o o | N.o ",
"  - $.o o o O + @ @ o o # o o o   - O.o o o Z O O.o % & o O C =   - $.o o o O + @ @ o o # o o o   - O.o o o Z O O.o % & o O C = ",
"- ; : $ o > * , < 1 @ o 2 3 @ o - ; : $ o > * , 4 o 5 X 6 7 8 & - ; : $ o > * , < 1 @ o 2 3 @ o - ; : $ o > * , 4 o 5 X 6 7 8 & ",
"9 0 q w O e r t y u o o o y i o 9 0 q w O e r t p # u a s d f g h 0 q w O e r t y u o o o y i o 9 0 q w O e r t p # u a s d f j ",
"k l z x c O v 6 b @ o + < o @ o k l z x c O v 6 n m o M N o o B k l z x c O v 6 b @ o + < o @ o k l z x c O v 6 n m o M N o o B ",
"V X C = Z C = o y A o y u @ S D - X C = Z C = o & F G H J = K % - X C = Z C = o y A o y u @ S D - X C = Z C = o & F G H J = K L ",
"P I U t 7 8 Y = & T o o o o y = R I U t 7 8 Y = N E 9 + W , < Q P I U t 7 8 Y = & T o o o o y = R I U t 7 8 Y = N E 9 + W , < Q ",
"6 N ! p ~ ^ * W N / v < y o N T 6 N ! p ~ ^ * W (   ) s L _ ` o 6 N ! p ~ ^ * W N / v < y o N T 6 N ! p ~ ^ * W (   ) s L _ ` o ",
"o o ' ] [ { r } o o o y o o $ / N o ' ] [ { r G H a N o o |  .o o o ' ] [ { r } o o o y o o $ / N o ' ] [ { r G H a N o o |  .o ",
"@ @ 6 o ..X.6 o.O.o % & o O C $ +.@.6 o > -   #.  - $.o o o O + @ @ 6 o ..X.6 o.O.o % & o O C $ +.@.6 o > -   #.  - $.o o o O + ",
"< 1 @ o 2 3 @ o 4 o 5 X 6 7 8 & %.&.o.o *.=.-.+ - ; : $ o > * , < 1 @ o 2 3 @ o 4 o 5 X 6 7 8 & %.&.o.o *.=.-.+ - ; : $ o > * , ",
"y u o o o y i o p # u a s d f g ;.:.>.+ ,.<.1.X.9 0 q w O e r t y u o o o y i o p # u a s d f g ;.:.>.+ ,.<.1.X.9 0 q w O e r t ",
"b @ o + < o @ o n m o M N o o B 2.3.4.N 6  .5.6.k l z x c O v 6 b @ o + < o @ o n m o M N o o B 2.3.4.N 6  .5.6.k l z x c O v 6 ",
"y A o y u @ S y & F G H J = K L 7.8.9.0.q.O w.O - X C = Z C = o y A o y u @ S y & F G H J = K L 7.8.9.0.q.O w.O - X C = Z C = o ",
"N T o o o o y A N E 9 + W , < e.r.t.% y.u.i.p.9 R I U t 7 8 Y = & T o o o o y A N E 9 + W , < e.r.t.% y.u.i.p.9 R I U t 7 8 Y = ",
"o / v < y o N T M   ) s L _ ` + a.a.s.d.n f.g.X 6 N ! p ~ ^ * W N / v < y o N T M   ) s L _ ` + a.a.s.d.n f.g.X 6 N ! p ~ ^ * h.",
"+ o o y o o $ / w.6.@ o o |  .o 6 6 6 k j.k.l.%.N o ' ] [ { r } o o o y o o $ / w.6.@ o o |  .o 6 6 6 k j.k.l.%.N o ' ] [ { r z.",
"x.o % & o O C $ +.@.o o > - = o @ @ o o # o o N +.@.6 o > -   o.O.o % & o O C $ +.@.o o > - = o @ @ o o # o o N +.@.6 o > -   #.",
"&.o 5 X 6 7 8 & %.&.o.o *.=.-.+ < 1 @ o 2 3 @ o %.&.o.o *.=.-.& 4 o 5 X 6 7 8 & %.&.o.o *.=.-.+ < 1 @ o 2 3 @ o %.&.o.o *.=.-.+ ",
"p # u a s d f g ;.:.>.+ ,.<.1.X.y u o o o y i o > :.>.+ ,.<.1.X.p # u a s d f g ;.:.>.+ ,.<.1.X.y u o o o y i o > :.>.+ ,.<.1.X.",
"n m o M N o o B 2.3.4.N 6  .5.6.b @ o + < o @ o 2.3.4.N 6  .5.6.n m o M N o o B 2.3.4.N 6  .5.6.b @ o + < o @ o 2.3.4.N 6  .5.6.",
"& F G H J = K L 7.8.9.0.q.O w.@ y A o y u @ S y 7.8.9.0.q.O w.o & F G H J = K L 7.8.9.0.q.O w.@ y A o y u @ S y 7.8.9.0.q.O w.o ",
"N E 9 + W , < e.r.t.% y.u.i.p.# N T o o o o y A c.t.% y.u.i.p.# N E 9 + W , < e.r.t.% y.u.i.p.# N T o o o o y A c.t.% y.u.i.p.# ",
"M   ) s L _ ` + a.a.s.d.n f.g.X o / v < y o N v.a.a.s.d.n f.g.X M   ) s L _ ` + a.a.s.d.n f.g.X o / v < y o N v.a.a.s.d.n f.g.X ",
"2 6.@ o o |  .o b.6 6 k j.k.n.6.o   o y o o o e.X.6 6 k j.k.n.6.2 6.@ o o |  .o b.6 6 k j.k.n.6.o   o y o o o e.X.6 6 k j.k.n.6.",
"@ @ o o # o o = O.o % & o O C =   - $.o o o O $ O.o % & o O C = @ @ o o # o o = O.o % & o O C =   - $.o o o O $ O.o % & o O C = ",
"< 1 @ o 2 3 @ o 4 o 5 X 6 7 8 & - ; : $ o > * , 4 o 5 X 6 7 8 & < 1 @ o 2 3 @ o 4 o 5 X 6 7 8 & - ; : $ o > * , 4 o 5 X 6 7 8 & ",
"y u o o o y i o p # u a s d f g h 0 q w O e r t p # u a s d f g 2 u o o o y i o p # u a s d f g h 0 q w O e r t p # u a s d f j ",
"b @ o + < o @ o n m o M N o o B k l z x c O v 6 n m o M N o o B b @ o + < o @ o n m o M N o o B k l z x c O v 6 n m o M N o o B ",
"y A o y u @ S y & F G H J = K % - X C = Z C = o & F G H J = K m.y A o y u @ S y & F G H J = K % - X C = Z C = o & F G H J = K L ",
"N T o o o o y A N E 9 + W , < Q P I U t 7 8 Y = N E 9 + W , < / N T o o o o y A N E 9 + W , < Q P I U t 7 8 Y = N E 9 + W , < Q ",
"o / v < y o N T M   ) s L _ ` o 6 N ! p ~ ^ * W (   ) s L _ ` o o / v < y o N T M   ) s L _ ` o 6 N ! p ~ ^ * W (   ) s L _ ` o ",
"o o o y o o o / 2 6.@ o o |  .o o o B.] V.C.Z.j H 6.@ o o |  .o o o o y o o o / 2 6.@ o o |  .o o o B.] V.C.Z.j H 6.@ o o |  .o "
};
