/* XPM */
static char *result[] = {
/* columns rows colors chars-per-pixel */
"64 64 75 1 ",
"  c #0F160D",
". c #0D180B",
"X c #10170D",
"o c #121C0E",
"O c #151D11",
"+ c #211201",
"@ c #12230F",
"# c #152515",
"$ c #1A2514",
"% c #152B14",
"& c #1A2C15",
"* c #162519",
"= c #1D2619",
"- c #152B19",
"; c #1C2D19",
": c #173016",
"> c #1D3116",
", c #1E321A",
"< c #1E381B",
"1 c #212E1A",
"2 c #213416",
"3 c #22351B",
"4 c #253A1D",
"5 c #293D1E",
"6 c #1F3522",
"7 c #2F2C2C",
"8 c #233521",
"9 c #263B22",
"0 c #2A3D22",
"q c #273F28",
"w c #2B3D29",
"e c #3B3B33",
"r c #2C411E",
"t c #30441F",
"y c #274023",
"u c #2D4223",
"i c #2E4329",
"p c #2F492C",
"a c #314525",
"s c #354A26",
"d c #384E26",
"f c #32462A",
"g c #354B2B",
"h c #394E2C",
"j c #3C522D",
"k c #354730",
"l c #364B31",
"z c #394E32",
"x c #3C4F39",
"c c #3D5333",
"v c #3E5339",
"b c #3F583B",
"n c #40552F",
"m c #405634",
"M c #425935",
"N c #415639",
"B c #445B3B",
"V c #485E3D",
"C c #486237",
"Z c #47613B",
"A c #4A613D",
"S c #455C40",
"D c #4A5F41",
"F c #4C6443",
"G c #4F6845",
"H c #4D6248",
"J c #506546",
"K c #516847",
"L c #526948",
"P c #D60100",
"I c #3C60D7",
"U c #A2E1F4",
"Y c #DED7D7",
"T c #EDD2D0",
"R c #EAE5E2",
/* pixels */
"3,jczfVmhff0zAMmV4sca3nnd53hGs2gajsj5sjgaamsgg5ga0haccscmh<9g45Z",
"fim0dhhVm0w00Nmhv3aczht0tsdssc5ucj,cggac5dadm5hjhddaaga0&af;,c3m",
"hfg3Fnhmxf4hgNVx9gNhBVas03ahhfu%ih%<jajdujsvmhhmdhhhma50s,03-udm",
"cg5#waj809w0w3m0ygur5mzw5dj3%99,pi04adjsaah5asajahBam4<ym34c93gh",
"a5jhn5mfg;,NDhBm45s>25g30snMy&%,994i44g%s,pparsg355sdc%<Zhdg03aa",
"05h0wwkw861ctuhmj4cvjsg31anjy0-%v9%3hm54i<ci%jju,&3hju%:jnhhaf4u",
"8;$x1w=#*fvvzfwu03jvGjta&5a50gusy:a5nstgsha4%vg4%%4dah30zzsas:<u",
";NgNMBf0SxwxDh4&355usAsj2;35pgMjjfMj0rrtjccghhp4icchcuc9D0gsnr0y",
"wzhw8fNk1*6zca9<<c42ddiuf310VVnsj49ji0jnjsjhajc3:--pb,<chS<gigzB",
"szn0831axHFB9zf<rcBALAf5f48BM54a0gp<a4jngu4hBdg9y<6%Bh6Shgbrayf5",
"0nsgHDMw#wF0BBjyfvmMMsa5yalVatdhcszhhcgd44hvhy:-6pF9cccZFfcca:fu",
"Nh;w83x3kcgFlZhaacmAM>4w&gamtsmh4hghj9ujjrf:,uy-4spgbhMMfBcFr5cr",
"1nfw8058<scagFajgmmAGNw30muyusmu2jjg,8sjdgssgum34fi:sgBAjaiviyGF",
"sfnnh8384<yuFbcbBadsgugscGDg4ua4>du5,<cjdsygt5gf4sjrscMMZcf49gZN",
"Bmshfz&00-9gvZZFmasr0rsjcGu&30ai5dag004jsvhysjjgaauFZMGZMju<0ifh",
"1NBVNN;3u335fuhZsj24%>asmgujmc530yjncvmuc0zg3is,34y5bmfr5<4rrsfu",
"8O3f35w43;20wagsjd32ascmjjr445%4acjcjrr4dapFBjs4%&534gdgaagsc4sh",
"w835sg4$3uhhdtsaMccuhchFvu22<Bhcdjcpjcjshf;9bcc4>>32fcsdddhccrrB",
"uxcvza3&,053a4jjVBMBu&034ayf4hkuCdgacZZ<fcsfsMc2dndshacja0hNBrsA",
"sa0&3w32u;auhzhjgBABugaausch54yfuayscGBi:f<sggct24ZAhdBmv3BjGtcB",
"Zcii032h0aN5hjZcgFBcfrsGVNABfgzcuzhbsFB%,980druC34MMMmVdVrGrBgch",
"BGFhuu3VsCf4ccbhBjcuuargjGGi0c0ccAchjbp,3yrbc><cu5a05mMmGKAKAmgj",
"gcFb54aBCZbrshpaug54vsjbGmp%gk3HyZFABMgg0gjjbr02425shBBMfjjgasrg",
"zj4hf45gjccagcjBugfBBusMcfu;b99gygFZ0vu0ydj4BN50035gmja3%uu0a5aa",
"izgjSbz5fjZZruhbFBphg4adm51II701h<kf99v%0nf1uFjc9234asmju38&cgsg",
"ZZFa5ZZshNMFarpjBZACa5dw5UURRRRRRRRRRRRY752&vmnJ0a0wcssshw**0c3#",
"AFZbcFGBuGyGjimmhjrj5hgmaUURRRRRRRRRRRRY7$$0Bm0Jmh35sANNBckwwngg",
"ZzbyFjjB0vrNugvZjss45jd0UUURRRRRRRRPRRRY7O@fma5Zwf9scyFmBVvk9490",
"B6:pvBc5cghy0iu>jbC45ddUUUURRRRRRRPPPRRY7Xo0c0hmwhk$DfwihAJVmzw0",
"p-%44cg009<iyus<<tM52dRRRRRRRRRRRRRPRRRY7ookB55stnw18S;wiarhg55h",
"cyu<iy4zu,;i3<cNtrduaaRRRRRRRRRRRRRRRRRY7$13Mg55w44;z0;,uNhnVJNs",
"jCr:hbccggi4ihAuhhs20aRRRYYYYYRRRYYYYYRY7o=wa5f31u9;zk-,chmAnthN",
"CGZBFbcFBh0iuFAcj2ah3aRRRYeeeYRRRYeeeYRY7O12hBBg0gk03a5iBFGZzzNZ",
"jpBBcbFFai8lyjhssa;hh;YYYYe+eYYYYYe+eYYT711snJAAfxg00hucNNfZ94cg",
"aabr:<Fg<yuFpkbfuvBhagg=o$eee7OOoXeee7O=$154hsDAgVa5guihmu044jcg",
"FyZahBb9cAZbrujb5msjgw3zf$O#O= 8w$oOX18$10f03am30maluzg5Bsfragrb",
"pFjvbiyu0yig49gzy90hca19ww;;O8$o=1;=1wwnmBat03if3wajmcVa5%52BaaV",
"fBcg6,<g0%:s,-z,gyv55z8%#>22;fk3a9&;10knxhs8;9B9&3umBmuVyfrucBcB",
"ugMu:uy4jfgrp9bFbsB4ag%,0cg33fzkNfwa3501*#342Da45jvuB00B34y3uhhz",
"r4cbbi4fMyv<4cc9bbf<gcgagk839,kFN8hna1hf$;1wm05nNBsgah530><su40b",
"jguZg%,mjjji5ghcMr0<053gn1=fffD8k8lmn0hn040400tn23smir0i;4>ghz3c",
"hguccyizgjtuyyryya<&33gBh2kB8wl*Fkkcnamnd5nh5tmnu93$>yuh03iaFBk,",
"cC5pMhfrajgzu<5gsMZSkcDx0nJ8Ok0fBSvzs5nshnhMVMnnjagm42rad90vBzBz",
"jMF4h,ph4mcggm5fpcp<38&1wV09zmsa;BmmhBhthhda55n55a44jjc5za3NAv40",
"b6zi-49uujmg242uFZZu9pzighhBVjja3fgjjsw0shhmaadadju3-:bgcrugmmfs",
"j49i%pgyacBgagjmcrugki8w9w0Na0c08-3u5a35asnnnsd5Mr0,-9gacc5fMBiu",
"gi:6:zpchgycj00gjFBccx8,$8M02Bk1**w;aj05mnd04stnsgu,-yuuguhf>0uc",
"m%%<yzzcgjtvh0ycgsABzzBDghVhhN0f8=k&hnhsm0ahh0nnMs5g,806303<4FMF",
"h#,9,3%gBv5y2<5ugNVN&@2ua0wM9g3wmkkwnndahgsssdhnda0jd;,--9hMZAZG",
"4uaz3<33mBsiy5ugfhvcNgmj43wM9=&famdnnnh5sn0155s5m3anhc%%,jZbFbuM",
"9sjj59,&fhcNm44gNVBmmg0zNkaaw=1mgaga0Mhs20212gm4zJnmMc0gjjhz0yuB",
"0fdrj34,jczFGgfgucdBGMw$;&3x$8ms1anN=0gh5hnhsh0hghdccf3fBBr:%aFc",
"h1a5n45aAc4b5bBuuagjMMg1#1wFwwf089BS1=gssns020$s9NBc43fgpuFvpcl4",
"hh05cmhAgudcacfahhBzgVVDx01gz4hn$3Dz20gns035$wmj05scmBBBg<<vbu:j",
"snhmVjBM5hMCMcmvdhhV53faSBl3aBmf1wnnwsfwh200h&afghzchgaNvp,lbclc",
"13Dza5MAZBFbMfBhmnnmzcmkfFxwkDM5103z4ha5fnwnMza10w5cDBcfui<-9pZp",
"iiH#54ZZBGud00zcnn0s18knnah3gws0fNNmhdsvV35h2ahzBmhcBuavrc,5hudF",
"v0k30cZcja4<chzN50nd098fMjaaN3##==hzAmcv04n14ans0FmcFGNfgr3c0csB",
"mNc3yiujjcp9>0gj045hhw@4hjs5wkw8f3fSVNcg300325523vmuaygNf4gsNjar",
"GB03<44jgzz%&gjgM134m211mhafa053&scBaMxg08195000jc930GFfcyuicbMj",
"V435rfhpghh5hsuun10hh$3fdmma39NVmmVdhghgz$*;34hng3&;Avjagfyihbsh",
"j90yccbjchgahddjmahaagashaNs30uahchga03sD0;whsnn0&kFDcdyuggu5Fgs",
"j9f3mjmmmBBgahh50wjmhhw&1fVDvd5320ugaafwxz12205wa030&5sMbcic4gjj",
"j:g3mc4B4cmaa50chmhBgha0amawcgua4x&0aBn5gxfdM0h$;w;&usss&frsbsur"
};
