/* XPM */
static char *result[] = {
/* columns rows colors chars-per-pixel */
"64 64 81 1 ",
"  c #448246",
". c #6EA45C",
"X c #4B8A4A",
"o c #4E8E4C",
"O c #508F4C",
"+ c #70A85D",
"@ c #52914E",
"# c #5B9A56",
"$ c #468747",
"% c #498B47",
"& c #437C46",
"* c #447C47",
"= c #4F914B",
"- c #5D9653",
"; c #5D9D56",
": c #488548",
"> c #457A49",
", c #599354",
"< c #4D824E",
"1 c #437946",
"2 c #5F9B54",
"3 c #4C8950",
"4 c #467C48",
"5 c #406B47",
"6 c #458047",
"7 c #488947",
"8 c #568951",
"9 c #559550",
"0 c #4F914D",
"q c #468546",
"w c #498C48",
"e c #FFC107",
"r c #2F2C2C",
"t c #DBA609",
"y c #509051",
"u c #5C9053",
"i c #4B8C49",
"p c #47724B",
"a c #509150",
"s c #FFE082",
"d c #579650",
"f c #51974B",
"g c #427447",
"h c #4E874E",
"j c #49884A",
"k c #427247",
"l c #61A256",
"z c #FFEBEE",
"x c #5A9A52",
"c c #619E55",
"v c #EBD3D7",
"b c #5A9D51",
"n c #589650",
"m c #47854A",
"M c #558F4F",
"N c #68A659",
"B c #607D8B",
"V c #66A358",
"C c #71AC5E",
"Z c #467949",
"A c #497E4A",
"S c #498749",
"D c #52934D",
"F c #FFCDD2",
"G c #F5BFC5",
"H c #EF5350",
"J c #4457B8",
"K c #3849AD",
"L c #3F51B5",
"P c #795548",
"I c #3B4FA8",
"U c gray87",
"Y c gray96",
"T c white",
"R c #1E2A8F",
"E c #1A237E",
"W c #161F73",
"Q c #111A69",
"! c #E60505",
"~ c #D50000",
"^ c #F00C0C",
/* pixels */
" .X         o    .X     O o   +  .X         o    .X     O o   + ",
".@#$  +O$%  $&  .@#$  +O* =O -; .@#$  +O$%  $&  .@#$  +O* =O -; ",
"X#:> ,<1$$   $% X#:> ,<12X$*&345X#:> ,<1$$   $% X#:> ,<12X$*&345",
"16>78   7   $   16>78   90 9    16>78   7   $   16>78   90 9    ",
".X+  +  qq $$ wq.X+  +   eeeereeteer +  qq $$ wq.X+  +   y5$u oi",
"pa<1-;   X    qqpa<1-;    o eeseeetttrttrX    qqpa<1-;    o 9O$*",
"  -234+d * $$  X  -234+d9eessesseeettttr * $$  X  -234+d9 f1Xa  ",
"  ghj,<5   $   *  ghj,<5$eeeseeessssstr5   $   *  ghj,<5$&   jk ",
"    o   O o   + @X   eeeeeeesseeeesetttttro   + @X   .   .X     ",
"$%  $&  * =O -; 1*  2lessszeeseeezsttzr * =O -; 1*  2lx .@#$  +O",
"$$   $% 2X$*&345 +c sssseezzeevveessstterX$*&345 +c X b X#:> ,<1",
"7   $   90 9    ndx  kjeezzzzezzvvvtvtter0 9    ndx  kj&16>78   ",
"qq $$ wq y5$u oim*k-M eeezzzzzzzzzvvvvttttr$u oim*k-M   .X+  +  ",
" X    qq  o 9O$*o@XNesssezzzBzzzzzBzzver  o 9O$*o@XNlVCXpa<1-;  ",
" * $$  X9 f1Xa  ZA1S9DOeezzzzzzzzzzzzvter f1Xa  ZA1S9DOO  -234+d",
"   $   *$&   jk    16>eezzFFFzzzzzFFGvttttr  jk    16>k&  ghj,<5",
"O o   + @X   .      oeeeezFFFzzzzzFFGvtr@tr  .      o   @X   .  ",
"* =O -; 1*  2lx $%  $& erzzFFzzHzzFGvvtr1*  2lx $%  $&  1*  2lx ",
"2X$*&345 +c X b $$   $%  +zzzzzzzzzvvr45 +c X b $$   $%  +c X b ",
"90 9    ndx  kj&7   $   ndxzzzzzzvvvr   ndx  kj&7   $   ndx  kj&",
" y5$u oim*k-M   qq $$ wqm*k-Mzzzzvr$u oim*k-M   qq $$ wqm*k-M   ",
"  o 9O$*o@XNlVCX X    qqo@XNlzzzzvr 9O$*o@XNlVCX X    qqo@XNlVCX",
"9 f1Xa  ZA1S9DOO * $$  XZJJJJvvvvvKKKKr ZA1S9DOO * $$  XZA1S9DOO",
"$&   jk    16>k&   $   *JJLLLLLLLLLPLPKKr  16>k&   $   *   16>k&",
"    o   O o   +  .X    JLLLLLLLLLLLLLLLKKro   +  .X     O o   + ",
"$%  $&  * =O -; .@#$  +LLLLLLLLLLLLLLLLLKr=O -; .@#$  +O* =O -; ",
"$$   $% 2X$*&345X#:> ,<LLLLLLLLLLLLLLLLLKr$*&345X#:> ,<12X$*&345",
"7   $   90 9    16>78  LLIUYTTTTTTTTYULLKr 9    16>78   90 9    ",
"qq $$ wq y5$u oi.X+  + LLILLLLLLLLLLLJLLKr5$u oi.X+  +   y5$u oi",
" X    qq  o 9O$*pa<1-; LLILLLLLLLLLLLJLLKro 9O$*pa<1-;    o 9O$*",
" * $$  X9 f1Xa    -234+LLIUYTTTTTTTTYULLKrf1Xa    -234+d9 f1Xa  ",
"   $   *$&   jk   ghj,<LLILLLLLLLLLLLJLLKr   jk   ghj,<5$&   jk ",
" .X         o    .X    LLILLLLLLLLLLLJLLKr  o    .X     O o   + ",
".@#$  +O$%  $&  .@#$  +LLIUYTTTTTTTTYULLKr  $&  .@#$  +O* =O -; ",
"X#:> ,<1$$   $% X#:> ,<LLILLLLLLLLLLLJLLKr   $% X#:> ,<12X$*&345",
"16>78   7   $   16>78  LLILLLLLLLLLLLJLLKr  $   16>78   90 9    ",
".X+  +  qq $$ wq.X+  + LLIUYTTTTTTTTYULLKr $$ wq.X+  +   y5$u oi",
"pa<1-;   X    qqpa<1-; LLILLLLLLLLLLLJLKKr    qqpa<1-;    o 9O$*",
"  -234+d * $$  X  -234+vLILLLLLLLLLLLJKKvr $$  X  -234+d9 f1Xa  ",
"  ghj,<5   $   *  ghj,<vvILLLLLLLLLLLJKvvr $   *  ghj,<5$&   jk ",
"    o   O o   + @X   .  vvLLLLLLLLLLLKvvr o   + @X   .   .X     ",
"$%  $&  * =O -; 1*  2lx .@#LLLLLLLLLLr  * =O -; 1*  2lx .@#$  +O",
"$$   $% 2X$*&345 +c X b X#:REEWQREEWQr% 2X$*&345 +c X b X#:> ,<1",
"7   $   90 9    ndx  kj&16>REEWQREEWQr  90 9    ndx  kj&16>78   ",
"qq $$ wq y5$u oim*k-M   .X+REEWQREEWQrwq y5$u oim*k-M   .X+  +  ",
" X    qq  o 9O$*o@XNlVCXpa<REEWQREEWQrqq  o 9O$*o@XNlVCXpa<1-;  ",
" * $$  X9 f1Xa  ZA1S9DOO  -REEWQREEWQr X9 f1Xa  ZA1S9DOO  -234+d",
"   $   *$&   jk    16>k&  gREEWQREEWQr *$&   jk    16>k&  ghj,<5",
"O o   + @X   .      o   @X REEWQREEWQr+ @X   .      o   @X   .  ",
"* =O -; 1*  2lx $%  $&  1* REEWQREEWQr; 1*  2lx $%  $&  1*  2lx ",
"2X$*&345 +c X b $$   $%  +cREEWQREEWQr45 +c X b $$   $%  +c X b ",
"90 9    ndx  kj&7   $   ndxREEWQREEWQr  ndx  kj&7   $   ndx  kj&",
" y5$u oim*k-M   qq $$ wqm*kREEWQREEWQroim*k-M   qq $$ wqm*k-M   ",
"  o 9O$*o@XNlVCX X    qqo@XREEWQREEWQr$*o@XNlVCX X    qqo@XNlVCX",
"9 f1Xa  ZA1S9DOO * $$  XZA1REEWQREEWQr  ZA1S9DOO * $$  XZA1S9DOO",
"$&   jk    16>k&   $   *   REEWQREEWQrk    16>k&   $   *   16>k&",
"    o   O o   +  .X     O oREEWQREEWQr  O o   +  .X     O o   + ",
"$%  $&  * =O -; .@#$  +O* =REEWQREEWQr  * =O -; .@#$  +O* =O -; ",
"$$   $% 2X$*&345X#:> ,<12X$!!!!~^^^^~r% 2X$*&345X#:> ,<12X$*&345",
"7   $   90 9    16>78   90 !!!!~!!!!~r  90 9    16>78   90 9    ",
"qq $$ wq y5$u oi.X+  +   y5$u oiqq $$ wq y5$u oi.X+  +   y5$u oi",
" X    qq  o 9O$*pa<1-;    o 9O$* X    qq  o 9O$*pa<1-;    o 9O$*",
" * $$  X9 f1Xa    -234+d9 f1Xa   * $$  X9 f1Xa    -234+d9 f1Xa  ",
"   $   *$&   jk   ghj,<5$&   jk    $   *$&   jk   ghj,<5$&   jk "
};
