/* XPM */
static char *result[] = {
/* columns rows colors chars-per-pixel */
"64 64 8 1 ",
"  c #2F2C2C",
". c #0531AB",
"X c #0D3ABF",
"o c #0B3CC0",
"O c #1244D8",
"+ c #1446DC",
"@ c #1149F0",
"# c None",
/* pixels */
"################################################################",
"################################################################",
"################################################################",
"################################################################",
"################################################################",
"################################################################",
"################################################################",
"################################################################",
"################################################################",
"################################################################",
"################################################################",
"################################################################",
"################################################################",
"################################################################",
"################################################################",
"################################################################",
"################################################################",
"################################################################",
"################################################################",
"################################################################",
"################################################################",
"################################################################",
"################################################################",
"################################################################",
"##############################..... ############################",
"############################..++ooo.. ##########################",
"###########################..@@+OOo..X #########################",
"##########################..@@+++OOo..X ########################",
"##########################..@+++++Ooo.X ########################",
"#########################..@@+++++OOo.XX #######################",
"#########################.@@+++++++Oo..X #######################",
"#########################.@@+++++++Oo..X #######################",
"#########################.@@@++++++Oo..X #######################",
"#########################.@@+++++++Oo.XX #######################",
"#########################..@@++++++o..X ########################",
"##########################..@@++++O...X ########################",
"###########################..@@@+Oo..XX ########################",
"############################..++oo..X ##########################",
"##############################..... ############################",
"################################################################",
"################################################################",
"################################################################",
"################################################################",
"################################################################",
"################################################################",
"################################################################",
"################################################################",
"################################################################",
"################################################################",
"################################################################",
"################################################################",
"################################################################",
"################################################################",
"################################################################",
"################################################################",
"################################################################",
"################################################################",
"################################################################",
"################################################################",
"################################################################",
"################################################################",
"################################################################",
"################################################################",
"################################################################"
};
