/* XPM */
static char *result[] = {
/* columns rows colors chars-per-pixel */
"64 64 78 1 ",
"  c #060D05",
". c #090F08",
"X c #0D140A",
"o c #0D1B0E",
"O c #11170D",
"+ c #121A0E",
"@ c #101710",
"# c #151C11",
"$ c #14240F",
"% c #152414",
"& c #192415",
"* c #152B14",
"= c #1A2C15",
"- c #152519",
"; c #1C2518",
": c #152B19",
"> c #1C2D1A",
", c #173016",
"< c #1D3116",
"1 c #1E321A",
"2 c #1E381B",
"3 c #202D17",
"4 c #212E1D",
"5 c #213416",
"6 c #22351B",
"7 c #253A1D",
"8 c #293D1E",
"9 c #1F3522",
"0 c #2F2C2C",
"q c #223521",
"w c #263B22",
"e c #2A3D22",
"r c #273F28",
"t c #2B3D29",
"y c #3B3B33",
"u c #2C411E",
"i c #30441F",
"p c #274023",
"a c #2D4223",
"s c #2E4329",
"d c #2F492C",
"f c #314525",
"g c #354A26",
"h c #384E26",
"j c #32462A",
"k c #354B2B",
"l c #394E2C",
"z c #3C522D",
"x c #354730",
"c c #364B31",
"v c #394E32",
"b c #3C4F39",
"n c #3D5333",
"m c #3E5339",
"M c #3F583B",
"N c #40552F",
"B c #415634",
"V c #425935",
"C c #415639",
"Z c #455B3B",
"A c #485E3D",
"S c #6A4224",
"D c #486237",
"F c #47613B",
"G c #4A613D",
"H c #455C40",
"J c #495E41",
"K c #4C6443",
"L c #4F6845",
"P c #4D6248",
"I c #506546",
"U c #516847",
"Y c #526948",
"T c #C30302",
"R c #D60100",
"E c #F4D21E",
"W c #3C60D7",
"Q c #A2E1F4",
/* pixels */
"61znljABvejtNJCBA7jzf5NNh86lKg5gfnfz8gzkffBfgl8gf8vfnngnBl1wk77F",
"jsBelllABeeeeCBlb7fBvlf8iflghnuanl2vkzfn7lfhB8lzlhlifkfe=fg>1m6V",
"ljk6INlBCt8ljCAv8jZlZAfle6flljs*sv*7lhzhanlBBllBhllNBf78j5w6*alB",
"nge%eflwewtej7Cwrcap8Bve8hz5*qp1daw7fhhjffkefjfNflBfN82rV67nw6gl",
"f8lll8Bjk>>BJlZB5uf557g6egNVa**<7rwa78g*j2kdsugh688ghn*2Fllge6gf",
"e8lettxtqq1m8flBn8nnllg65fNlew*,mw*6lB87a2np,zza1=7hza*2zNzvfj8p",
"q>&C4t;%-tCmvjese6lmLnff>8f8ekajp,f8zgfgklfw*nk7**7kfl6pvvgfg,1a",
">CkCVAjeHHtbJl7=688fgFgz<>78jlVzzjVzau8fzznklld7smzlnanqJeggNuep",
"eNveqjCx>%qbva726M85hhsas64eAANgz7wzfpzzzgnlazn7,::dn22nkH1kallZ",
"gvBeq64tbJKZwnk6wnVKYFg7j7wZV88fejc2a7NNga7lZlgqpw9*Fl9ZklMudpj8",
"evgxIJBe-tKwZZzpjnBVVjfeaacZfihlnflklnjz77cnlw1:9sHpnnnDKknnf<jp",
"NN;ewqC6xnkLvFlafzVGV<8e*lfBigBl8llln7uzz8j21ap:7jkcMkVMjZnKuwnu",
"4Nje6ewq6jnjdKjngnVGLme7eVaeagBu2zzgq9jNlggjgfB67kf,kgZGnajMaaLK",
"jjlBc76q72uaFZnMZfhglakgnLHk7aj7<ga712nzhfaku8gj7gzugnMVDnj7wkFM",
"ZBlNjv=ep,wjnAFKBfgur8gzVKa=58js8gflee7zhMlwgzzkgaaKFVLGZzf5ajkk",
"4CCZCC46a677jalFgn57=<ijVkazBn868azNmnVunevk2fj267p7nZgu7<7p7aja",
"q#qj68e86>38efgfzl26fjnBzza887*6anzzziu8kfdKZzg2**877gzfffkgn8fl",
"tq68fg7&6fllhfgfVBnegBlKna5<1Flnlznlzzzfzj1wMznu<16<jzgzhllnnuaZ",
"fvCCvj7%5r87f8zzAAVZa=e68aaj7kcaDhgfnFF2jzgjgVn5hNhgzfzzawlVZugF",
"gfw=7w76e>felvlzgZFAalffafnc78adudpdnLZd<j6jkkni58FGkgABn7AlLinF",
"Fnssw63lafZwlzZnkKAnf8kLAZAZjkvzallmfKA:19wpguaD56VVBBAlFuGuAgml",
"ZLKlfe6FgDf7nnMlZzzaafukzKLsenemMFMlzMa<1paVV<2na8fauVBBKULIAngz",
"knKV87fAVGMpgllaak87njznKVd*kc6KpFGGZZlgwjzzm8e5758jlZZZgnllgjag",
"zv7cj7egznnfhnzZsksZAazVmgs<HarcakLVwMapalz8ZZ88a68jNnf5*aaef8ff",
"svczKMlujnFFuazMKZkkf8fkVe51cqj6c1vfqwC%fNg4aKlBw478fgBza7q>lljl",
"FFKs7FZjkVFGjwklMDGDf8gaaeyyyyyyyyyyyR0w8ie>nBBUefeenfgfjt--en6&",
"FLFnnKKZaLpLnaVVlzunulkVlyyyyyyyyyyyyR0X#56rAnaKBl6wjFVZZvctevkj",
"FvMaKlnArn8ZplnFzgg7uzlaf8>+X.XX@+++RRR0O3=lZa8Aef7gnaKVAAmce78e",
"Z2<snAnunglswsa,znD88hzf76WW0%&#++e6RRR0OO&fBelBjgx&JktsvAKACbfe",
"d:*77njerwqapag12gV75zl8QTTTTTTTTTTTTTT0OO$vA88feCe6rC;taguzg87g",
"npp2sp7le><a21nZiuhuggzQQRRRRRRRRRRRRRT0##wwZg8et7w>vw>1aClzAICl",
"nDp<kMMnlkj7slFfhlj78lQQQRQQRQQRRRRRRRT0OO6kj8j73ew>vc-1mlBANflV",
"MLZFKVMFZlrspKKnz5fv7QQQQRQQRQQRRRRRRRT0+#87lZZjelxe6f8aZKLAccZF",
"zkFMnMKKafqcsvhkkf<gvEEEEEEEEEEEEEEEEEE0##8NNIGGjnxwelamZVjA7wnk",
"gfMu<2Hc2aaKdknkanZvfRRRRRRRRRRRRRRRRRT0##e7vfKGkAf8krflBaw77znk",
"FpFflZMwmFFZ7azM7VfngRRRRSSSRRRRRSSSRRT0X#ji6fB6eBfvanj8Zfgaal8Z",
"kKvnMspawpal7wlnpqpllTTTTSSSTTTTTSSSTTT0;qeiw6tj4afnBzKa7,85AffK",
"kZncq*2lw,<f1:v,kaZ78j>X SSS0@#.@SSS0++#;;t7>wAw=7eCZBaAasu8lZvZ",
"akVa2re2lkkuswMKVjA6ff&36ewOX##wxw6#X+#;#%685Af87vBfZeaC27e7azlv",
"78nMZs6kMan2wnvpMMj2xBjtgx>;6;xJC4jf6=fj%>3eCe8zCZggfl868>2ka77Z",
"ngfAd=<Vzzza7llnVur<ae6gB4;jjjJ6xwcBNelBe7e788iV56gNpuea>81jlb1m",
"llaMzpavlzfaeeuppf2*65cZg5cZ4tb-JxcbNfBNg8Nl8gBNaw6=>aaze1ffKZk<",
"zMufZljugzkca,8zgMFAcmJbeNPw%kqtCHblf8NhlNlAANNNzfjB85ifl7wmAvZv",
"nDK2k<dl5VnkkMealvd266=4tA8wvBlf>ZBVlCNellgi88N88f77nzn7vf6ZABw8",
"n7cd,wwaanBk<77fKFDa6xvskjlJAlzf6jgzzgeehllBefNehl86::MknuakVnjf",
"n7rp*scpfnZkfjzNnpfjcswtejeCefn8q>6r8f6eegNNNhh8Vfe1:pkjnn8jVZsa",
"ls,2,vsnvganzpwkzKAznbq>%4Bf5Ac4#-t<fzf8VNhe7giNlla7:paagalj<eam",
"m*,9pvvngzunlaankjFZvvJZxlAllBwjt-c;lNhfB8fNleNNNg7j<6rq6r667GAF",
"k%1q17*jZMup55pfjZAC=$5afejBwk6tNxctzNhfNjjhghhNlfall>1**wzZFKFL",
"7afn7616nAjap7akjlmnCkBB7>eCe;>jjBhNNNl8fNf388f8n6fNlb**2zFMFmaV",
"8jzz8q1=flnZBw7kCAVBngevZcffe-3BxfgffBzg5e565lN8lINNZnegzNknwpaZ",
"wfliz671zncKKgalinlZKVs&;;6b;qCj4fNC>wkl8lllglallllnvj7jZV8**fKn",
"l6f8N88fGn8ZaVHaeflnZVjq%1fJttfewwCA;;kggNge5e=jeCZvw6skdpKmknc7",
"lle8nBlAkahnanjallZvfAAJme3xvwlN&4Av68gBj85e&envq7gnBZZAk22MMa2v",
"gNlBANVV7lDMVnZnlhlA85gjHCv6fCBg4tNBjjjeg4eex3fjclvnlljCMd1cZvkn",
"46Ave8AGFZKnVjHlBNNBvBvljPvtxKZ7487v8xf8xNfNCNf5ef8nFZnfaa1,wdMk",
"jtK%w7FDZLakupnnNNef3qxBBfk7xajafCBBlljBA48l3flvAVknAasnpn17zfzG",
"mwc6enZnzf77zlcZ88NNe6qjBlffC6%%&;lnFBnme7N67flgwFVmKKZjka7n7nfV",
"BCn1aaazzndq=aknt88glt$7zzg8tctqx6fZAZnk7ew758786BVaapjZg7gjZzff",
"KAr7272zkvv*=kzjC367B543Bhfffe83=jmZaBmxw74q88eevve6pKKjnrejnMVz",
"A7688jllkvl7lfaaN4ell&qjlBBe67CABBAllglkv&-467NNl7&>FBvakkaakmjz",
"zwraBnMznlkfkzhzCflgfgfglfZx6rehlnzgfa8jJe>elglle=xKJnzaakka8Kgh",
"zwj6nzVnBAAgfzlueelBvle3qgAAnl86>efjaffemv;65e8fje6w=efVmnjn7kzz",
"z,j5Zz7Z7vnff8uzvBhZllfeeBfemgaf7B=efAn7jbkgVfl=;e6;fggf=dpgVfau"
};
