/* XPM */
static char *result[] = {
/* columns rows colors chars-per-pixel */
"64 64 64 1 ",
"  c #448246",
". c #6EA45C",
"X c #4B8A4A",
"o c #4E8E4C",
"O c #508F4C",
"+ c #70A85D",
"@ c #52914E",
"# c #5B9A56",
"$ c #468747",
"% c #498B47",
"& c #437C46",
"* c #447C47",
"= c #4F914B",
"- c #5D9653",
"; c #5D9D56",
": c #488548",
"> c #457A49",
", c #599354",
"< c #4D824E",
"1 c #437946",
"2 c #5F9B54",
"3 c #4C8950",
"4 c #467C48",
"5 c #406B47",
"6 c #458047",
"7 c #488947",
"8 c #568951",
"9 c #559550",
"0 c #4F914D",
"q c #468546",
"w c #498C48",
"e c #509051",
"r c #5C9053",
"t c #4B8C49",
"y c #47724B",
"u c #509150",
"i c #579650",
"p c #51974B",
"a c #427447",
"s c #4E874E",
"d c #49884A",
"f c #427247",
"g c #61A256",
"h c #5A9A52",
"j c #619E55",
"k c #5A9D51",
"l c #589650",
"z c #47854A",
"x c #558F4F",
"c c #68A659",
"v c #66A358",
"b c #71AC5E",
"n c #467949",
"m c #497E4A",
"M c #498749",
"N c #52934D",
"B c #3B3B33",
"V c #D60100",
"C c #2F2C2C",
"Z c #3C60D7",
"A c #A2E1F4",
"S c #C30302",
"D c #F4D21E",
"F c #6A4224",
/* pixels */
" .X         o    .X     O o   +  .X         o    .X     O o   + ",
".@#$  +O$%  $&  .@#$  +O* =O -; .@#$  +O$%  $&  .@#$  +O* =O -; ",
"X#:> ,<1$$   $% X#:> ,<12X$*&345X#:> ,<1$$   $% X#:> ,<12X$*&345",
"16>78   7   $   16>78   90 9    16>78   7   $   16>78   90 9    ",
".X+  +  qq $$ wq.X+  +   e5$r ot.X+  +  qq $$ wq.X+  +   e5$r ot",
"yu<1-;   X    qqyu<1-;    o 9O$*yu<1-;   X    qqyu<1-;    o 9O$*",
"  -234+i * $$  X  -234+i9 p1Xu    -234+i * $$  X  -234+i9 p1Xu  ",
"  asd,<5   $   *  asd,<5$&   df   asd,<5   $   *  asd,<5$&   df ",
"    o   O o   + @X   .   .X         o   O o   + @X   .   .X     ",
"$%  $&  * =O -; 1*  2gh .@#$  +O$%  $&  * =O -; 1*  2gh .@#$  +O",
"$$   $% 2X$*&345 +j X k X#:> ,<1$$   $% 2X$*&345 +j X k X#:> ,<1",
"7   $   90 9    lih  fd&16>78   7   $   90 9    lih  fd&16>78   ",
"qq $$ wq e5$r otz*f-x   .X+  +  qq $$ wq e5$r otz*f-x   .X+  +  ",
" X    qq  o 9O$*o@XcgvbXyu<1-;   X    qq  o 9O$*o@XcgvbXyu<1-;  ",
" * $$  X9 p1Xu  nm1M9NOO  -234+i * $$  X9 p1Xu  nm1M9NOO  -234+i",
"   $   *$&   df    16>f&  asd,<5   $   *$&   df    16>f&  asd,<5",
"O o   + @X   .      o   @X   .  O o   + @X   .      o   @X   .  ",
"* =O -; 1*  2gh $%  $&  1*  2gh * =O -; 1*  2gh $%  $&  1*  2gh ",
"2X$*&345 +j X k $$   $%  +j X k 2X$*&345 +j X k $$   $%  +j X k ",
"90 9    lih  fd&7   $   lih  fd&90 9    lih  fd&7   $   lih  fd&",
" e5$r otz*f-x   qq $$ wqz*f-x    e5$r otz*f-x   qq $$ wqz*f-x   ",
"  o 9O$*o@XcgvbX X    qqo@XcgvbX  o 9O$*o@XcgvbX X    qqo@XcgvbX",
"9 p1Xu  nm1M9NOO * $$  Xnm1M9NOO9 p1Xu  nm1M9NOO * $$  Xnm1M9NOO",
"$&   df    16>f&   $   *   16>f&$&   df    16>f&   $   *   16>f&",
"    o   O o   +  .X     O oBBBBBBBBBBBVCO o   +  .X     O o   + ",
"$%  $&  * =O -; .@#$  +O* BBBBBBBBBBBBVC* =O -; .@#$  +O* =O -; ",
"$$   $% 2X$*&345X#:> ,<12X$*&345$$   VVVCX$*&345X#:> ,<12X$*&345",
"7   $   90 9    16>78   90 ZZC  7   $VVVC0 9    16>78   90 9    ",
"qq $$ wq e5$r ot.X+  +   ASSSSSSSSSSSSSSCe5$r ot.X+  +   e5$r ot",
" X    qq  o 9O$*yu<1-;  AAVVVVVVVVVVVVVSC o 9O$*yu<1-;    o 9O$*",
" * $$  X9 p1Xu    -234+AAAVAAVAAVVVVVVVSC p1Xu    -234+i9 p1Xu  ",
"   $   *$&   df   asd,AAAAVAAVAAVVVVVVVSC&   df   asd,<5$&   df ",
" .X         o    .X   DDDDDDDDDDDDDDDDDDC   o    .X     O o   + ",
".@#$  +O$%  $&  .@#$  VVVVVVVVVVVVVVVVVSC%  $&  .@#$  +O* =O -; ",
"X#:> ,<1$$   $% X#:> ,VVVVFFFVVVVVFFFVVSC$   $% X#:> ,<12X$*&345",
"16>78   7   $   16>78 SSSSFFFSSSSSFFFSSSC   $   16>78   90 9    ",
".X+  +  qq $$ wq.X+  +   eFFFCot.XFFFC  qq $$ wq.X+  +   e5$r ot",
"yu<1-;   X    qqyu<1-;    o 9O$*yu<1-;   X    qqyu<1-;    o 9O$*",
"  -234+i * $$  X  -234+i9 p1Xu    -234+i * $$  X  -234+i9 p1Xu  ",
"  asd,<5   $   *  asd,<5$&   df   asd,<5   $   *  asd,<5$&   df ",
"    o   O o   + @X   .   .X         o   O o   + @X   .   .X     ",
"$%  $&  * =O -; 1*  2gh .@#$  +O$%  $&  * =O -; 1*  2gh .@#$  +O",
"$$   $% 2X$*&345 +j X k X#:> ,<1$$   $% 2X$*&345 +j X k X#:> ,<1",
"7   $   90 9    lih  fd&16>78   7   $   90 9    lih  fd&16>78   ",
"qq $$ wq e5$r otz*f-x   .X+  +  qq $$ wq e5$r otz*f-x   .X+  +  ",
" X    qq  o 9O$*o@XcgvbXyu<1-;   X    qq  o 9O$*o@XcgvbXyu<1-;  ",
" * $$  X9 p1Xu  nm1M9NOO  -234+i * $$  X9 p1Xu  nm1M9NOO  -234+i",
"   $   *$&   df    16>f&  asd,<5   $   *$&   df    16>f&  asd,<5",
"O o   + @X   .      o   @X   .  O o   + @X   .      o   @X   .  ",
"* =O -; 1*  2gh $%  $&  1*  2gh * =O -; 1*  2gh $%  $&  1*  2gh ",
"2X$*&345 +j X k $$   $%  +j X k 2X$*&345 +j X k $$   $%  +j X k ",
"90 9    lih  fd&7   $   lih  fd&90 9    lih  fd&7   $   lih  fd&",
" e5$r otz*f-x   qq $$ wqz*f-x    e5$r otz*f-x   qq $$ wqz*f-x   ",
"  o 9O$*o@XcgvbX X    qqo@XcgvbX  o 9O$*o@XcgvbX X    qqo@XcgvbX",
"9 p1Xu  nm1M9NOO * $$  Xnm1M9NOO9 p1Xu  nm1M9NOO * $$  Xnm1M9NOO",
"$&   df    16>f&   $   *   16>f&$&   df    16>f&   $   *   16>f&",
"    o   O o   +  .X     O o   +     o   O o   +  .X     O o   + ",
"$%  $&  * =O -; .@#$  +O* =O -; $%  $&  * =O -; .@#$  +O* =O -; ",
"$$   $% 2X$*&345X#:> ,<12X$*&345$$   $% 2X$*&345X#:> ,<12X$*&345",
"7   $   90 9    16>78   90 9    7   $   90 9    16>78   90 9    ",
"qq $$ wq e5$r ot.X+  +   e5$r otqq $$ wq e5$r ot.X+  +   e5$r ot",
" X    qq  o 9O$*yu<1-;    o 9O$* X    qq  o 9O$*yu<1-;    o 9O$*",
" * $$  X9 p1Xu    -234+i9 p1Xu   * $$  X9 p1Xu    -234+i9 p1Xu  ",
"   $   *$&   df   asd,<5$&   df    $   *$&   df   asd,<5$&   df "
};
