/* XPM */
static char *result[] = {
/* columns rows colors chars-per-pixel */
"64 64 74 1 ",
"  c #020402",
". c #060905",
"X c #080C06",
"o c #0A0D09",
"O c #0E150B",
"+ c #0E190C",
"@ c #211201",
"# c #12240F",
"$ c #152515",
"% c #192513",
"& c #152B15",
"* c #1A2C15",
"= c #162519",
"- c #152B19",
"; c #1C2D1A",
": c #173016",
"> c #1D3116",
", c #1E321A",
"< c #1E381B",
"1 c #202D1B",
"2 c #213416",
"3 c #22351B",
"4 c #253A1D",
"5 c #293D1E",
"6 c #1F3522",
"7 c #2F2C2C",
"8 c #223521",
"9 c #263B22",
"0 c #2A3D22",
"q c #273F28",
"w c #2C3D29",
"e c #2C411E",
"r c #30441F",
"t c #337A1B",
"y c #274023",
"u c #2D4223",
"i c #2E4329",
"p c #2F492C",
"a c #314525",
"s c #354A26",
"d c #384E26",
"f c #32452A",
"g c #354B2B",
"h c #394E2C",
"j c #3C522D",
"k c #344730",
"l c #364B31",
"z c #394E32",
"x c #3C4F39",
"c c #3D5333",
"v c #3E5339",
"b c #3F583B",
"n c #40552F",
"m c #415634",
"M c #425935",
"N c #415639",
"B c #445B3B",
"V c #485E3D",
"C c #486237",
"Z c #47603B",
"A c #4A613D",
"S c #455C41",
"D c #4A5F41",
"F c #4C6443",
"G c #4F6845",
"H c #4D6248",
"J c #506546",
"K c #516847",
"L c #526948",
"P c #D60100",
"I c #CD4E4A",
"U c #F7D239",
"Y c #949194",
"T c #A2E1F4",
/* pixels */
"3,jchwVMhffwhVmMD4sja3nnd52hFs4gajaceddharmash5sa5hajcscmg,9g49C",
"fim0hhhVm00w0Bmhc4axzha5rahadc50ch,zdgpz4hahm5hjhhhaaha02af;<c3m",
"hfg3Jnhmmw5haBVz4fNgVVaaa3shhfi&fh&4hsjsuchmmhhmshhjma4uf>03&whm",
"cg5$0ah9w4w0w8N9ugii5cza4sj3&3u,pu99adjsaag5asajajmam4<9m34c92gh",
"a5hhz5mfl1;NDhBm35s>25s40sMMe&-:499u45g&f<gpuedg354ddc&<Chdg03aa",
"05hwwwkw613crahmj5cchsg22anh09&&b9&4sM54u<vy*jjy,*4ghu&<jmjjas5u",
"8;%m1w%==ivchfww54hcFmra;5a50gysu-a4naassha4&cg4&&4dsg39zzseg:,u",
";mgNMVf0SvwvDh4*350isVsh>;44fjmnhsMj0r5ajccghzp4fcchcic4F0gsje9u",
"whhw1fNk8=8xza4<<m52daiui130VAndc49ji0jnjsjhujc4:--pc,<cgS<gudzB",
"hmhw881wxDFB9zg<9cMFLAg0f45NM54a9fl<a4jngu4hMjg4yy6#Zh6Bggbefyf5",
"5hsgJHma=wF0BBjyfbMMMsa4iuhDarshcahghcgh44zcz9,-6uFyccvZFfccu:fi",
"mh;083x3khhFzZhuujmAM24i&ham0smh4jhhj9ejjef>,u9-4pplbhMcfBcFe5ce",
"1maw30583gcapFacgmnAFbw35Bueuscu<djg,6sjgdsafam34gu:gsBGjuibiyGF",
"hfhnz8384<yuFbcbBaddhugscFSg4aa4*ju5,4mjdsugu5gg4scedccMZcf59gZN",
"Smdnfz*0u&9fcVZFmaae0esjmFu*35aieduh994jdczysjjhauuFZMGZBju>0ugg",
"1mBBNN;3u335fuhCaj44&>asMgujmc435ujjcbmec9zg<us:<4e5cbsee>4ueagu",
"8$8f35w33;200asajh32aszmjju554&4ucjjjee4hugFBjs<&%544ghaaaggc5uj",
"w135ah4*3ihhdrgaMmcugmhFcu2>,Zzhdjchjcjsji;0bjce>,4>gjajjdhcjeuB",
"wccvza2%,043a4jjVBMBi*035uuf4gliAdgacZZ<fjafgmc2dmdajujhu5hMB5dZ",
"sa0*404302auhzhjgMAVegsauucze4ysyayscGVi,f<sggcr24CAgdVmc4BjKrcB",
"Zcui033huuN0djZjgFBjaedFZBVVffjcuhzbsFB&,640d5yC24MMmmVhAeFeBgch",
"BLFj003AdCf4ccbhBjciuauhcFFi9cuccAchjbp:<yebm>4cu5a0ummmGKAJAmsj",
"gcFN54aBMAb5shhiige4vsjcFMp#lz<HyZGAZMgs5fjcbe53425shBBBgjhhfsus",
"zz3gg45gjccasbcbigfNBugMchu:FiuzugGZ9biuuhj5BN55035gnca2*0u0a5aa",
"uzljZbz5fhZZeahbZZsgs5agma33b9h9M4MhuiF&snh30Fjc5244asmju38;jgfh",
"ZZFp5ZBshBBAayghBZAZa5sf0023uf0l,,ihhpShas0*cmmK0a0wcassgw$=0c3$",
"ZFZccFFVuFuGhabMgjej5hhmjau45;9--<sauZi4a530Vc0Fmk39aABmNclwwzgg",
"ZjbuFhcBucebugjVjds45da403,4,-w;pzgjssyuh5*hBa5Awa4gcuFmAVxl5400",
"Z6,avZcezghi4iu:jcm22IIIIII71;4-$*aa343131%5k2am0hh%DfwfhVFVxza0",
"i-&4<vfyu96uyad<<e@@%5ITTI7 UUUUUUUU73tttttttt700nw18S-wigejh55s",
"cey<uu4zu*:i<,cNe4@@@%ITTI7 %UUTTUU7 o1ttTTtt7 O0381z0,;imhjVJNs",
"cCy:hbccglf4ihAusIIIIIIIII7 +UUTTUU7 %2ttTTtt7 %;w0*zl=3cgMAhshM",
"MFMZFbcFVh0ipZFjsIIIIIIIII7 OUUUUUU7 fwtttttt7 80kk04a5aNFFAcxMZ",
"chZbcbFFuu8gizphwIPPIIIPPIYYUPPUUPPUYYtPPttPPt7fwmk50hwcMBsS39cf",
"pabe:4Sg<uuFpfcg5wPP7  PP7  .PP7 PP7 XoPP7 PP7.%wVa5g0ahNu444ccg",
"ZyZagZB9cAZbeujb3s2. .1w. .151 ..=  .0k%  .%. O20mshizs5Bsg5adeN",
"gFhbbiyu9uuh49gcw34wf0280u,9;w*#**-30mhmvm051*0w10acmhAa4:53BasV",
"gBcg6-<gy&:u,-z,g0m55h8&$,343lz3f0115wnmmhs329B9*5rmVmwB0ie5zBcB",
"ugMu<uu<gfgui9cFbsB4ig*,0zg42fmsVwfw30a1=%432Da59zmwB00B3404uhgz",
"55cbbi3gMub<yczybbf3gcgagz8;w1kHN9hja2hf=%1wm05nBmhsah440><su4ub",
"jsaZf&:Mjjju9hhvMe93u53gm3$kffD8k8xmnahm0555505M>3dmue9i*4,gzz,c",
"dgucbuihhjru0yyuya<&4,gBg1gN1wz=Dkzzzamhd5ms5rMnu44%*uuh03ufFVl,",
"cMepZdf5ujszu>5dscFBgxDx0nJ8=g9fVNxhs5nshnhVVMnnjasx42esg59cVzBl",
"MMH<g,fh5mchgb5igcp<44-1aV00zmsw;Bmmhmmrhhd055n0eu45jcj5ca3NVN45",
"b<hi-94iucMf>5<aFZZu3kzisszNVnja3fhhjdw5snhm0adrdj54--bgc5ugMcff",
"jy6i&pgeucBgafjcceaflw8wwf0N00c58=305a155annnsd5Mu0,-qgacc5fMMua",
"gu&6:zpchgucju9dhFVjcx8,=1m02Vz1==w;ah55Mmd05drndhi,-uuigahf,5uc",
"N&&<izgvgjech0izgsVBczBDhhDhhm8f8;k;hnnsm5anh0nnma5g:498,03<4FBF",
"h$,8<3&gNMeu>>uigNVN;#2ea0fm5f1fnkkwhndahhadadhndauhg>,-&9cMZZCG",
"4ufc43,3cVaiu4uffhccNhmc410Nw;;asMsmnnh5aha155s5c3anhc&&<hAcFbuM",
"4gjj58,;igcBc54hNBBmcg0cNziaw=1mkasaamha50312hm5hJnmBc0djndvyyuB",
"5ahej34,cchFFgugajhBFMi%-*3x%8mf10nN;0hh5shnss0hshhczf4fBB4&&uFc",
"h3a5n45sAc5MymZiuugjMMg1%1wJwwa00wMV%1hssns025*swNVz03ifpiFvgvg4",
"hh05cmsVgudbacfuhhBzsVVDN91sz4hn%1Vm15sms530%wmh45scmBVVf<<bbi:z",
"snhmVmMM5gMMbcMchhhV53faNSx2aNma37hmwhw0f350z*aflhzchhuNba,lbcgb",
"13Dh05VAFBGccsVcnnnmxcnkfHzwgDN0204z5ha5hnwnmza10u5zVNcfia<:6aBg",
"fiH$54ZZbFugeuzcnn0a18zmmah3guauaNNmhhamB10h1shnBMjcZufcec:9judF",
"c9l35vZcjs44jhzN55nn048fMjaam3==%=hzAmcv04n250ha0AbcFFBfge4c5caB",
"NNc,uuyjjcp8:ugca35sh0%4hhs5wkw8k3wDBBcg40932555,cMuuugNp4gfMcar",
"FB04<<4hghz&*gjfm134m3%1msaaaw43*smBwBcg59195500cc9,0FAajuwucbMj",
"V435efhhghh5huuum10hk%9fhmmw34NVmmBhhhhgh%=825nng8*;Accihf0phbsj",
"c90wccbjchgahjdjmahsasasnrBs80uahmhsa04sDw18hahn0*kFFcguigfu4Ffd",
"j8a3MjmmmVBgajhew0hMjh5*1fVVch5310isaaa0xz133050a030*0amccac5gjj",
"j:g2Nj4B4zcaa5ejhmhBshawamawcgua4c*0aBm4sxfdM0z%*w3%aads>ieabaue"
};
